M48
INCH,TZ
T1C0.0157
T2C0.0197
T3C0.0591
%
G90
G05
T1
X-9180Y2365
X-7510Y2250
X-7490Y3610
X-7150Y3340
X-6875Y2540
X-6295Y3610
X-6244Y4024
X-6240Y2720
X-5970Y6180
X-5820Y2500
X-5605Y5625
X-5275Y6010
X-5230Y6440
X-4990Y1910
X-4820Y6870
X-4665Y2200
X-4645Y5205
X-4410Y6450
X-4190Y2220
X-4060Y5620
X-3805Y-4690
X-3740Y2570
X-3380Y3950
X-3380Y4650
X-3050Y6430
X-2860Y5305
X-2470Y4895
X-2340Y-3330
X-2340Y-3975
X-2085Y5310
X-1200Y5335
X-1200Y4830
X-630Y5260
X-160Y-3355
X-125Y-3975
X85Y3700
X100Y5270
X255Y2920
X575Y2635
X590Y5230
X885Y2950
X1185Y5220
X1305Y2065
X1650Y2435
X1650Y1720
X1915Y-3330
X1935Y-3985
X2685Y3875
X2700Y3160
X3070Y3510
X3095Y1670
X3480Y1305
X3730Y2870
X3770Y-4695
T3
X-4803Y0
X-2303Y-1000
X2756Y0
X5256Y-1000
T2
G00X-1768Y7146
M15
G01X-1768Y7382
M16
G05
G00X-1626Y4803
M15
G01X-1626Y5039
M16
G05
G00X1626Y4803
M15
G01X1626Y5039
M16
G05
G00X1768Y7146
M15
G01X1768Y7382
M16
G05
T0
M30
