G04 #@! TF.GenerationSoftware,KiCad,Pcbnew,(5.1.10)-1*
G04 #@! TF.CreationDate,2021-08-08T15:57:29-07:00*
G04 #@! TF.ProjectId,twokey,74776f6b-6579-42e6-9b69-6361645f7063,rev?*
G04 #@! TF.SameCoordinates,Original*
G04 #@! TF.FileFunction,Paste,Top*
G04 #@! TF.FilePolarity,Positive*
%FSLAX46Y46*%
G04 Gerber Fmt 4.6, Leading zero omitted, Abs format (unit mm)*
G04 Created by KiCad (PCBNEW (5.1.10)-1) date 2021-08-08 15:57:29*
%MOMM*%
%LPD*%
G01*
G04 APERTURE LIST*
%ADD10R,0.800000X0.900000*%
%ADD11R,0.600000X0.800000*%
%ADD12R,0.400000X0.800000*%
%ADD13R,0.400000X1.000000*%
%ADD14R,0.952500X0.558800*%
%ADD15R,0.300000X1.750000*%
G04 APERTURE END LIST*
G36*
G01*
X1140000Y7160000D02*
X1460000Y7160000D01*
G75*
G02*
X1620000Y7000000I0J-160000D01*
G01*
X1620000Y6605000D01*
G75*
G02*
X1460000Y6445000I-160000J0D01*
G01*
X1140000Y6445000D01*
G75*
G02*
X980000Y6605000I0J160000D01*
G01*
X980000Y7000000D01*
G75*
G02*
X1140000Y7160000I160000J0D01*
G01*
G37*
G36*
G01*
X1140000Y8355000D02*
X1460000Y8355000D01*
G75*
G02*
X1620000Y8195000I0J-160000D01*
G01*
X1620000Y7800000D01*
G75*
G02*
X1460000Y7640000I-160000J0D01*
G01*
X1140000Y7640000D01*
G75*
G02*
X980000Y7800000I0J160000D01*
G01*
X980000Y8195000D01*
G75*
G02*
X1140000Y8355000I160000J0D01*
G01*
G37*
G36*
G01*
X-1347500Y9760000D02*
X-1347500Y9440000D01*
G75*
G02*
X-1507500Y9280000I-160000J0D01*
G01*
X-1902500Y9280000D01*
G75*
G02*
X-2062500Y9440000I0J160000D01*
G01*
X-2062500Y9760000D01*
G75*
G02*
X-1902500Y9920000I160000J0D01*
G01*
X-1507500Y9920000D01*
G75*
G02*
X-1347500Y9760000I0J-160000D01*
G01*
G37*
G36*
G01*
X-2542500Y9760000D02*
X-2542500Y9440000D01*
G75*
G02*
X-2702500Y9280000I-160000J0D01*
G01*
X-3097500Y9280000D01*
G75*
G02*
X-3257500Y9440000I0J160000D01*
G01*
X-3257500Y9760000D01*
G75*
G02*
X-3097500Y9920000I160000J0D01*
G01*
X-2702500Y9920000D01*
G75*
G02*
X-2542500Y9760000I0J-160000D01*
G01*
G37*
G36*
G01*
X-15143600Y11263300D02*
X-15143600Y11388300D01*
G75*
G02*
X-15081100Y11450800I62500J0D01*
G01*
X-14406100Y11450800D01*
G75*
G02*
X-14343600Y11388300I0J-62500D01*
G01*
X-14343600Y11263300D01*
G75*
G02*
X-14406100Y11200800I-62500J0D01*
G01*
X-15081100Y11200800D01*
G75*
G02*
X-15143600Y11263300I0J62500D01*
G01*
G37*
G36*
G01*
X-15143600Y10763300D02*
X-15143600Y10888300D01*
G75*
G02*
X-15081100Y10950800I62500J0D01*
G01*
X-14406100Y10950800D01*
G75*
G02*
X-14343600Y10888300I0J-62500D01*
G01*
X-14343600Y10763300D01*
G75*
G02*
X-14406100Y10700800I-62500J0D01*
G01*
X-15081100Y10700800D01*
G75*
G02*
X-15143600Y10763300I0J62500D01*
G01*
G37*
G36*
G01*
X-15143600Y10263300D02*
X-15143600Y10388300D01*
G75*
G02*
X-15081100Y10450800I62500J0D01*
G01*
X-14406100Y10450800D01*
G75*
G02*
X-14343600Y10388300I0J-62500D01*
G01*
X-14343600Y10263300D01*
G75*
G02*
X-14406100Y10200800I-62500J0D01*
G01*
X-15081100Y10200800D01*
G75*
G02*
X-15143600Y10263300I0J62500D01*
G01*
G37*
G36*
G01*
X-15143600Y9763300D02*
X-15143600Y9888300D01*
G75*
G02*
X-15081100Y9950800I62500J0D01*
G01*
X-14406100Y9950800D01*
G75*
G02*
X-14343600Y9888300I0J-62500D01*
G01*
X-14343600Y9763300D01*
G75*
G02*
X-14406100Y9700800I-62500J0D01*
G01*
X-15081100Y9700800D01*
G75*
G02*
X-15143600Y9763300I0J62500D01*
G01*
G37*
G36*
G01*
X-15143600Y9263300D02*
X-15143600Y9388300D01*
G75*
G02*
X-15081100Y9450800I62500J0D01*
G01*
X-14406100Y9450800D01*
G75*
G02*
X-14343600Y9388300I0J-62500D01*
G01*
X-14343600Y9263300D01*
G75*
G02*
X-14406100Y9200800I-62500J0D01*
G01*
X-15081100Y9200800D01*
G75*
G02*
X-15143600Y9263300I0J62500D01*
G01*
G37*
G36*
G01*
X-15143600Y8763300D02*
X-15143600Y8888300D01*
G75*
G02*
X-15081100Y8950800I62500J0D01*
G01*
X-14406100Y8950800D01*
G75*
G02*
X-14343600Y8888300I0J-62500D01*
G01*
X-14343600Y8763300D01*
G75*
G02*
X-14406100Y8700800I-62500J0D01*
G01*
X-15081100Y8700800D01*
G75*
G02*
X-15143600Y8763300I0J62500D01*
G01*
G37*
G36*
G01*
X-15143600Y8263300D02*
X-15143600Y8388300D01*
G75*
G02*
X-15081100Y8450800I62500J0D01*
G01*
X-14406100Y8450800D01*
G75*
G02*
X-14343600Y8388300I0J-62500D01*
G01*
X-14343600Y8263300D01*
G75*
G02*
X-14406100Y8200800I-62500J0D01*
G01*
X-15081100Y8200800D01*
G75*
G02*
X-15143600Y8263300I0J62500D01*
G01*
G37*
G36*
G01*
X-15143600Y7763300D02*
X-15143600Y7888300D01*
G75*
G02*
X-15081100Y7950800I62500J0D01*
G01*
X-14406100Y7950800D01*
G75*
G02*
X-14343600Y7888300I0J-62500D01*
G01*
X-14343600Y7763300D01*
G75*
G02*
X-14406100Y7700800I-62500J0D01*
G01*
X-15081100Y7700800D01*
G75*
G02*
X-15143600Y7763300I0J62500D01*
G01*
G37*
G36*
G01*
X-14168600Y6788300D02*
X-14168600Y7463300D01*
G75*
G02*
X-14106100Y7525800I62500J0D01*
G01*
X-13981100Y7525800D01*
G75*
G02*
X-13918600Y7463300I0J-62500D01*
G01*
X-13918600Y6788300D01*
G75*
G02*
X-13981100Y6725800I-62500J0D01*
G01*
X-14106100Y6725800D01*
G75*
G02*
X-14168600Y6788300I0J62500D01*
G01*
G37*
G36*
G01*
X-13668600Y6788300D02*
X-13668600Y7463300D01*
G75*
G02*
X-13606100Y7525800I62500J0D01*
G01*
X-13481100Y7525800D01*
G75*
G02*
X-13418600Y7463300I0J-62500D01*
G01*
X-13418600Y6788300D01*
G75*
G02*
X-13481100Y6725800I-62500J0D01*
G01*
X-13606100Y6725800D01*
G75*
G02*
X-13668600Y6788300I0J62500D01*
G01*
G37*
G36*
G01*
X-13168600Y6788300D02*
X-13168600Y7463300D01*
G75*
G02*
X-13106100Y7525800I62500J0D01*
G01*
X-12981100Y7525800D01*
G75*
G02*
X-12918600Y7463300I0J-62500D01*
G01*
X-12918600Y6788300D01*
G75*
G02*
X-12981100Y6725800I-62500J0D01*
G01*
X-13106100Y6725800D01*
G75*
G02*
X-13168600Y6788300I0J62500D01*
G01*
G37*
G36*
G01*
X-12668600Y6788300D02*
X-12668600Y7463300D01*
G75*
G02*
X-12606100Y7525800I62500J0D01*
G01*
X-12481100Y7525800D01*
G75*
G02*
X-12418600Y7463300I0J-62500D01*
G01*
X-12418600Y6788300D01*
G75*
G02*
X-12481100Y6725800I-62500J0D01*
G01*
X-12606100Y6725800D01*
G75*
G02*
X-12668600Y6788300I0J62500D01*
G01*
G37*
G36*
G01*
X-12168600Y6788300D02*
X-12168600Y7463300D01*
G75*
G02*
X-12106100Y7525800I62500J0D01*
G01*
X-11981100Y7525800D01*
G75*
G02*
X-11918600Y7463300I0J-62500D01*
G01*
X-11918600Y6788300D01*
G75*
G02*
X-11981100Y6725800I-62500J0D01*
G01*
X-12106100Y6725800D01*
G75*
G02*
X-12168600Y6788300I0J62500D01*
G01*
G37*
G36*
G01*
X-11668600Y6788300D02*
X-11668600Y7463300D01*
G75*
G02*
X-11606100Y7525800I62500J0D01*
G01*
X-11481100Y7525800D01*
G75*
G02*
X-11418600Y7463300I0J-62500D01*
G01*
X-11418600Y6788300D01*
G75*
G02*
X-11481100Y6725800I-62500J0D01*
G01*
X-11606100Y6725800D01*
G75*
G02*
X-11668600Y6788300I0J62500D01*
G01*
G37*
G36*
G01*
X-11168600Y6788300D02*
X-11168600Y7463300D01*
G75*
G02*
X-11106100Y7525800I62500J0D01*
G01*
X-10981100Y7525800D01*
G75*
G02*
X-10918600Y7463300I0J-62500D01*
G01*
X-10918600Y6788300D01*
G75*
G02*
X-10981100Y6725800I-62500J0D01*
G01*
X-11106100Y6725800D01*
G75*
G02*
X-11168600Y6788300I0J62500D01*
G01*
G37*
G36*
G01*
X-10668600Y6788300D02*
X-10668600Y7463300D01*
G75*
G02*
X-10606100Y7525800I62500J0D01*
G01*
X-10481100Y7525800D01*
G75*
G02*
X-10418600Y7463300I0J-62500D01*
G01*
X-10418600Y6788300D01*
G75*
G02*
X-10481100Y6725800I-62500J0D01*
G01*
X-10606100Y6725800D01*
G75*
G02*
X-10668600Y6788300I0J62500D01*
G01*
G37*
G36*
G01*
X-10243600Y7763300D02*
X-10243600Y7888300D01*
G75*
G02*
X-10181100Y7950800I62500J0D01*
G01*
X-9506100Y7950800D01*
G75*
G02*
X-9443600Y7888300I0J-62500D01*
G01*
X-9443600Y7763300D01*
G75*
G02*
X-9506100Y7700800I-62500J0D01*
G01*
X-10181100Y7700800D01*
G75*
G02*
X-10243600Y7763300I0J62500D01*
G01*
G37*
G36*
G01*
X-10243600Y8263300D02*
X-10243600Y8388300D01*
G75*
G02*
X-10181100Y8450800I62500J0D01*
G01*
X-9506100Y8450800D01*
G75*
G02*
X-9443600Y8388300I0J-62500D01*
G01*
X-9443600Y8263300D01*
G75*
G02*
X-9506100Y8200800I-62500J0D01*
G01*
X-10181100Y8200800D01*
G75*
G02*
X-10243600Y8263300I0J62500D01*
G01*
G37*
G36*
G01*
X-10243600Y8763300D02*
X-10243600Y8888300D01*
G75*
G02*
X-10181100Y8950800I62500J0D01*
G01*
X-9506100Y8950800D01*
G75*
G02*
X-9443600Y8888300I0J-62500D01*
G01*
X-9443600Y8763300D01*
G75*
G02*
X-9506100Y8700800I-62500J0D01*
G01*
X-10181100Y8700800D01*
G75*
G02*
X-10243600Y8763300I0J62500D01*
G01*
G37*
G36*
G01*
X-10243600Y9263300D02*
X-10243600Y9388300D01*
G75*
G02*
X-10181100Y9450800I62500J0D01*
G01*
X-9506100Y9450800D01*
G75*
G02*
X-9443600Y9388300I0J-62500D01*
G01*
X-9443600Y9263300D01*
G75*
G02*
X-9506100Y9200800I-62500J0D01*
G01*
X-10181100Y9200800D01*
G75*
G02*
X-10243600Y9263300I0J62500D01*
G01*
G37*
G36*
G01*
X-10243600Y9763300D02*
X-10243600Y9888300D01*
G75*
G02*
X-10181100Y9950800I62500J0D01*
G01*
X-9506100Y9950800D01*
G75*
G02*
X-9443600Y9888300I0J-62500D01*
G01*
X-9443600Y9763300D01*
G75*
G02*
X-9506100Y9700800I-62500J0D01*
G01*
X-10181100Y9700800D01*
G75*
G02*
X-10243600Y9763300I0J62500D01*
G01*
G37*
G36*
G01*
X-10243600Y10263300D02*
X-10243600Y10388300D01*
G75*
G02*
X-10181100Y10450800I62500J0D01*
G01*
X-9506100Y10450800D01*
G75*
G02*
X-9443600Y10388300I0J-62500D01*
G01*
X-9443600Y10263300D01*
G75*
G02*
X-9506100Y10200800I-62500J0D01*
G01*
X-10181100Y10200800D01*
G75*
G02*
X-10243600Y10263300I0J62500D01*
G01*
G37*
G36*
G01*
X-10243600Y10763300D02*
X-10243600Y10888300D01*
G75*
G02*
X-10181100Y10950800I62500J0D01*
G01*
X-9506100Y10950800D01*
G75*
G02*
X-9443600Y10888300I0J-62500D01*
G01*
X-9443600Y10763300D01*
G75*
G02*
X-9506100Y10700800I-62500J0D01*
G01*
X-10181100Y10700800D01*
G75*
G02*
X-10243600Y10763300I0J62500D01*
G01*
G37*
G36*
G01*
X-10243600Y11263300D02*
X-10243600Y11388300D01*
G75*
G02*
X-10181100Y11450800I62500J0D01*
G01*
X-9506100Y11450800D01*
G75*
G02*
X-9443600Y11388300I0J-62500D01*
G01*
X-9443600Y11263300D01*
G75*
G02*
X-9506100Y11200800I-62500J0D01*
G01*
X-10181100Y11200800D01*
G75*
G02*
X-10243600Y11263300I0J62500D01*
G01*
G37*
G36*
G01*
X-10668600Y11688300D02*
X-10668600Y12363300D01*
G75*
G02*
X-10606100Y12425800I62500J0D01*
G01*
X-10481100Y12425800D01*
G75*
G02*
X-10418600Y12363300I0J-62500D01*
G01*
X-10418600Y11688300D01*
G75*
G02*
X-10481100Y11625800I-62500J0D01*
G01*
X-10606100Y11625800D01*
G75*
G02*
X-10668600Y11688300I0J62500D01*
G01*
G37*
G36*
G01*
X-11168600Y11688300D02*
X-11168600Y12363300D01*
G75*
G02*
X-11106100Y12425800I62500J0D01*
G01*
X-10981100Y12425800D01*
G75*
G02*
X-10918600Y12363300I0J-62500D01*
G01*
X-10918600Y11688300D01*
G75*
G02*
X-10981100Y11625800I-62500J0D01*
G01*
X-11106100Y11625800D01*
G75*
G02*
X-11168600Y11688300I0J62500D01*
G01*
G37*
G36*
G01*
X-11668600Y11688300D02*
X-11668600Y12363300D01*
G75*
G02*
X-11606100Y12425800I62500J0D01*
G01*
X-11481100Y12425800D01*
G75*
G02*
X-11418600Y12363300I0J-62500D01*
G01*
X-11418600Y11688300D01*
G75*
G02*
X-11481100Y11625800I-62500J0D01*
G01*
X-11606100Y11625800D01*
G75*
G02*
X-11668600Y11688300I0J62500D01*
G01*
G37*
G36*
G01*
X-12168600Y11688300D02*
X-12168600Y12363300D01*
G75*
G02*
X-12106100Y12425800I62500J0D01*
G01*
X-11981100Y12425800D01*
G75*
G02*
X-11918600Y12363300I0J-62500D01*
G01*
X-11918600Y11688300D01*
G75*
G02*
X-11981100Y11625800I-62500J0D01*
G01*
X-12106100Y11625800D01*
G75*
G02*
X-12168600Y11688300I0J62500D01*
G01*
G37*
G36*
G01*
X-12668600Y11688300D02*
X-12668600Y12363300D01*
G75*
G02*
X-12606100Y12425800I62500J0D01*
G01*
X-12481100Y12425800D01*
G75*
G02*
X-12418600Y12363300I0J-62500D01*
G01*
X-12418600Y11688300D01*
G75*
G02*
X-12481100Y11625800I-62500J0D01*
G01*
X-12606100Y11625800D01*
G75*
G02*
X-12668600Y11688300I0J62500D01*
G01*
G37*
G36*
G01*
X-13168600Y11688300D02*
X-13168600Y12363300D01*
G75*
G02*
X-13106100Y12425800I62500J0D01*
G01*
X-12981100Y12425800D01*
G75*
G02*
X-12918600Y12363300I0J-62500D01*
G01*
X-12918600Y11688300D01*
G75*
G02*
X-12981100Y11625800I-62500J0D01*
G01*
X-13106100Y11625800D01*
G75*
G02*
X-13168600Y11688300I0J62500D01*
G01*
G37*
G36*
G01*
X-13668600Y11688300D02*
X-13668600Y12363300D01*
G75*
G02*
X-13606100Y12425800I62500J0D01*
G01*
X-13481100Y12425800D01*
G75*
G02*
X-13418600Y12363300I0J-62500D01*
G01*
X-13418600Y11688300D01*
G75*
G02*
X-13481100Y11625800I-62500J0D01*
G01*
X-13606100Y11625800D01*
G75*
G02*
X-13668600Y11688300I0J62500D01*
G01*
G37*
G36*
G01*
X-14168600Y11688300D02*
X-14168600Y12363300D01*
G75*
G02*
X-14106100Y12425800I62500J0D01*
G01*
X-13981100Y12425800D01*
G75*
G02*
X-13918600Y12363300I0J-62500D01*
G01*
X-13918600Y11688300D01*
G75*
G02*
X-13981100Y11625800I-62500J0D01*
G01*
X-14106100Y11625800D01*
G75*
G02*
X-14168600Y11688300I0J62500D01*
G01*
G37*
G36*
G01*
X-13978600Y10533300D02*
X-13978600Y11018300D01*
G75*
G02*
X-13736100Y11260800I242500J0D01*
G01*
X-13251100Y11260800D01*
G75*
G02*
X-13008600Y11018300I0J-242500D01*
G01*
X-13008600Y10533300D01*
G75*
G02*
X-13251100Y10290800I-242500J0D01*
G01*
X-13736100Y10290800D01*
G75*
G02*
X-13978600Y10533300I0J242500D01*
G01*
G37*
G36*
G01*
X-13978600Y9333300D02*
X-13978600Y9818300D01*
G75*
G02*
X-13736100Y10060800I242500J0D01*
G01*
X-13251100Y10060800D01*
G75*
G02*
X-13008600Y9818300I0J-242500D01*
G01*
X-13008600Y9333300D01*
G75*
G02*
X-13251100Y9090800I-242500J0D01*
G01*
X-13736100Y9090800D01*
G75*
G02*
X-13978600Y9333300I0J242500D01*
G01*
G37*
G36*
G01*
X-13978600Y8133300D02*
X-13978600Y8618300D01*
G75*
G02*
X-13736100Y8860800I242500J0D01*
G01*
X-13251100Y8860800D01*
G75*
G02*
X-13008600Y8618300I0J-242500D01*
G01*
X-13008600Y8133300D01*
G75*
G02*
X-13251100Y7890800I-242500J0D01*
G01*
X-13736100Y7890800D01*
G75*
G02*
X-13978600Y8133300I0J242500D01*
G01*
G37*
G36*
G01*
X-12778600Y10533300D02*
X-12778600Y11018300D01*
G75*
G02*
X-12536100Y11260800I242500J0D01*
G01*
X-12051100Y11260800D01*
G75*
G02*
X-11808600Y11018300I0J-242500D01*
G01*
X-11808600Y10533300D01*
G75*
G02*
X-12051100Y10290800I-242500J0D01*
G01*
X-12536100Y10290800D01*
G75*
G02*
X-12778600Y10533300I0J242500D01*
G01*
G37*
G36*
G01*
X-12778600Y9333300D02*
X-12778600Y9818300D01*
G75*
G02*
X-12536100Y10060800I242500J0D01*
G01*
X-12051100Y10060800D01*
G75*
G02*
X-11808600Y9818300I0J-242500D01*
G01*
X-11808600Y9333300D01*
G75*
G02*
X-12051100Y9090800I-242500J0D01*
G01*
X-12536100Y9090800D01*
G75*
G02*
X-12778600Y9333300I0J242500D01*
G01*
G37*
G36*
G01*
X-12778600Y8133300D02*
X-12778600Y8618300D01*
G75*
G02*
X-12536100Y8860800I242500J0D01*
G01*
X-12051100Y8860800D01*
G75*
G02*
X-11808600Y8618300I0J-242500D01*
G01*
X-11808600Y8133300D01*
G75*
G02*
X-12051100Y7890800I-242500J0D01*
G01*
X-12536100Y7890800D01*
G75*
G02*
X-12778600Y8133300I0J242500D01*
G01*
G37*
G36*
G01*
X-11578600Y10533300D02*
X-11578600Y11018300D01*
G75*
G02*
X-11336100Y11260800I242500J0D01*
G01*
X-10851100Y11260800D01*
G75*
G02*
X-10608600Y11018300I0J-242500D01*
G01*
X-10608600Y10533300D01*
G75*
G02*
X-10851100Y10290800I-242500J0D01*
G01*
X-11336100Y10290800D01*
G75*
G02*
X-11578600Y10533300I0J242500D01*
G01*
G37*
G36*
G01*
X-11578600Y9333300D02*
X-11578600Y9818300D01*
G75*
G02*
X-11336100Y10060800I242500J0D01*
G01*
X-10851100Y10060800D01*
G75*
G02*
X-10608600Y9818300I0J-242500D01*
G01*
X-10608600Y9333300D01*
G75*
G02*
X-10851100Y9090800I-242500J0D01*
G01*
X-11336100Y9090800D01*
G75*
G02*
X-11578600Y9333300I0J242500D01*
G01*
G37*
G36*
G01*
X-11578600Y8133300D02*
X-11578600Y8618300D01*
G75*
G02*
X-11336100Y8860800I242500J0D01*
G01*
X-10851100Y8860800D01*
G75*
G02*
X-10608600Y8618300I0J-242500D01*
G01*
X-10608600Y8133300D01*
G75*
G02*
X-10851100Y7890800I-242500J0D01*
G01*
X-11336100Y7890800D01*
G75*
G02*
X-11578600Y8133300I0J242500D01*
G01*
G37*
D10*
X4180800Y5283200D03*
X6080800Y5283200D03*
X5130800Y7283200D03*
D11*
X8650000Y-10900000D03*
D12*
X9550000Y-10900000D03*
D11*
X10450000Y-10900000D03*
X8650000Y-9300000D03*
D13*
X9550000Y-9400000D03*
D11*
X10450000Y-9300000D03*
X-8800000Y-9300000D03*
D13*
X-9700000Y-9400000D03*
D11*
X-10600000Y-9300000D03*
X-8800000Y-10900000D03*
D12*
X-9700000Y-10900000D03*
D11*
X-10600000Y-10900000D03*
D14*
X16818650Y16854200D03*
X16818650Y13145800D03*
X23181350Y13145800D03*
X23181350Y16854200D03*
G36*
G01*
X-12005300Y14234800D02*
X-12480300Y14234800D01*
G75*
G02*
X-12717800Y14472300I0J237500D01*
G01*
X-12717800Y15072300D01*
G75*
G02*
X-12480300Y15309800I237500J0D01*
G01*
X-12005300Y15309800D01*
G75*
G02*
X-11767800Y15072300I0J-237500D01*
G01*
X-11767800Y14472300D01*
G75*
G02*
X-12005300Y14234800I-237500J0D01*
G01*
G37*
G36*
G01*
X-12005300Y15959800D02*
X-12480300Y15959800D01*
G75*
G02*
X-12717800Y16197300I0J237500D01*
G01*
X-12717800Y16797300D01*
G75*
G02*
X-12480300Y17034800I237500J0D01*
G01*
X-12005300Y17034800D01*
G75*
G02*
X-11767800Y16797300I0J-237500D01*
G01*
X-11767800Y16197300D01*
G75*
G02*
X-12005300Y15959800I-237500J0D01*
G01*
G37*
G36*
G01*
X-12891300Y13566200D02*
X-12891300Y13256200D01*
G75*
G02*
X-13046300Y13101200I-155000J0D01*
G01*
X-13471300Y13101200D01*
G75*
G02*
X-13626300Y13256200I0J155000D01*
G01*
X-13626300Y13566200D01*
G75*
G02*
X-13471300Y13721200I155000J0D01*
G01*
X-13046300Y13721200D01*
G75*
G02*
X-12891300Y13566200I0J-155000D01*
G01*
G37*
G36*
G01*
X-14026300Y13566200D02*
X-14026300Y13256200D01*
G75*
G02*
X-14181300Y13101200I-155000J0D01*
G01*
X-14606300Y13101200D01*
G75*
G02*
X-14761300Y13256200I0J155000D01*
G01*
X-14761300Y13566200D01*
G75*
G02*
X-14606300Y13721200I155000J0D01*
G01*
X-14181300Y13721200D01*
G75*
G02*
X-14026300Y13566200I0J-155000D01*
G01*
G37*
G36*
G01*
X-13050100Y5458400D02*
X-13050100Y5768400D01*
G75*
G02*
X-12895100Y5923400I155000J0D01*
G01*
X-12470100Y5923400D01*
G75*
G02*
X-12315100Y5768400I0J-155000D01*
G01*
X-12315100Y5458400D01*
G75*
G02*
X-12470100Y5303400I-155000J0D01*
G01*
X-12895100Y5303400D01*
G75*
G02*
X-13050100Y5458400I0J155000D01*
G01*
G37*
G36*
G01*
X-14185100Y5458400D02*
X-14185100Y5768400D01*
G75*
G02*
X-14030100Y5923400I155000J0D01*
G01*
X-13605100Y5923400D01*
G75*
G02*
X-13450100Y5768400I0J-155000D01*
G01*
X-13450100Y5458400D01*
G75*
G02*
X-13605100Y5303400I-155000J0D01*
G01*
X-14030100Y5303400D01*
G75*
G02*
X-14185100Y5458400I0J155000D01*
G01*
G37*
G36*
G01*
X4542500Y8703300D02*
X4542500Y9178300D01*
G75*
G02*
X4780000Y9415800I237500J0D01*
G01*
X5380000Y9415800D01*
G75*
G02*
X5617500Y9178300I0J-237500D01*
G01*
X5617500Y8703300D01*
G75*
G02*
X5380000Y8465800I-237500J0D01*
G01*
X4780000Y8465800D01*
G75*
G02*
X4542500Y8703300I0J237500D01*
G01*
G37*
G36*
G01*
X6267500Y8703300D02*
X6267500Y9178300D01*
G75*
G02*
X6505000Y9415800I237500J0D01*
G01*
X7105000Y9415800D01*
G75*
G02*
X7342500Y9178300I0J-237500D01*
G01*
X7342500Y8703300D01*
G75*
G02*
X7105000Y8465800I-237500J0D01*
G01*
X6505000Y8465800D01*
G75*
G02*
X6267500Y8703300I0J237500D01*
G01*
G37*
G36*
G01*
X7310000Y3089900D02*
X7310000Y3564900D01*
G75*
G02*
X7547500Y3802400I237500J0D01*
G01*
X8147500Y3802400D01*
G75*
G02*
X8385000Y3564900I0J-237500D01*
G01*
X8385000Y3089900D01*
G75*
G02*
X8147500Y2852400I-237500J0D01*
G01*
X7547500Y2852400D01*
G75*
G02*
X7310000Y3089900I0J237500D01*
G01*
G37*
G36*
G01*
X5585000Y3089900D02*
X5585000Y3564900D01*
G75*
G02*
X5822500Y3802400I237500J0D01*
G01*
X6422500Y3802400D01*
G75*
G02*
X6660000Y3564900I0J-237500D01*
G01*
X6660000Y3089900D01*
G75*
G02*
X6422500Y2852400I-237500J0D01*
G01*
X5822500Y2852400D01*
G75*
G02*
X5585000Y3089900I0J237500D01*
G01*
G37*
D15*
X-250000Y12950000D03*
X-750000Y12950000D03*
X-1250000Y12950000D03*
X-1750000Y12950000D03*
X750000Y12950000D03*
X1750000Y12950000D03*
X1250000Y12950000D03*
X250000Y12950000D03*
X3350000Y12950000D03*
X3050000Y12950000D03*
X2550000Y12950000D03*
X2250000Y12950000D03*
X-2550000Y12950000D03*
X-2250000Y12950000D03*
X-3050000Y12950000D03*
X-3350000Y12950000D03*
M02*
