%TF.GenerationSoftware,KiCad,Pcbnew,(5.1.10)-1*%
%TF.CreationDate,2021-07-17T22:11:59-07:00*%
%TF.ProjectId,twokey,74776f6b-6579-42e6-9b69-6361645f7063,rev?*%
%TF.SameCoordinates,Original*%
%TF.FileFunction,Copper,L1,Top*%
%TF.FilePolarity,Positive*%
%FSLAX46Y46*%
G04 Gerber Fmt 4.6, Leading zero omitted, Abs format (unit mm)*
G04 Created by KiCad (PCBNEW (5.1.10)-1) date 2021-07-17 22:11:59*
%MOMM*%
%LPD*%
G01*
G04 APERTURE LIST*
%TA.AperFunction,ComponentPad*%
%ADD10C,2.200000*%
%TD*%
%TA.AperFunction,SMDPad,CuDef*%
%ADD11R,1.600000X0.550000*%
%TD*%
%TA.AperFunction,SMDPad,CuDef*%
%ADD12R,0.550000X1.600000*%
%TD*%
%TA.AperFunction,SMDPad,CuDef*%
%ADD13R,0.300000X0.700000*%
%TD*%
%TA.AperFunction,ComponentPad*%
%ADD14O,0.800000X1.600000*%
%TD*%
%TA.AperFunction,SMDPad,CuDef*%
%ADD15R,0.900000X0.800000*%
%TD*%
%TA.AperFunction,ViaPad*%
%ADD16C,0.800000*%
%TD*%
%TA.AperFunction,Conductor*%
%ADD17C,0.250000*%
%TD*%
%TA.AperFunction,Conductor*%
%ADD18C,0.508000*%
%TD*%
%TA.AperFunction,Conductor*%
%ADD19C,0.100000*%
%TD*%
G04 APERTURE END LIST*
D10*
%TO.P,SW1,1*%
%TO.N,GND*%
X134500000Y-112000000D03*
%TO.P,SW1,2*%
%TO.N,KEY1*%
X128150000Y-114540000D03*
%TD*%
D11*
%TO.P,U1,1*%
%TO.N,Net-(U1-Pad1)*%
X152078000Y-98812000D03*
%TO.P,U1,2*%
%TO.N,Net-(U1-Pad2)*%
X152078000Y-98012000D03*
%TO.P,U1,3*%
%TO.N,Net-(U1-Pad3)*%
X152078000Y-97212000D03*
%TO.P,U1,4*%
%TO.N,Net-(U1-Pad4)*%
X152078000Y-96412000D03*
%TO.P,U1,5*%
%TO.N,Net-(U1-Pad5)*%
X152078000Y-95612000D03*
%TO.P,U1,6*%
%TO.N,Net-(U1-Pad6)*%
X152078000Y-94812000D03*
%TO.P,U1,7*%
%TO.N,Net-(U1-Pad7)*%
X152078000Y-94012000D03*
%TO.P,U1,8*%
%TO.N,Net-(U1-Pad8)*%
X152078000Y-93212000D03*
D12*
%TO.P,U1,9*%
%TO.N,+3V3*%
X150628000Y-91762000D03*
%TO.P,U1,10*%
%TO.N,GND*%
X149828000Y-91762000D03*
%TO.P,U1,11*%
%TO.N,Net-(U1-Pad11)*%
X149028000Y-91762000D03*
%TO.P,U1,12*%
%TO.N,Net-(U1-Pad12)*%
X148228000Y-91762000D03*
%TO.P,U1,13*%
%TO.N,Net-(U1-Pad13)*%
X147428000Y-91762000D03*
%TO.P,U1,14*%
%TO.N,Net-(U1-Pad14)*%
X146628000Y-91762000D03*
%TO.P,U1,15*%
%TO.N,Net-(U1-Pad15)*%
X145828000Y-91762000D03*
%TO.P,U1,16*%
%TO.N,Net-(U1-Pad16)*%
X145028000Y-91762000D03*
D11*
%TO.P,U1,17*%
%TO.N,Net-(U1-Pad17)*%
X143578000Y-93212000D03*
%TO.P,U1,18*%
%TO.N,Net-(U1-Pad18)*%
X143578000Y-94012000D03*
%TO.P,U1,19*%
%TO.N,Net-(U1-Pad19)*%
X143578000Y-94812000D03*
%TO.P,U1,20*%
%TO.N,Net-(U1-Pad20)*%
X143578000Y-95612000D03*
%TO.P,U1,21*%
%TO.N,Net-(U1-Pad21)*%
X143578000Y-96412000D03*
%TO.P,U1,22*%
%TO.N,Net-(U1-Pad22)*%
X143578000Y-97212000D03*
%TO.P,U1,23*%
%TO.N,D-*%
X143578000Y-98012000D03*
%TO.P,U1,24*%
%TO.N,D+*%
X143578000Y-98812000D03*
D12*
%TO.P,U1,25*%
%TO.N,KEY1*%
X145028000Y-100262000D03*
%TO.P,U1,26*%
%TO.N,+3V3*%
X145828000Y-100262000D03*
%TO.P,U1,27*%
%TO.N,KEY2*%
X146628000Y-100262000D03*
%TO.P,U1,28*%
%TO.N,GND*%
X147428000Y-100262000D03*
%TO.P,U1,29*%
%TO.N,Net-(C1-Pad1)*%
X148228000Y-100262000D03*
%TO.P,U1,30*%
%TO.N,+3V3*%
X149028000Y-100262000D03*
%TO.P,U1,31*%
%TO.N,Net-(U1-Pad31)*%
X149828000Y-100262000D03*
%TO.P,U1,32*%
%TO.N,Net-(U1-Pad32)*%
X150628000Y-100262000D03*
%TD*%
%TO.P,C1,1*%
%TO.N,Net-(C1-Pad1)*%
%TA.AperFunction,SMDPad,CuDef*%
G36*
G01*
X148098500Y-102131500D02*
X148573500Y-102131500D01*
G75*
G02*
X148811000Y-102369000I0J-237500D01*
G01*
X148811000Y-102969000D01*
G75*
G02*
X148573500Y-103206500I-237500J0D01*
G01*
X148098500Y-103206500D01*
G75*
G02*
X147861000Y-102969000I0J237500D01*
G01*
X147861000Y-102369000D01*
G75*
G02*
X148098500Y-102131500I237500J0D01*
G01*
G37*
%TD.AperFunction*%
%TO.P,C1,2*%
%TO.N,GND*%
%TA.AperFunction,SMDPad,CuDef*%
G36*
G01*
X148098500Y-103856500D02*
X148573500Y-103856500D01*
G75*
G02*
X148811000Y-104094000I0J-237500D01*
G01*
X148811000Y-104694000D01*
G75*
G02*
X148573500Y-104931500I-237500J0D01*
G01*
X148098500Y-104931500D01*
G75*
G02*
X147861000Y-104694000I0J237500D01*
G01*
X147861000Y-104094000D01*
G75*
G02*
X148098500Y-103856500I237500J0D01*
G01*
G37*
%TD.AperFunction*%
%TD*%
%TO.P,C2,1*%
%TO.N,+3V3*%
%TA.AperFunction,SMDPad,CuDef*%
G36*
G01*
X149627500Y-102517000D02*
X149627500Y-102207000D01*
G75*
G02*
X149782500Y-102052000I155000J0D01*
G01*
X150207500Y-102052000D01*
G75*
G02*
X150362500Y-102207000I0J-155000D01*
G01*
X150362500Y-102517000D01*
G75*
G02*
X150207500Y-102672000I-155000J0D01*
G01*
X149782500Y-102672000D01*
G75*
G02*
X149627500Y-102517000I0J155000D01*
G01*
G37*
%TD.AperFunction*%
%TO.P,C2,2*%
%TO.N,GND*%
%TA.AperFunction,SMDPad,CuDef*%
G36*
G01*
X150762500Y-102517000D02*
X150762500Y-102207000D01*
G75*
G02*
X150917500Y-102052000I155000J0D01*
G01*
X151342500Y-102052000D01*
G75*
G02*
X151497500Y-102207000I0J-155000D01*
G01*
X151497500Y-102517000D01*
G75*
G02*
X151342500Y-102672000I-155000J0D01*
G01*
X150917500Y-102672000D01*
G75*
G02*
X150762500Y-102517000I0J155000D01*
G01*
G37*
%TD.AperFunction*%
%TD*%
%TO.P,C3,2*%
%TO.N,GND*%
%TA.AperFunction,SMDPad,CuDef*%
G36*
G01*
X151389500Y-89563000D02*
X151389500Y-89253000D01*
G75*
G02*
X151544500Y-89098000I155000J0D01*
G01*
X151969500Y-89098000D01*
G75*
G02*
X152124500Y-89253000I0J-155000D01*
G01*
X152124500Y-89563000D01*
G75*
G02*
X151969500Y-89718000I-155000J0D01*
G01*
X151544500Y-89718000D01*
G75*
G02*
X151389500Y-89563000I0J155000D01*
G01*
G37*
%TD.AperFunction*%
%TO.P,C3,1*%
%TO.N,+3V3*%
%TA.AperFunction,SMDPad,CuDef*%
G36*
G01*
X150254500Y-89563000D02*
X150254500Y-89253000D01*
G75*
G02*
X150409500Y-89098000I155000J0D01*
G01*
X150834500Y-89098000D01*
G75*
G02*
X150989500Y-89253000I0J-155000D01*
G01*
X150989500Y-89563000D01*
G75*
G02*
X150834500Y-89718000I-155000J0D01*
G01*
X150409500Y-89718000D01*
G75*
G02*
X150254500Y-89563000I0J155000D01*
G01*
G37*
%TD.AperFunction*%
%TD*%
%TO.P,C4,1*%
%TO.N,VBUS*%
%TA.AperFunction,SMDPad,CuDef*%
G36*
G01*
X135652500Y-92733500D02*
X136127500Y-92733500D01*
G75*
G02*
X136365000Y-92971000I0J-237500D01*
G01*
X136365000Y-93571000D01*
G75*
G02*
X136127500Y-93808500I-237500J0D01*
G01*
X135652500Y-93808500D01*
G75*
G02*
X135415000Y-93571000I0J237500D01*
G01*
X135415000Y-92971000D01*
G75*
G02*
X135652500Y-92733500I237500J0D01*
G01*
G37*
%TD.AperFunction*%
%TO.P,C4,2*%
%TO.N,GND*%
%TA.AperFunction,SMDPad,CuDef*%
G36*
G01*
X135652500Y-94458500D02*
X136127500Y-94458500D01*
G75*
G02*
X136365000Y-94696000I0J-237500D01*
G01*
X136365000Y-95296000D01*
G75*
G02*
X136127500Y-95533500I-237500J0D01*
G01*
X135652500Y-95533500D01*
G75*
G02*
X135415000Y-95296000I0J237500D01*
G01*
X135415000Y-94696000D01*
G75*
G02*
X135652500Y-94458500I237500J0D01*
G01*
G37*
%TD.AperFunction*%
%TD*%
%TO.P,C5,2*%
%TO.N,GND*%
%TA.AperFunction,SMDPad,CuDef*%
G36*
G01*
X139121000Y-89424500D02*
X139121000Y-89899500D01*
G75*
G02*
X138883500Y-90137000I-237500J0D01*
G01*
X138283500Y-90137000D01*
G75*
G02*
X138046000Y-89899500I0J237500D01*
G01*
X138046000Y-89424500D01*
G75*
G02*
X138283500Y-89187000I237500J0D01*
G01*
X138883500Y-89187000D01*
G75*
G02*
X139121000Y-89424500I0J-237500D01*
G01*
G37*
%TD.AperFunction*%
%TO.P,C5,1*%
%TO.N,+3V3*%
%TA.AperFunction,SMDPad,CuDef*%
G36*
G01*
X140846000Y-89424500D02*
X140846000Y-89899500D01*
G75*
G02*
X140608500Y-90137000I-237500J0D01*
G01*
X140008500Y-90137000D01*
G75*
G02*
X139771000Y-89899500I0J237500D01*
G01*
X139771000Y-89424500D01*
G75*
G02*
X140008500Y-89187000I237500J0D01*
G01*
X140608500Y-89187000D01*
G75*
G02*
X140846000Y-89424500I0J-237500D01*
G01*
G37*
%TD.AperFunction*%
%TD*%
D13*
%TO.P,J1,A1*%
%TO.N,GND*%
X129242000Y-97053000D03*
%TO.P,J1,A2*%
%TO.N,Net-(J1-PadA2)*%
X128742000Y-97053000D03*
%TO.P,J1,A3*%
%TO.N,Net-(J1-PadA3)*%
X128242000Y-97053000D03*
%TO.P,J1,A4*%
%TO.N,VBUS*%
X127742000Y-97053000D03*
%TO.P,J1,A5*%
%TO.N,Net-(J1-PadA5)*%
X127242000Y-97053000D03*
%TO.P,J1,A6*%
%TO.N,D+*%
X126742000Y-97053000D03*
%TO.P,J1,A7*%
%TO.N,D-*%
X126242000Y-97053000D03*
%TO.P,J1,A8*%
%TO.N,Net-(J1-PadA8)*%
X125742000Y-97053000D03*
%TO.P,J1,A9*%
%TO.N,VBUS*%
X125242000Y-97053000D03*
%TO.P,J1,A10*%
%TO.N,Net-(J1-PadA10)*%
X124742000Y-97053000D03*
%TO.P,J1,A11*%
%TO.N,Net-(J1-PadA11)*%
X124242000Y-97053000D03*
%TO.P,J1,A12*%
%TO.N,GND*%
X123742000Y-97053000D03*
%TO.P,J1,B1*%
X123992000Y-95353000D03*
%TO.P,J1,B2*%
%TO.N,Net-(J1-PadB2)*%
X124492000Y-95353000D03*
%TO.P,J1,B3*%
%TO.N,Net-(J1-PadB3)*%
X124992000Y-95353000D03*
%TO.P,J1,B4*%
%TO.N,VBUS*%
X125492000Y-95353000D03*
%TO.P,J1,B5*%
%TO.N,Net-(J1-PadB5)*%
X125992000Y-95353000D03*
%TO.P,J1,B6*%
%TO.N,D+*%
X126492000Y-95353000D03*
%TO.P,J1,B7*%
%TO.N,D-*%
X126992000Y-95353000D03*
%TO.P,J1,B8*%
%TO.N,Net-(J1-PadB8)*%
X127492000Y-95353000D03*
%TO.P,J1,B9*%
%TO.N,VBUS*%
X127992000Y-95353000D03*
%TO.P,J1,B10*%
%TO.N,Net-(J1-PadB10)*%
X128492000Y-95353000D03*
%TO.P,J1,B11*%
%TO.N,Net-(J1-PadB11)*%
X128992000Y-95353000D03*
%TO.P,J1,B12*%
%TO.N,GND*%
X129492000Y-95353000D03*
D14*
%TO.P,J1,S1*%
X130622000Y-95143000D03*
%TO.P,J1,S2*%
X122362000Y-95143000D03*
%TO.P,J1,S3*%
X122002000Y-89193000D03*
%TO.P,J1,S4*%
X130982000Y-89193000D03*
%TD*%
%TO.P,R1,2*%
%TO.N,GND*%
%TA.AperFunction,SMDPad,CuDef*%
G36*
G01*
X127348000Y-101459000D02*
X127668000Y-101459000D01*
G75*
G02*
X127828000Y-101619000I0J-160000D01*
G01*
X127828000Y-102014000D01*
G75*
G02*
X127668000Y-102174000I-160000J0D01*
G01*
X127348000Y-102174000D01*
G75*
G02*
X127188000Y-102014000I0J160000D01*
G01*
X127188000Y-101619000D01*
G75*
G02*
X127348000Y-101459000I160000J0D01*
G01*
G37*
%TD.AperFunction*%
%TO.P,R1,1*%
%TO.N,Net-(J1-PadA5)*%
%TA.AperFunction,SMDPad,CuDef*%
G36*
G01*
X127348000Y-100264000D02*
X127668000Y-100264000D01*
G75*
G02*
X127828000Y-100424000I0J-160000D01*
G01*
X127828000Y-100819000D01*
G75*
G02*
X127668000Y-100979000I-160000J0D01*
G01*
X127348000Y-100979000D01*
G75*
G02*
X127188000Y-100819000I0J160000D01*
G01*
X127188000Y-100424000D01*
G75*
G02*
X127348000Y-100264000I160000J0D01*
G01*
G37*
%TD.AperFunction*%
%TD*%
%TO.P,R2,1*%
%TO.N,Net-(J1-PadB5)*%
%TA.AperFunction,SMDPad,CuDef*%
G36*
G01*
X124554000Y-100353500D02*
X124874000Y-100353500D01*
G75*
G02*
X125034000Y-100513500I0J-160000D01*
G01*
X125034000Y-100908500D01*
G75*
G02*
X124874000Y-101068500I-160000J0D01*
G01*
X124554000Y-101068500D01*
G75*
G02*
X124394000Y-100908500I0J160000D01*
G01*
X124394000Y-100513500D01*
G75*
G02*
X124554000Y-100353500I160000J0D01*
G01*
G37*
%TD.AperFunction*%
%TO.P,R2,2*%
%TO.N,GND*%
%TA.AperFunction,SMDPad,CuDef*%
G36*
G01*
X124554000Y-101548500D02*
X124874000Y-101548500D01*
G75*
G02*
X125034000Y-101708500I0J-160000D01*
G01*
X125034000Y-102103500D01*
G75*
G02*
X124874000Y-102263500I-160000J0D01*
G01*
X124554000Y-102263500D01*
G75*
G02*
X124394000Y-102103500I0J160000D01*
G01*
X124394000Y-101708500D01*
G75*
G02*
X124554000Y-101548500I160000J0D01*
G01*
G37*
%TD.AperFunction*%
%TD*%
D15*
%TO.P,U2,1*%
%TO.N,GND*%
X140462000Y-94168000D03*
%TO.P,U2,2*%
%TO.N,+3V3*%
X140462000Y-92268000D03*
%TO.P,U2,3*%
%TO.N,VBUS*%
X138462000Y-93218000D03*
%TD*%
D10*
%TO.P,SW2,2*%
%TO.N,KEY2*%
X147150000Y-114540000D03*
%TO.P,SW2,1*%
%TO.N,GND*%
X153500000Y-112000000D03*
%TD*%
D16*
%TO.N,GND*%
X122682000Y-97409000D03*
X146558000Y-94742000D03*
X147447000Y-98806000D03*
X147320000Y-101727000D03*
X149479000Y-104394000D03*
X148209000Y-105664000D03*
X147193000Y-104394000D03*
X151130000Y-103378000D03*
X152146000Y-102362000D03*
X149733000Y-90297000D03*
X152781000Y-89408000D03*
X151765000Y-90424000D03*
X151765000Y-88392000D03*
X138557000Y-90805000D03*
X137414000Y-89662000D03*
X138557000Y-88519000D03*
X129413000Y-94361000D03*
X123952000Y-94361000D03*
X123698000Y-98044000D03*
X130048000Y-97409000D03*
X128524000Y-101727000D03*
X126619000Y-101727000D03*
X125730000Y-101854000D03*
X123825000Y-101854000D03*
X124714000Y-102870000D03*
X127508000Y-102743000D03*
X140462000Y-95250000D03*
X141605000Y-94107000D03*
X139319000Y-94234000D03*
X137033000Y-94996000D03*
X135890000Y-96139000D03*
X134747000Y-94996000D03*
X150241000Y-94996000D03*
X150241000Y-98298000D03*
X145288000Y-90043000D03*
X142748000Y-91059000D03*
%TO.N,D+*%
X126492000Y-94107000D03*
X126746000Y-98171000D03*
X132588000Y-99187000D03*
%TO.N,D-*%
X126746000Y-99441000D03*
X128524000Y-99441000D03*
%TO.N,Net-(J1-PadB5)*%
X124714000Y-99441000D03*
X125476000Y-93599000D03*
%TO.N,KEY1*%
X144653000Y-101727000D03*
%TO.N,KEY2*%
X145923000Y-101727000D03*
%TD*%
D17*
%TO.N,Net-(C1-Pad1)*%
X148228000Y-102561000D02*
X148336000Y-102669000D01*
D18*
X148228000Y-100262000D02*
X148228000Y-102561000D01*
D17*
%TO.N,+3V3*%
X150622000Y-91756000D02*
X150628000Y-91762000D01*
D18*
X150628000Y-93070000D02*
X149098000Y-94600000D01*
X150628000Y-91762000D02*
X150628000Y-93070000D01*
X149028000Y-99130000D02*
X149028000Y-100262000D01*
X149098000Y-99060000D02*
X149028000Y-99130000D01*
X145828000Y-100262000D02*
X145828000Y-98012000D01*
X145828000Y-98012000D02*
X146558000Y-97282000D01*
X146558000Y-97282000D02*
X149098000Y-97282000D01*
X149098000Y-97282000D02*
X149098000Y-99060000D01*
X149098000Y-94600000D02*
X149098000Y-97282000D01*
X150628000Y-89414000D02*
X150622000Y-89408000D01*
X150628000Y-91762000D02*
X150628000Y-89414000D01*
X140562500Y-89408000D02*
X140308500Y-89662000D01*
X140462000Y-89815500D02*
X140308500Y-89662000D01*
X140462000Y-92268000D02*
X140462000Y-89815500D01*
X149028000Y-101395000D02*
X149995000Y-102362000D01*
X149028000Y-100262000D02*
X149028000Y-101395000D01*
X140308500Y-89662000D02*
X140308500Y-89434500D01*
X140308500Y-89434500D02*
X140716000Y-89027000D01*
X150241000Y-89027000D02*
X150622000Y-89408000D01*
X140716000Y-89027000D02*
X150241000Y-89027000D01*
D17*
%TO.N,VBUS*%
X127742000Y-96467998D02*
X127742000Y-97053000D01*
X127992000Y-96217998D02*
X127742000Y-96467998D01*
X127992000Y-95353000D02*
X127992000Y-96217998D01*
X125242000Y-96467998D02*
X125242000Y-97053000D01*
X125492000Y-96217998D02*
X125242000Y-96467998D01*
X125492000Y-95353000D02*
X125492000Y-96217998D01*
X124750999Y-93250999D02*
X125127999Y-92873999D01*
X124750999Y-94075411D02*
X124750999Y-93250999D01*
X125492000Y-94816412D02*
X124750999Y-94075411D01*
X125492000Y-95353000D02*
X125492000Y-94816412D01*
X127992000Y-92886998D02*
X127979001Y-92873999D01*
X127992000Y-95353000D02*
X127992000Y-92886998D01*
X125127999Y-92873999D02*
X127979001Y-92873999D01*
X135873999Y-93254999D02*
X135890000Y-93271000D01*
X138409000Y-93271000D02*
X138462000Y-93218000D01*
X135890000Y-93271000D02*
X138409000Y-93271000D01*
X135492999Y-92873999D02*
X135890000Y-93271000D01*
X127979001Y-92873999D02*
X135492999Y-92873999D01*
%TO.N,Net-(J1-PadA5)*%
X127242000Y-97638002D02*
X127508000Y-97904002D01*
X127242000Y-97053000D02*
X127242000Y-97638002D01*
X127508000Y-97904002D02*
X127508000Y-99187000D01*
X127508000Y-99187000D02*
X127508000Y-100621500D01*
%TO.N,D+*%
X126746000Y-97057000D02*
X126742000Y-97053000D01*
X126746000Y-98171000D02*
X126746000Y-97057000D01*
X126492000Y-94615000D02*
X126492000Y-95353000D01*
X126492000Y-94107000D02*
X126492000Y-94615000D01*
X142377999Y-98812000D02*
X143578000Y-98812000D01*
X142227999Y-98662000D02*
X142377999Y-98812000D01*
X140051000Y-98662000D02*
X142227999Y-98662000D01*
X139984243Y-98669521D02*
X140051000Y-98662000D01*
X139920834Y-98691709D02*
X139984243Y-98669521D01*
X139863953Y-98727450D02*
X139920834Y-98691709D01*
X138616450Y-98774953D02*
X138663953Y-98727450D01*
X138580709Y-98831834D02*
X138616450Y-98774953D01*
X138551000Y-98962000D02*
X138558521Y-98895243D01*
X138551000Y-99296155D02*
X138551000Y-98962000D01*
X138485549Y-99483201D02*
X138521290Y-99426320D01*
X138438046Y-99530704D02*
X138485549Y-99483201D01*
X138381165Y-99566445D02*
X138438046Y-99530704D01*
X139121290Y-98831834D02*
X139143478Y-98895243D01*
X138251000Y-99596155D02*
X138317756Y-99588633D01*
X138184243Y-99588633D02*
X138251000Y-99596155D01*
X138120834Y-99566445D02*
X138184243Y-99588633D01*
X138016450Y-99483201D02*
X138063953Y-99530704D01*
X138317756Y-99588633D02*
X138381165Y-99566445D01*
X138981165Y-98691709D02*
X139038046Y-98727450D01*
X132588000Y-99187000D02*
X133113000Y-98662000D01*
X138063953Y-99530704D02*
X138120834Y-99566445D01*
X133113000Y-98662000D02*
X137651000Y-98662000D01*
X137651000Y-98662000D02*
X137717756Y-98669521D01*
X138543478Y-99362911D02*
X138551000Y-99296155D01*
X137717756Y-98669521D02*
X137781165Y-98691709D01*
X137781165Y-98691709D02*
X137838046Y-98727450D01*
X137838046Y-98727450D02*
X137885549Y-98774953D01*
X139581165Y-99566445D02*
X139638046Y-99530704D01*
X137921290Y-98831834D02*
X137943478Y-98895243D01*
X137958521Y-99362911D02*
X137980709Y-99426320D01*
X137980709Y-99426320D02*
X138016450Y-99483201D01*
X138521290Y-99426320D02*
X138543478Y-99362911D01*
X137885549Y-98774953D02*
X137921290Y-98831834D01*
X137943478Y-98895243D02*
X137951000Y-98962000D01*
X138558521Y-98895243D02*
X138580709Y-98831834D01*
X137951000Y-98962000D02*
X137951000Y-99296155D01*
X137951000Y-99296155D02*
X137958521Y-99362911D01*
X138663953Y-98727450D02*
X138720834Y-98691709D01*
X138720834Y-98691709D02*
X138784243Y-98669521D01*
X138784243Y-98669521D02*
X138851000Y-98662000D01*
X138851000Y-98662000D02*
X138917756Y-98669521D01*
X138917756Y-98669521D02*
X138981165Y-98691709D01*
X139038046Y-98727450D02*
X139085549Y-98774953D01*
X139085549Y-98774953D02*
X139121290Y-98831834D01*
X139143478Y-98895243D02*
X139151000Y-98962000D01*
X139151000Y-98962000D02*
X139151000Y-99296155D01*
X139685549Y-99483201D02*
X139721290Y-99426320D01*
X139151000Y-99296155D02*
X139158521Y-99362911D01*
X139816450Y-98774953D02*
X139863953Y-98727450D01*
X139158521Y-99362911D02*
X139180709Y-99426320D01*
X139721290Y-99426320D02*
X139743478Y-99362911D01*
X139180709Y-99426320D02*
X139216450Y-99483201D01*
X139216450Y-99483201D02*
X139263953Y-99530704D01*
X139263953Y-99530704D02*
X139320834Y-99566445D01*
X139638046Y-99530704D02*
X139685549Y-99483201D01*
X139320834Y-99566445D02*
X139384243Y-99588633D01*
X139751000Y-98962000D02*
X139758521Y-98895243D01*
X139384243Y-99588633D02*
X139451000Y-99596155D01*
X139517756Y-99588633D02*
X139581165Y-99566445D01*
X139451000Y-99596155D02*
X139517756Y-99588633D01*
X139743478Y-99362911D02*
X139751000Y-99296155D01*
X139751000Y-99296155D02*
X139751000Y-98962000D01*
X139758521Y-98895243D02*
X139780709Y-98831834D01*
X139780709Y-98831834D02*
X139816450Y-98774953D01*
%TO.N,D-*%
X126992000Y-95953000D02*
X126679000Y-96266000D01*
X126992000Y-95353000D02*
X126992000Y-95953000D01*
X126242000Y-96467998D02*
X126242000Y-97053000D01*
X126443998Y-96266000D02*
X126242000Y-96467998D01*
X126679000Y-96266000D02*
X126443998Y-96266000D01*
X126242000Y-97638002D02*
X125984000Y-97896002D01*
X126242000Y-97053000D02*
X126242000Y-97638002D01*
X125984000Y-97896002D02*
X125984000Y-98482002D01*
X125984000Y-98679000D02*
X126746000Y-99441000D01*
X125984000Y-98482002D02*
X125984000Y-98679000D01*
X130302000Y-99441000D02*
X128524000Y-99441000D01*
X131572000Y-98171000D02*
X130302000Y-99441000D01*
X131690000Y-98162000D02*
X131572000Y-98171000D01*
X142227999Y-98162000D02*
X131690000Y-98162000D01*
X142377999Y-98012000D02*
X142227999Y-98162000D01*
X143578000Y-98012000D02*
X142377999Y-98012000D01*
%TO.N,Net-(J1-PadB5)*%
X124714000Y-99441000D02*
X124714000Y-100711000D01*
X125992000Y-94680002D02*
X125992000Y-95353000D01*
X125476000Y-94164002D02*
X125992000Y-94680002D01*
X125476000Y-93599000D02*
X125476000Y-94164002D01*
%TO.N,KEY1*%
X145028000Y-101352000D02*
X144653000Y-101727000D01*
X145028000Y-100262000D02*
X145028000Y-101352000D01*
%TO.N,KEY2*%
X146628000Y-101022000D02*
X145923000Y-101727000D01*
X146628000Y-100262000D02*
X146628000Y-101022000D01*
%TD*%
D19*
%TO.N,GND*%
X167311000Y-88916153D02*
X167311001Y-88916163D01*
X167311000Y-127306000D01*
X115899000Y-127306000D01*
X115899000Y-116966341D01*
X125726000Y-116966341D01*
X125726000Y-117193659D01*
X125770347Y-117416609D01*
X125857338Y-117626624D01*
X125983629Y-117815632D01*
X126144368Y-117976371D01*
X126333376Y-118102662D01*
X126543391Y-118189653D01*
X126766341Y-118234000D01*
X126993659Y-118234000D01*
X127216609Y-118189653D01*
X127426624Y-118102662D01*
X127615632Y-117976371D01*
X127776371Y-117815632D01*
X127902662Y-117626624D01*
X127989653Y-117416609D01*
X128034000Y-117193659D01*
X128034000Y-116966341D01*
X128011471Y-116853076D01*
X129656000Y-116853076D01*
X129656000Y-117306924D01*
X129744541Y-117752052D01*
X129918222Y-118171353D01*
X130170366Y-118548714D01*
X130491286Y-118869634D01*
X130868647Y-119121778D01*
X131287948Y-119295459D01*
X131733076Y-119384000D01*
X132186924Y-119384000D01*
X132632052Y-119295459D01*
X133051353Y-119121778D01*
X133428714Y-118869634D01*
X133749634Y-118548714D01*
X134001778Y-118171353D01*
X134175459Y-117752052D01*
X134264000Y-117306924D01*
X134264000Y-116966341D01*
X135886000Y-116966341D01*
X135886000Y-117193659D01*
X135930347Y-117416609D01*
X136017338Y-117626624D01*
X136143629Y-117815632D01*
X136304368Y-117976371D01*
X136493376Y-118102662D01*
X136703391Y-118189653D01*
X136926341Y-118234000D01*
X137153659Y-118234000D01*
X137376609Y-118189653D01*
X137586624Y-118102662D01*
X137775632Y-117976371D01*
X137936371Y-117815632D01*
X138062662Y-117626624D01*
X138149653Y-117416609D01*
X138194000Y-117193659D01*
X138194000Y-116966341D01*
X144726000Y-116966341D01*
X144726000Y-117193659D01*
X144770347Y-117416609D01*
X144857338Y-117626624D01*
X144983629Y-117815632D01*
X145144368Y-117976371D01*
X145333376Y-118102662D01*
X145543391Y-118189653D01*
X145766341Y-118234000D01*
X145993659Y-118234000D01*
X146216609Y-118189653D01*
X146426624Y-118102662D01*
X146615632Y-117976371D01*
X146776371Y-117815632D01*
X146902662Y-117626624D01*
X146989653Y-117416609D01*
X147034000Y-117193659D01*
X147034000Y-116966341D01*
X147011471Y-116853076D01*
X148656000Y-116853076D01*
X148656000Y-117306924D01*
X148744541Y-117752052D01*
X148918222Y-118171353D01*
X149170366Y-118548714D01*
X149491286Y-118869634D01*
X149868647Y-119121778D01*
X150287948Y-119295459D01*
X150733076Y-119384000D01*
X151186924Y-119384000D01*
X151632052Y-119295459D01*
X152051353Y-119121778D01*
X152428714Y-118869634D01*
X152749634Y-118548714D01*
X153001778Y-118171353D01*
X153175459Y-117752052D01*
X153264000Y-117306924D01*
X153264000Y-116966341D01*
X154886000Y-116966341D01*
X154886000Y-117193659D01*
X154930347Y-117416609D01*
X155017338Y-117626624D01*
X155143629Y-117815632D01*
X155304368Y-117976371D01*
X155493376Y-118102662D01*
X155703391Y-118189653D01*
X155926341Y-118234000D01*
X156153659Y-118234000D01*
X156376609Y-118189653D01*
X156586624Y-118102662D01*
X156775632Y-117976371D01*
X156936371Y-117815632D01*
X157062662Y-117626624D01*
X157149653Y-117416609D01*
X157194000Y-117193659D01*
X157194000Y-116966341D01*
X157149653Y-116743391D01*
X157062662Y-116533376D01*
X156936371Y-116344368D01*
X156775632Y-116183629D01*
X156586624Y-116057338D01*
X156376609Y-115970347D01*
X156153659Y-115926000D01*
X155926341Y-115926000D01*
X155703391Y-115970347D01*
X155493376Y-116057338D01*
X155304368Y-116183629D01*
X155143629Y-116344368D01*
X155017338Y-116533376D01*
X154930347Y-116743391D01*
X154886000Y-116966341D01*
X153264000Y-116966341D01*
X153264000Y-116853076D01*
X153175459Y-116407948D01*
X153001778Y-115988647D01*
X152749634Y-115611286D01*
X152428714Y-115290366D01*
X152051353Y-115038222D01*
X151632052Y-114864541D01*
X151186924Y-114776000D01*
X150733076Y-114776000D01*
X150287948Y-114864541D01*
X149868647Y-115038222D01*
X149491286Y-115290366D01*
X149170366Y-115611286D01*
X148918222Y-115988647D01*
X148744541Y-116407948D01*
X148656000Y-116853076D01*
X147011471Y-116853076D01*
X146989653Y-116743391D01*
X146902662Y-116533376D01*
X146776371Y-116344368D01*
X146615632Y-116183629D01*
X146426624Y-116057338D01*
X146216609Y-115970347D01*
X145993659Y-115926000D01*
X145766341Y-115926000D01*
X145543391Y-115970347D01*
X145333376Y-116057338D01*
X145144368Y-116183629D01*
X144983629Y-116344368D01*
X144857338Y-116533376D01*
X144770347Y-116743391D01*
X144726000Y-116966341D01*
X138194000Y-116966341D01*
X138149653Y-116743391D01*
X138062662Y-116533376D01*
X137936371Y-116344368D01*
X137775632Y-116183629D01*
X137586624Y-116057338D01*
X137376609Y-115970347D01*
X137153659Y-115926000D01*
X136926341Y-115926000D01*
X136703391Y-115970347D01*
X136493376Y-116057338D01*
X136304368Y-116183629D01*
X136143629Y-116344368D01*
X136017338Y-116533376D01*
X135930347Y-116743391D01*
X135886000Y-116966341D01*
X134264000Y-116966341D01*
X134264000Y-116853076D01*
X134175459Y-116407948D01*
X134001778Y-115988647D01*
X133749634Y-115611286D01*
X133428714Y-115290366D01*
X133051353Y-115038222D01*
X132632052Y-114864541D01*
X132186924Y-114776000D01*
X131733076Y-114776000D01*
X131287948Y-114864541D01*
X130868647Y-115038222D01*
X130491286Y-115290366D01*
X130170366Y-115611286D01*
X129918222Y-115988647D01*
X129744541Y-116407948D01*
X129656000Y-116853076D01*
X128011471Y-116853076D01*
X127989653Y-116743391D01*
X127902662Y-116533376D01*
X127776371Y-116344368D01*
X127615632Y-116183629D01*
X127426624Y-116057338D01*
X127216609Y-115970347D01*
X126993659Y-115926000D01*
X126766341Y-115926000D01*
X126543391Y-115970347D01*
X126333376Y-116057338D01*
X126144368Y-116183629D01*
X125983629Y-116344368D01*
X125857338Y-116533376D01*
X125770347Y-116743391D01*
X125726000Y-116966341D01*
X115899000Y-116966341D01*
X115899000Y-114401718D01*
X126746000Y-114401718D01*
X126746000Y-114678282D01*
X126799955Y-114949532D01*
X126905792Y-115205043D01*
X127059442Y-115434998D01*
X127255002Y-115630558D01*
X127484957Y-115784208D01*
X127740468Y-115890045D01*
X128011718Y-115944000D01*
X128288282Y-115944000D01*
X128559532Y-115890045D01*
X128815043Y-115784208D01*
X129044998Y-115630558D01*
X129240558Y-115434998D01*
X129394208Y-115205043D01*
X129500045Y-114949532D01*
X129554000Y-114678282D01*
X129554000Y-114401718D01*
X145746000Y-114401718D01*
X145746000Y-114678282D01*
X145799955Y-114949532D01*
X145905792Y-115205043D01*
X146059442Y-115434998D01*
X146255002Y-115630558D01*
X146484957Y-115784208D01*
X146740468Y-115890045D01*
X147011718Y-115944000D01*
X147288282Y-115944000D01*
X147559532Y-115890045D01*
X147815043Y-115784208D01*
X148044998Y-115630558D01*
X148240558Y-115434998D01*
X148394208Y-115205043D01*
X148500045Y-114949532D01*
X148554000Y-114678282D01*
X148554000Y-114401718D01*
X148500045Y-114130468D01*
X148394208Y-113874957D01*
X148240558Y-113645002D01*
X148044998Y-113449442D01*
X147815043Y-113295792D01*
X147559532Y-113189955D01*
X147288282Y-113136000D01*
X147011718Y-113136000D01*
X146740468Y-113189955D01*
X146484957Y-113295792D01*
X146255002Y-113449442D01*
X146059442Y-113645002D01*
X145905792Y-113874957D01*
X145799955Y-114130468D01*
X145746000Y-114401718D01*
X129554000Y-114401718D01*
X129500045Y-114130468D01*
X129394208Y-113874957D01*
X129240558Y-113645002D01*
X129044998Y-113449442D01*
X128815043Y-113295792D01*
X128559532Y-113189955D01*
X128288282Y-113136000D01*
X128011718Y-113136000D01*
X127740468Y-113189955D01*
X127484957Y-113295792D01*
X127255002Y-113449442D01*
X127059442Y-113645002D01*
X126905792Y-113874957D01*
X126799955Y-114130468D01*
X126746000Y-114401718D01*
X115899000Y-114401718D01*
X115899000Y-112996717D01*
X133612178Y-112996717D01*
X133734288Y-113184914D01*
X133980166Y-113311529D01*
X134246021Y-113387742D01*
X134521637Y-113410626D01*
X134796421Y-113379301D01*
X135059813Y-113294969D01*
X135265712Y-113184914D01*
X135387822Y-112996717D01*
X152612178Y-112996717D01*
X152734288Y-113184914D01*
X152980166Y-113311529D01*
X153246021Y-113387742D01*
X153521637Y-113410626D01*
X153796421Y-113379301D01*
X154059813Y-113294969D01*
X154265712Y-113184914D01*
X154387822Y-112996717D01*
X153500000Y-112108894D01*
X152612178Y-112996717D01*
X135387822Y-112996717D01*
X134500000Y-112108894D01*
X133612178Y-112996717D01*
X115899000Y-112996717D01*
X115899000Y-112021637D01*
X133089374Y-112021637D01*
X133120699Y-112296421D01*
X133205031Y-112559813D01*
X133315086Y-112765712D01*
X133503283Y-112887822D01*
X134391106Y-112000000D01*
X134608894Y-112000000D01*
X135496717Y-112887822D01*
X135684914Y-112765712D01*
X135811529Y-112519834D01*
X135887742Y-112253979D01*
X135907033Y-112021637D01*
X152089374Y-112021637D01*
X152120699Y-112296421D01*
X152205031Y-112559813D01*
X152315086Y-112765712D01*
X152503283Y-112887822D01*
X153391106Y-112000000D01*
X153608894Y-112000000D01*
X154496717Y-112887822D01*
X154684914Y-112765712D01*
X154811529Y-112519834D01*
X154887742Y-112253979D01*
X154910626Y-111978363D01*
X154879301Y-111703579D01*
X154794969Y-111440187D01*
X154684914Y-111234288D01*
X154496717Y-111112178D01*
X153608894Y-112000000D01*
X153391106Y-112000000D01*
X152503283Y-111112178D01*
X152315086Y-111234288D01*
X152188471Y-111480166D01*
X152112258Y-111746021D01*
X152089374Y-112021637D01*
X135907033Y-112021637D01*
X135910626Y-111978363D01*
X135879301Y-111703579D01*
X135794969Y-111440187D01*
X135684914Y-111234288D01*
X135496717Y-111112178D01*
X134608894Y-112000000D01*
X134391106Y-112000000D01*
X133503283Y-111112178D01*
X133315086Y-111234288D01*
X133188471Y-111480166D01*
X133112258Y-111746021D01*
X133089374Y-112021637D01*
X115899000Y-112021637D01*
X115899000Y-111003283D01*
X133612178Y-111003283D01*
X134500000Y-111891106D01*
X135387822Y-111003283D01*
X152612178Y-111003283D01*
X153500000Y-111891106D01*
X154387822Y-111003283D01*
X154265712Y-110815086D01*
X154019834Y-110688471D01*
X153753979Y-110612258D01*
X153478363Y-110589374D01*
X153203579Y-110620699D01*
X152940187Y-110705031D01*
X152734288Y-110815086D01*
X152612178Y-111003283D01*
X135387822Y-111003283D01*
X135265712Y-110815086D01*
X135019834Y-110688471D01*
X134753979Y-110612258D01*
X134478363Y-110589374D01*
X134203579Y-110620699D01*
X133940187Y-110705031D01*
X133734288Y-110815086D01*
X133612178Y-111003283D01*
X115899000Y-111003283D01*
X115899000Y-104931500D01*
X147555529Y-104931500D01*
X147561399Y-104991094D01*
X147578782Y-105048399D01*
X147607010Y-105101211D01*
X147644999Y-105147501D01*
X147691289Y-105185490D01*
X147744101Y-105213718D01*
X147801406Y-105231101D01*
X147861000Y-105236971D01*
X148183000Y-105235500D01*
X148259000Y-105159500D01*
X148259000Y-104471000D01*
X148413000Y-104471000D01*
X148413000Y-105159500D01*
X148489000Y-105235500D01*
X148811000Y-105236971D01*
X148870594Y-105231101D01*
X148927899Y-105213718D01*
X148980711Y-105185490D01*
X149027001Y-105147501D01*
X149064990Y-105101211D01*
X149093218Y-105048399D01*
X149110601Y-104991094D01*
X149116471Y-104931500D01*
X149115000Y-104547000D01*
X149039000Y-104471000D01*
X148413000Y-104471000D01*
X148259000Y-104471000D01*
X147633000Y-104471000D01*
X147557000Y-104547000D01*
X147555529Y-104931500D01*
X115899000Y-104931500D01*
X115899000Y-103856500D01*
X147555529Y-103856500D01*
X147557000Y-104241000D01*
X147633000Y-104317000D01*
X148259000Y-104317000D01*
X148259000Y-103628500D01*
X148413000Y-103628500D01*
X148413000Y-104317000D01*
X149039000Y-104317000D01*
X149115000Y-104241000D01*
X149116471Y-103856500D01*
X149110601Y-103796906D01*
X149093218Y-103739601D01*
X149064990Y-103686789D01*
X149027001Y-103640499D01*
X148980711Y-103602510D01*
X148927899Y-103574282D01*
X148870594Y-103556899D01*
X148811000Y-103551029D01*
X148489000Y-103552500D01*
X148413000Y-103628500D01*
X148259000Y-103628500D01*
X148183000Y-103552500D01*
X147861000Y-103551029D01*
X147801406Y-103556899D01*
X147744101Y-103574282D01*
X147691289Y-103602510D01*
X147644999Y-103640499D01*
X147607010Y-103686789D01*
X147578782Y-103739601D01*
X147561399Y-103796906D01*
X147555529Y-103856500D01*
X115899000Y-103856500D01*
X115899000Y-102263500D01*
X124088529Y-102263500D01*
X124094399Y-102323094D01*
X124111782Y-102380399D01*
X124140010Y-102433211D01*
X124177999Y-102479501D01*
X124224289Y-102517490D01*
X124277101Y-102545718D01*
X124334406Y-102563101D01*
X124394000Y-102568971D01*
X124561000Y-102567500D01*
X124637000Y-102491500D01*
X124637000Y-101983000D01*
X124791000Y-101983000D01*
X124791000Y-102491500D01*
X124867000Y-102567500D01*
X125034000Y-102568971D01*
X125093594Y-102563101D01*
X125150899Y-102545718D01*
X125203711Y-102517490D01*
X125250001Y-102479501D01*
X125287990Y-102433211D01*
X125316218Y-102380399D01*
X125333601Y-102323094D01*
X125339471Y-102263500D01*
X125338828Y-102174000D01*
X126882529Y-102174000D01*
X126888399Y-102233594D01*
X126905782Y-102290899D01*
X126934010Y-102343711D01*
X126971999Y-102390001D01*
X127018289Y-102427990D01*
X127071101Y-102456218D01*
X127128406Y-102473601D01*
X127188000Y-102479471D01*
X127355000Y-102478000D01*
X127431000Y-102402000D01*
X127431000Y-101893500D01*
X127585000Y-101893500D01*
X127585000Y-102402000D01*
X127661000Y-102478000D01*
X127828000Y-102479471D01*
X127887594Y-102473601D01*
X127944899Y-102456218D01*
X127997711Y-102427990D01*
X128044001Y-102390001D01*
X128081990Y-102343711D01*
X128110218Y-102290899D01*
X128127601Y-102233594D01*
X128133471Y-102174000D01*
X128132000Y-101969500D01*
X128056000Y-101893500D01*
X127585000Y-101893500D01*
X127431000Y-101893500D01*
X126960000Y-101893500D01*
X126884000Y-101969500D01*
X126882529Y-102174000D01*
X125338828Y-102174000D01*
X125338000Y-102059000D01*
X125262000Y-101983000D01*
X124791000Y-101983000D01*
X124637000Y-101983000D01*
X124166000Y-101983000D01*
X124090000Y-102059000D01*
X124088529Y-102263500D01*
X115899000Y-102263500D01*
X115899000Y-99371662D01*
X124010000Y-99371662D01*
X124010000Y-99510338D01*
X124037055Y-99646349D01*
X124090124Y-99774469D01*
X124167168Y-99889774D01*
X124265226Y-99987832D01*
X124285000Y-100001045D01*
X124285001Y-100135010D01*
X124224863Y-100184363D01*
X124166976Y-100254899D01*
X124123962Y-100335372D01*
X124097474Y-100422691D01*
X124088530Y-100513500D01*
X124088530Y-100908500D01*
X124097474Y-100999309D01*
X124123962Y-101086628D01*
X124166976Y-101167101D01*
X124224863Y-101237637D01*
X124266604Y-101271893D01*
X124224289Y-101294510D01*
X124177999Y-101332499D01*
X124140010Y-101378789D01*
X124111782Y-101431601D01*
X124094399Y-101488906D01*
X124088529Y-101548500D01*
X124090000Y-101753000D01*
X124166000Y-101829000D01*
X124637000Y-101829000D01*
X124637000Y-101809000D01*
X124791000Y-101809000D01*
X124791000Y-101829000D01*
X125262000Y-101829000D01*
X125338000Y-101753000D01*
X125339471Y-101548500D01*
X125333601Y-101488906D01*
X125316218Y-101431601D01*
X125287990Y-101378789D01*
X125250001Y-101332499D01*
X125203711Y-101294510D01*
X125161396Y-101271893D01*
X125203137Y-101237637D01*
X125261024Y-101167101D01*
X125304038Y-101086628D01*
X125330526Y-100999309D01*
X125339470Y-100908500D01*
X125339470Y-100513500D01*
X125330526Y-100422691D01*
X125304038Y-100335372D01*
X125261024Y-100254899D01*
X125203137Y-100184363D01*
X125143000Y-100135010D01*
X125143000Y-100001045D01*
X125162774Y-99987832D01*
X125260832Y-99889774D01*
X125337876Y-99774469D01*
X125390945Y-99646349D01*
X125418000Y-99510338D01*
X125418000Y-99371662D01*
X125390945Y-99235651D01*
X125337876Y-99107531D01*
X125260832Y-98992226D01*
X125162774Y-98894168D01*
X125047469Y-98817124D01*
X124919349Y-98764055D01*
X124783338Y-98737000D01*
X124644662Y-98737000D01*
X124508651Y-98764055D01*
X124380531Y-98817124D01*
X124265226Y-98894168D01*
X124167168Y-98992226D01*
X124090124Y-99107531D01*
X124037055Y-99235651D01*
X124010000Y-99371662D01*
X115899000Y-99371662D01*
X115899000Y-97402087D01*
X123286530Y-97402087D01*
X123292222Y-97461699D01*
X123309434Y-97519055D01*
X123337504Y-97571951D01*
X123375355Y-97618354D01*
X123421531Y-97656482D01*
X123474259Y-97684868D01*
X123531511Y-97702422D01*
X123589000Y-97707000D01*
X123665000Y-97631000D01*
X123665000Y-97130000D01*
X123364000Y-97130000D01*
X123288000Y-97206000D01*
X123286530Y-97402087D01*
X115899000Y-97402087D01*
X115899000Y-94666000D01*
X121658000Y-94666000D01*
X121658000Y-95066000D01*
X121758001Y-95066000D01*
X121758000Y-95220000D01*
X121658000Y-95220000D01*
X121658000Y-95620000D01*
X121686549Y-95755864D01*
X121741055Y-95883548D01*
X121819424Y-95998145D01*
X121918644Y-96095251D01*
X122034902Y-96171134D01*
X122094773Y-96192693D01*
X122083159Y-96232155D01*
X122077146Y-96263681D01*
X122070697Y-96295096D01*
X122070214Y-96300016D01*
X122064465Y-96363184D01*
X122064689Y-96395301D01*
X122064465Y-96427352D01*
X122064947Y-96432272D01*
X122071577Y-96495352D01*
X122078036Y-96526816D01*
X122084040Y-96558295D01*
X122085468Y-96563027D01*
X122104224Y-96623620D01*
X122116664Y-96653213D01*
X122128680Y-96682953D01*
X122131000Y-96687317D01*
X122161169Y-96743112D01*
X122179115Y-96769717D01*
X122196679Y-96796557D01*
X122199803Y-96800388D01*
X122240234Y-96849260D01*
X122263024Y-96871892D01*
X122285447Y-96894789D01*
X122289250Y-96897935D01*
X122289257Y-96897942D01*
X122289265Y-96897947D01*
X122338410Y-96938029D01*
X122365116Y-96955772D01*
X122391606Y-96973911D01*
X122395954Y-96976262D01*
X122451959Y-97006040D01*
X122481632Y-97018271D01*
X122511113Y-97030906D01*
X122515835Y-97032368D01*
X122576557Y-97050701D01*
X122608041Y-97056935D01*
X122639411Y-97063603D01*
X122644327Y-97064120D01*
X122707453Y-97070310D01*
X122707459Y-97070310D01*
X122724618Y-97072000D01*
X123059382Y-97072000D01*
X123076866Y-97070278D01*
X123081080Y-97070278D01*
X123085996Y-97069762D01*
X123149029Y-97062692D01*
X123180431Y-97056017D01*
X123211888Y-97049789D01*
X123216610Y-97048328D01*
X123277070Y-97029149D01*
X123306625Y-97016482D01*
X123336223Y-97004282D01*
X123340572Y-97001932D01*
X123387741Y-96976000D01*
X123665000Y-96976000D01*
X123665000Y-96703000D01*
X123786530Y-96703000D01*
X123786530Y-97403000D01*
X123792400Y-97462594D01*
X123809783Y-97519898D01*
X123819000Y-97537142D01*
X123819000Y-97631000D01*
X123895000Y-97707000D01*
X123952489Y-97702422D01*
X123991942Y-97690325D01*
X124032406Y-97702600D01*
X124092000Y-97708470D01*
X124392000Y-97708470D01*
X124451594Y-97702600D01*
X124492000Y-97690343D01*
X124532406Y-97702600D01*
X124592000Y-97708470D01*
X124892000Y-97708470D01*
X124951594Y-97702600D01*
X124992000Y-97690343D01*
X125032406Y-97702600D01*
X125092000Y-97708470D01*
X125392000Y-97708470D01*
X125451594Y-97702600D01*
X125492000Y-97690343D01*
X125532406Y-97702600D01*
X125592000Y-97708470D01*
X125597802Y-97708470D01*
X125585739Y-97731038D01*
X125561208Y-97811904D01*
X125555000Y-97874935D01*
X125555000Y-97874944D01*
X125552926Y-97896002D01*
X125555000Y-97917060D01*
X125555001Y-98460926D01*
X125555000Y-98460935D01*
X125555000Y-98657942D01*
X125552926Y-98679000D01*
X125555000Y-98700058D01*
X125555000Y-98700068D01*
X125561208Y-98763099D01*
X125585739Y-98843965D01*
X125621425Y-98910729D01*
X125625574Y-98918492D01*
X125665337Y-98966942D01*
X125679185Y-98983816D01*
X125695546Y-98997243D01*
X126046640Y-99348337D01*
X126042000Y-99371662D01*
X126042000Y-99510338D01*
X126069055Y-99646349D01*
X126122124Y-99774469D01*
X126199168Y-99889774D01*
X126297226Y-99987832D01*
X126412531Y-100064876D01*
X126540651Y-100117945D01*
X126676662Y-100145000D01*
X126815338Y-100145000D01*
X126951349Y-100117945D01*
X127030877Y-100085003D01*
X127018863Y-100094863D01*
X126960976Y-100165399D01*
X126917962Y-100245872D01*
X126891474Y-100333191D01*
X126882530Y-100424000D01*
X126882530Y-100819000D01*
X126891474Y-100909809D01*
X126917962Y-100997128D01*
X126960976Y-101077601D01*
X127018863Y-101148137D01*
X127060604Y-101182393D01*
X127018289Y-101205010D01*
X126971999Y-101242999D01*
X126934010Y-101289289D01*
X126905782Y-101342101D01*
X126888399Y-101399406D01*
X126882529Y-101459000D01*
X126884000Y-101663500D01*
X126960000Y-101739500D01*
X127431000Y-101739500D01*
X127431000Y-101719500D01*
X127585000Y-101719500D01*
X127585000Y-101739500D01*
X128056000Y-101739500D01*
X128132000Y-101663500D01*
X128133471Y-101459000D01*
X128127601Y-101399406D01*
X128110218Y-101342101D01*
X128081990Y-101289289D01*
X128044001Y-101242999D01*
X127997711Y-101205010D01*
X127955396Y-101182393D01*
X127997137Y-101148137D01*
X128055024Y-101077601D01*
X128098038Y-100997128D01*
X128124526Y-100909809D01*
X128133470Y-100819000D01*
X128133470Y-100424000D01*
X128124526Y-100333191D01*
X128098038Y-100245872D01*
X128055024Y-100165399D01*
X127997137Y-100094863D01*
X127937000Y-100045510D01*
X127937000Y-99829658D01*
X127977168Y-99889774D01*
X128075226Y-99987832D01*
X128190531Y-100064876D01*
X128318651Y-100117945D01*
X128454662Y-100145000D01*
X128593338Y-100145000D01*
X128729349Y-100117945D01*
X128857469Y-100064876D01*
X128972774Y-99987832D01*
X129070832Y-99889774D01*
X129084045Y-99870000D01*
X130280942Y-99870000D01*
X130302000Y-99872074D01*
X130323058Y-99870000D01*
X130323068Y-99870000D01*
X130386099Y-99863792D01*
X130466965Y-99839261D01*
X130541492Y-99799426D01*
X130606816Y-99745816D01*
X130620248Y-99729449D01*
X131758697Y-98591000D01*
X132212811Y-98591000D01*
X132139226Y-98640168D01*
X132041168Y-98738226D01*
X131964124Y-98853531D01*
X131911055Y-98981651D01*
X131884000Y-99117662D01*
X131884000Y-99256338D01*
X131911055Y-99392349D01*
X131964124Y-99520469D01*
X132041168Y-99635774D01*
X132139226Y-99733832D01*
X132254531Y-99810876D01*
X132382651Y-99863945D01*
X132518662Y-99891000D01*
X132657338Y-99891000D01*
X132793349Y-99863945D01*
X132921469Y-99810876D01*
X133036774Y-99733832D01*
X133134832Y-99635774D01*
X133211876Y-99520469D01*
X133264945Y-99392349D01*
X133292000Y-99256338D01*
X133292000Y-99117662D01*
X133287360Y-99094337D01*
X133290698Y-99091000D01*
X137522000Y-99091000D01*
X137522000Y-99256942D01*
X137521451Y-99259919D01*
X137522000Y-99299072D01*
X137522000Y-99317223D01*
X137522297Y-99320236D01*
X137522339Y-99323248D01*
X137524362Y-99341203D01*
X137528208Y-99380254D01*
X137529088Y-99383156D01*
X137530535Y-99395999D01*
X137531679Y-99423172D01*
X137540236Y-99458379D01*
X137547803Y-99493814D01*
X137558561Y-99518789D01*
X137570817Y-99553816D01*
X137577978Y-99580051D01*
X137594154Y-99612470D01*
X137609420Y-99645340D01*
X137625470Y-99667300D01*
X137645201Y-99698702D01*
X137658024Y-99722693D01*
X137681032Y-99750728D01*
X137703207Y-99779349D01*
X137723733Y-99797180D01*
X137749971Y-99823419D01*
X137767805Y-99843947D01*
X137796447Y-99866139D01*
X137824461Y-99889129D01*
X137848444Y-99901948D01*
X137879854Y-99921684D01*
X137901814Y-99937734D01*
X137934684Y-99953000D01*
X137967103Y-99969176D01*
X137993338Y-99976337D01*
X138028363Y-99988593D01*
X138053334Y-99999349D01*
X138088767Y-100006916D01*
X138123981Y-100015475D01*
X138151151Y-100016619D01*
X138188036Y-100020775D01*
X138214771Y-100025704D01*
X138251000Y-100025196D01*
X138287230Y-100025704D01*
X138313968Y-100020774D01*
X138350849Y-100016619D01*
X138378017Y-100015475D01*
X138413229Y-100006916D01*
X138448665Y-99999349D01*
X138473636Y-99988593D01*
X138508661Y-99976337D01*
X138534896Y-99969176D01*
X138567315Y-99953000D01*
X138600185Y-99937734D01*
X138622145Y-99921684D01*
X138653547Y-99901953D01*
X138677538Y-99889130D01*
X138705573Y-99866122D01*
X138734194Y-99843947D01*
X138752025Y-99823421D01*
X138778264Y-99797183D01*
X138798792Y-99779349D01*
X138820984Y-99750707D01*
X138843974Y-99722693D01*
X138850999Y-99709550D01*
X138858024Y-99722693D01*
X138881032Y-99750728D01*
X138903207Y-99779349D01*
X138923733Y-99797180D01*
X138949971Y-99823419D01*
X138967805Y-99843947D01*
X138996447Y-99866139D01*
X139024461Y-99889129D01*
X139048444Y-99901948D01*
X139079854Y-99921684D01*
X139101814Y-99937734D01*
X139134684Y-99953000D01*
X139167103Y-99969176D01*
X139193338Y-99976337D01*
X139228363Y-99988593D01*
X139253334Y-99999349D01*
X139288767Y-100006916D01*
X139323981Y-100015475D01*
X139351151Y-100016619D01*
X139388036Y-100020775D01*
X139414771Y-100025704D01*
X139451000Y-100025196D01*
X139487230Y-100025704D01*
X139513968Y-100020774D01*
X139550849Y-100016619D01*
X139578017Y-100015475D01*
X139613229Y-100006916D01*
X139648665Y-99999349D01*
X139673636Y-99988593D01*
X139708661Y-99976337D01*
X139734896Y-99969176D01*
X139767315Y-99953000D01*
X139800185Y-99937734D01*
X139822145Y-99921684D01*
X139853547Y-99901953D01*
X139877538Y-99889130D01*
X139905573Y-99866122D01*
X139934194Y-99843947D01*
X139952025Y-99823421D01*
X139978264Y-99797183D01*
X139998792Y-99779349D01*
X140020984Y-99750707D01*
X140043974Y-99722693D01*
X140056793Y-99698710D01*
X140076529Y-99667300D01*
X140092579Y-99645340D01*
X140107845Y-99612470D01*
X140124021Y-99580051D01*
X140131182Y-99553816D01*
X140143436Y-99518796D01*
X140154194Y-99493821D01*
X140161761Y-99458384D01*
X140170320Y-99423173D01*
X140171464Y-99396004D01*
X140172911Y-99383157D01*
X140173792Y-99380254D01*
X140177635Y-99341240D01*
X140179661Y-99323256D01*
X140179703Y-99320235D01*
X140180000Y-99317223D01*
X140180000Y-99299079D01*
X140180549Y-99259926D01*
X140180000Y-99256948D01*
X140180000Y-99091000D01*
X142050302Y-99091000D01*
X142059751Y-99100449D01*
X142073183Y-99116816D01*
X142138507Y-99170426D01*
X142213034Y-99210261D01*
X142293900Y-99234792D01*
X142356931Y-99241000D01*
X142356940Y-99241000D01*
X142377998Y-99243074D01*
X142399056Y-99241000D01*
X142515614Y-99241000D01*
X142524011Y-99256710D01*
X142562000Y-99303000D01*
X142608290Y-99340989D01*
X142661102Y-99369217D01*
X142718406Y-99386600D01*
X142778000Y-99392470D01*
X144378000Y-99392470D01*
X144437594Y-99386600D01*
X144460282Y-99379718D01*
X144453400Y-99402406D01*
X144447530Y-99462000D01*
X144447530Y-101050105D01*
X144319531Y-101103124D01*
X144204226Y-101180168D01*
X144106168Y-101278226D01*
X144029124Y-101393531D01*
X143976055Y-101521651D01*
X143949000Y-101657662D01*
X143949000Y-101796338D01*
X143976055Y-101932349D01*
X144029124Y-102060469D01*
X144106168Y-102175774D01*
X144204226Y-102273832D01*
X144319531Y-102350876D01*
X144447651Y-102403945D01*
X144583662Y-102431000D01*
X144722338Y-102431000D01*
X144858349Y-102403945D01*
X144986469Y-102350876D01*
X145101774Y-102273832D01*
X145199832Y-102175774D01*
X145276876Y-102060469D01*
X145288000Y-102033613D01*
X145299124Y-102060469D01*
X145376168Y-102175774D01*
X145474226Y-102273832D01*
X145589531Y-102350876D01*
X145717651Y-102403945D01*
X145853662Y-102431000D01*
X145992338Y-102431000D01*
X146128349Y-102403945D01*
X146256469Y-102350876D01*
X146371774Y-102273832D01*
X146469832Y-102175774D01*
X146546876Y-102060469D01*
X146599945Y-101932349D01*
X146627000Y-101796338D01*
X146627000Y-101657662D01*
X146622360Y-101634337D01*
X146889228Y-101367470D01*
X146903000Y-101367470D01*
X146962594Y-101361600D01*
X147019898Y-101344217D01*
X147027999Y-101339887D01*
X147036101Y-101344218D01*
X147093406Y-101361601D01*
X147153000Y-101367471D01*
X147275000Y-101366000D01*
X147351000Y-101290000D01*
X147351000Y-100339000D01*
X147331000Y-100339000D01*
X147331000Y-100185000D01*
X147351000Y-100185000D01*
X147351000Y-99234000D01*
X147275000Y-99158000D01*
X147153000Y-99156529D01*
X147093406Y-99162399D01*
X147036101Y-99179782D01*
X147027999Y-99184113D01*
X147019898Y-99179783D01*
X146962594Y-99162400D01*
X146903000Y-99156530D01*
X146386000Y-99156530D01*
X146386000Y-98243130D01*
X146789131Y-97840000D01*
X148540000Y-97840000D01*
X148540001Y-98859269D01*
X148509982Y-98915431D01*
X148478075Y-99020614D01*
X148470000Y-99102598D01*
X148470000Y-99102605D01*
X148467302Y-99130000D01*
X148469915Y-99156530D01*
X147953000Y-99156530D01*
X147893406Y-99162400D01*
X147836102Y-99179783D01*
X147828001Y-99184113D01*
X147819899Y-99179782D01*
X147762594Y-99162399D01*
X147703000Y-99156529D01*
X147581000Y-99158000D01*
X147505000Y-99234000D01*
X147505000Y-100185000D01*
X147525000Y-100185000D01*
X147525000Y-100339000D01*
X147505000Y-100339000D01*
X147505000Y-101290000D01*
X147581000Y-101366000D01*
X147670000Y-101367073D01*
X147670001Y-102039360D01*
X147647037Y-102067342D01*
X147596861Y-102161214D01*
X147565963Y-102263072D01*
X147555530Y-102369000D01*
X147555530Y-102969000D01*
X147565963Y-103074928D01*
X147596861Y-103176786D01*
X147647037Y-103270658D01*
X147714562Y-103352938D01*
X147796842Y-103420463D01*
X147890714Y-103470639D01*
X147992572Y-103501537D01*
X148098500Y-103511970D01*
X148573500Y-103511970D01*
X148679428Y-103501537D01*
X148781286Y-103470639D01*
X148875158Y-103420463D01*
X148957438Y-103352938D01*
X149024963Y-103270658D01*
X149075139Y-103176786D01*
X149106037Y-103074928D01*
X149116470Y-102969000D01*
X149116470Y-102369000D01*
X149106037Y-102263072D01*
X149105643Y-102261774D01*
X149322030Y-102478161D01*
X149322030Y-102517000D01*
X149330878Y-102606833D01*
X149357081Y-102693214D01*
X149399633Y-102772823D01*
X149456899Y-102842601D01*
X149526677Y-102899867D01*
X149606286Y-102942419D01*
X149692667Y-102968622D01*
X149782500Y-102977470D01*
X150207500Y-102977470D01*
X150297333Y-102968622D01*
X150383714Y-102942419D01*
X150463323Y-102899867D01*
X150518843Y-102854302D01*
X150546499Y-102888001D01*
X150592789Y-102925990D01*
X150645601Y-102954218D01*
X150702906Y-102971601D01*
X150762500Y-102977471D01*
X150977000Y-102976000D01*
X151053000Y-102900000D01*
X151053000Y-102439000D01*
X151207000Y-102439000D01*
X151207000Y-102900000D01*
X151283000Y-102976000D01*
X151497500Y-102977471D01*
X151557094Y-102971601D01*
X151614399Y-102954218D01*
X151667211Y-102925990D01*
X151713501Y-102888001D01*
X151751490Y-102841711D01*
X151779718Y-102788899D01*
X151797101Y-102731594D01*
X151802971Y-102672000D01*
X151801500Y-102515000D01*
X151725500Y-102439000D01*
X151207000Y-102439000D01*
X151053000Y-102439000D01*
X151033000Y-102439000D01*
X151033000Y-102285000D01*
X151053000Y-102285000D01*
X151053000Y-101824000D01*
X151207000Y-101824000D01*
X151207000Y-102285000D01*
X151725500Y-102285000D01*
X151801500Y-102209000D01*
X151802971Y-102052000D01*
X151797101Y-101992406D01*
X151779718Y-101935101D01*
X151751490Y-101882289D01*
X151713501Y-101835999D01*
X151667211Y-101798010D01*
X151614399Y-101769782D01*
X151557094Y-101752399D01*
X151497500Y-101746529D01*
X151283000Y-101748000D01*
X151207000Y-101824000D01*
X151053000Y-101824000D01*
X150977000Y-101748000D01*
X150762500Y-101746529D01*
X150702906Y-101752399D01*
X150645601Y-101769782D01*
X150592789Y-101798010D01*
X150546499Y-101835999D01*
X150518843Y-101869698D01*
X150463323Y-101824133D01*
X150383714Y-101781581D01*
X150297333Y-101755378D01*
X150207500Y-101746530D01*
X150168661Y-101746530D01*
X149789600Y-101367470D01*
X150103000Y-101367470D01*
X150162594Y-101361600D01*
X150219898Y-101344217D01*
X150228000Y-101339886D01*
X150236102Y-101344217D01*
X150293406Y-101361600D01*
X150353000Y-101367470D01*
X150903000Y-101367470D01*
X150962594Y-101361600D01*
X151019898Y-101344217D01*
X151072710Y-101315989D01*
X151119000Y-101278000D01*
X151156989Y-101231710D01*
X151185217Y-101178898D01*
X151202600Y-101121594D01*
X151208470Y-101062000D01*
X151208470Y-99462000D01*
X151202600Y-99402406D01*
X151195718Y-99379718D01*
X151218406Y-99386600D01*
X151278000Y-99392470D01*
X152878000Y-99392470D01*
X152937594Y-99386600D01*
X152994898Y-99369217D01*
X153047710Y-99340989D01*
X153094000Y-99303000D01*
X153131989Y-99256710D01*
X153160217Y-99203898D01*
X153177600Y-99146594D01*
X153183470Y-99087000D01*
X153183470Y-98537000D01*
X153177600Y-98477406D01*
X153160217Y-98420102D01*
X153155886Y-98412000D01*
X153160217Y-98403898D01*
X153177600Y-98346594D01*
X153183470Y-98287000D01*
X153183470Y-97737000D01*
X153177600Y-97677406D01*
X153160217Y-97620102D01*
X153155886Y-97612000D01*
X153160217Y-97603898D01*
X153177600Y-97546594D01*
X153183470Y-97487000D01*
X153183470Y-96937000D01*
X153177600Y-96877406D01*
X153160217Y-96820102D01*
X153155886Y-96812000D01*
X153160217Y-96803898D01*
X153177600Y-96746594D01*
X153183470Y-96687000D01*
X153183470Y-96137000D01*
X153177600Y-96077406D01*
X153160217Y-96020102D01*
X153155886Y-96012000D01*
X153160217Y-96003898D01*
X153177600Y-95946594D01*
X153183470Y-95887000D01*
X153183470Y-95337000D01*
X153177600Y-95277406D01*
X153160217Y-95220102D01*
X153155886Y-95212000D01*
X153160217Y-95203898D01*
X153177600Y-95146594D01*
X153183470Y-95087000D01*
X153183470Y-94537000D01*
X153177600Y-94477406D01*
X153160217Y-94420102D01*
X153155886Y-94412000D01*
X153160217Y-94403898D01*
X153177600Y-94346594D01*
X153183470Y-94287000D01*
X153183470Y-93737000D01*
X153177600Y-93677406D01*
X153160217Y-93620102D01*
X153155886Y-93612000D01*
X153160217Y-93603898D01*
X153177600Y-93546594D01*
X153183470Y-93487000D01*
X153183470Y-92937000D01*
X153177600Y-92877406D01*
X153160217Y-92820102D01*
X153131989Y-92767290D01*
X153094000Y-92721000D01*
X153047710Y-92683011D01*
X152994898Y-92654783D01*
X152937594Y-92637400D01*
X152878000Y-92631530D01*
X151278000Y-92631530D01*
X151218406Y-92637400D01*
X151195718Y-92644282D01*
X151202600Y-92621594D01*
X151208470Y-92562000D01*
X151208470Y-90962000D01*
X151202600Y-90902406D01*
X151186000Y-90847683D01*
X151186000Y-89944260D01*
X151219789Y-89971990D01*
X151272601Y-90000218D01*
X151329906Y-90017601D01*
X151389500Y-90023471D01*
X151604000Y-90022000D01*
X151680000Y-89946000D01*
X151680000Y-89485000D01*
X151834000Y-89485000D01*
X151834000Y-89946000D01*
X151910000Y-90022000D01*
X152124500Y-90023471D01*
X152184094Y-90017601D01*
X152241399Y-90000218D01*
X152294211Y-89971990D01*
X152340501Y-89934001D01*
X152378490Y-89887711D01*
X152406718Y-89834899D01*
X152424101Y-89777594D01*
X152429971Y-89718000D01*
X152428500Y-89561000D01*
X152352500Y-89485000D01*
X151834000Y-89485000D01*
X151680000Y-89485000D01*
X151660000Y-89485000D01*
X151660000Y-89331000D01*
X151680000Y-89331000D01*
X151680000Y-88870000D01*
X151834000Y-88870000D01*
X151834000Y-89331000D01*
X152352500Y-89331000D01*
X152428500Y-89255000D01*
X152429971Y-89098000D01*
X152424101Y-89038406D01*
X152406718Y-88981101D01*
X152378490Y-88928289D01*
X152340501Y-88881999D01*
X152294211Y-88844010D01*
X152241399Y-88815782D01*
X152184094Y-88798399D01*
X152124500Y-88792529D01*
X151910000Y-88794000D01*
X151834000Y-88870000D01*
X151680000Y-88870000D01*
X151604000Y-88794000D01*
X151389500Y-88792529D01*
X151329906Y-88798399D01*
X151272601Y-88815782D01*
X151219789Y-88844010D01*
X151173499Y-88881999D01*
X151145843Y-88915698D01*
X151090323Y-88870133D01*
X151010714Y-88827581D01*
X150924333Y-88801378D01*
X150834500Y-88792530D01*
X150795660Y-88792530D01*
X150654947Y-88651817D01*
X150637474Y-88630526D01*
X150552508Y-88560796D01*
X150455570Y-88508982D01*
X150350387Y-88477075D01*
X150268403Y-88469000D01*
X150268395Y-88469000D01*
X150241000Y-88466302D01*
X150213605Y-88469000D01*
X140743394Y-88469000D01*
X140715999Y-88466302D01*
X140688604Y-88469000D01*
X140688597Y-88469000D01*
X140606613Y-88477075D01*
X140501430Y-88508982D01*
X140404492Y-88560796D01*
X140319526Y-88630526D01*
X140302056Y-88651813D01*
X140072340Y-88881530D01*
X140008500Y-88881530D01*
X139902572Y-88891963D01*
X139800714Y-88922861D01*
X139706842Y-88973037D01*
X139624562Y-89040562D01*
X139557037Y-89122842D01*
X139506861Y-89216714D01*
X139475963Y-89318572D01*
X139465530Y-89424500D01*
X139465530Y-89899500D01*
X139475963Y-90005428D01*
X139506861Y-90107286D01*
X139557037Y-90201158D01*
X139624562Y-90283438D01*
X139706842Y-90350963D01*
X139800714Y-90401139D01*
X139902572Y-90432037D01*
X139904001Y-90432178D01*
X139904000Y-91583084D01*
X139895102Y-91585783D01*
X139842290Y-91614011D01*
X139796000Y-91652000D01*
X139758011Y-91698290D01*
X139729783Y-91751102D01*
X139712400Y-91808406D01*
X139706530Y-91868000D01*
X139706530Y-92668000D01*
X139712400Y-92727594D01*
X139729783Y-92784898D01*
X139758011Y-92837710D01*
X139796000Y-92884000D01*
X139842290Y-92921989D01*
X139895102Y-92950217D01*
X139952406Y-92967600D01*
X140012000Y-92973470D01*
X140912000Y-92973470D01*
X140971594Y-92967600D01*
X141028898Y-92950217D01*
X141081710Y-92921989D01*
X141128000Y-92884000D01*
X141165989Y-92837710D01*
X141194217Y-92784898D01*
X141211600Y-92727594D01*
X141217470Y-92668000D01*
X141217470Y-91868000D01*
X141211600Y-91808406D01*
X141194217Y-91751102D01*
X141165989Y-91698290D01*
X141128000Y-91652000D01*
X141081710Y-91614011D01*
X141028898Y-91585783D01*
X141020000Y-91583084D01*
X141020000Y-90249853D01*
X141059963Y-90201158D01*
X141110139Y-90107286D01*
X141141037Y-90005428D01*
X141151470Y-89899500D01*
X141151470Y-89585000D01*
X149951197Y-89585000D01*
X149957878Y-89652833D01*
X149984081Y-89739214D01*
X150026633Y-89818823D01*
X150070001Y-89871666D01*
X150070000Y-90656927D01*
X149981000Y-90658000D01*
X149905000Y-90734000D01*
X149905000Y-91685000D01*
X149925000Y-91685000D01*
X149925000Y-91839000D01*
X149905000Y-91839000D01*
X149905000Y-92790000D01*
X149981000Y-92866000D01*
X150042132Y-92866737D01*
X148722818Y-94186052D01*
X148701526Y-94203526D01*
X148631796Y-94288492D01*
X148579982Y-94385431D01*
X148548075Y-94490614D01*
X148540000Y-94572598D01*
X148540000Y-94572605D01*
X148537302Y-94600000D01*
X148540000Y-94627395D01*
X148540001Y-96724000D01*
X146585395Y-96724000D01*
X146558000Y-96721302D01*
X146530605Y-96724000D01*
X146530597Y-96724000D01*
X146448613Y-96732075D01*
X146343429Y-96763982D01*
X146250773Y-96813508D01*
X146246492Y-96815796D01*
X146161526Y-96885526D01*
X146144057Y-96906812D01*
X145452813Y-97598057D01*
X145431527Y-97615526D01*
X145361797Y-97700492D01*
X145340151Y-97740989D01*
X145309983Y-97797430D01*
X145278075Y-97902614D01*
X145267302Y-98012000D01*
X145270001Y-98039405D01*
X145270000Y-99156530D01*
X144753000Y-99156530D01*
X144693406Y-99162400D01*
X144670718Y-99169282D01*
X144677600Y-99146594D01*
X144683470Y-99087000D01*
X144683470Y-98537000D01*
X144677600Y-98477406D01*
X144660217Y-98420102D01*
X144655886Y-98412000D01*
X144660217Y-98403898D01*
X144677600Y-98346594D01*
X144683470Y-98287000D01*
X144683470Y-97737000D01*
X144677600Y-97677406D01*
X144660217Y-97620102D01*
X144655886Y-97612000D01*
X144660217Y-97603898D01*
X144677600Y-97546594D01*
X144683470Y-97487000D01*
X144683470Y-96937000D01*
X144677600Y-96877406D01*
X144660217Y-96820102D01*
X144655886Y-96812000D01*
X144660217Y-96803898D01*
X144677600Y-96746594D01*
X144683470Y-96687000D01*
X144683470Y-96137000D01*
X144677600Y-96077406D01*
X144660217Y-96020102D01*
X144655886Y-96012000D01*
X144660217Y-96003898D01*
X144677600Y-95946594D01*
X144683470Y-95887000D01*
X144683470Y-95337000D01*
X144677600Y-95277406D01*
X144660217Y-95220102D01*
X144655886Y-95212000D01*
X144660217Y-95203898D01*
X144677600Y-95146594D01*
X144683470Y-95087000D01*
X144683470Y-94537000D01*
X144677600Y-94477406D01*
X144660217Y-94420102D01*
X144655886Y-94412000D01*
X144660217Y-94403898D01*
X144677600Y-94346594D01*
X144683470Y-94287000D01*
X144683470Y-93737000D01*
X144677600Y-93677406D01*
X144660217Y-93620102D01*
X144655886Y-93612000D01*
X144660217Y-93603898D01*
X144677600Y-93546594D01*
X144683470Y-93487000D01*
X144683470Y-92937000D01*
X144677600Y-92877406D01*
X144670718Y-92854718D01*
X144693406Y-92861600D01*
X144753000Y-92867470D01*
X145303000Y-92867470D01*
X145362594Y-92861600D01*
X145419898Y-92844217D01*
X145428000Y-92839886D01*
X145436102Y-92844217D01*
X145493406Y-92861600D01*
X145553000Y-92867470D01*
X146103000Y-92867470D01*
X146162594Y-92861600D01*
X146219898Y-92844217D01*
X146228000Y-92839886D01*
X146236102Y-92844217D01*
X146293406Y-92861600D01*
X146353000Y-92867470D01*
X146903000Y-92867470D01*
X146962594Y-92861600D01*
X147019898Y-92844217D01*
X147028000Y-92839886D01*
X147036102Y-92844217D01*
X147093406Y-92861600D01*
X147153000Y-92867470D01*
X147703000Y-92867470D01*
X147762594Y-92861600D01*
X147819898Y-92844217D01*
X147828000Y-92839886D01*
X147836102Y-92844217D01*
X147893406Y-92861600D01*
X147953000Y-92867470D01*
X148503000Y-92867470D01*
X148562594Y-92861600D01*
X148619898Y-92844217D01*
X148628000Y-92839886D01*
X148636102Y-92844217D01*
X148693406Y-92861600D01*
X148753000Y-92867470D01*
X149303000Y-92867470D01*
X149362594Y-92861600D01*
X149419898Y-92844217D01*
X149427999Y-92839887D01*
X149436101Y-92844218D01*
X149493406Y-92861601D01*
X149553000Y-92867471D01*
X149675000Y-92866000D01*
X149751000Y-92790000D01*
X149751000Y-91839000D01*
X149731000Y-91839000D01*
X149731000Y-91685000D01*
X149751000Y-91685000D01*
X149751000Y-90734000D01*
X149675000Y-90658000D01*
X149553000Y-90656529D01*
X149493406Y-90662399D01*
X149436101Y-90679782D01*
X149427999Y-90684113D01*
X149419898Y-90679783D01*
X149362594Y-90662400D01*
X149303000Y-90656530D01*
X148753000Y-90656530D01*
X148693406Y-90662400D01*
X148636102Y-90679783D01*
X148628000Y-90684114D01*
X148619898Y-90679783D01*
X148562594Y-90662400D01*
X148503000Y-90656530D01*
X147953000Y-90656530D01*
X147893406Y-90662400D01*
X147836102Y-90679783D01*
X147828000Y-90684114D01*
X147819898Y-90679783D01*
X147762594Y-90662400D01*
X147703000Y-90656530D01*
X147153000Y-90656530D01*
X147093406Y-90662400D01*
X147036102Y-90679783D01*
X147028000Y-90684114D01*
X147019898Y-90679783D01*
X146962594Y-90662400D01*
X146903000Y-90656530D01*
X146353000Y-90656530D01*
X146293406Y-90662400D01*
X146236102Y-90679783D01*
X146228000Y-90684114D01*
X146219898Y-90679783D01*
X146162594Y-90662400D01*
X146103000Y-90656530D01*
X145553000Y-90656530D01*
X145493406Y-90662400D01*
X145436102Y-90679783D01*
X145428000Y-90684114D01*
X145419898Y-90679783D01*
X145362594Y-90662400D01*
X145303000Y-90656530D01*
X144753000Y-90656530D01*
X144693406Y-90662400D01*
X144636102Y-90679783D01*
X144583290Y-90708011D01*
X144537000Y-90746000D01*
X144499011Y-90792290D01*
X144470783Y-90845102D01*
X144453400Y-90902406D01*
X144447530Y-90962000D01*
X144447530Y-92562000D01*
X144453400Y-92621594D01*
X144460282Y-92644282D01*
X144437594Y-92637400D01*
X144378000Y-92631530D01*
X142778000Y-92631530D01*
X142718406Y-92637400D01*
X142661102Y-92654783D01*
X142608290Y-92683011D01*
X142562000Y-92721000D01*
X142524011Y-92767290D01*
X142495783Y-92820102D01*
X142478400Y-92877406D01*
X142472530Y-92937000D01*
X142472530Y-93487000D01*
X142478400Y-93546594D01*
X142495783Y-93603898D01*
X142500114Y-93612000D01*
X142495783Y-93620102D01*
X142478400Y-93677406D01*
X142472530Y-93737000D01*
X142472530Y-94287000D01*
X142478400Y-94346594D01*
X142495783Y-94403898D01*
X142500114Y-94412000D01*
X142495783Y-94420102D01*
X142478400Y-94477406D01*
X142472530Y-94537000D01*
X142472530Y-95087000D01*
X142478400Y-95146594D01*
X142495783Y-95203898D01*
X142500114Y-95212000D01*
X142495783Y-95220102D01*
X142478400Y-95277406D01*
X142472530Y-95337000D01*
X142472530Y-95887000D01*
X142478400Y-95946594D01*
X142495783Y-96003898D01*
X142500114Y-96012000D01*
X142495783Y-96020102D01*
X142478400Y-96077406D01*
X142472530Y-96137000D01*
X142472530Y-96687000D01*
X142478400Y-96746594D01*
X142495783Y-96803898D01*
X142500114Y-96812000D01*
X142495783Y-96820102D01*
X142478400Y-96877406D01*
X142472530Y-96937000D01*
X142472530Y-97487000D01*
X142478400Y-97546594D01*
X142489444Y-97583000D01*
X142399056Y-97583000D01*
X142377998Y-97580926D01*
X142356940Y-97583000D01*
X142356931Y-97583000D01*
X142293900Y-97589208D01*
X142213034Y-97613739D01*
X142138507Y-97653574D01*
X142073183Y-97707184D01*
X142059751Y-97723551D01*
X142050302Y-97733000D01*
X131694665Y-97733000D01*
X131678381Y-97732641D01*
X131673674Y-97733000D01*
X131668932Y-97733000D01*
X131652657Y-97734603D01*
X131576741Y-97740393D01*
X131571999Y-97739926D01*
X131534711Y-97743599D01*
X131518368Y-97744845D01*
X131513688Y-97745669D01*
X131487900Y-97748209D01*
X131472175Y-97752979D01*
X131455992Y-97755829D01*
X131431838Y-97765216D01*
X131407034Y-97772740D01*
X131392538Y-97780488D01*
X131377225Y-97786439D01*
X131355372Y-97800354D01*
X131332507Y-97812575D01*
X131319800Y-97823003D01*
X131305944Y-97831826D01*
X131287224Y-97849738D01*
X131283548Y-97852755D01*
X131271951Y-97864352D01*
X131244886Y-97890249D01*
X131242153Y-97894150D01*
X130124303Y-99012000D01*
X129084045Y-99012000D01*
X129070832Y-98992226D01*
X128972774Y-98894168D01*
X128857469Y-98817124D01*
X128729349Y-98764055D01*
X128593338Y-98737000D01*
X128454662Y-98737000D01*
X128318651Y-98764055D01*
X128190531Y-98817124D01*
X128075226Y-98894168D01*
X127977168Y-98992226D01*
X127937000Y-99052342D01*
X127937000Y-97925070D01*
X127939075Y-97904002D01*
X127930792Y-97819903D01*
X127906261Y-97739036D01*
X127889923Y-97708470D01*
X127892000Y-97708470D01*
X127951594Y-97702600D01*
X127992000Y-97690343D01*
X128032406Y-97702600D01*
X128092000Y-97708470D01*
X128392000Y-97708470D01*
X128451594Y-97702600D01*
X128492000Y-97690343D01*
X128532406Y-97702600D01*
X128592000Y-97708470D01*
X128892000Y-97708470D01*
X128951594Y-97702600D01*
X128992058Y-97690325D01*
X129031511Y-97702422D01*
X129089000Y-97707000D01*
X129165000Y-97631000D01*
X129165000Y-97537142D01*
X129174217Y-97519898D01*
X129191600Y-97462594D01*
X129197470Y-97403000D01*
X129197470Y-97130000D01*
X129319000Y-97130000D01*
X129319000Y-97631000D01*
X129395000Y-97707000D01*
X129452489Y-97702422D01*
X129509741Y-97684868D01*
X129562469Y-97656482D01*
X129608645Y-97618354D01*
X129646496Y-97571951D01*
X129674566Y-97519055D01*
X129691778Y-97461699D01*
X129697470Y-97402087D01*
X129696000Y-97206000D01*
X129620000Y-97130000D01*
X129319000Y-97130000D01*
X129197470Y-97130000D01*
X129197470Y-96703000D01*
X129191600Y-96643406D01*
X129174217Y-96586102D01*
X129165000Y-96568858D01*
X129165000Y-96475000D01*
X129319000Y-96475000D01*
X129319000Y-96976000D01*
X129620000Y-96976000D01*
X129696000Y-96900000D01*
X129696113Y-96884968D01*
X129794057Y-96950412D01*
X129908528Y-96997827D01*
X130030049Y-97022000D01*
X130153951Y-97022000D01*
X130275472Y-96997827D01*
X130389943Y-96950412D01*
X130492964Y-96881576D01*
X130580576Y-96793964D01*
X130649412Y-96690943D01*
X130696827Y-96576472D01*
X130721000Y-96454951D01*
X130721000Y-96331049D01*
X130699002Y-96220462D01*
X130699002Y-96166263D01*
X130807521Y-96222115D01*
X130949098Y-96171134D01*
X131065356Y-96095251D01*
X131164576Y-95998145D01*
X131242945Y-95883548D01*
X131297451Y-95755864D01*
X131326000Y-95620000D01*
X131326000Y-95533500D01*
X135109529Y-95533500D01*
X135115399Y-95593094D01*
X135132782Y-95650399D01*
X135161010Y-95703211D01*
X135198999Y-95749501D01*
X135245289Y-95787490D01*
X135298101Y-95815718D01*
X135355406Y-95833101D01*
X135415000Y-95838971D01*
X135737000Y-95837500D01*
X135813000Y-95761500D01*
X135813000Y-95073000D01*
X135967000Y-95073000D01*
X135967000Y-95761500D01*
X136043000Y-95837500D01*
X136365000Y-95838971D01*
X136424594Y-95833101D01*
X136481899Y-95815718D01*
X136534711Y-95787490D01*
X136581001Y-95749501D01*
X136618990Y-95703211D01*
X136647218Y-95650399D01*
X136664601Y-95593094D01*
X136670471Y-95533500D01*
X136669000Y-95149000D01*
X136593000Y-95073000D01*
X135967000Y-95073000D01*
X135813000Y-95073000D01*
X135187000Y-95073000D01*
X135111000Y-95149000D01*
X135109529Y-95533500D01*
X131326000Y-95533500D01*
X131326000Y-95220000D01*
X131226000Y-95220000D01*
X131226000Y-95066000D01*
X131326000Y-95066000D01*
X131326000Y-94666000D01*
X131297451Y-94530136D01*
X131266871Y-94458500D01*
X135109529Y-94458500D01*
X135111000Y-94843000D01*
X135187000Y-94919000D01*
X135813000Y-94919000D01*
X135813000Y-94230500D01*
X135967000Y-94230500D01*
X135967000Y-94919000D01*
X136593000Y-94919000D01*
X136669000Y-94843000D01*
X136670052Y-94568000D01*
X139706529Y-94568000D01*
X139712399Y-94627594D01*
X139729782Y-94684899D01*
X139758010Y-94737711D01*
X139795999Y-94784001D01*
X139842289Y-94821990D01*
X139895101Y-94850218D01*
X139952406Y-94867601D01*
X140012000Y-94873471D01*
X140309000Y-94872000D01*
X140385000Y-94796000D01*
X140385000Y-94245000D01*
X140539000Y-94245000D01*
X140539000Y-94796000D01*
X140615000Y-94872000D01*
X140912000Y-94873471D01*
X140971594Y-94867601D01*
X141028899Y-94850218D01*
X141081711Y-94821990D01*
X141128001Y-94784001D01*
X141165990Y-94737711D01*
X141194218Y-94684899D01*
X141211601Y-94627594D01*
X141217471Y-94568000D01*
X141216000Y-94321000D01*
X141140000Y-94245000D01*
X140539000Y-94245000D01*
X140385000Y-94245000D01*
X139784000Y-94245000D01*
X139708000Y-94321000D01*
X139706529Y-94568000D01*
X136670052Y-94568000D01*
X136670471Y-94458500D01*
X136664601Y-94398906D01*
X136647218Y-94341601D01*
X136618990Y-94288789D01*
X136581001Y-94242499D01*
X136534711Y-94204510D01*
X136481899Y-94176282D01*
X136424594Y-94158899D01*
X136365000Y-94153029D01*
X136043000Y-94154500D01*
X135967000Y-94230500D01*
X135813000Y-94230500D01*
X135737000Y-94154500D01*
X135415000Y-94153029D01*
X135355406Y-94158899D01*
X135298101Y-94176282D01*
X135245289Y-94204510D01*
X135198999Y-94242499D01*
X135161010Y-94288789D01*
X135132782Y-94341601D01*
X135115399Y-94398906D01*
X135109529Y-94458500D01*
X131266871Y-94458500D01*
X131242945Y-94402452D01*
X131164576Y-94287855D01*
X131065356Y-94190749D01*
X130949098Y-94114866D01*
X130807521Y-94063885D01*
X130699000Y-94119738D01*
X130699000Y-94244852D01*
X130656543Y-94240689D01*
X130641084Y-94240689D01*
X130625726Y-94239020D01*
X130620783Y-94239002D01*
X130619038Y-94239008D01*
X130603640Y-94240571D01*
X130588172Y-94240463D01*
X130583252Y-94240945D01*
X130545000Y-94244965D01*
X130545000Y-94119738D01*
X130436479Y-94063885D01*
X130294902Y-94114866D01*
X130178644Y-94190749D01*
X130079424Y-94287855D01*
X130001055Y-94402452D01*
X129946549Y-94530136D01*
X129918000Y-94666000D01*
X129918000Y-94874572D01*
X129896496Y-94834049D01*
X129858645Y-94787646D01*
X129812469Y-94749518D01*
X129759741Y-94721132D01*
X129702489Y-94703578D01*
X129645000Y-94699000D01*
X129569000Y-94775000D01*
X129569000Y-95276000D01*
X129589000Y-95276000D01*
X129589000Y-95430000D01*
X129569000Y-95430000D01*
X129569000Y-95931000D01*
X129616730Y-95978730D01*
X129603424Y-95992036D01*
X129534588Y-96095057D01*
X129487173Y-96209528D01*
X129463000Y-96331049D01*
X129463000Y-96406801D01*
X129452489Y-96403578D01*
X129395000Y-96399000D01*
X129319000Y-96475000D01*
X129165000Y-96475000D01*
X129089000Y-96399000D01*
X129031511Y-96403578D01*
X128992058Y-96415675D01*
X128951594Y-96403400D01*
X128892000Y-96397530D01*
X128592000Y-96397530D01*
X128532406Y-96403400D01*
X128492000Y-96415657D01*
X128451594Y-96403400D01*
X128392000Y-96397530D01*
X128382475Y-96397530D01*
X128390261Y-96382963D01*
X128414792Y-96302097D01*
X128421000Y-96239066D01*
X128421000Y-96239057D01*
X128423074Y-96217999D01*
X128421000Y-96196941D01*
X128421000Y-96008470D01*
X128642000Y-96008470D01*
X128701594Y-96002600D01*
X128742000Y-95990343D01*
X128782406Y-96002600D01*
X128842000Y-96008470D01*
X129142000Y-96008470D01*
X129201594Y-96002600D01*
X129242058Y-95990325D01*
X129281511Y-96002422D01*
X129339000Y-96007000D01*
X129415000Y-95931000D01*
X129415000Y-95837142D01*
X129424217Y-95819898D01*
X129441600Y-95762594D01*
X129447470Y-95703000D01*
X129447470Y-95003000D01*
X129441600Y-94943406D01*
X129424217Y-94886102D01*
X129415000Y-94868858D01*
X129415000Y-94775000D01*
X129339000Y-94699000D01*
X129281511Y-94703578D01*
X129242058Y-94715675D01*
X129201594Y-94703400D01*
X129142000Y-94697530D01*
X128842000Y-94697530D01*
X128782406Y-94703400D01*
X128742000Y-94715657D01*
X128701594Y-94703400D01*
X128642000Y-94697530D01*
X128421000Y-94697530D01*
X128421000Y-93302999D01*
X135109530Y-93302999D01*
X135109530Y-93571000D01*
X135119963Y-93676928D01*
X135150861Y-93778786D01*
X135201037Y-93872658D01*
X135268562Y-93954938D01*
X135350842Y-94022463D01*
X135444714Y-94072639D01*
X135546572Y-94103537D01*
X135652500Y-94113970D01*
X136127500Y-94113970D01*
X136233428Y-94103537D01*
X136335286Y-94072639D01*
X136429158Y-94022463D01*
X136511438Y-93954938D01*
X136578963Y-93872658D01*
X136629139Y-93778786D01*
X136653038Y-93700000D01*
X137719197Y-93700000D01*
X137729783Y-93734898D01*
X137758011Y-93787710D01*
X137796000Y-93834000D01*
X137842290Y-93871989D01*
X137895102Y-93900217D01*
X137952406Y-93917600D01*
X138012000Y-93923470D01*
X138912000Y-93923470D01*
X138971594Y-93917600D01*
X139028898Y-93900217D01*
X139081710Y-93871989D01*
X139128000Y-93834000D01*
X139165989Y-93787710D01*
X139176523Y-93768000D01*
X139706529Y-93768000D01*
X139708000Y-94015000D01*
X139784000Y-94091000D01*
X140385000Y-94091000D01*
X140385000Y-93540000D01*
X140539000Y-93540000D01*
X140539000Y-94091000D01*
X141140000Y-94091000D01*
X141216000Y-94015000D01*
X141217471Y-93768000D01*
X141211601Y-93708406D01*
X141194218Y-93651101D01*
X141165990Y-93598289D01*
X141128001Y-93551999D01*
X141081711Y-93514010D01*
X141028899Y-93485782D01*
X140971594Y-93468399D01*
X140912000Y-93462529D01*
X140615000Y-93464000D01*
X140539000Y-93540000D01*
X140385000Y-93540000D01*
X140309000Y-93464000D01*
X140012000Y-93462529D01*
X139952406Y-93468399D01*
X139895101Y-93485782D01*
X139842289Y-93514010D01*
X139795999Y-93551999D01*
X139758010Y-93598289D01*
X139729782Y-93651101D01*
X139712399Y-93708406D01*
X139706529Y-93768000D01*
X139176523Y-93768000D01*
X139194217Y-93734898D01*
X139211600Y-93677594D01*
X139217470Y-93618000D01*
X139217470Y-92818000D01*
X139211600Y-92758406D01*
X139194217Y-92701102D01*
X139165989Y-92648290D01*
X139128000Y-92602000D01*
X139081710Y-92564011D01*
X139028898Y-92535783D01*
X138971594Y-92518400D01*
X138912000Y-92512530D01*
X138012000Y-92512530D01*
X137952406Y-92518400D01*
X137895102Y-92535783D01*
X137842290Y-92564011D01*
X137796000Y-92602000D01*
X137758011Y-92648290D01*
X137729783Y-92701102D01*
X137712400Y-92758406D01*
X137706530Y-92818000D01*
X137706530Y-92842000D01*
X136653038Y-92842000D01*
X136629139Y-92763214D01*
X136578963Y-92669342D01*
X136511438Y-92587062D01*
X136429158Y-92519537D01*
X136335286Y-92469361D01*
X136233428Y-92438463D01*
X136127500Y-92428030D01*
X135652500Y-92428030D01*
X135546572Y-92438463D01*
X135522340Y-92445814D01*
X135514067Y-92444999D01*
X135514057Y-92444999D01*
X135492999Y-92442925D01*
X135471941Y-92444999D01*
X128000059Y-92444999D01*
X127979001Y-92442925D01*
X127957943Y-92444999D01*
X125149067Y-92444999D01*
X125127999Y-92442924D01*
X125043900Y-92451207D01*
X124963034Y-92475738D01*
X124888507Y-92515573D01*
X124839547Y-92555753D01*
X124839545Y-92555755D01*
X124823183Y-92569183D01*
X124809755Y-92585545D01*
X124462545Y-92932756D01*
X124446184Y-92946183D01*
X124432756Y-92962545D01*
X124432753Y-92962548D01*
X124392573Y-93011507D01*
X124352739Y-93086034D01*
X124328208Y-93166900D01*
X124319925Y-93250999D01*
X124322000Y-93272066D01*
X124321999Y-94054353D01*
X124319925Y-94075411D01*
X124321999Y-94096469D01*
X124321999Y-94096478D01*
X124328207Y-94159509D01*
X124352738Y-94240375D01*
X124367048Y-94267148D01*
X124392573Y-94314903D01*
X124422108Y-94350891D01*
X124446183Y-94380227D01*
X124462550Y-94393659D01*
X124774645Y-94705754D01*
X124742000Y-94715657D01*
X124701594Y-94703400D01*
X124642000Y-94697530D01*
X124342000Y-94697530D01*
X124282406Y-94703400D01*
X124241942Y-94715675D01*
X124202489Y-94703578D01*
X124145000Y-94699000D01*
X124069000Y-94775000D01*
X124069000Y-94868858D01*
X124059783Y-94886102D01*
X124042400Y-94943406D01*
X124036530Y-95003000D01*
X124036530Y-95703000D01*
X124042400Y-95762594D01*
X124059783Y-95819898D01*
X124069000Y-95837142D01*
X124069000Y-95931000D01*
X124145000Y-96007000D01*
X124202489Y-96002422D01*
X124241942Y-95990325D01*
X124282406Y-96002600D01*
X124342000Y-96008470D01*
X124642000Y-96008470D01*
X124701594Y-96002600D01*
X124742000Y-95990343D01*
X124782406Y-96002600D01*
X124842000Y-96008470D01*
X125063001Y-96008470D01*
X125063001Y-96040301D01*
X124953552Y-96149749D01*
X124937184Y-96163182D01*
X124920085Y-96184018D01*
X124883574Y-96228506D01*
X124876060Y-96242564D01*
X124843739Y-96303034D01*
X124819208Y-96383900D01*
X124817866Y-96397530D01*
X124592000Y-96397530D01*
X124532406Y-96403400D01*
X124492000Y-96415657D01*
X124451594Y-96403400D01*
X124392000Y-96397530D01*
X124092000Y-96397530D01*
X124032406Y-96403400D01*
X123991942Y-96415675D01*
X123952489Y-96403578D01*
X123895000Y-96399000D01*
X123819000Y-96475000D01*
X123819000Y-96568858D01*
X123809783Y-96586102D01*
X123792400Y-96643406D01*
X123786530Y-96703000D01*
X123665000Y-96703000D01*
X123665000Y-96659080D01*
X123669077Y-96648990D01*
X123681504Y-96619425D01*
X123682933Y-96614693D01*
X123700841Y-96553845D01*
X123706854Y-96522319D01*
X123713303Y-96490904D01*
X123713786Y-96485984D01*
X123719535Y-96422816D01*
X123719311Y-96390698D01*
X123719535Y-96358647D01*
X123719053Y-96353728D01*
X123712423Y-96290647D01*
X123705964Y-96259182D01*
X123699960Y-96227705D01*
X123698531Y-96222972D01*
X123698531Y-96222970D01*
X123698529Y-96222964D01*
X123679776Y-96162380D01*
X123667331Y-96132775D01*
X123655320Y-96103047D01*
X123653000Y-96098683D01*
X123622831Y-96042888D01*
X123604885Y-96016283D01*
X123587321Y-95989443D01*
X123584197Y-95985612D01*
X123543766Y-95936740D01*
X123520992Y-95914125D01*
X123498553Y-95891211D01*
X123494744Y-95888060D01*
X123445590Y-95847971D01*
X123418874Y-95830221D01*
X123392394Y-95812090D01*
X123388046Y-95809738D01*
X123332042Y-95779960D01*
X123302343Y-95767719D01*
X123272887Y-95755094D01*
X123268169Y-95753633D01*
X123268163Y-95753631D01*
X123207443Y-95735299D01*
X123175959Y-95729065D01*
X123144589Y-95722397D01*
X123139673Y-95721880D01*
X123076547Y-95715690D01*
X123076541Y-95715690D01*
X123059382Y-95714000D01*
X123046248Y-95714000D01*
X123048751Y-95702087D01*
X123536530Y-95702087D01*
X123542222Y-95761699D01*
X123559434Y-95819055D01*
X123587504Y-95871951D01*
X123625355Y-95918354D01*
X123671531Y-95956482D01*
X123724259Y-95984868D01*
X123781511Y-96002422D01*
X123839000Y-96007000D01*
X123915000Y-95931000D01*
X123915000Y-95430000D01*
X123614000Y-95430000D01*
X123538000Y-95506000D01*
X123536530Y-95702087D01*
X123048751Y-95702087D01*
X123066000Y-95620000D01*
X123066000Y-95220000D01*
X122966000Y-95220000D01*
X122966000Y-95066000D01*
X123066000Y-95066000D01*
X123066000Y-95003913D01*
X123536530Y-95003913D01*
X123538000Y-95200000D01*
X123614000Y-95276000D01*
X123915000Y-95276000D01*
X123915000Y-94775000D01*
X123839000Y-94699000D01*
X123781511Y-94703578D01*
X123724259Y-94721132D01*
X123671531Y-94749518D01*
X123625355Y-94787646D01*
X123587504Y-94834049D01*
X123559434Y-94886945D01*
X123542222Y-94944301D01*
X123536530Y-95003913D01*
X123066000Y-95003913D01*
X123066000Y-94666000D01*
X123037451Y-94530136D01*
X122982945Y-94402452D01*
X122904576Y-94287855D01*
X122805356Y-94190749D01*
X122689098Y-94114866D01*
X122547521Y-94063885D01*
X122439000Y-94119738D01*
X122439000Y-94244852D01*
X122396543Y-94240689D01*
X122381084Y-94240689D01*
X122365726Y-94239020D01*
X122360783Y-94239002D01*
X122359038Y-94239008D01*
X122343640Y-94240571D01*
X122328172Y-94240463D01*
X122323252Y-94240945D01*
X122285000Y-94244965D01*
X122285000Y-94119738D01*
X122176479Y-94063885D01*
X122034902Y-94114866D01*
X121918644Y-94190749D01*
X121819424Y-94287855D01*
X121741055Y-94402452D01*
X121686549Y-94530136D01*
X121658000Y-94666000D01*
X115899000Y-94666000D01*
X115899000Y-88716000D01*
X121298000Y-88716000D01*
X121298000Y-89116000D01*
X121398001Y-89116000D01*
X121398000Y-89270000D01*
X121298000Y-89270000D01*
X121298000Y-89670000D01*
X121326549Y-89805864D01*
X121381055Y-89933548D01*
X121459424Y-90048145D01*
X121558644Y-90145251D01*
X121674902Y-90221134D01*
X121816479Y-90272115D01*
X121925000Y-90216262D01*
X121925000Y-90091148D01*
X121967458Y-90095311D01*
X121982916Y-90095311D01*
X121998274Y-90096980D01*
X122003217Y-90096998D01*
X122004962Y-90096992D01*
X122020360Y-90095429D01*
X122035828Y-90095537D01*
X122040748Y-90095055D01*
X122079000Y-90091035D01*
X122079000Y-90216262D01*
X122187521Y-90272115D01*
X122329098Y-90221134D01*
X122445356Y-90145251D01*
X122544576Y-90048145D01*
X122622945Y-89933548D01*
X122677451Y-89805864D01*
X122706000Y-89670000D01*
X122706000Y-89270000D01*
X122606000Y-89270000D01*
X122606000Y-89116000D01*
X122706000Y-89116000D01*
X122706000Y-88716000D01*
X130278000Y-88716000D01*
X130278000Y-89116000D01*
X130378001Y-89116000D01*
X130378000Y-89270000D01*
X130278000Y-89270000D01*
X130278000Y-89670000D01*
X130306549Y-89805864D01*
X130361055Y-89933548D01*
X130439424Y-90048145D01*
X130538644Y-90145251D01*
X130654902Y-90221134D01*
X130796479Y-90272115D01*
X130905000Y-90216262D01*
X130905000Y-90091148D01*
X130947458Y-90095311D01*
X130962916Y-90095311D01*
X130978274Y-90096980D01*
X130983217Y-90096998D01*
X130984962Y-90096992D01*
X131000360Y-90095429D01*
X131015828Y-90095537D01*
X131020748Y-90095055D01*
X131059000Y-90091035D01*
X131059000Y-90216262D01*
X131167521Y-90272115D01*
X131309098Y-90221134D01*
X131425356Y-90145251D01*
X131433786Y-90137000D01*
X137740529Y-90137000D01*
X137746399Y-90196594D01*
X137763782Y-90253899D01*
X137792010Y-90306711D01*
X137829999Y-90353001D01*
X137876289Y-90390990D01*
X137929101Y-90419218D01*
X137986406Y-90436601D01*
X138046000Y-90442471D01*
X138430500Y-90441000D01*
X138506500Y-90365000D01*
X138506500Y-89739000D01*
X138660500Y-89739000D01*
X138660500Y-90365000D01*
X138736500Y-90441000D01*
X139121000Y-90442471D01*
X139180594Y-90436601D01*
X139237899Y-90419218D01*
X139290711Y-90390990D01*
X139337001Y-90353001D01*
X139374990Y-90306711D01*
X139403218Y-90253899D01*
X139420601Y-90196594D01*
X139426471Y-90137000D01*
X139425000Y-89815000D01*
X139349000Y-89739000D01*
X138660500Y-89739000D01*
X138506500Y-89739000D01*
X137818000Y-89739000D01*
X137742000Y-89815000D01*
X137740529Y-90137000D01*
X131433786Y-90137000D01*
X131524576Y-90048145D01*
X131602945Y-89933548D01*
X131657451Y-89805864D01*
X131686000Y-89670000D01*
X131686000Y-89270000D01*
X131586000Y-89270000D01*
X131586000Y-89187000D01*
X137740529Y-89187000D01*
X137742000Y-89509000D01*
X137818000Y-89585000D01*
X138506500Y-89585000D01*
X138506500Y-88959000D01*
X138660500Y-88959000D01*
X138660500Y-89585000D01*
X139349000Y-89585000D01*
X139425000Y-89509000D01*
X139426471Y-89187000D01*
X139420601Y-89127406D01*
X139403218Y-89070101D01*
X139374990Y-89017289D01*
X139337001Y-88970999D01*
X139290711Y-88933010D01*
X139237899Y-88904782D01*
X139180594Y-88887399D01*
X139121000Y-88881529D01*
X138736500Y-88883000D01*
X138660500Y-88959000D01*
X138506500Y-88959000D01*
X138430500Y-88883000D01*
X138046000Y-88881529D01*
X137986406Y-88887399D01*
X137929101Y-88904782D01*
X137876289Y-88933010D01*
X137829999Y-88970999D01*
X137792010Y-89017289D01*
X137763782Y-89070101D01*
X137746399Y-89127406D01*
X137740529Y-89187000D01*
X131586000Y-89187000D01*
X131586000Y-89116000D01*
X131686000Y-89116000D01*
X131686000Y-88716000D01*
X131657451Y-88580136D01*
X131602945Y-88452452D01*
X131524576Y-88337855D01*
X131425356Y-88240749D01*
X131309098Y-88164866D01*
X131167521Y-88113885D01*
X131059000Y-88169738D01*
X131059000Y-88294852D01*
X131016543Y-88290689D01*
X131001084Y-88290689D01*
X130985726Y-88289020D01*
X130980783Y-88289002D01*
X130979038Y-88289008D01*
X130963640Y-88290571D01*
X130948172Y-88290463D01*
X130943252Y-88290945D01*
X130905000Y-88294965D01*
X130905000Y-88169738D01*
X130796479Y-88113885D01*
X130654902Y-88164866D01*
X130538644Y-88240749D01*
X130439424Y-88337855D01*
X130361055Y-88452452D01*
X130306549Y-88580136D01*
X130278000Y-88716000D01*
X122706000Y-88716000D01*
X122677451Y-88580136D01*
X122622945Y-88452452D01*
X122544576Y-88337855D01*
X122445356Y-88240749D01*
X122329098Y-88164866D01*
X122187521Y-88113885D01*
X122079000Y-88169738D01*
X122079000Y-88294852D01*
X122036543Y-88290689D01*
X122021084Y-88290689D01*
X122005726Y-88289020D01*
X122000783Y-88289002D01*
X121999038Y-88289008D01*
X121983640Y-88290571D01*
X121968172Y-88290463D01*
X121963252Y-88290945D01*
X121925000Y-88294965D01*
X121925000Y-88169738D01*
X121816479Y-88113885D01*
X121674902Y-88164866D01*
X121558644Y-88240749D01*
X121459424Y-88337855D01*
X121381055Y-88452452D01*
X121326549Y-88580136D01*
X121298000Y-88716000D01*
X115899000Y-88716000D01*
X115899000Y-87959000D01*
X167311001Y-87959000D01*
X167311000Y-88916153D01*
%TA.AperFunction,Conductor*%
G36*
X167311000Y-88916153D02*
G01*
X167311001Y-88916163D01*
X167311000Y-127306000D01*
X115899000Y-127306000D01*
X115899000Y-116966341D01*
X125726000Y-116966341D01*
X125726000Y-117193659D01*
X125770347Y-117416609D01*
X125857338Y-117626624D01*
X125983629Y-117815632D01*
X126144368Y-117976371D01*
X126333376Y-118102662D01*
X126543391Y-118189653D01*
X126766341Y-118234000D01*
X126993659Y-118234000D01*
X127216609Y-118189653D01*
X127426624Y-118102662D01*
X127615632Y-117976371D01*
X127776371Y-117815632D01*
X127902662Y-117626624D01*
X127989653Y-117416609D01*
X128034000Y-117193659D01*
X128034000Y-116966341D01*
X128011471Y-116853076D01*
X129656000Y-116853076D01*
X129656000Y-117306924D01*
X129744541Y-117752052D01*
X129918222Y-118171353D01*
X130170366Y-118548714D01*
X130491286Y-118869634D01*
X130868647Y-119121778D01*
X131287948Y-119295459D01*
X131733076Y-119384000D01*
X132186924Y-119384000D01*
X132632052Y-119295459D01*
X133051353Y-119121778D01*
X133428714Y-118869634D01*
X133749634Y-118548714D01*
X134001778Y-118171353D01*
X134175459Y-117752052D01*
X134264000Y-117306924D01*
X134264000Y-116966341D01*
X135886000Y-116966341D01*
X135886000Y-117193659D01*
X135930347Y-117416609D01*
X136017338Y-117626624D01*
X136143629Y-117815632D01*
X136304368Y-117976371D01*
X136493376Y-118102662D01*
X136703391Y-118189653D01*
X136926341Y-118234000D01*
X137153659Y-118234000D01*
X137376609Y-118189653D01*
X137586624Y-118102662D01*
X137775632Y-117976371D01*
X137936371Y-117815632D01*
X138062662Y-117626624D01*
X138149653Y-117416609D01*
X138194000Y-117193659D01*
X138194000Y-116966341D01*
X144726000Y-116966341D01*
X144726000Y-117193659D01*
X144770347Y-117416609D01*
X144857338Y-117626624D01*
X144983629Y-117815632D01*
X145144368Y-117976371D01*
X145333376Y-118102662D01*
X145543391Y-118189653D01*
X145766341Y-118234000D01*
X145993659Y-118234000D01*
X146216609Y-118189653D01*
X146426624Y-118102662D01*
X146615632Y-117976371D01*
X146776371Y-117815632D01*
X146902662Y-117626624D01*
X146989653Y-117416609D01*
X147034000Y-117193659D01*
X147034000Y-116966341D01*
X147011471Y-116853076D01*
X148656000Y-116853076D01*
X148656000Y-117306924D01*
X148744541Y-117752052D01*
X148918222Y-118171353D01*
X149170366Y-118548714D01*
X149491286Y-118869634D01*
X149868647Y-119121778D01*
X150287948Y-119295459D01*
X150733076Y-119384000D01*
X151186924Y-119384000D01*
X151632052Y-119295459D01*
X152051353Y-119121778D01*
X152428714Y-118869634D01*
X152749634Y-118548714D01*
X153001778Y-118171353D01*
X153175459Y-117752052D01*
X153264000Y-117306924D01*
X153264000Y-116966341D01*
X154886000Y-116966341D01*
X154886000Y-117193659D01*
X154930347Y-117416609D01*
X155017338Y-117626624D01*
X155143629Y-117815632D01*
X155304368Y-117976371D01*
X155493376Y-118102662D01*
X155703391Y-118189653D01*
X155926341Y-118234000D01*
X156153659Y-118234000D01*
X156376609Y-118189653D01*
X156586624Y-118102662D01*
X156775632Y-117976371D01*
X156936371Y-117815632D01*
X157062662Y-117626624D01*
X157149653Y-117416609D01*
X157194000Y-117193659D01*
X157194000Y-116966341D01*
X157149653Y-116743391D01*
X157062662Y-116533376D01*
X156936371Y-116344368D01*
X156775632Y-116183629D01*
X156586624Y-116057338D01*
X156376609Y-115970347D01*
X156153659Y-115926000D01*
X155926341Y-115926000D01*
X155703391Y-115970347D01*
X155493376Y-116057338D01*
X155304368Y-116183629D01*
X155143629Y-116344368D01*
X155017338Y-116533376D01*
X154930347Y-116743391D01*
X154886000Y-116966341D01*
X153264000Y-116966341D01*
X153264000Y-116853076D01*
X153175459Y-116407948D01*
X153001778Y-115988647D01*
X152749634Y-115611286D01*
X152428714Y-115290366D01*
X152051353Y-115038222D01*
X151632052Y-114864541D01*
X151186924Y-114776000D01*
X150733076Y-114776000D01*
X150287948Y-114864541D01*
X149868647Y-115038222D01*
X149491286Y-115290366D01*
X149170366Y-115611286D01*
X148918222Y-115988647D01*
X148744541Y-116407948D01*
X148656000Y-116853076D01*
X147011471Y-116853076D01*
X146989653Y-116743391D01*
X146902662Y-116533376D01*
X146776371Y-116344368D01*
X146615632Y-116183629D01*
X146426624Y-116057338D01*
X146216609Y-115970347D01*
X145993659Y-115926000D01*
X145766341Y-115926000D01*
X145543391Y-115970347D01*
X145333376Y-116057338D01*
X145144368Y-116183629D01*
X144983629Y-116344368D01*
X144857338Y-116533376D01*
X144770347Y-116743391D01*
X144726000Y-116966341D01*
X138194000Y-116966341D01*
X138149653Y-116743391D01*
X138062662Y-116533376D01*
X137936371Y-116344368D01*
X137775632Y-116183629D01*
X137586624Y-116057338D01*
X137376609Y-115970347D01*
X137153659Y-115926000D01*
X136926341Y-115926000D01*
X136703391Y-115970347D01*
X136493376Y-116057338D01*
X136304368Y-116183629D01*
X136143629Y-116344368D01*
X136017338Y-116533376D01*
X135930347Y-116743391D01*
X135886000Y-116966341D01*
X134264000Y-116966341D01*
X134264000Y-116853076D01*
X134175459Y-116407948D01*
X134001778Y-115988647D01*
X133749634Y-115611286D01*
X133428714Y-115290366D01*
X133051353Y-115038222D01*
X132632052Y-114864541D01*
X132186924Y-114776000D01*
X131733076Y-114776000D01*
X131287948Y-114864541D01*
X130868647Y-115038222D01*
X130491286Y-115290366D01*
X130170366Y-115611286D01*
X129918222Y-115988647D01*
X129744541Y-116407948D01*
X129656000Y-116853076D01*
X128011471Y-116853076D01*
X127989653Y-116743391D01*
X127902662Y-116533376D01*
X127776371Y-116344368D01*
X127615632Y-116183629D01*
X127426624Y-116057338D01*
X127216609Y-115970347D01*
X126993659Y-115926000D01*
X126766341Y-115926000D01*
X126543391Y-115970347D01*
X126333376Y-116057338D01*
X126144368Y-116183629D01*
X125983629Y-116344368D01*
X125857338Y-116533376D01*
X125770347Y-116743391D01*
X125726000Y-116966341D01*
X115899000Y-116966341D01*
X115899000Y-114401718D01*
X126746000Y-114401718D01*
X126746000Y-114678282D01*
X126799955Y-114949532D01*
X126905792Y-115205043D01*
X127059442Y-115434998D01*
X127255002Y-115630558D01*
X127484957Y-115784208D01*
X127740468Y-115890045D01*
X128011718Y-115944000D01*
X128288282Y-115944000D01*
X128559532Y-115890045D01*
X128815043Y-115784208D01*
X129044998Y-115630558D01*
X129240558Y-115434998D01*
X129394208Y-115205043D01*
X129500045Y-114949532D01*
X129554000Y-114678282D01*
X129554000Y-114401718D01*
X145746000Y-114401718D01*
X145746000Y-114678282D01*
X145799955Y-114949532D01*
X145905792Y-115205043D01*
X146059442Y-115434998D01*
X146255002Y-115630558D01*
X146484957Y-115784208D01*
X146740468Y-115890045D01*
X147011718Y-115944000D01*
X147288282Y-115944000D01*
X147559532Y-115890045D01*
X147815043Y-115784208D01*
X148044998Y-115630558D01*
X148240558Y-115434998D01*
X148394208Y-115205043D01*
X148500045Y-114949532D01*
X148554000Y-114678282D01*
X148554000Y-114401718D01*
X148500045Y-114130468D01*
X148394208Y-113874957D01*
X148240558Y-113645002D01*
X148044998Y-113449442D01*
X147815043Y-113295792D01*
X147559532Y-113189955D01*
X147288282Y-113136000D01*
X147011718Y-113136000D01*
X146740468Y-113189955D01*
X146484957Y-113295792D01*
X146255002Y-113449442D01*
X146059442Y-113645002D01*
X145905792Y-113874957D01*
X145799955Y-114130468D01*
X145746000Y-114401718D01*
X129554000Y-114401718D01*
X129500045Y-114130468D01*
X129394208Y-113874957D01*
X129240558Y-113645002D01*
X129044998Y-113449442D01*
X128815043Y-113295792D01*
X128559532Y-113189955D01*
X128288282Y-113136000D01*
X128011718Y-113136000D01*
X127740468Y-113189955D01*
X127484957Y-113295792D01*
X127255002Y-113449442D01*
X127059442Y-113645002D01*
X126905792Y-113874957D01*
X126799955Y-114130468D01*
X126746000Y-114401718D01*
X115899000Y-114401718D01*
X115899000Y-112996717D01*
X133612178Y-112996717D01*
X133734288Y-113184914D01*
X133980166Y-113311529D01*
X134246021Y-113387742D01*
X134521637Y-113410626D01*
X134796421Y-113379301D01*
X135059813Y-113294969D01*
X135265712Y-113184914D01*
X135387822Y-112996717D01*
X152612178Y-112996717D01*
X152734288Y-113184914D01*
X152980166Y-113311529D01*
X153246021Y-113387742D01*
X153521637Y-113410626D01*
X153796421Y-113379301D01*
X154059813Y-113294969D01*
X154265712Y-113184914D01*
X154387822Y-112996717D01*
X153500000Y-112108894D01*
X152612178Y-112996717D01*
X135387822Y-112996717D01*
X134500000Y-112108894D01*
X133612178Y-112996717D01*
X115899000Y-112996717D01*
X115899000Y-112021637D01*
X133089374Y-112021637D01*
X133120699Y-112296421D01*
X133205031Y-112559813D01*
X133315086Y-112765712D01*
X133503283Y-112887822D01*
X134391106Y-112000000D01*
X134608894Y-112000000D01*
X135496717Y-112887822D01*
X135684914Y-112765712D01*
X135811529Y-112519834D01*
X135887742Y-112253979D01*
X135907033Y-112021637D01*
X152089374Y-112021637D01*
X152120699Y-112296421D01*
X152205031Y-112559813D01*
X152315086Y-112765712D01*
X152503283Y-112887822D01*
X153391106Y-112000000D01*
X153608894Y-112000000D01*
X154496717Y-112887822D01*
X154684914Y-112765712D01*
X154811529Y-112519834D01*
X154887742Y-112253979D01*
X154910626Y-111978363D01*
X154879301Y-111703579D01*
X154794969Y-111440187D01*
X154684914Y-111234288D01*
X154496717Y-111112178D01*
X153608894Y-112000000D01*
X153391106Y-112000000D01*
X152503283Y-111112178D01*
X152315086Y-111234288D01*
X152188471Y-111480166D01*
X152112258Y-111746021D01*
X152089374Y-112021637D01*
X135907033Y-112021637D01*
X135910626Y-111978363D01*
X135879301Y-111703579D01*
X135794969Y-111440187D01*
X135684914Y-111234288D01*
X135496717Y-111112178D01*
X134608894Y-112000000D01*
X134391106Y-112000000D01*
X133503283Y-111112178D01*
X133315086Y-111234288D01*
X133188471Y-111480166D01*
X133112258Y-111746021D01*
X133089374Y-112021637D01*
X115899000Y-112021637D01*
X115899000Y-111003283D01*
X133612178Y-111003283D01*
X134500000Y-111891106D01*
X135387822Y-111003283D01*
X152612178Y-111003283D01*
X153500000Y-111891106D01*
X154387822Y-111003283D01*
X154265712Y-110815086D01*
X154019834Y-110688471D01*
X153753979Y-110612258D01*
X153478363Y-110589374D01*
X153203579Y-110620699D01*
X152940187Y-110705031D01*
X152734288Y-110815086D01*
X152612178Y-111003283D01*
X135387822Y-111003283D01*
X135265712Y-110815086D01*
X135019834Y-110688471D01*
X134753979Y-110612258D01*
X134478363Y-110589374D01*
X134203579Y-110620699D01*
X133940187Y-110705031D01*
X133734288Y-110815086D01*
X133612178Y-111003283D01*
X115899000Y-111003283D01*
X115899000Y-104931500D01*
X147555529Y-104931500D01*
X147561399Y-104991094D01*
X147578782Y-105048399D01*
X147607010Y-105101211D01*
X147644999Y-105147501D01*
X147691289Y-105185490D01*
X147744101Y-105213718D01*
X147801406Y-105231101D01*
X147861000Y-105236971D01*
X148183000Y-105235500D01*
X148259000Y-105159500D01*
X148259000Y-104471000D01*
X148413000Y-104471000D01*
X148413000Y-105159500D01*
X148489000Y-105235500D01*
X148811000Y-105236971D01*
X148870594Y-105231101D01*
X148927899Y-105213718D01*
X148980711Y-105185490D01*
X149027001Y-105147501D01*
X149064990Y-105101211D01*
X149093218Y-105048399D01*
X149110601Y-104991094D01*
X149116471Y-104931500D01*
X149115000Y-104547000D01*
X149039000Y-104471000D01*
X148413000Y-104471000D01*
X148259000Y-104471000D01*
X147633000Y-104471000D01*
X147557000Y-104547000D01*
X147555529Y-104931500D01*
X115899000Y-104931500D01*
X115899000Y-103856500D01*
X147555529Y-103856500D01*
X147557000Y-104241000D01*
X147633000Y-104317000D01*
X148259000Y-104317000D01*
X148259000Y-103628500D01*
X148413000Y-103628500D01*
X148413000Y-104317000D01*
X149039000Y-104317000D01*
X149115000Y-104241000D01*
X149116471Y-103856500D01*
X149110601Y-103796906D01*
X149093218Y-103739601D01*
X149064990Y-103686789D01*
X149027001Y-103640499D01*
X148980711Y-103602510D01*
X148927899Y-103574282D01*
X148870594Y-103556899D01*
X148811000Y-103551029D01*
X148489000Y-103552500D01*
X148413000Y-103628500D01*
X148259000Y-103628500D01*
X148183000Y-103552500D01*
X147861000Y-103551029D01*
X147801406Y-103556899D01*
X147744101Y-103574282D01*
X147691289Y-103602510D01*
X147644999Y-103640499D01*
X147607010Y-103686789D01*
X147578782Y-103739601D01*
X147561399Y-103796906D01*
X147555529Y-103856500D01*
X115899000Y-103856500D01*
X115899000Y-102263500D01*
X124088529Y-102263500D01*
X124094399Y-102323094D01*
X124111782Y-102380399D01*
X124140010Y-102433211D01*
X124177999Y-102479501D01*
X124224289Y-102517490D01*
X124277101Y-102545718D01*
X124334406Y-102563101D01*
X124394000Y-102568971D01*
X124561000Y-102567500D01*
X124637000Y-102491500D01*
X124637000Y-101983000D01*
X124791000Y-101983000D01*
X124791000Y-102491500D01*
X124867000Y-102567500D01*
X125034000Y-102568971D01*
X125093594Y-102563101D01*
X125150899Y-102545718D01*
X125203711Y-102517490D01*
X125250001Y-102479501D01*
X125287990Y-102433211D01*
X125316218Y-102380399D01*
X125333601Y-102323094D01*
X125339471Y-102263500D01*
X125338828Y-102174000D01*
X126882529Y-102174000D01*
X126888399Y-102233594D01*
X126905782Y-102290899D01*
X126934010Y-102343711D01*
X126971999Y-102390001D01*
X127018289Y-102427990D01*
X127071101Y-102456218D01*
X127128406Y-102473601D01*
X127188000Y-102479471D01*
X127355000Y-102478000D01*
X127431000Y-102402000D01*
X127431000Y-101893500D01*
X127585000Y-101893500D01*
X127585000Y-102402000D01*
X127661000Y-102478000D01*
X127828000Y-102479471D01*
X127887594Y-102473601D01*
X127944899Y-102456218D01*
X127997711Y-102427990D01*
X128044001Y-102390001D01*
X128081990Y-102343711D01*
X128110218Y-102290899D01*
X128127601Y-102233594D01*
X128133471Y-102174000D01*
X128132000Y-101969500D01*
X128056000Y-101893500D01*
X127585000Y-101893500D01*
X127431000Y-101893500D01*
X126960000Y-101893500D01*
X126884000Y-101969500D01*
X126882529Y-102174000D01*
X125338828Y-102174000D01*
X125338000Y-102059000D01*
X125262000Y-101983000D01*
X124791000Y-101983000D01*
X124637000Y-101983000D01*
X124166000Y-101983000D01*
X124090000Y-102059000D01*
X124088529Y-102263500D01*
X115899000Y-102263500D01*
X115899000Y-99371662D01*
X124010000Y-99371662D01*
X124010000Y-99510338D01*
X124037055Y-99646349D01*
X124090124Y-99774469D01*
X124167168Y-99889774D01*
X124265226Y-99987832D01*
X124285000Y-100001045D01*
X124285001Y-100135010D01*
X124224863Y-100184363D01*
X124166976Y-100254899D01*
X124123962Y-100335372D01*
X124097474Y-100422691D01*
X124088530Y-100513500D01*
X124088530Y-100908500D01*
X124097474Y-100999309D01*
X124123962Y-101086628D01*
X124166976Y-101167101D01*
X124224863Y-101237637D01*
X124266604Y-101271893D01*
X124224289Y-101294510D01*
X124177999Y-101332499D01*
X124140010Y-101378789D01*
X124111782Y-101431601D01*
X124094399Y-101488906D01*
X124088529Y-101548500D01*
X124090000Y-101753000D01*
X124166000Y-101829000D01*
X124637000Y-101829000D01*
X124637000Y-101809000D01*
X124791000Y-101809000D01*
X124791000Y-101829000D01*
X125262000Y-101829000D01*
X125338000Y-101753000D01*
X125339471Y-101548500D01*
X125333601Y-101488906D01*
X125316218Y-101431601D01*
X125287990Y-101378789D01*
X125250001Y-101332499D01*
X125203711Y-101294510D01*
X125161396Y-101271893D01*
X125203137Y-101237637D01*
X125261024Y-101167101D01*
X125304038Y-101086628D01*
X125330526Y-100999309D01*
X125339470Y-100908500D01*
X125339470Y-100513500D01*
X125330526Y-100422691D01*
X125304038Y-100335372D01*
X125261024Y-100254899D01*
X125203137Y-100184363D01*
X125143000Y-100135010D01*
X125143000Y-100001045D01*
X125162774Y-99987832D01*
X125260832Y-99889774D01*
X125337876Y-99774469D01*
X125390945Y-99646349D01*
X125418000Y-99510338D01*
X125418000Y-99371662D01*
X125390945Y-99235651D01*
X125337876Y-99107531D01*
X125260832Y-98992226D01*
X125162774Y-98894168D01*
X125047469Y-98817124D01*
X124919349Y-98764055D01*
X124783338Y-98737000D01*
X124644662Y-98737000D01*
X124508651Y-98764055D01*
X124380531Y-98817124D01*
X124265226Y-98894168D01*
X124167168Y-98992226D01*
X124090124Y-99107531D01*
X124037055Y-99235651D01*
X124010000Y-99371662D01*
X115899000Y-99371662D01*
X115899000Y-97402087D01*
X123286530Y-97402087D01*
X123292222Y-97461699D01*
X123309434Y-97519055D01*
X123337504Y-97571951D01*
X123375355Y-97618354D01*
X123421531Y-97656482D01*
X123474259Y-97684868D01*
X123531511Y-97702422D01*
X123589000Y-97707000D01*
X123665000Y-97631000D01*
X123665000Y-97130000D01*
X123364000Y-97130000D01*
X123288000Y-97206000D01*
X123286530Y-97402087D01*
X115899000Y-97402087D01*
X115899000Y-94666000D01*
X121658000Y-94666000D01*
X121658000Y-95066000D01*
X121758001Y-95066000D01*
X121758000Y-95220000D01*
X121658000Y-95220000D01*
X121658000Y-95620000D01*
X121686549Y-95755864D01*
X121741055Y-95883548D01*
X121819424Y-95998145D01*
X121918644Y-96095251D01*
X122034902Y-96171134D01*
X122094773Y-96192693D01*
X122083159Y-96232155D01*
X122077146Y-96263681D01*
X122070697Y-96295096D01*
X122070214Y-96300016D01*
X122064465Y-96363184D01*
X122064689Y-96395301D01*
X122064465Y-96427352D01*
X122064947Y-96432272D01*
X122071577Y-96495352D01*
X122078036Y-96526816D01*
X122084040Y-96558295D01*
X122085468Y-96563027D01*
X122104224Y-96623620D01*
X122116664Y-96653213D01*
X122128680Y-96682953D01*
X122131000Y-96687317D01*
X122161169Y-96743112D01*
X122179115Y-96769717D01*
X122196679Y-96796557D01*
X122199803Y-96800388D01*
X122240234Y-96849260D01*
X122263024Y-96871892D01*
X122285447Y-96894789D01*
X122289250Y-96897935D01*
X122289257Y-96897942D01*
X122289265Y-96897947D01*
X122338410Y-96938029D01*
X122365116Y-96955772D01*
X122391606Y-96973911D01*
X122395954Y-96976262D01*
X122451959Y-97006040D01*
X122481632Y-97018271D01*
X122511113Y-97030906D01*
X122515835Y-97032368D01*
X122576557Y-97050701D01*
X122608041Y-97056935D01*
X122639411Y-97063603D01*
X122644327Y-97064120D01*
X122707453Y-97070310D01*
X122707459Y-97070310D01*
X122724618Y-97072000D01*
X123059382Y-97072000D01*
X123076866Y-97070278D01*
X123081080Y-97070278D01*
X123085996Y-97069762D01*
X123149029Y-97062692D01*
X123180431Y-97056017D01*
X123211888Y-97049789D01*
X123216610Y-97048328D01*
X123277070Y-97029149D01*
X123306625Y-97016482D01*
X123336223Y-97004282D01*
X123340572Y-97001932D01*
X123387741Y-96976000D01*
X123665000Y-96976000D01*
X123665000Y-96703000D01*
X123786530Y-96703000D01*
X123786530Y-97403000D01*
X123792400Y-97462594D01*
X123809783Y-97519898D01*
X123819000Y-97537142D01*
X123819000Y-97631000D01*
X123895000Y-97707000D01*
X123952489Y-97702422D01*
X123991942Y-97690325D01*
X124032406Y-97702600D01*
X124092000Y-97708470D01*
X124392000Y-97708470D01*
X124451594Y-97702600D01*
X124492000Y-97690343D01*
X124532406Y-97702600D01*
X124592000Y-97708470D01*
X124892000Y-97708470D01*
X124951594Y-97702600D01*
X124992000Y-97690343D01*
X125032406Y-97702600D01*
X125092000Y-97708470D01*
X125392000Y-97708470D01*
X125451594Y-97702600D01*
X125492000Y-97690343D01*
X125532406Y-97702600D01*
X125592000Y-97708470D01*
X125597802Y-97708470D01*
X125585739Y-97731038D01*
X125561208Y-97811904D01*
X125555000Y-97874935D01*
X125555000Y-97874944D01*
X125552926Y-97896002D01*
X125555000Y-97917060D01*
X125555001Y-98460926D01*
X125555000Y-98460935D01*
X125555000Y-98657942D01*
X125552926Y-98679000D01*
X125555000Y-98700058D01*
X125555000Y-98700068D01*
X125561208Y-98763099D01*
X125585739Y-98843965D01*
X125621425Y-98910729D01*
X125625574Y-98918492D01*
X125665337Y-98966942D01*
X125679185Y-98983816D01*
X125695546Y-98997243D01*
X126046640Y-99348337D01*
X126042000Y-99371662D01*
X126042000Y-99510338D01*
X126069055Y-99646349D01*
X126122124Y-99774469D01*
X126199168Y-99889774D01*
X126297226Y-99987832D01*
X126412531Y-100064876D01*
X126540651Y-100117945D01*
X126676662Y-100145000D01*
X126815338Y-100145000D01*
X126951349Y-100117945D01*
X127030877Y-100085003D01*
X127018863Y-100094863D01*
X126960976Y-100165399D01*
X126917962Y-100245872D01*
X126891474Y-100333191D01*
X126882530Y-100424000D01*
X126882530Y-100819000D01*
X126891474Y-100909809D01*
X126917962Y-100997128D01*
X126960976Y-101077601D01*
X127018863Y-101148137D01*
X127060604Y-101182393D01*
X127018289Y-101205010D01*
X126971999Y-101242999D01*
X126934010Y-101289289D01*
X126905782Y-101342101D01*
X126888399Y-101399406D01*
X126882529Y-101459000D01*
X126884000Y-101663500D01*
X126960000Y-101739500D01*
X127431000Y-101739500D01*
X127431000Y-101719500D01*
X127585000Y-101719500D01*
X127585000Y-101739500D01*
X128056000Y-101739500D01*
X128132000Y-101663500D01*
X128133471Y-101459000D01*
X128127601Y-101399406D01*
X128110218Y-101342101D01*
X128081990Y-101289289D01*
X128044001Y-101242999D01*
X127997711Y-101205010D01*
X127955396Y-101182393D01*
X127997137Y-101148137D01*
X128055024Y-101077601D01*
X128098038Y-100997128D01*
X128124526Y-100909809D01*
X128133470Y-100819000D01*
X128133470Y-100424000D01*
X128124526Y-100333191D01*
X128098038Y-100245872D01*
X128055024Y-100165399D01*
X127997137Y-100094863D01*
X127937000Y-100045510D01*
X127937000Y-99829658D01*
X127977168Y-99889774D01*
X128075226Y-99987832D01*
X128190531Y-100064876D01*
X128318651Y-100117945D01*
X128454662Y-100145000D01*
X128593338Y-100145000D01*
X128729349Y-100117945D01*
X128857469Y-100064876D01*
X128972774Y-99987832D01*
X129070832Y-99889774D01*
X129084045Y-99870000D01*
X130280942Y-99870000D01*
X130302000Y-99872074D01*
X130323058Y-99870000D01*
X130323068Y-99870000D01*
X130386099Y-99863792D01*
X130466965Y-99839261D01*
X130541492Y-99799426D01*
X130606816Y-99745816D01*
X130620248Y-99729449D01*
X131758697Y-98591000D01*
X132212811Y-98591000D01*
X132139226Y-98640168D01*
X132041168Y-98738226D01*
X131964124Y-98853531D01*
X131911055Y-98981651D01*
X131884000Y-99117662D01*
X131884000Y-99256338D01*
X131911055Y-99392349D01*
X131964124Y-99520469D01*
X132041168Y-99635774D01*
X132139226Y-99733832D01*
X132254531Y-99810876D01*
X132382651Y-99863945D01*
X132518662Y-99891000D01*
X132657338Y-99891000D01*
X132793349Y-99863945D01*
X132921469Y-99810876D01*
X133036774Y-99733832D01*
X133134832Y-99635774D01*
X133211876Y-99520469D01*
X133264945Y-99392349D01*
X133292000Y-99256338D01*
X133292000Y-99117662D01*
X133287360Y-99094337D01*
X133290698Y-99091000D01*
X137522000Y-99091000D01*
X137522000Y-99256942D01*
X137521451Y-99259919D01*
X137522000Y-99299072D01*
X137522000Y-99317223D01*
X137522297Y-99320236D01*
X137522339Y-99323248D01*
X137524362Y-99341203D01*
X137528208Y-99380254D01*
X137529088Y-99383156D01*
X137530535Y-99395999D01*
X137531679Y-99423172D01*
X137540236Y-99458379D01*
X137547803Y-99493814D01*
X137558561Y-99518789D01*
X137570817Y-99553816D01*
X137577978Y-99580051D01*
X137594154Y-99612470D01*
X137609420Y-99645340D01*
X137625470Y-99667300D01*
X137645201Y-99698702D01*
X137658024Y-99722693D01*
X137681032Y-99750728D01*
X137703207Y-99779349D01*
X137723733Y-99797180D01*
X137749971Y-99823419D01*
X137767805Y-99843947D01*
X137796447Y-99866139D01*
X137824461Y-99889129D01*
X137848444Y-99901948D01*
X137879854Y-99921684D01*
X137901814Y-99937734D01*
X137934684Y-99953000D01*
X137967103Y-99969176D01*
X137993338Y-99976337D01*
X138028363Y-99988593D01*
X138053334Y-99999349D01*
X138088767Y-100006916D01*
X138123981Y-100015475D01*
X138151151Y-100016619D01*
X138188036Y-100020775D01*
X138214771Y-100025704D01*
X138251000Y-100025196D01*
X138287230Y-100025704D01*
X138313968Y-100020774D01*
X138350849Y-100016619D01*
X138378017Y-100015475D01*
X138413229Y-100006916D01*
X138448665Y-99999349D01*
X138473636Y-99988593D01*
X138508661Y-99976337D01*
X138534896Y-99969176D01*
X138567315Y-99953000D01*
X138600185Y-99937734D01*
X138622145Y-99921684D01*
X138653547Y-99901953D01*
X138677538Y-99889130D01*
X138705573Y-99866122D01*
X138734194Y-99843947D01*
X138752025Y-99823421D01*
X138778264Y-99797183D01*
X138798792Y-99779349D01*
X138820984Y-99750707D01*
X138843974Y-99722693D01*
X138850999Y-99709550D01*
X138858024Y-99722693D01*
X138881032Y-99750728D01*
X138903207Y-99779349D01*
X138923733Y-99797180D01*
X138949971Y-99823419D01*
X138967805Y-99843947D01*
X138996447Y-99866139D01*
X139024461Y-99889129D01*
X139048444Y-99901948D01*
X139079854Y-99921684D01*
X139101814Y-99937734D01*
X139134684Y-99953000D01*
X139167103Y-99969176D01*
X139193338Y-99976337D01*
X139228363Y-99988593D01*
X139253334Y-99999349D01*
X139288767Y-100006916D01*
X139323981Y-100015475D01*
X139351151Y-100016619D01*
X139388036Y-100020775D01*
X139414771Y-100025704D01*
X139451000Y-100025196D01*
X139487230Y-100025704D01*
X139513968Y-100020774D01*
X139550849Y-100016619D01*
X139578017Y-100015475D01*
X139613229Y-100006916D01*
X139648665Y-99999349D01*
X139673636Y-99988593D01*
X139708661Y-99976337D01*
X139734896Y-99969176D01*
X139767315Y-99953000D01*
X139800185Y-99937734D01*
X139822145Y-99921684D01*
X139853547Y-99901953D01*
X139877538Y-99889130D01*
X139905573Y-99866122D01*
X139934194Y-99843947D01*
X139952025Y-99823421D01*
X139978264Y-99797183D01*
X139998792Y-99779349D01*
X140020984Y-99750707D01*
X140043974Y-99722693D01*
X140056793Y-99698710D01*
X140076529Y-99667300D01*
X140092579Y-99645340D01*
X140107845Y-99612470D01*
X140124021Y-99580051D01*
X140131182Y-99553816D01*
X140143436Y-99518796D01*
X140154194Y-99493821D01*
X140161761Y-99458384D01*
X140170320Y-99423173D01*
X140171464Y-99396004D01*
X140172911Y-99383157D01*
X140173792Y-99380254D01*
X140177635Y-99341240D01*
X140179661Y-99323256D01*
X140179703Y-99320235D01*
X140180000Y-99317223D01*
X140180000Y-99299079D01*
X140180549Y-99259926D01*
X140180000Y-99256948D01*
X140180000Y-99091000D01*
X142050302Y-99091000D01*
X142059751Y-99100449D01*
X142073183Y-99116816D01*
X142138507Y-99170426D01*
X142213034Y-99210261D01*
X142293900Y-99234792D01*
X142356931Y-99241000D01*
X142356940Y-99241000D01*
X142377998Y-99243074D01*
X142399056Y-99241000D01*
X142515614Y-99241000D01*
X142524011Y-99256710D01*
X142562000Y-99303000D01*
X142608290Y-99340989D01*
X142661102Y-99369217D01*
X142718406Y-99386600D01*
X142778000Y-99392470D01*
X144378000Y-99392470D01*
X144437594Y-99386600D01*
X144460282Y-99379718D01*
X144453400Y-99402406D01*
X144447530Y-99462000D01*
X144447530Y-101050105D01*
X144319531Y-101103124D01*
X144204226Y-101180168D01*
X144106168Y-101278226D01*
X144029124Y-101393531D01*
X143976055Y-101521651D01*
X143949000Y-101657662D01*
X143949000Y-101796338D01*
X143976055Y-101932349D01*
X144029124Y-102060469D01*
X144106168Y-102175774D01*
X144204226Y-102273832D01*
X144319531Y-102350876D01*
X144447651Y-102403945D01*
X144583662Y-102431000D01*
X144722338Y-102431000D01*
X144858349Y-102403945D01*
X144986469Y-102350876D01*
X145101774Y-102273832D01*
X145199832Y-102175774D01*
X145276876Y-102060469D01*
X145288000Y-102033613D01*
X145299124Y-102060469D01*
X145376168Y-102175774D01*
X145474226Y-102273832D01*
X145589531Y-102350876D01*
X145717651Y-102403945D01*
X145853662Y-102431000D01*
X145992338Y-102431000D01*
X146128349Y-102403945D01*
X146256469Y-102350876D01*
X146371774Y-102273832D01*
X146469832Y-102175774D01*
X146546876Y-102060469D01*
X146599945Y-101932349D01*
X146627000Y-101796338D01*
X146627000Y-101657662D01*
X146622360Y-101634337D01*
X146889228Y-101367470D01*
X146903000Y-101367470D01*
X146962594Y-101361600D01*
X147019898Y-101344217D01*
X147027999Y-101339887D01*
X147036101Y-101344218D01*
X147093406Y-101361601D01*
X147153000Y-101367471D01*
X147275000Y-101366000D01*
X147351000Y-101290000D01*
X147351000Y-100339000D01*
X147331000Y-100339000D01*
X147331000Y-100185000D01*
X147351000Y-100185000D01*
X147351000Y-99234000D01*
X147275000Y-99158000D01*
X147153000Y-99156529D01*
X147093406Y-99162399D01*
X147036101Y-99179782D01*
X147027999Y-99184113D01*
X147019898Y-99179783D01*
X146962594Y-99162400D01*
X146903000Y-99156530D01*
X146386000Y-99156530D01*
X146386000Y-98243130D01*
X146789131Y-97840000D01*
X148540000Y-97840000D01*
X148540001Y-98859269D01*
X148509982Y-98915431D01*
X148478075Y-99020614D01*
X148470000Y-99102598D01*
X148470000Y-99102605D01*
X148467302Y-99130000D01*
X148469915Y-99156530D01*
X147953000Y-99156530D01*
X147893406Y-99162400D01*
X147836102Y-99179783D01*
X147828001Y-99184113D01*
X147819899Y-99179782D01*
X147762594Y-99162399D01*
X147703000Y-99156529D01*
X147581000Y-99158000D01*
X147505000Y-99234000D01*
X147505000Y-100185000D01*
X147525000Y-100185000D01*
X147525000Y-100339000D01*
X147505000Y-100339000D01*
X147505000Y-101290000D01*
X147581000Y-101366000D01*
X147670000Y-101367073D01*
X147670001Y-102039360D01*
X147647037Y-102067342D01*
X147596861Y-102161214D01*
X147565963Y-102263072D01*
X147555530Y-102369000D01*
X147555530Y-102969000D01*
X147565963Y-103074928D01*
X147596861Y-103176786D01*
X147647037Y-103270658D01*
X147714562Y-103352938D01*
X147796842Y-103420463D01*
X147890714Y-103470639D01*
X147992572Y-103501537D01*
X148098500Y-103511970D01*
X148573500Y-103511970D01*
X148679428Y-103501537D01*
X148781286Y-103470639D01*
X148875158Y-103420463D01*
X148957438Y-103352938D01*
X149024963Y-103270658D01*
X149075139Y-103176786D01*
X149106037Y-103074928D01*
X149116470Y-102969000D01*
X149116470Y-102369000D01*
X149106037Y-102263072D01*
X149105643Y-102261774D01*
X149322030Y-102478161D01*
X149322030Y-102517000D01*
X149330878Y-102606833D01*
X149357081Y-102693214D01*
X149399633Y-102772823D01*
X149456899Y-102842601D01*
X149526677Y-102899867D01*
X149606286Y-102942419D01*
X149692667Y-102968622D01*
X149782500Y-102977470D01*
X150207500Y-102977470D01*
X150297333Y-102968622D01*
X150383714Y-102942419D01*
X150463323Y-102899867D01*
X150518843Y-102854302D01*
X150546499Y-102888001D01*
X150592789Y-102925990D01*
X150645601Y-102954218D01*
X150702906Y-102971601D01*
X150762500Y-102977471D01*
X150977000Y-102976000D01*
X151053000Y-102900000D01*
X151053000Y-102439000D01*
X151207000Y-102439000D01*
X151207000Y-102900000D01*
X151283000Y-102976000D01*
X151497500Y-102977471D01*
X151557094Y-102971601D01*
X151614399Y-102954218D01*
X151667211Y-102925990D01*
X151713501Y-102888001D01*
X151751490Y-102841711D01*
X151779718Y-102788899D01*
X151797101Y-102731594D01*
X151802971Y-102672000D01*
X151801500Y-102515000D01*
X151725500Y-102439000D01*
X151207000Y-102439000D01*
X151053000Y-102439000D01*
X151033000Y-102439000D01*
X151033000Y-102285000D01*
X151053000Y-102285000D01*
X151053000Y-101824000D01*
X151207000Y-101824000D01*
X151207000Y-102285000D01*
X151725500Y-102285000D01*
X151801500Y-102209000D01*
X151802971Y-102052000D01*
X151797101Y-101992406D01*
X151779718Y-101935101D01*
X151751490Y-101882289D01*
X151713501Y-101835999D01*
X151667211Y-101798010D01*
X151614399Y-101769782D01*
X151557094Y-101752399D01*
X151497500Y-101746529D01*
X151283000Y-101748000D01*
X151207000Y-101824000D01*
X151053000Y-101824000D01*
X150977000Y-101748000D01*
X150762500Y-101746529D01*
X150702906Y-101752399D01*
X150645601Y-101769782D01*
X150592789Y-101798010D01*
X150546499Y-101835999D01*
X150518843Y-101869698D01*
X150463323Y-101824133D01*
X150383714Y-101781581D01*
X150297333Y-101755378D01*
X150207500Y-101746530D01*
X150168661Y-101746530D01*
X149789600Y-101367470D01*
X150103000Y-101367470D01*
X150162594Y-101361600D01*
X150219898Y-101344217D01*
X150228000Y-101339886D01*
X150236102Y-101344217D01*
X150293406Y-101361600D01*
X150353000Y-101367470D01*
X150903000Y-101367470D01*
X150962594Y-101361600D01*
X151019898Y-101344217D01*
X151072710Y-101315989D01*
X151119000Y-101278000D01*
X151156989Y-101231710D01*
X151185217Y-101178898D01*
X151202600Y-101121594D01*
X151208470Y-101062000D01*
X151208470Y-99462000D01*
X151202600Y-99402406D01*
X151195718Y-99379718D01*
X151218406Y-99386600D01*
X151278000Y-99392470D01*
X152878000Y-99392470D01*
X152937594Y-99386600D01*
X152994898Y-99369217D01*
X153047710Y-99340989D01*
X153094000Y-99303000D01*
X153131989Y-99256710D01*
X153160217Y-99203898D01*
X153177600Y-99146594D01*
X153183470Y-99087000D01*
X153183470Y-98537000D01*
X153177600Y-98477406D01*
X153160217Y-98420102D01*
X153155886Y-98412000D01*
X153160217Y-98403898D01*
X153177600Y-98346594D01*
X153183470Y-98287000D01*
X153183470Y-97737000D01*
X153177600Y-97677406D01*
X153160217Y-97620102D01*
X153155886Y-97612000D01*
X153160217Y-97603898D01*
X153177600Y-97546594D01*
X153183470Y-97487000D01*
X153183470Y-96937000D01*
X153177600Y-96877406D01*
X153160217Y-96820102D01*
X153155886Y-96812000D01*
X153160217Y-96803898D01*
X153177600Y-96746594D01*
X153183470Y-96687000D01*
X153183470Y-96137000D01*
X153177600Y-96077406D01*
X153160217Y-96020102D01*
X153155886Y-96012000D01*
X153160217Y-96003898D01*
X153177600Y-95946594D01*
X153183470Y-95887000D01*
X153183470Y-95337000D01*
X153177600Y-95277406D01*
X153160217Y-95220102D01*
X153155886Y-95212000D01*
X153160217Y-95203898D01*
X153177600Y-95146594D01*
X153183470Y-95087000D01*
X153183470Y-94537000D01*
X153177600Y-94477406D01*
X153160217Y-94420102D01*
X153155886Y-94412000D01*
X153160217Y-94403898D01*
X153177600Y-94346594D01*
X153183470Y-94287000D01*
X153183470Y-93737000D01*
X153177600Y-93677406D01*
X153160217Y-93620102D01*
X153155886Y-93612000D01*
X153160217Y-93603898D01*
X153177600Y-93546594D01*
X153183470Y-93487000D01*
X153183470Y-92937000D01*
X153177600Y-92877406D01*
X153160217Y-92820102D01*
X153131989Y-92767290D01*
X153094000Y-92721000D01*
X153047710Y-92683011D01*
X152994898Y-92654783D01*
X152937594Y-92637400D01*
X152878000Y-92631530D01*
X151278000Y-92631530D01*
X151218406Y-92637400D01*
X151195718Y-92644282D01*
X151202600Y-92621594D01*
X151208470Y-92562000D01*
X151208470Y-90962000D01*
X151202600Y-90902406D01*
X151186000Y-90847683D01*
X151186000Y-89944260D01*
X151219789Y-89971990D01*
X151272601Y-90000218D01*
X151329906Y-90017601D01*
X151389500Y-90023471D01*
X151604000Y-90022000D01*
X151680000Y-89946000D01*
X151680000Y-89485000D01*
X151834000Y-89485000D01*
X151834000Y-89946000D01*
X151910000Y-90022000D01*
X152124500Y-90023471D01*
X152184094Y-90017601D01*
X152241399Y-90000218D01*
X152294211Y-89971990D01*
X152340501Y-89934001D01*
X152378490Y-89887711D01*
X152406718Y-89834899D01*
X152424101Y-89777594D01*
X152429971Y-89718000D01*
X152428500Y-89561000D01*
X152352500Y-89485000D01*
X151834000Y-89485000D01*
X151680000Y-89485000D01*
X151660000Y-89485000D01*
X151660000Y-89331000D01*
X151680000Y-89331000D01*
X151680000Y-88870000D01*
X151834000Y-88870000D01*
X151834000Y-89331000D01*
X152352500Y-89331000D01*
X152428500Y-89255000D01*
X152429971Y-89098000D01*
X152424101Y-89038406D01*
X152406718Y-88981101D01*
X152378490Y-88928289D01*
X152340501Y-88881999D01*
X152294211Y-88844010D01*
X152241399Y-88815782D01*
X152184094Y-88798399D01*
X152124500Y-88792529D01*
X151910000Y-88794000D01*
X151834000Y-88870000D01*
X151680000Y-88870000D01*
X151604000Y-88794000D01*
X151389500Y-88792529D01*
X151329906Y-88798399D01*
X151272601Y-88815782D01*
X151219789Y-88844010D01*
X151173499Y-88881999D01*
X151145843Y-88915698D01*
X151090323Y-88870133D01*
X151010714Y-88827581D01*
X150924333Y-88801378D01*
X150834500Y-88792530D01*
X150795660Y-88792530D01*
X150654947Y-88651817D01*
X150637474Y-88630526D01*
X150552508Y-88560796D01*
X150455570Y-88508982D01*
X150350387Y-88477075D01*
X150268403Y-88469000D01*
X150268395Y-88469000D01*
X150241000Y-88466302D01*
X150213605Y-88469000D01*
X140743394Y-88469000D01*
X140715999Y-88466302D01*
X140688604Y-88469000D01*
X140688597Y-88469000D01*
X140606613Y-88477075D01*
X140501430Y-88508982D01*
X140404492Y-88560796D01*
X140319526Y-88630526D01*
X140302056Y-88651813D01*
X140072340Y-88881530D01*
X140008500Y-88881530D01*
X139902572Y-88891963D01*
X139800714Y-88922861D01*
X139706842Y-88973037D01*
X139624562Y-89040562D01*
X139557037Y-89122842D01*
X139506861Y-89216714D01*
X139475963Y-89318572D01*
X139465530Y-89424500D01*
X139465530Y-89899500D01*
X139475963Y-90005428D01*
X139506861Y-90107286D01*
X139557037Y-90201158D01*
X139624562Y-90283438D01*
X139706842Y-90350963D01*
X139800714Y-90401139D01*
X139902572Y-90432037D01*
X139904001Y-90432178D01*
X139904000Y-91583084D01*
X139895102Y-91585783D01*
X139842290Y-91614011D01*
X139796000Y-91652000D01*
X139758011Y-91698290D01*
X139729783Y-91751102D01*
X139712400Y-91808406D01*
X139706530Y-91868000D01*
X139706530Y-92668000D01*
X139712400Y-92727594D01*
X139729783Y-92784898D01*
X139758011Y-92837710D01*
X139796000Y-92884000D01*
X139842290Y-92921989D01*
X139895102Y-92950217D01*
X139952406Y-92967600D01*
X140012000Y-92973470D01*
X140912000Y-92973470D01*
X140971594Y-92967600D01*
X141028898Y-92950217D01*
X141081710Y-92921989D01*
X141128000Y-92884000D01*
X141165989Y-92837710D01*
X141194217Y-92784898D01*
X141211600Y-92727594D01*
X141217470Y-92668000D01*
X141217470Y-91868000D01*
X141211600Y-91808406D01*
X141194217Y-91751102D01*
X141165989Y-91698290D01*
X141128000Y-91652000D01*
X141081710Y-91614011D01*
X141028898Y-91585783D01*
X141020000Y-91583084D01*
X141020000Y-90249853D01*
X141059963Y-90201158D01*
X141110139Y-90107286D01*
X141141037Y-90005428D01*
X141151470Y-89899500D01*
X141151470Y-89585000D01*
X149951197Y-89585000D01*
X149957878Y-89652833D01*
X149984081Y-89739214D01*
X150026633Y-89818823D01*
X150070001Y-89871666D01*
X150070000Y-90656927D01*
X149981000Y-90658000D01*
X149905000Y-90734000D01*
X149905000Y-91685000D01*
X149925000Y-91685000D01*
X149925000Y-91839000D01*
X149905000Y-91839000D01*
X149905000Y-92790000D01*
X149981000Y-92866000D01*
X150042132Y-92866737D01*
X148722818Y-94186052D01*
X148701526Y-94203526D01*
X148631796Y-94288492D01*
X148579982Y-94385431D01*
X148548075Y-94490614D01*
X148540000Y-94572598D01*
X148540000Y-94572605D01*
X148537302Y-94600000D01*
X148540000Y-94627395D01*
X148540001Y-96724000D01*
X146585395Y-96724000D01*
X146558000Y-96721302D01*
X146530605Y-96724000D01*
X146530597Y-96724000D01*
X146448613Y-96732075D01*
X146343429Y-96763982D01*
X146250773Y-96813508D01*
X146246492Y-96815796D01*
X146161526Y-96885526D01*
X146144057Y-96906812D01*
X145452813Y-97598057D01*
X145431527Y-97615526D01*
X145361797Y-97700492D01*
X145340151Y-97740989D01*
X145309983Y-97797430D01*
X145278075Y-97902614D01*
X145267302Y-98012000D01*
X145270001Y-98039405D01*
X145270000Y-99156530D01*
X144753000Y-99156530D01*
X144693406Y-99162400D01*
X144670718Y-99169282D01*
X144677600Y-99146594D01*
X144683470Y-99087000D01*
X144683470Y-98537000D01*
X144677600Y-98477406D01*
X144660217Y-98420102D01*
X144655886Y-98412000D01*
X144660217Y-98403898D01*
X144677600Y-98346594D01*
X144683470Y-98287000D01*
X144683470Y-97737000D01*
X144677600Y-97677406D01*
X144660217Y-97620102D01*
X144655886Y-97612000D01*
X144660217Y-97603898D01*
X144677600Y-97546594D01*
X144683470Y-97487000D01*
X144683470Y-96937000D01*
X144677600Y-96877406D01*
X144660217Y-96820102D01*
X144655886Y-96812000D01*
X144660217Y-96803898D01*
X144677600Y-96746594D01*
X144683470Y-96687000D01*
X144683470Y-96137000D01*
X144677600Y-96077406D01*
X144660217Y-96020102D01*
X144655886Y-96012000D01*
X144660217Y-96003898D01*
X144677600Y-95946594D01*
X144683470Y-95887000D01*
X144683470Y-95337000D01*
X144677600Y-95277406D01*
X144660217Y-95220102D01*
X144655886Y-95212000D01*
X144660217Y-95203898D01*
X144677600Y-95146594D01*
X144683470Y-95087000D01*
X144683470Y-94537000D01*
X144677600Y-94477406D01*
X144660217Y-94420102D01*
X144655886Y-94412000D01*
X144660217Y-94403898D01*
X144677600Y-94346594D01*
X144683470Y-94287000D01*
X144683470Y-93737000D01*
X144677600Y-93677406D01*
X144660217Y-93620102D01*
X144655886Y-93612000D01*
X144660217Y-93603898D01*
X144677600Y-93546594D01*
X144683470Y-93487000D01*
X144683470Y-92937000D01*
X144677600Y-92877406D01*
X144670718Y-92854718D01*
X144693406Y-92861600D01*
X144753000Y-92867470D01*
X145303000Y-92867470D01*
X145362594Y-92861600D01*
X145419898Y-92844217D01*
X145428000Y-92839886D01*
X145436102Y-92844217D01*
X145493406Y-92861600D01*
X145553000Y-92867470D01*
X146103000Y-92867470D01*
X146162594Y-92861600D01*
X146219898Y-92844217D01*
X146228000Y-92839886D01*
X146236102Y-92844217D01*
X146293406Y-92861600D01*
X146353000Y-92867470D01*
X146903000Y-92867470D01*
X146962594Y-92861600D01*
X147019898Y-92844217D01*
X147028000Y-92839886D01*
X147036102Y-92844217D01*
X147093406Y-92861600D01*
X147153000Y-92867470D01*
X147703000Y-92867470D01*
X147762594Y-92861600D01*
X147819898Y-92844217D01*
X147828000Y-92839886D01*
X147836102Y-92844217D01*
X147893406Y-92861600D01*
X147953000Y-92867470D01*
X148503000Y-92867470D01*
X148562594Y-92861600D01*
X148619898Y-92844217D01*
X148628000Y-92839886D01*
X148636102Y-92844217D01*
X148693406Y-92861600D01*
X148753000Y-92867470D01*
X149303000Y-92867470D01*
X149362594Y-92861600D01*
X149419898Y-92844217D01*
X149427999Y-92839887D01*
X149436101Y-92844218D01*
X149493406Y-92861601D01*
X149553000Y-92867471D01*
X149675000Y-92866000D01*
X149751000Y-92790000D01*
X149751000Y-91839000D01*
X149731000Y-91839000D01*
X149731000Y-91685000D01*
X149751000Y-91685000D01*
X149751000Y-90734000D01*
X149675000Y-90658000D01*
X149553000Y-90656529D01*
X149493406Y-90662399D01*
X149436101Y-90679782D01*
X149427999Y-90684113D01*
X149419898Y-90679783D01*
X149362594Y-90662400D01*
X149303000Y-90656530D01*
X148753000Y-90656530D01*
X148693406Y-90662400D01*
X148636102Y-90679783D01*
X148628000Y-90684114D01*
X148619898Y-90679783D01*
X148562594Y-90662400D01*
X148503000Y-90656530D01*
X147953000Y-90656530D01*
X147893406Y-90662400D01*
X147836102Y-90679783D01*
X147828000Y-90684114D01*
X147819898Y-90679783D01*
X147762594Y-90662400D01*
X147703000Y-90656530D01*
X147153000Y-90656530D01*
X147093406Y-90662400D01*
X147036102Y-90679783D01*
X147028000Y-90684114D01*
X147019898Y-90679783D01*
X146962594Y-90662400D01*
X146903000Y-90656530D01*
X146353000Y-90656530D01*
X146293406Y-90662400D01*
X146236102Y-90679783D01*
X146228000Y-90684114D01*
X146219898Y-90679783D01*
X146162594Y-90662400D01*
X146103000Y-90656530D01*
X145553000Y-90656530D01*
X145493406Y-90662400D01*
X145436102Y-90679783D01*
X145428000Y-90684114D01*
X145419898Y-90679783D01*
X145362594Y-90662400D01*
X145303000Y-90656530D01*
X144753000Y-90656530D01*
X144693406Y-90662400D01*
X144636102Y-90679783D01*
X144583290Y-90708011D01*
X144537000Y-90746000D01*
X144499011Y-90792290D01*
X144470783Y-90845102D01*
X144453400Y-90902406D01*
X144447530Y-90962000D01*
X144447530Y-92562000D01*
X144453400Y-92621594D01*
X144460282Y-92644282D01*
X144437594Y-92637400D01*
X144378000Y-92631530D01*
X142778000Y-92631530D01*
X142718406Y-92637400D01*
X142661102Y-92654783D01*
X142608290Y-92683011D01*
X142562000Y-92721000D01*
X142524011Y-92767290D01*
X142495783Y-92820102D01*
X142478400Y-92877406D01*
X142472530Y-92937000D01*
X142472530Y-93487000D01*
X142478400Y-93546594D01*
X142495783Y-93603898D01*
X142500114Y-93612000D01*
X142495783Y-93620102D01*
X142478400Y-93677406D01*
X142472530Y-93737000D01*
X142472530Y-94287000D01*
X142478400Y-94346594D01*
X142495783Y-94403898D01*
X142500114Y-94412000D01*
X142495783Y-94420102D01*
X142478400Y-94477406D01*
X142472530Y-94537000D01*
X142472530Y-95087000D01*
X142478400Y-95146594D01*
X142495783Y-95203898D01*
X142500114Y-95212000D01*
X142495783Y-95220102D01*
X142478400Y-95277406D01*
X142472530Y-95337000D01*
X142472530Y-95887000D01*
X142478400Y-95946594D01*
X142495783Y-96003898D01*
X142500114Y-96012000D01*
X142495783Y-96020102D01*
X142478400Y-96077406D01*
X142472530Y-96137000D01*
X142472530Y-96687000D01*
X142478400Y-96746594D01*
X142495783Y-96803898D01*
X142500114Y-96812000D01*
X142495783Y-96820102D01*
X142478400Y-96877406D01*
X142472530Y-96937000D01*
X142472530Y-97487000D01*
X142478400Y-97546594D01*
X142489444Y-97583000D01*
X142399056Y-97583000D01*
X142377998Y-97580926D01*
X142356940Y-97583000D01*
X142356931Y-97583000D01*
X142293900Y-97589208D01*
X142213034Y-97613739D01*
X142138507Y-97653574D01*
X142073183Y-97707184D01*
X142059751Y-97723551D01*
X142050302Y-97733000D01*
X131694665Y-97733000D01*
X131678381Y-97732641D01*
X131673674Y-97733000D01*
X131668932Y-97733000D01*
X131652657Y-97734603D01*
X131576741Y-97740393D01*
X131571999Y-97739926D01*
X131534711Y-97743599D01*
X131518368Y-97744845D01*
X131513688Y-97745669D01*
X131487900Y-97748209D01*
X131472175Y-97752979D01*
X131455992Y-97755829D01*
X131431838Y-97765216D01*
X131407034Y-97772740D01*
X131392538Y-97780488D01*
X131377225Y-97786439D01*
X131355372Y-97800354D01*
X131332507Y-97812575D01*
X131319800Y-97823003D01*
X131305944Y-97831826D01*
X131287224Y-97849738D01*
X131283548Y-97852755D01*
X131271951Y-97864352D01*
X131244886Y-97890249D01*
X131242153Y-97894150D01*
X130124303Y-99012000D01*
X129084045Y-99012000D01*
X129070832Y-98992226D01*
X128972774Y-98894168D01*
X128857469Y-98817124D01*
X128729349Y-98764055D01*
X128593338Y-98737000D01*
X128454662Y-98737000D01*
X128318651Y-98764055D01*
X128190531Y-98817124D01*
X128075226Y-98894168D01*
X127977168Y-98992226D01*
X127937000Y-99052342D01*
X127937000Y-97925070D01*
X127939075Y-97904002D01*
X127930792Y-97819903D01*
X127906261Y-97739036D01*
X127889923Y-97708470D01*
X127892000Y-97708470D01*
X127951594Y-97702600D01*
X127992000Y-97690343D01*
X128032406Y-97702600D01*
X128092000Y-97708470D01*
X128392000Y-97708470D01*
X128451594Y-97702600D01*
X128492000Y-97690343D01*
X128532406Y-97702600D01*
X128592000Y-97708470D01*
X128892000Y-97708470D01*
X128951594Y-97702600D01*
X128992058Y-97690325D01*
X129031511Y-97702422D01*
X129089000Y-97707000D01*
X129165000Y-97631000D01*
X129165000Y-97537142D01*
X129174217Y-97519898D01*
X129191600Y-97462594D01*
X129197470Y-97403000D01*
X129197470Y-97130000D01*
X129319000Y-97130000D01*
X129319000Y-97631000D01*
X129395000Y-97707000D01*
X129452489Y-97702422D01*
X129509741Y-97684868D01*
X129562469Y-97656482D01*
X129608645Y-97618354D01*
X129646496Y-97571951D01*
X129674566Y-97519055D01*
X129691778Y-97461699D01*
X129697470Y-97402087D01*
X129696000Y-97206000D01*
X129620000Y-97130000D01*
X129319000Y-97130000D01*
X129197470Y-97130000D01*
X129197470Y-96703000D01*
X129191600Y-96643406D01*
X129174217Y-96586102D01*
X129165000Y-96568858D01*
X129165000Y-96475000D01*
X129319000Y-96475000D01*
X129319000Y-96976000D01*
X129620000Y-96976000D01*
X129696000Y-96900000D01*
X129696113Y-96884968D01*
X129794057Y-96950412D01*
X129908528Y-96997827D01*
X130030049Y-97022000D01*
X130153951Y-97022000D01*
X130275472Y-96997827D01*
X130389943Y-96950412D01*
X130492964Y-96881576D01*
X130580576Y-96793964D01*
X130649412Y-96690943D01*
X130696827Y-96576472D01*
X130721000Y-96454951D01*
X130721000Y-96331049D01*
X130699002Y-96220462D01*
X130699002Y-96166263D01*
X130807521Y-96222115D01*
X130949098Y-96171134D01*
X131065356Y-96095251D01*
X131164576Y-95998145D01*
X131242945Y-95883548D01*
X131297451Y-95755864D01*
X131326000Y-95620000D01*
X131326000Y-95533500D01*
X135109529Y-95533500D01*
X135115399Y-95593094D01*
X135132782Y-95650399D01*
X135161010Y-95703211D01*
X135198999Y-95749501D01*
X135245289Y-95787490D01*
X135298101Y-95815718D01*
X135355406Y-95833101D01*
X135415000Y-95838971D01*
X135737000Y-95837500D01*
X135813000Y-95761500D01*
X135813000Y-95073000D01*
X135967000Y-95073000D01*
X135967000Y-95761500D01*
X136043000Y-95837500D01*
X136365000Y-95838971D01*
X136424594Y-95833101D01*
X136481899Y-95815718D01*
X136534711Y-95787490D01*
X136581001Y-95749501D01*
X136618990Y-95703211D01*
X136647218Y-95650399D01*
X136664601Y-95593094D01*
X136670471Y-95533500D01*
X136669000Y-95149000D01*
X136593000Y-95073000D01*
X135967000Y-95073000D01*
X135813000Y-95073000D01*
X135187000Y-95073000D01*
X135111000Y-95149000D01*
X135109529Y-95533500D01*
X131326000Y-95533500D01*
X131326000Y-95220000D01*
X131226000Y-95220000D01*
X131226000Y-95066000D01*
X131326000Y-95066000D01*
X131326000Y-94666000D01*
X131297451Y-94530136D01*
X131266871Y-94458500D01*
X135109529Y-94458500D01*
X135111000Y-94843000D01*
X135187000Y-94919000D01*
X135813000Y-94919000D01*
X135813000Y-94230500D01*
X135967000Y-94230500D01*
X135967000Y-94919000D01*
X136593000Y-94919000D01*
X136669000Y-94843000D01*
X136670052Y-94568000D01*
X139706529Y-94568000D01*
X139712399Y-94627594D01*
X139729782Y-94684899D01*
X139758010Y-94737711D01*
X139795999Y-94784001D01*
X139842289Y-94821990D01*
X139895101Y-94850218D01*
X139952406Y-94867601D01*
X140012000Y-94873471D01*
X140309000Y-94872000D01*
X140385000Y-94796000D01*
X140385000Y-94245000D01*
X140539000Y-94245000D01*
X140539000Y-94796000D01*
X140615000Y-94872000D01*
X140912000Y-94873471D01*
X140971594Y-94867601D01*
X141028899Y-94850218D01*
X141081711Y-94821990D01*
X141128001Y-94784001D01*
X141165990Y-94737711D01*
X141194218Y-94684899D01*
X141211601Y-94627594D01*
X141217471Y-94568000D01*
X141216000Y-94321000D01*
X141140000Y-94245000D01*
X140539000Y-94245000D01*
X140385000Y-94245000D01*
X139784000Y-94245000D01*
X139708000Y-94321000D01*
X139706529Y-94568000D01*
X136670052Y-94568000D01*
X136670471Y-94458500D01*
X136664601Y-94398906D01*
X136647218Y-94341601D01*
X136618990Y-94288789D01*
X136581001Y-94242499D01*
X136534711Y-94204510D01*
X136481899Y-94176282D01*
X136424594Y-94158899D01*
X136365000Y-94153029D01*
X136043000Y-94154500D01*
X135967000Y-94230500D01*
X135813000Y-94230500D01*
X135737000Y-94154500D01*
X135415000Y-94153029D01*
X135355406Y-94158899D01*
X135298101Y-94176282D01*
X135245289Y-94204510D01*
X135198999Y-94242499D01*
X135161010Y-94288789D01*
X135132782Y-94341601D01*
X135115399Y-94398906D01*
X135109529Y-94458500D01*
X131266871Y-94458500D01*
X131242945Y-94402452D01*
X131164576Y-94287855D01*
X131065356Y-94190749D01*
X130949098Y-94114866D01*
X130807521Y-94063885D01*
X130699000Y-94119738D01*
X130699000Y-94244852D01*
X130656543Y-94240689D01*
X130641084Y-94240689D01*
X130625726Y-94239020D01*
X130620783Y-94239002D01*
X130619038Y-94239008D01*
X130603640Y-94240571D01*
X130588172Y-94240463D01*
X130583252Y-94240945D01*
X130545000Y-94244965D01*
X130545000Y-94119738D01*
X130436479Y-94063885D01*
X130294902Y-94114866D01*
X130178644Y-94190749D01*
X130079424Y-94287855D01*
X130001055Y-94402452D01*
X129946549Y-94530136D01*
X129918000Y-94666000D01*
X129918000Y-94874572D01*
X129896496Y-94834049D01*
X129858645Y-94787646D01*
X129812469Y-94749518D01*
X129759741Y-94721132D01*
X129702489Y-94703578D01*
X129645000Y-94699000D01*
X129569000Y-94775000D01*
X129569000Y-95276000D01*
X129589000Y-95276000D01*
X129589000Y-95430000D01*
X129569000Y-95430000D01*
X129569000Y-95931000D01*
X129616730Y-95978730D01*
X129603424Y-95992036D01*
X129534588Y-96095057D01*
X129487173Y-96209528D01*
X129463000Y-96331049D01*
X129463000Y-96406801D01*
X129452489Y-96403578D01*
X129395000Y-96399000D01*
X129319000Y-96475000D01*
X129165000Y-96475000D01*
X129089000Y-96399000D01*
X129031511Y-96403578D01*
X128992058Y-96415675D01*
X128951594Y-96403400D01*
X128892000Y-96397530D01*
X128592000Y-96397530D01*
X128532406Y-96403400D01*
X128492000Y-96415657D01*
X128451594Y-96403400D01*
X128392000Y-96397530D01*
X128382475Y-96397530D01*
X128390261Y-96382963D01*
X128414792Y-96302097D01*
X128421000Y-96239066D01*
X128421000Y-96239057D01*
X128423074Y-96217999D01*
X128421000Y-96196941D01*
X128421000Y-96008470D01*
X128642000Y-96008470D01*
X128701594Y-96002600D01*
X128742000Y-95990343D01*
X128782406Y-96002600D01*
X128842000Y-96008470D01*
X129142000Y-96008470D01*
X129201594Y-96002600D01*
X129242058Y-95990325D01*
X129281511Y-96002422D01*
X129339000Y-96007000D01*
X129415000Y-95931000D01*
X129415000Y-95837142D01*
X129424217Y-95819898D01*
X129441600Y-95762594D01*
X129447470Y-95703000D01*
X129447470Y-95003000D01*
X129441600Y-94943406D01*
X129424217Y-94886102D01*
X129415000Y-94868858D01*
X129415000Y-94775000D01*
X129339000Y-94699000D01*
X129281511Y-94703578D01*
X129242058Y-94715675D01*
X129201594Y-94703400D01*
X129142000Y-94697530D01*
X128842000Y-94697530D01*
X128782406Y-94703400D01*
X128742000Y-94715657D01*
X128701594Y-94703400D01*
X128642000Y-94697530D01*
X128421000Y-94697530D01*
X128421000Y-93302999D01*
X135109530Y-93302999D01*
X135109530Y-93571000D01*
X135119963Y-93676928D01*
X135150861Y-93778786D01*
X135201037Y-93872658D01*
X135268562Y-93954938D01*
X135350842Y-94022463D01*
X135444714Y-94072639D01*
X135546572Y-94103537D01*
X135652500Y-94113970D01*
X136127500Y-94113970D01*
X136233428Y-94103537D01*
X136335286Y-94072639D01*
X136429158Y-94022463D01*
X136511438Y-93954938D01*
X136578963Y-93872658D01*
X136629139Y-93778786D01*
X136653038Y-93700000D01*
X137719197Y-93700000D01*
X137729783Y-93734898D01*
X137758011Y-93787710D01*
X137796000Y-93834000D01*
X137842290Y-93871989D01*
X137895102Y-93900217D01*
X137952406Y-93917600D01*
X138012000Y-93923470D01*
X138912000Y-93923470D01*
X138971594Y-93917600D01*
X139028898Y-93900217D01*
X139081710Y-93871989D01*
X139128000Y-93834000D01*
X139165989Y-93787710D01*
X139176523Y-93768000D01*
X139706529Y-93768000D01*
X139708000Y-94015000D01*
X139784000Y-94091000D01*
X140385000Y-94091000D01*
X140385000Y-93540000D01*
X140539000Y-93540000D01*
X140539000Y-94091000D01*
X141140000Y-94091000D01*
X141216000Y-94015000D01*
X141217471Y-93768000D01*
X141211601Y-93708406D01*
X141194218Y-93651101D01*
X141165990Y-93598289D01*
X141128001Y-93551999D01*
X141081711Y-93514010D01*
X141028899Y-93485782D01*
X140971594Y-93468399D01*
X140912000Y-93462529D01*
X140615000Y-93464000D01*
X140539000Y-93540000D01*
X140385000Y-93540000D01*
X140309000Y-93464000D01*
X140012000Y-93462529D01*
X139952406Y-93468399D01*
X139895101Y-93485782D01*
X139842289Y-93514010D01*
X139795999Y-93551999D01*
X139758010Y-93598289D01*
X139729782Y-93651101D01*
X139712399Y-93708406D01*
X139706529Y-93768000D01*
X139176523Y-93768000D01*
X139194217Y-93734898D01*
X139211600Y-93677594D01*
X139217470Y-93618000D01*
X139217470Y-92818000D01*
X139211600Y-92758406D01*
X139194217Y-92701102D01*
X139165989Y-92648290D01*
X139128000Y-92602000D01*
X139081710Y-92564011D01*
X139028898Y-92535783D01*
X138971594Y-92518400D01*
X138912000Y-92512530D01*
X138012000Y-92512530D01*
X137952406Y-92518400D01*
X137895102Y-92535783D01*
X137842290Y-92564011D01*
X137796000Y-92602000D01*
X137758011Y-92648290D01*
X137729783Y-92701102D01*
X137712400Y-92758406D01*
X137706530Y-92818000D01*
X137706530Y-92842000D01*
X136653038Y-92842000D01*
X136629139Y-92763214D01*
X136578963Y-92669342D01*
X136511438Y-92587062D01*
X136429158Y-92519537D01*
X136335286Y-92469361D01*
X136233428Y-92438463D01*
X136127500Y-92428030D01*
X135652500Y-92428030D01*
X135546572Y-92438463D01*
X135522340Y-92445814D01*
X135514067Y-92444999D01*
X135514057Y-92444999D01*
X135492999Y-92442925D01*
X135471941Y-92444999D01*
X128000059Y-92444999D01*
X127979001Y-92442925D01*
X127957943Y-92444999D01*
X125149067Y-92444999D01*
X125127999Y-92442924D01*
X125043900Y-92451207D01*
X124963034Y-92475738D01*
X124888507Y-92515573D01*
X124839547Y-92555753D01*
X124839545Y-92555755D01*
X124823183Y-92569183D01*
X124809755Y-92585545D01*
X124462545Y-92932756D01*
X124446184Y-92946183D01*
X124432756Y-92962545D01*
X124432753Y-92962548D01*
X124392573Y-93011507D01*
X124352739Y-93086034D01*
X124328208Y-93166900D01*
X124319925Y-93250999D01*
X124322000Y-93272066D01*
X124321999Y-94054353D01*
X124319925Y-94075411D01*
X124321999Y-94096469D01*
X124321999Y-94096478D01*
X124328207Y-94159509D01*
X124352738Y-94240375D01*
X124367048Y-94267148D01*
X124392573Y-94314903D01*
X124422108Y-94350891D01*
X124446183Y-94380227D01*
X124462550Y-94393659D01*
X124774645Y-94705754D01*
X124742000Y-94715657D01*
X124701594Y-94703400D01*
X124642000Y-94697530D01*
X124342000Y-94697530D01*
X124282406Y-94703400D01*
X124241942Y-94715675D01*
X124202489Y-94703578D01*
X124145000Y-94699000D01*
X124069000Y-94775000D01*
X124069000Y-94868858D01*
X124059783Y-94886102D01*
X124042400Y-94943406D01*
X124036530Y-95003000D01*
X124036530Y-95703000D01*
X124042400Y-95762594D01*
X124059783Y-95819898D01*
X124069000Y-95837142D01*
X124069000Y-95931000D01*
X124145000Y-96007000D01*
X124202489Y-96002422D01*
X124241942Y-95990325D01*
X124282406Y-96002600D01*
X124342000Y-96008470D01*
X124642000Y-96008470D01*
X124701594Y-96002600D01*
X124742000Y-95990343D01*
X124782406Y-96002600D01*
X124842000Y-96008470D01*
X125063001Y-96008470D01*
X125063001Y-96040301D01*
X124953552Y-96149749D01*
X124937184Y-96163182D01*
X124920085Y-96184018D01*
X124883574Y-96228506D01*
X124876060Y-96242564D01*
X124843739Y-96303034D01*
X124819208Y-96383900D01*
X124817866Y-96397530D01*
X124592000Y-96397530D01*
X124532406Y-96403400D01*
X124492000Y-96415657D01*
X124451594Y-96403400D01*
X124392000Y-96397530D01*
X124092000Y-96397530D01*
X124032406Y-96403400D01*
X123991942Y-96415675D01*
X123952489Y-96403578D01*
X123895000Y-96399000D01*
X123819000Y-96475000D01*
X123819000Y-96568858D01*
X123809783Y-96586102D01*
X123792400Y-96643406D01*
X123786530Y-96703000D01*
X123665000Y-96703000D01*
X123665000Y-96659080D01*
X123669077Y-96648990D01*
X123681504Y-96619425D01*
X123682933Y-96614693D01*
X123700841Y-96553845D01*
X123706854Y-96522319D01*
X123713303Y-96490904D01*
X123713786Y-96485984D01*
X123719535Y-96422816D01*
X123719311Y-96390698D01*
X123719535Y-96358647D01*
X123719053Y-96353728D01*
X123712423Y-96290647D01*
X123705964Y-96259182D01*
X123699960Y-96227705D01*
X123698531Y-96222972D01*
X123698531Y-96222970D01*
X123698529Y-96222964D01*
X123679776Y-96162380D01*
X123667331Y-96132775D01*
X123655320Y-96103047D01*
X123653000Y-96098683D01*
X123622831Y-96042888D01*
X123604885Y-96016283D01*
X123587321Y-95989443D01*
X123584197Y-95985612D01*
X123543766Y-95936740D01*
X123520992Y-95914125D01*
X123498553Y-95891211D01*
X123494744Y-95888060D01*
X123445590Y-95847971D01*
X123418874Y-95830221D01*
X123392394Y-95812090D01*
X123388046Y-95809738D01*
X123332042Y-95779960D01*
X123302343Y-95767719D01*
X123272887Y-95755094D01*
X123268169Y-95753633D01*
X123268163Y-95753631D01*
X123207443Y-95735299D01*
X123175959Y-95729065D01*
X123144589Y-95722397D01*
X123139673Y-95721880D01*
X123076547Y-95715690D01*
X123076541Y-95715690D01*
X123059382Y-95714000D01*
X123046248Y-95714000D01*
X123048751Y-95702087D01*
X123536530Y-95702087D01*
X123542222Y-95761699D01*
X123559434Y-95819055D01*
X123587504Y-95871951D01*
X123625355Y-95918354D01*
X123671531Y-95956482D01*
X123724259Y-95984868D01*
X123781511Y-96002422D01*
X123839000Y-96007000D01*
X123915000Y-95931000D01*
X123915000Y-95430000D01*
X123614000Y-95430000D01*
X123538000Y-95506000D01*
X123536530Y-95702087D01*
X123048751Y-95702087D01*
X123066000Y-95620000D01*
X123066000Y-95220000D01*
X122966000Y-95220000D01*
X122966000Y-95066000D01*
X123066000Y-95066000D01*
X123066000Y-95003913D01*
X123536530Y-95003913D01*
X123538000Y-95200000D01*
X123614000Y-95276000D01*
X123915000Y-95276000D01*
X123915000Y-94775000D01*
X123839000Y-94699000D01*
X123781511Y-94703578D01*
X123724259Y-94721132D01*
X123671531Y-94749518D01*
X123625355Y-94787646D01*
X123587504Y-94834049D01*
X123559434Y-94886945D01*
X123542222Y-94944301D01*
X123536530Y-95003913D01*
X123066000Y-95003913D01*
X123066000Y-94666000D01*
X123037451Y-94530136D01*
X122982945Y-94402452D01*
X122904576Y-94287855D01*
X122805356Y-94190749D01*
X122689098Y-94114866D01*
X122547521Y-94063885D01*
X122439000Y-94119738D01*
X122439000Y-94244852D01*
X122396543Y-94240689D01*
X122381084Y-94240689D01*
X122365726Y-94239020D01*
X122360783Y-94239002D01*
X122359038Y-94239008D01*
X122343640Y-94240571D01*
X122328172Y-94240463D01*
X122323252Y-94240945D01*
X122285000Y-94244965D01*
X122285000Y-94119738D01*
X122176479Y-94063885D01*
X122034902Y-94114866D01*
X121918644Y-94190749D01*
X121819424Y-94287855D01*
X121741055Y-94402452D01*
X121686549Y-94530136D01*
X121658000Y-94666000D01*
X115899000Y-94666000D01*
X115899000Y-88716000D01*
X121298000Y-88716000D01*
X121298000Y-89116000D01*
X121398001Y-89116000D01*
X121398000Y-89270000D01*
X121298000Y-89270000D01*
X121298000Y-89670000D01*
X121326549Y-89805864D01*
X121381055Y-89933548D01*
X121459424Y-90048145D01*
X121558644Y-90145251D01*
X121674902Y-90221134D01*
X121816479Y-90272115D01*
X121925000Y-90216262D01*
X121925000Y-90091148D01*
X121967458Y-90095311D01*
X121982916Y-90095311D01*
X121998274Y-90096980D01*
X122003217Y-90096998D01*
X122004962Y-90096992D01*
X122020360Y-90095429D01*
X122035828Y-90095537D01*
X122040748Y-90095055D01*
X122079000Y-90091035D01*
X122079000Y-90216262D01*
X122187521Y-90272115D01*
X122329098Y-90221134D01*
X122445356Y-90145251D01*
X122544576Y-90048145D01*
X122622945Y-89933548D01*
X122677451Y-89805864D01*
X122706000Y-89670000D01*
X122706000Y-89270000D01*
X122606000Y-89270000D01*
X122606000Y-89116000D01*
X122706000Y-89116000D01*
X122706000Y-88716000D01*
X130278000Y-88716000D01*
X130278000Y-89116000D01*
X130378001Y-89116000D01*
X130378000Y-89270000D01*
X130278000Y-89270000D01*
X130278000Y-89670000D01*
X130306549Y-89805864D01*
X130361055Y-89933548D01*
X130439424Y-90048145D01*
X130538644Y-90145251D01*
X130654902Y-90221134D01*
X130796479Y-90272115D01*
X130905000Y-90216262D01*
X130905000Y-90091148D01*
X130947458Y-90095311D01*
X130962916Y-90095311D01*
X130978274Y-90096980D01*
X130983217Y-90096998D01*
X130984962Y-90096992D01*
X131000360Y-90095429D01*
X131015828Y-90095537D01*
X131020748Y-90095055D01*
X131059000Y-90091035D01*
X131059000Y-90216262D01*
X131167521Y-90272115D01*
X131309098Y-90221134D01*
X131425356Y-90145251D01*
X131433786Y-90137000D01*
X137740529Y-90137000D01*
X137746399Y-90196594D01*
X137763782Y-90253899D01*
X137792010Y-90306711D01*
X137829999Y-90353001D01*
X137876289Y-90390990D01*
X137929101Y-90419218D01*
X137986406Y-90436601D01*
X138046000Y-90442471D01*
X138430500Y-90441000D01*
X138506500Y-90365000D01*
X138506500Y-89739000D01*
X138660500Y-89739000D01*
X138660500Y-90365000D01*
X138736500Y-90441000D01*
X139121000Y-90442471D01*
X139180594Y-90436601D01*
X139237899Y-90419218D01*
X139290711Y-90390990D01*
X139337001Y-90353001D01*
X139374990Y-90306711D01*
X139403218Y-90253899D01*
X139420601Y-90196594D01*
X139426471Y-90137000D01*
X139425000Y-89815000D01*
X139349000Y-89739000D01*
X138660500Y-89739000D01*
X138506500Y-89739000D01*
X137818000Y-89739000D01*
X137742000Y-89815000D01*
X137740529Y-90137000D01*
X131433786Y-90137000D01*
X131524576Y-90048145D01*
X131602945Y-89933548D01*
X131657451Y-89805864D01*
X131686000Y-89670000D01*
X131686000Y-89270000D01*
X131586000Y-89270000D01*
X131586000Y-89187000D01*
X137740529Y-89187000D01*
X137742000Y-89509000D01*
X137818000Y-89585000D01*
X138506500Y-89585000D01*
X138506500Y-88959000D01*
X138660500Y-88959000D01*
X138660500Y-89585000D01*
X139349000Y-89585000D01*
X139425000Y-89509000D01*
X139426471Y-89187000D01*
X139420601Y-89127406D01*
X139403218Y-89070101D01*
X139374990Y-89017289D01*
X139337001Y-88970999D01*
X139290711Y-88933010D01*
X139237899Y-88904782D01*
X139180594Y-88887399D01*
X139121000Y-88881529D01*
X138736500Y-88883000D01*
X138660500Y-88959000D01*
X138506500Y-88959000D01*
X138430500Y-88883000D01*
X138046000Y-88881529D01*
X137986406Y-88887399D01*
X137929101Y-88904782D01*
X137876289Y-88933010D01*
X137829999Y-88970999D01*
X137792010Y-89017289D01*
X137763782Y-89070101D01*
X137746399Y-89127406D01*
X137740529Y-89187000D01*
X131586000Y-89187000D01*
X131586000Y-89116000D01*
X131686000Y-89116000D01*
X131686000Y-88716000D01*
X131657451Y-88580136D01*
X131602945Y-88452452D01*
X131524576Y-88337855D01*
X131425356Y-88240749D01*
X131309098Y-88164866D01*
X131167521Y-88113885D01*
X131059000Y-88169738D01*
X131059000Y-88294852D01*
X131016543Y-88290689D01*
X131001084Y-88290689D01*
X130985726Y-88289020D01*
X130980783Y-88289002D01*
X130979038Y-88289008D01*
X130963640Y-88290571D01*
X130948172Y-88290463D01*
X130943252Y-88290945D01*
X130905000Y-88294965D01*
X130905000Y-88169738D01*
X130796479Y-88113885D01*
X130654902Y-88164866D01*
X130538644Y-88240749D01*
X130439424Y-88337855D01*
X130361055Y-88452452D01*
X130306549Y-88580136D01*
X130278000Y-88716000D01*
X122706000Y-88716000D01*
X122677451Y-88580136D01*
X122622945Y-88452452D01*
X122544576Y-88337855D01*
X122445356Y-88240749D01*
X122329098Y-88164866D01*
X122187521Y-88113885D01*
X122079000Y-88169738D01*
X122079000Y-88294852D01*
X122036543Y-88290689D01*
X122021084Y-88290689D01*
X122005726Y-88289020D01*
X122000783Y-88289002D01*
X121999038Y-88289008D01*
X121983640Y-88290571D01*
X121968172Y-88290463D01*
X121963252Y-88290945D01*
X121925000Y-88294965D01*
X121925000Y-88169738D01*
X121816479Y-88113885D01*
X121674902Y-88164866D01*
X121558644Y-88240749D01*
X121459424Y-88337855D01*
X121381055Y-88452452D01*
X121326549Y-88580136D01*
X121298000Y-88716000D01*
X115899000Y-88716000D01*
X115899000Y-87959000D01*
X167311001Y-87959000D01*
X167311000Y-88916153D01*
G37*
%TD.AperFunction*%
X150978400Y-93546594D02*
X150995783Y-93603898D01*
X151000114Y-93612000D01*
X150995783Y-93620102D01*
X150978400Y-93677406D01*
X150972530Y-93737000D01*
X150972530Y-94287000D01*
X150978400Y-94346594D01*
X150995783Y-94403898D01*
X151000114Y-94412000D01*
X150995783Y-94420102D01*
X150978400Y-94477406D01*
X150972530Y-94537000D01*
X150972530Y-95087000D01*
X150978400Y-95146594D01*
X150995783Y-95203898D01*
X151000114Y-95212000D01*
X150995783Y-95220102D01*
X150978400Y-95277406D01*
X150972530Y-95337000D01*
X150972530Y-95887000D01*
X150978400Y-95946594D01*
X150995783Y-96003898D01*
X151000114Y-96012000D01*
X150995783Y-96020102D01*
X150978400Y-96077406D01*
X150972530Y-96137000D01*
X150972530Y-96687000D01*
X150978400Y-96746594D01*
X150995783Y-96803898D01*
X151000114Y-96812000D01*
X150995783Y-96820102D01*
X150978400Y-96877406D01*
X150972530Y-96937000D01*
X150972530Y-97487000D01*
X150978400Y-97546594D01*
X150995783Y-97603898D01*
X151000114Y-97612000D01*
X150995783Y-97620102D01*
X150978400Y-97677406D01*
X150972530Y-97737000D01*
X150972530Y-98287000D01*
X150978400Y-98346594D01*
X150995783Y-98403898D01*
X151000114Y-98412000D01*
X150995783Y-98420102D01*
X150978400Y-98477406D01*
X150972530Y-98537000D01*
X150972530Y-99087000D01*
X150978400Y-99146594D01*
X150985282Y-99169282D01*
X150962594Y-99162400D01*
X150903000Y-99156530D01*
X150353000Y-99156530D01*
X150293406Y-99162400D01*
X150236102Y-99179783D01*
X150228000Y-99184114D01*
X150219898Y-99179783D01*
X150162594Y-99162400D01*
X150103000Y-99156530D01*
X149649191Y-99156530D01*
X149656000Y-99087403D01*
X149656000Y-99087395D01*
X149658698Y-99060000D01*
X149656000Y-99032605D01*
X149656000Y-97309403D01*
X149658699Y-97282000D01*
X149656000Y-97254597D01*
X149656000Y-94831130D01*
X150975005Y-93512126D01*
X150978400Y-93546594D01*
%TA.AperFunction,Conductor*%
G36*
X150978400Y-93546594D02*
G01*
X150995783Y-93603898D01*
X151000114Y-93612000D01*
X150995783Y-93620102D01*
X150978400Y-93677406D01*
X150972530Y-93737000D01*
X150972530Y-94287000D01*
X150978400Y-94346594D01*
X150995783Y-94403898D01*
X151000114Y-94412000D01*
X150995783Y-94420102D01*
X150978400Y-94477406D01*
X150972530Y-94537000D01*
X150972530Y-95087000D01*
X150978400Y-95146594D01*
X150995783Y-95203898D01*
X151000114Y-95212000D01*
X150995783Y-95220102D01*
X150978400Y-95277406D01*
X150972530Y-95337000D01*
X150972530Y-95887000D01*
X150978400Y-95946594D01*
X150995783Y-96003898D01*
X151000114Y-96012000D01*
X150995783Y-96020102D01*
X150978400Y-96077406D01*
X150972530Y-96137000D01*
X150972530Y-96687000D01*
X150978400Y-96746594D01*
X150995783Y-96803898D01*
X151000114Y-96812000D01*
X150995783Y-96820102D01*
X150978400Y-96877406D01*
X150972530Y-96937000D01*
X150972530Y-97487000D01*
X150978400Y-97546594D01*
X150995783Y-97603898D01*
X151000114Y-97612000D01*
X150995783Y-97620102D01*
X150978400Y-97677406D01*
X150972530Y-97737000D01*
X150972530Y-98287000D01*
X150978400Y-98346594D01*
X150995783Y-98403898D01*
X151000114Y-98412000D01*
X150995783Y-98420102D01*
X150978400Y-98477406D01*
X150972530Y-98537000D01*
X150972530Y-99087000D01*
X150978400Y-99146594D01*
X150985282Y-99169282D01*
X150962594Y-99162400D01*
X150903000Y-99156530D01*
X150353000Y-99156530D01*
X150293406Y-99162400D01*
X150236102Y-99179783D01*
X150228000Y-99184114D01*
X150219898Y-99179783D01*
X150162594Y-99162400D01*
X150103000Y-99156530D01*
X149649191Y-99156530D01*
X149656000Y-99087403D01*
X149656000Y-99087395D01*
X149658698Y-99060000D01*
X149656000Y-99032605D01*
X149656000Y-97309403D01*
X149658699Y-97282000D01*
X149656000Y-97254597D01*
X149656000Y-94831130D01*
X150975005Y-93512126D01*
X150978400Y-93546594D01*
G37*
%TD.AperFunction*%
%TD*%
M02*
