%TF.GenerationSoftware,KiCad,Pcbnew,(5.1.10)-1*%
%TF.CreationDate,2021-07-17T22:11:59-07:00*%
%TF.ProjectId,twokey,74776f6b-6579-42e6-9b69-6361645f7063,rev?*%
%TF.SameCoordinates,Original*%
%TF.FileFunction,Soldermask,Top*%
%TF.FilePolarity,Negative*%
%FSLAX46Y46*%
G04 Gerber Fmt 4.6, Leading zero omitted, Abs format (unit mm)*
G04 Created by KiCad (PCBNEW (5.1.10)-1) date 2021-07-17 22:11:59*
%MOMM*%
%LPD*%
G01*
G04 APERTURE LIST*
%ADD10C,2.200000*%
%ADD11C,4.000000*%
%ADD12C,1.700000*%
%ADD13R,1.600000X0.550000*%
%ADD14R,0.550000X1.600000*%
%ADD15R,0.300000X0.700000*%
%ADD16C,0.650000*%
%ADD17O,0.800000X1.600000*%
%ADD18R,0.900000X0.800000*%
G04 APERTURE END LIST*
D10*
%TO.C,SW1*%
X134500000Y-112000000D03*
X128150000Y-114540000D03*
D11*
X131960000Y-117080000D03*
D12*
X126880000Y-117080000D03*
X137040000Y-117080000D03*
%TD*%
D13*
%TO.C,U1*%
X152078000Y-98812000D03*
X152078000Y-98012000D03*
X152078000Y-97212000D03*
X152078000Y-96412000D03*
X152078000Y-95612000D03*
X152078000Y-94812000D03*
X152078000Y-94012000D03*
X152078000Y-93212000D03*
D14*
X150628000Y-91762000D03*
X149828000Y-91762000D03*
X149028000Y-91762000D03*
X148228000Y-91762000D03*
X147428000Y-91762000D03*
X146628000Y-91762000D03*
X145828000Y-91762000D03*
X145028000Y-91762000D03*
D13*
X143578000Y-93212000D03*
X143578000Y-94012000D03*
X143578000Y-94812000D03*
X143578000Y-95612000D03*
X143578000Y-96412000D03*
X143578000Y-97212000D03*
X143578000Y-98012000D03*
X143578000Y-98812000D03*
D14*
X145028000Y-100262000D03*
X145828000Y-100262000D03*
X146628000Y-100262000D03*
X147428000Y-100262000D03*
X148228000Y-100262000D03*
X149028000Y-100262000D03*
X149828000Y-100262000D03*
X150628000Y-100262000D03*
%TD*%
%TO.C,C1*%
G36*
G01*
X148098500Y-102131500D02*
X148573500Y-102131500D01*
G75*
G02*
X148811000Y-102369000I0J-237500D01*
G01*
X148811000Y-102969000D01*
G75*
G02*
X148573500Y-103206500I-237500J0D01*
G01*
X148098500Y-103206500D01*
G75*
G02*
X147861000Y-102969000I0J237500D01*
G01*
X147861000Y-102369000D01*
G75*
G02*
X148098500Y-102131500I237500J0D01*
G01*
G37*
G36*
G01*
X148098500Y-103856500D02*
X148573500Y-103856500D01*
G75*
G02*
X148811000Y-104094000I0J-237500D01*
G01*
X148811000Y-104694000D01*
G75*
G02*
X148573500Y-104931500I-237500J0D01*
G01*
X148098500Y-104931500D01*
G75*
G02*
X147861000Y-104694000I0J237500D01*
G01*
X147861000Y-104094000D01*
G75*
G02*
X148098500Y-103856500I237500J0D01*
G01*
G37*
%TD*%
%TO.C,C2*%
G36*
G01*
X149627500Y-102517000D02*
X149627500Y-102207000D01*
G75*
G02*
X149782500Y-102052000I155000J0D01*
G01*
X150207500Y-102052000D01*
G75*
G02*
X150362500Y-102207000I0J-155000D01*
G01*
X150362500Y-102517000D01*
G75*
G02*
X150207500Y-102672000I-155000J0D01*
G01*
X149782500Y-102672000D01*
G75*
G02*
X149627500Y-102517000I0J155000D01*
G01*
G37*
G36*
G01*
X150762500Y-102517000D02*
X150762500Y-102207000D01*
G75*
G02*
X150917500Y-102052000I155000J0D01*
G01*
X151342500Y-102052000D01*
G75*
G02*
X151497500Y-102207000I0J-155000D01*
G01*
X151497500Y-102517000D01*
G75*
G02*
X151342500Y-102672000I-155000J0D01*
G01*
X150917500Y-102672000D01*
G75*
G02*
X150762500Y-102517000I0J155000D01*
G01*
G37*
%TD*%
%TO.C,C3*%
G36*
G01*
X151389500Y-89563000D02*
X151389500Y-89253000D01*
G75*
G02*
X151544500Y-89098000I155000J0D01*
G01*
X151969500Y-89098000D01*
G75*
G02*
X152124500Y-89253000I0J-155000D01*
G01*
X152124500Y-89563000D01*
G75*
G02*
X151969500Y-89718000I-155000J0D01*
G01*
X151544500Y-89718000D01*
G75*
G02*
X151389500Y-89563000I0J155000D01*
G01*
G37*
G36*
G01*
X150254500Y-89563000D02*
X150254500Y-89253000D01*
G75*
G02*
X150409500Y-89098000I155000J0D01*
G01*
X150834500Y-89098000D01*
G75*
G02*
X150989500Y-89253000I0J-155000D01*
G01*
X150989500Y-89563000D01*
G75*
G02*
X150834500Y-89718000I-155000J0D01*
G01*
X150409500Y-89718000D01*
G75*
G02*
X150254500Y-89563000I0J155000D01*
G01*
G37*
%TD*%
%TO.C,C4*%
G36*
G01*
X135652500Y-92733500D02*
X136127500Y-92733500D01*
G75*
G02*
X136365000Y-92971000I0J-237500D01*
G01*
X136365000Y-93571000D01*
G75*
G02*
X136127500Y-93808500I-237500J0D01*
G01*
X135652500Y-93808500D01*
G75*
G02*
X135415000Y-93571000I0J237500D01*
G01*
X135415000Y-92971000D01*
G75*
G02*
X135652500Y-92733500I237500J0D01*
G01*
G37*
G36*
G01*
X135652500Y-94458500D02*
X136127500Y-94458500D01*
G75*
G02*
X136365000Y-94696000I0J-237500D01*
G01*
X136365000Y-95296000D01*
G75*
G02*
X136127500Y-95533500I-237500J0D01*
G01*
X135652500Y-95533500D01*
G75*
G02*
X135415000Y-95296000I0J237500D01*
G01*
X135415000Y-94696000D01*
G75*
G02*
X135652500Y-94458500I237500J0D01*
G01*
G37*
%TD*%
%TO.C,C5*%
G36*
G01*
X139121000Y-89424500D02*
X139121000Y-89899500D01*
G75*
G02*
X138883500Y-90137000I-237500J0D01*
G01*
X138283500Y-90137000D01*
G75*
G02*
X138046000Y-89899500I0J237500D01*
G01*
X138046000Y-89424500D01*
G75*
G02*
X138283500Y-89187000I237500J0D01*
G01*
X138883500Y-89187000D01*
G75*
G02*
X139121000Y-89424500I0J-237500D01*
G01*
G37*
G36*
G01*
X140846000Y-89424500D02*
X140846000Y-89899500D01*
G75*
G02*
X140608500Y-90137000I-237500J0D01*
G01*
X140008500Y-90137000D01*
G75*
G02*
X139771000Y-89899500I0J237500D01*
G01*
X139771000Y-89424500D01*
G75*
G02*
X140008500Y-89187000I237500J0D01*
G01*
X140608500Y-89187000D01*
G75*
G02*
X140846000Y-89424500I0J-237500D01*
G01*
G37*
%TD*%
D15*
%TO.C,J1*%
X129242000Y-97053000D03*
X128742000Y-97053000D03*
X128242000Y-97053000D03*
X127742000Y-97053000D03*
X127242000Y-97053000D03*
X126742000Y-97053000D03*
X126242000Y-97053000D03*
X125742000Y-97053000D03*
X125242000Y-97053000D03*
X124742000Y-97053000D03*
X124242000Y-97053000D03*
X123742000Y-97053000D03*
X123992000Y-95353000D03*
X124492000Y-95353000D03*
X124992000Y-95353000D03*
X125492000Y-95353000D03*
X125992000Y-95353000D03*
X126492000Y-95353000D03*
X126992000Y-95353000D03*
X127492000Y-95353000D03*
X127992000Y-95353000D03*
X128492000Y-95353000D03*
X128992000Y-95353000D03*
X129492000Y-95353000D03*
D16*
X130092000Y-96393000D03*
D17*
X130622000Y-95143000D03*
X122362000Y-95143000D03*
X122002000Y-89193000D03*
X130982000Y-89193000D03*
%TD*%
%TO.C,R1*%
G36*
G01*
X127348000Y-101459000D02*
X127668000Y-101459000D01*
G75*
G02*
X127828000Y-101619000I0J-160000D01*
G01*
X127828000Y-102014000D01*
G75*
G02*
X127668000Y-102174000I-160000J0D01*
G01*
X127348000Y-102174000D01*
G75*
G02*
X127188000Y-102014000I0J160000D01*
G01*
X127188000Y-101619000D01*
G75*
G02*
X127348000Y-101459000I160000J0D01*
G01*
G37*
G36*
G01*
X127348000Y-100264000D02*
X127668000Y-100264000D01*
G75*
G02*
X127828000Y-100424000I0J-160000D01*
G01*
X127828000Y-100819000D01*
G75*
G02*
X127668000Y-100979000I-160000J0D01*
G01*
X127348000Y-100979000D01*
G75*
G02*
X127188000Y-100819000I0J160000D01*
G01*
X127188000Y-100424000D01*
G75*
G02*
X127348000Y-100264000I160000J0D01*
G01*
G37*
%TD*%
%TO.C,R2*%
G36*
G01*
X124554000Y-100353500D02*
X124874000Y-100353500D01*
G75*
G02*
X125034000Y-100513500I0J-160000D01*
G01*
X125034000Y-100908500D01*
G75*
G02*
X124874000Y-101068500I-160000J0D01*
G01*
X124554000Y-101068500D01*
G75*
G02*
X124394000Y-100908500I0J160000D01*
G01*
X124394000Y-100513500D01*
G75*
G02*
X124554000Y-100353500I160000J0D01*
G01*
G37*
G36*
G01*
X124554000Y-101548500D02*
X124874000Y-101548500D01*
G75*
G02*
X125034000Y-101708500I0J-160000D01*
G01*
X125034000Y-102103500D01*
G75*
G02*
X124874000Y-102263500I-160000J0D01*
G01*
X124554000Y-102263500D01*
G75*
G02*
X124394000Y-102103500I0J160000D01*
G01*
X124394000Y-101708500D01*
G75*
G02*
X124554000Y-101548500I160000J0D01*
G01*
G37*
%TD*%
D18*
%TO.C,U2*%
X140462000Y-94168000D03*
X140462000Y-92268000D03*
X138462000Y-93218000D03*
%TD*%
D12*
%TO.C,SW2*%
X156040000Y-117080000D03*
X145880000Y-117080000D03*
D11*
X150960000Y-117080000D03*
D10*
X147150000Y-114540000D03*
X153500000Y-112000000D03*
%TD*%
M02*
