M48
INCH,TZ
T1C0.0157
T2C0.0197
T3C0.0236
%
G90
G05
T1
X-8386Y4449
X-7756Y3110
X-7756Y1732
X-7402Y2795
X-7362Y2283
X-6732Y4685
X-6295Y3610
X-6244Y4024
X-5970Y6180
X-5827Y197
X-5827Y-3268
X-5820Y2500
X-5605Y5625
X-5275Y6010
X-5230Y6440
X-5039Y-4291
X-4990Y1910
X-4820Y6870
X-4665Y2200
X-4645Y5205
X-4410Y6450
X-4060Y5620
X-3819Y-3228
X-3425Y3150
X-2362Y-4606
X-2340Y-3975
X-1339Y630
X-1339Y-827
X-1260Y4567
X-1142Y4134
X-591Y-118
X-125Y-3975
X-118Y-4606
X-79Y-551
X157Y2677
X512Y2323
X866Y2717
X1181Y1339
X1260Y4567
X1305Y2065
X1650Y2435
X1650Y1720
X1929Y-4606
X1935Y-3985
X2685Y3875
X2700Y3160
X3070Y3510
X3095Y1670
X3110Y906
X3480Y1305
X3780Y-3228
X6299Y630
X6299Y-827
X7008Y-79
X9134Y4843
T2
G00X-1701Y5193
M15
G01X-1701Y5665
M16
G05
G00X1701Y5193
M15
G01X1701Y5665
M16
G05
T3
G00X-1701Y6957
M15
G01X-1701Y7193
M16
G05
G00X1701Y6957
M15
G01X1701Y7193
M16
G05
T0
M30
