%TF.GenerationSoftware,KiCad,Pcbnew,(5.1.10)-1*%
%TF.CreationDate,2021-07-17T22:11:59-07:00*%
%TF.ProjectId,twokey,74776f6b-6579-42e6-9b69-6361645f7063,rev?*%
%TF.SameCoordinates,Original*%
%TF.FileFunction,Copper,L2,Bot*%
%TF.FilePolarity,Positive*%
%FSLAX46Y46*%
G04 Gerber Fmt 4.6, Leading zero omitted, Abs format (unit mm)*
G04 Created by KiCad (PCBNEW (5.1.10)-1) date 2021-07-17 22:11:59*
%MOMM*%
%LPD*%
G01*
G04 APERTURE LIST*
%TA.AperFunction,ComponentPad*%
%ADD10C,2.200000*%
%TD*%
%TA.AperFunction,ComponentPad*%
%ADD11O,0.800000X1.600000*%
%TD*%
%TA.AperFunction,ViaPad*%
%ADD12C,0.800000*%
%TD*%
%TA.AperFunction,Conductor*%
%ADD13C,0.250000*%
%TD*%
%TA.AperFunction,Conductor*%
%ADD14C,0.100000*%
%TD*%
G04 APERTURE END LIST*
D10*
%TO.P,SW1,1*%
%TO.N,GND*%
X134500000Y-112000000D03*
%TO.P,SW1,2*%
%TO.N,KEY1*%
X128150000Y-114540000D03*
%TD*%
D11*
%TO.P,J1,S1*%
%TO.N,GND*%
X130622000Y-95143000D03*
%TO.P,J1,S2*%
X122362000Y-95143000D03*
%TO.P,J1,S3*%
X122002000Y-89193000D03*
%TO.P,J1,S4*%
X130982000Y-89193000D03*
%TD*%
D10*
%TO.P,SW2,2*%
%TO.N,KEY2*%
X147150000Y-114540000D03*
%TO.P,SW2,1*%
%TO.N,GND*%
X153500000Y-112000000D03*
%TD*%
D12*
%TO.N,GND*%
X122682000Y-97409000D03*
X146558000Y-94742000D03*
X147447000Y-98806000D03*
X147320000Y-101727000D03*
X149479000Y-104394000D03*
X148209000Y-105664000D03*
X147193000Y-104394000D03*
X151130000Y-103378000D03*
X152146000Y-102362000D03*
X149733000Y-90297000D03*
X152781000Y-89408000D03*
X151765000Y-90424000D03*
X151765000Y-88392000D03*
X138557000Y-90805000D03*
X137414000Y-89662000D03*
X138557000Y-88519000D03*
X129413000Y-94361000D03*
X123952000Y-94361000D03*
X123698000Y-98044000D03*
X130048000Y-97409000D03*
X128524000Y-101727000D03*
X126619000Y-101727000D03*
X125730000Y-101854000D03*
X123825000Y-101854000D03*
X124714000Y-102870000D03*
X127508000Y-102743000D03*
X140462000Y-95250000D03*
X141605000Y-94107000D03*
X139319000Y-94234000D03*
X137033000Y-94996000D03*
X135890000Y-96139000D03*
X134747000Y-94996000D03*
X150241000Y-94996000D03*
X150241000Y-98298000D03*
X145288000Y-90043000D03*
X142748000Y-91059000D03*
%TO.N,D+*%
X126492000Y-94107000D03*
X126746000Y-98171000D03*
X132588000Y-99187000D03*
%TO.N,D-*%
X126746000Y-99441000D03*
X128524000Y-99441000D03*
%TO.N,Net-(J1-PadB5)*%
X124714000Y-99441000D03*
X125476000Y-93599000D03*
%TO.N,KEY1*%
X144653000Y-101727000D03*
%TO.N,KEY2*%
X145923000Y-101727000D03*
%TD*%
D13*
%TO.N,D+*%
X126492000Y-96012000D02*
X126746000Y-96266000D01*
X126492000Y-94107000D02*
X126492000Y-96012000D01*
X126746000Y-96266000D02*
X126746000Y-98171000D01*
X126746000Y-98171000D02*
X129794000Y-98171000D01*
X129794000Y-98171000D02*
X130302000Y-98171000D01*
X130302000Y-98171000D02*
X130556000Y-98171000D01*
X131572000Y-99187000D02*
X132588000Y-99187000D01*
X130556000Y-98171000D02*
X131572000Y-99187000D01*
%TO.N,D-*%
X126746000Y-99441000D02*
X128016000Y-99441000D01*
X128016000Y-99441000D02*
X128524000Y-99441000D01*
%TO.N,Net-(J1-PadB5)*%
X124714000Y-94869000D02*
X124714000Y-99441000D01*
X125476000Y-93599000D02*
X125222000Y-93599000D01*
X125476000Y-93599000D02*
X125476000Y-94107000D01*
X125476000Y-94107000D02*
X124714000Y-94869000D01*
%TO.N,KEY1*%
X144653000Y-101727000D02*
X137668000Y-108712000D01*
X137668000Y-108712000D02*
X129032000Y-108712000D01*
X128150000Y-109594000D02*
X128150000Y-114540000D01*
X129032000Y-108712000D02*
X128150000Y-109594000D01*
%TO.N,KEY2*%
X145923000Y-113313000D02*
X147150000Y-114540000D01*
X145923000Y-101727000D02*
X145923000Y-113313000D01*
%TD*%
D14*
%TO.N,GND*%
X167311000Y-88916153D02*
X167311001Y-88916163D01*
X167311000Y-127306000D01*
X115899000Y-127306000D01*
X115899000Y-116966341D01*
X125726000Y-116966341D01*
X125726000Y-117193659D01*
X125770347Y-117416609D01*
X125857338Y-117626624D01*
X125983629Y-117815632D01*
X126144368Y-117976371D01*
X126333376Y-118102662D01*
X126543391Y-118189653D01*
X126766341Y-118234000D01*
X126993659Y-118234000D01*
X127216609Y-118189653D01*
X127426624Y-118102662D01*
X127615632Y-117976371D01*
X127776371Y-117815632D01*
X127902662Y-117626624D01*
X127989653Y-117416609D01*
X128034000Y-117193659D01*
X128034000Y-116966341D01*
X128011471Y-116853076D01*
X129656000Y-116853076D01*
X129656000Y-117306924D01*
X129744541Y-117752052D01*
X129918222Y-118171353D01*
X130170366Y-118548714D01*
X130491286Y-118869634D01*
X130868647Y-119121778D01*
X131287948Y-119295459D01*
X131733076Y-119384000D01*
X132186924Y-119384000D01*
X132632052Y-119295459D01*
X133051353Y-119121778D01*
X133428714Y-118869634D01*
X133749634Y-118548714D01*
X134001778Y-118171353D01*
X134175459Y-117752052D01*
X134264000Y-117306924D01*
X134264000Y-116966341D01*
X135886000Y-116966341D01*
X135886000Y-117193659D01*
X135930347Y-117416609D01*
X136017338Y-117626624D01*
X136143629Y-117815632D01*
X136304368Y-117976371D01*
X136493376Y-118102662D01*
X136703391Y-118189653D01*
X136926341Y-118234000D01*
X137153659Y-118234000D01*
X137376609Y-118189653D01*
X137586624Y-118102662D01*
X137775632Y-117976371D01*
X137936371Y-117815632D01*
X138062662Y-117626624D01*
X138149653Y-117416609D01*
X138194000Y-117193659D01*
X138194000Y-116966341D01*
X144726000Y-116966341D01*
X144726000Y-117193659D01*
X144770347Y-117416609D01*
X144857338Y-117626624D01*
X144983629Y-117815632D01*
X145144368Y-117976371D01*
X145333376Y-118102662D01*
X145543391Y-118189653D01*
X145766341Y-118234000D01*
X145993659Y-118234000D01*
X146216609Y-118189653D01*
X146426624Y-118102662D01*
X146615632Y-117976371D01*
X146776371Y-117815632D01*
X146902662Y-117626624D01*
X146989653Y-117416609D01*
X147034000Y-117193659D01*
X147034000Y-116966341D01*
X147011471Y-116853076D01*
X148656000Y-116853076D01*
X148656000Y-117306924D01*
X148744541Y-117752052D01*
X148918222Y-118171353D01*
X149170366Y-118548714D01*
X149491286Y-118869634D01*
X149868647Y-119121778D01*
X150287948Y-119295459D01*
X150733076Y-119384000D01*
X151186924Y-119384000D01*
X151632052Y-119295459D01*
X152051353Y-119121778D01*
X152428714Y-118869634D01*
X152749634Y-118548714D01*
X153001778Y-118171353D01*
X153175459Y-117752052D01*
X153264000Y-117306924D01*
X153264000Y-116966341D01*
X154886000Y-116966341D01*
X154886000Y-117193659D01*
X154930347Y-117416609D01*
X155017338Y-117626624D01*
X155143629Y-117815632D01*
X155304368Y-117976371D01*
X155493376Y-118102662D01*
X155703391Y-118189653D01*
X155926341Y-118234000D01*
X156153659Y-118234000D01*
X156376609Y-118189653D01*
X156586624Y-118102662D01*
X156775632Y-117976371D01*
X156936371Y-117815632D01*
X157062662Y-117626624D01*
X157149653Y-117416609D01*
X157194000Y-117193659D01*
X157194000Y-116966341D01*
X157149653Y-116743391D01*
X157062662Y-116533376D01*
X156936371Y-116344368D01*
X156775632Y-116183629D01*
X156586624Y-116057338D01*
X156376609Y-115970347D01*
X156153659Y-115926000D01*
X155926341Y-115926000D01*
X155703391Y-115970347D01*
X155493376Y-116057338D01*
X155304368Y-116183629D01*
X155143629Y-116344368D01*
X155017338Y-116533376D01*
X154930347Y-116743391D01*
X154886000Y-116966341D01*
X153264000Y-116966341D01*
X153264000Y-116853076D01*
X153175459Y-116407948D01*
X153001778Y-115988647D01*
X152749634Y-115611286D01*
X152428714Y-115290366D01*
X152051353Y-115038222D01*
X151632052Y-114864541D01*
X151186924Y-114776000D01*
X150733076Y-114776000D01*
X150287948Y-114864541D01*
X149868647Y-115038222D01*
X149491286Y-115290366D01*
X149170366Y-115611286D01*
X148918222Y-115988647D01*
X148744541Y-116407948D01*
X148656000Y-116853076D01*
X147011471Y-116853076D01*
X146989653Y-116743391D01*
X146902662Y-116533376D01*
X146776371Y-116344368D01*
X146615632Y-116183629D01*
X146426624Y-116057338D01*
X146216609Y-115970347D01*
X145993659Y-115926000D01*
X145766341Y-115926000D01*
X145543391Y-115970347D01*
X145333376Y-116057338D01*
X145144368Y-116183629D01*
X144983629Y-116344368D01*
X144857338Y-116533376D01*
X144770347Y-116743391D01*
X144726000Y-116966341D01*
X138194000Y-116966341D01*
X138149653Y-116743391D01*
X138062662Y-116533376D01*
X137936371Y-116344368D01*
X137775632Y-116183629D01*
X137586624Y-116057338D01*
X137376609Y-115970347D01*
X137153659Y-115926000D01*
X136926341Y-115926000D01*
X136703391Y-115970347D01*
X136493376Y-116057338D01*
X136304368Y-116183629D01*
X136143629Y-116344368D01*
X136017338Y-116533376D01*
X135930347Y-116743391D01*
X135886000Y-116966341D01*
X134264000Y-116966341D01*
X134264000Y-116853076D01*
X134175459Y-116407948D01*
X134001778Y-115988647D01*
X133749634Y-115611286D01*
X133428714Y-115290366D01*
X133051353Y-115038222D01*
X132632052Y-114864541D01*
X132186924Y-114776000D01*
X131733076Y-114776000D01*
X131287948Y-114864541D01*
X130868647Y-115038222D01*
X130491286Y-115290366D01*
X130170366Y-115611286D01*
X129918222Y-115988647D01*
X129744541Y-116407948D01*
X129656000Y-116853076D01*
X128011471Y-116853076D01*
X127989653Y-116743391D01*
X127902662Y-116533376D01*
X127776371Y-116344368D01*
X127615632Y-116183629D01*
X127426624Y-116057338D01*
X127216609Y-115970347D01*
X126993659Y-115926000D01*
X126766341Y-115926000D01*
X126543391Y-115970347D01*
X126333376Y-116057338D01*
X126144368Y-116183629D01*
X125983629Y-116344368D01*
X125857338Y-116533376D01*
X125770347Y-116743391D01*
X125726000Y-116966341D01*
X115899000Y-116966341D01*
X115899000Y-114401718D01*
X126746000Y-114401718D01*
X126746000Y-114678282D01*
X126799955Y-114949532D01*
X126905792Y-115205043D01*
X127059442Y-115434998D01*
X127255002Y-115630558D01*
X127484957Y-115784208D01*
X127740468Y-115890045D01*
X128011718Y-115944000D01*
X128288282Y-115944000D01*
X128559532Y-115890045D01*
X128815043Y-115784208D01*
X129044998Y-115630558D01*
X129240558Y-115434998D01*
X129394208Y-115205043D01*
X129500045Y-114949532D01*
X129554000Y-114678282D01*
X129554000Y-114401718D01*
X129500045Y-114130468D01*
X129394208Y-113874957D01*
X129240558Y-113645002D01*
X129044998Y-113449442D01*
X128815043Y-113295792D01*
X128579000Y-113198019D01*
X128579000Y-112996717D01*
X133612178Y-112996717D01*
X133734288Y-113184914D01*
X133980166Y-113311529D01*
X134246021Y-113387742D01*
X134521637Y-113410626D01*
X134796421Y-113379301D01*
X135059813Y-113294969D01*
X135265712Y-113184914D01*
X135387822Y-112996717D01*
X134500000Y-112108894D01*
X133612178Y-112996717D01*
X128579000Y-112996717D01*
X128579000Y-112021637D01*
X133089374Y-112021637D01*
X133120699Y-112296421D01*
X133205031Y-112559813D01*
X133315086Y-112765712D01*
X133503283Y-112887822D01*
X134391106Y-112000000D01*
X134608894Y-112000000D01*
X135496717Y-112887822D01*
X135684914Y-112765712D01*
X135811529Y-112519834D01*
X135887742Y-112253979D01*
X135910626Y-111978363D01*
X135879301Y-111703579D01*
X135794969Y-111440187D01*
X135684914Y-111234288D01*
X135496717Y-111112178D01*
X134608894Y-112000000D01*
X134391106Y-112000000D01*
X133503283Y-111112178D01*
X133315086Y-111234288D01*
X133188471Y-111480166D01*
X133112258Y-111746021D01*
X133089374Y-112021637D01*
X128579000Y-112021637D01*
X128579000Y-111003283D01*
X133612178Y-111003283D01*
X134500000Y-111891106D01*
X135387822Y-111003283D01*
X135265712Y-110815086D01*
X135019834Y-110688471D01*
X134753979Y-110612258D01*
X134478363Y-110589374D01*
X134203579Y-110620699D01*
X133940187Y-110705031D01*
X133734288Y-110815086D01*
X133612178Y-111003283D01*
X128579000Y-111003283D01*
X128579000Y-109771697D01*
X129209697Y-109141000D01*
X137646942Y-109141000D01*
X137668000Y-109143074D01*
X137689058Y-109141000D01*
X137689068Y-109141000D01*
X137752099Y-109134792D01*
X137832965Y-109110261D01*
X137907492Y-109070426D01*
X137972816Y-109016816D01*
X137986248Y-109000449D01*
X144560338Y-102426360D01*
X144583662Y-102431000D01*
X144722338Y-102431000D01*
X144858349Y-102403945D01*
X144986469Y-102350876D01*
X145101774Y-102273832D01*
X145199832Y-102175774D01*
X145276876Y-102060469D01*
X145288000Y-102033613D01*
X145299124Y-102060469D01*
X145376168Y-102175774D01*
X145474226Y-102273832D01*
X145494000Y-102287045D01*
X145494001Y-113291932D01*
X145491926Y-113313000D01*
X145500209Y-113397099D01*
X145524740Y-113477965D01*
X145564574Y-113552492D01*
X145604754Y-113601451D01*
X145604757Y-113601454D01*
X145618185Y-113617816D01*
X145634547Y-113631244D01*
X145897728Y-113894425D01*
X145799955Y-114130468D01*
X145746000Y-114401718D01*
X145746000Y-114678282D01*
X145799955Y-114949532D01*
X145905792Y-115205043D01*
X146059442Y-115434998D01*
X146255002Y-115630558D01*
X146484957Y-115784208D01*
X146740468Y-115890045D01*
X147011718Y-115944000D01*
X147288282Y-115944000D01*
X147559532Y-115890045D01*
X147815043Y-115784208D01*
X148044998Y-115630558D01*
X148240558Y-115434998D01*
X148394208Y-115205043D01*
X148500045Y-114949532D01*
X148554000Y-114678282D01*
X148554000Y-114401718D01*
X148500045Y-114130468D01*
X148394208Y-113874957D01*
X148240558Y-113645002D01*
X148044998Y-113449442D01*
X147815043Y-113295792D01*
X147559532Y-113189955D01*
X147288282Y-113136000D01*
X147011718Y-113136000D01*
X146740468Y-113189955D01*
X146504425Y-113287728D01*
X146352000Y-113135303D01*
X146352000Y-112996717D01*
X152612178Y-112996717D01*
X152734288Y-113184914D01*
X152980166Y-113311529D01*
X153246021Y-113387742D01*
X153521637Y-113410626D01*
X153796421Y-113379301D01*
X154059813Y-113294969D01*
X154265712Y-113184914D01*
X154387822Y-112996717D01*
X153500000Y-112108894D01*
X152612178Y-112996717D01*
X146352000Y-112996717D01*
X146352000Y-112021637D01*
X152089374Y-112021637D01*
X152120699Y-112296421D01*
X152205031Y-112559813D01*
X152315086Y-112765712D01*
X152503283Y-112887822D01*
X153391106Y-112000000D01*
X153608894Y-112000000D01*
X154496717Y-112887822D01*
X154684914Y-112765712D01*
X154811529Y-112519834D01*
X154887742Y-112253979D01*
X154910626Y-111978363D01*
X154879301Y-111703579D01*
X154794969Y-111440187D01*
X154684914Y-111234288D01*
X154496717Y-111112178D01*
X153608894Y-112000000D01*
X153391106Y-112000000D01*
X152503283Y-111112178D01*
X152315086Y-111234288D01*
X152188471Y-111480166D01*
X152112258Y-111746021D01*
X152089374Y-112021637D01*
X146352000Y-112021637D01*
X146352000Y-111003283D01*
X152612178Y-111003283D01*
X153500000Y-111891106D01*
X154387822Y-111003283D01*
X154265712Y-110815086D01*
X154019834Y-110688471D01*
X153753979Y-110612258D01*
X153478363Y-110589374D01*
X153203579Y-110620699D01*
X152940187Y-110705031D01*
X152734288Y-110815086D01*
X152612178Y-111003283D01*
X146352000Y-111003283D01*
X146352000Y-102287045D01*
X146371774Y-102273832D01*
X146469832Y-102175774D01*
X146546876Y-102060469D01*
X146599945Y-101932349D01*
X146627000Y-101796338D01*
X146627000Y-101657662D01*
X146599945Y-101521651D01*
X146546876Y-101393531D01*
X146469832Y-101278226D01*
X146371774Y-101180168D01*
X146256469Y-101103124D01*
X146128349Y-101050055D01*
X145992338Y-101023000D01*
X145853662Y-101023000D01*
X145717651Y-101050055D01*
X145589531Y-101103124D01*
X145474226Y-101180168D01*
X145376168Y-101278226D01*
X145299124Y-101393531D01*
X145288000Y-101420387D01*
X145276876Y-101393531D01*
X145199832Y-101278226D01*
X145101774Y-101180168D01*
X144986469Y-101103124D01*
X144858349Y-101050055D01*
X144722338Y-101023000D01*
X144583662Y-101023000D01*
X144447651Y-101050055D01*
X144319531Y-101103124D01*
X144204226Y-101180168D01*
X144106168Y-101278226D01*
X144029124Y-101393531D01*
X143976055Y-101521651D01*
X143949000Y-101657662D01*
X143949000Y-101796338D01*
X143953640Y-101819662D01*
X137490303Y-108283000D01*
X129053057Y-108283000D01*
X129031999Y-108280926D01*
X129010941Y-108283000D01*
X129010932Y-108283000D01*
X128947901Y-108289208D01*
X128867035Y-108313739D01*
X128792508Y-108353574D01*
X128727184Y-108407184D01*
X128713754Y-108423549D01*
X127861551Y-109275752D01*
X127845184Y-109289184D01*
X127831754Y-109305549D01*
X127791574Y-109354508D01*
X127770283Y-109394343D01*
X127751739Y-109429036D01*
X127727208Y-109509902D01*
X127721000Y-109572933D01*
X127721000Y-109572942D01*
X127718926Y-109594000D01*
X127721000Y-109615058D01*
X127721001Y-113198019D01*
X127484957Y-113295792D01*
X127255002Y-113449442D01*
X127059442Y-113645002D01*
X126905792Y-113874957D01*
X126799955Y-114130468D01*
X126746000Y-114401718D01*
X115899000Y-114401718D01*
X115899000Y-99371662D01*
X124010000Y-99371662D01*
X124010000Y-99510338D01*
X124037055Y-99646349D01*
X124090124Y-99774469D01*
X124167168Y-99889774D01*
X124265226Y-99987832D01*
X124380531Y-100064876D01*
X124508651Y-100117945D01*
X124644662Y-100145000D01*
X124783338Y-100145000D01*
X124919349Y-100117945D01*
X125047469Y-100064876D01*
X125162774Y-99987832D01*
X125260832Y-99889774D01*
X125337876Y-99774469D01*
X125390945Y-99646349D01*
X125418000Y-99510338D01*
X125418000Y-99371662D01*
X125390945Y-99235651D01*
X125337876Y-99107531D01*
X125260832Y-98992226D01*
X125162774Y-98894168D01*
X125143000Y-98880955D01*
X125143000Y-95046697D01*
X125764454Y-94425244D01*
X125780816Y-94411816D01*
X125794462Y-94395189D01*
X125830951Y-94350726D01*
X125868124Y-94440469D01*
X125945168Y-94555774D01*
X126043226Y-94653832D01*
X126063000Y-94667045D01*
X126063001Y-95990932D01*
X126060926Y-96012000D01*
X126069209Y-96096099D01*
X126093740Y-96176965D01*
X126133574Y-96251492D01*
X126173754Y-96300451D01*
X126173757Y-96300454D01*
X126187185Y-96316816D01*
X126203547Y-96330244D01*
X126317000Y-96443697D01*
X126317001Y-97610955D01*
X126297226Y-97624168D01*
X126199168Y-97722226D01*
X126122124Y-97837531D01*
X126069055Y-97965651D01*
X126042000Y-98101662D01*
X126042000Y-98240338D01*
X126069055Y-98376349D01*
X126122124Y-98504469D01*
X126199168Y-98619774D01*
X126297226Y-98717832D01*
X126412531Y-98794876D01*
X126439387Y-98806000D01*
X126412531Y-98817124D01*
X126297226Y-98894168D01*
X126199168Y-98992226D01*
X126122124Y-99107531D01*
X126069055Y-99235651D01*
X126042000Y-99371662D01*
X126042000Y-99510338D01*
X126069055Y-99646349D01*
X126122124Y-99774469D01*
X126199168Y-99889774D01*
X126297226Y-99987832D01*
X126412531Y-100064876D01*
X126540651Y-100117945D01*
X126676662Y-100145000D01*
X126815338Y-100145000D01*
X126951349Y-100117945D01*
X127079469Y-100064876D01*
X127194774Y-99987832D01*
X127292832Y-99889774D01*
X127306045Y-99870000D01*
X127963955Y-99870000D01*
X127977168Y-99889774D01*
X128075226Y-99987832D01*
X128190531Y-100064876D01*
X128318651Y-100117945D01*
X128454662Y-100145000D01*
X128593338Y-100145000D01*
X128729349Y-100117945D01*
X128857469Y-100064876D01*
X128972774Y-99987832D01*
X129070832Y-99889774D01*
X129147876Y-99774469D01*
X129200945Y-99646349D01*
X129228000Y-99510338D01*
X129228000Y-99371662D01*
X129200945Y-99235651D01*
X129147876Y-99107531D01*
X129070832Y-98992226D01*
X128972774Y-98894168D01*
X128857469Y-98817124D01*
X128729349Y-98764055D01*
X128593338Y-98737000D01*
X128454662Y-98737000D01*
X128318651Y-98764055D01*
X128190531Y-98817124D01*
X128075226Y-98894168D01*
X127977168Y-98992226D01*
X127963955Y-99012000D01*
X127306045Y-99012000D01*
X127292832Y-98992226D01*
X127194774Y-98894168D01*
X127079469Y-98817124D01*
X127052613Y-98806000D01*
X127079469Y-98794876D01*
X127194774Y-98717832D01*
X127292832Y-98619774D01*
X127306045Y-98600000D01*
X130378303Y-98600000D01*
X131253756Y-99475454D01*
X131267184Y-99491816D01*
X131283546Y-99505244D01*
X131283548Y-99505246D01*
X131332507Y-99545426D01*
X131372342Y-99566717D01*
X131407035Y-99585261D01*
X131487901Y-99609792D01*
X131550932Y-99616000D01*
X131550942Y-99616000D01*
X131572000Y-99618074D01*
X131593058Y-99616000D01*
X132027955Y-99616000D01*
X132041168Y-99635774D01*
X132139226Y-99733832D01*
X132254531Y-99810876D01*
X132382651Y-99863945D01*
X132518662Y-99891000D01*
X132657338Y-99891000D01*
X132793349Y-99863945D01*
X132921469Y-99810876D01*
X133036774Y-99733832D01*
X133134832Y-99635774D01*
X133211876Y-99520469D01*
X133264945Y-99392349D01*
X133292000Y-99256338D01*
X133292000Y-99117662D01*
X133264945Y-98981651D01*
X133211876Y-98853531D01*
X133134832Y-98738226D01*
X133036774Y-98640168D01*
X132921469Y-98563124D01*
X132793349Y-98510055D01*
X132657338Y-98483000D01*
X132518662Y-98483000D01*
X132382651Y-98510055D01*
X132254531Y-98563124D01*
X132139226Y-98640168D01*
X132041168Y-98738226D01*
X132027955Y-98758000D01*
X131749698Y-98758000D01*
X130874248Y-97882551D01*
X130860816Y-97866184D01*
X130795492Y-97812574D01*
X130720965Y-97772739D01*
X130640099Y-97748208D01*
X130577068Y-97742000D01*
X130577058Y-97742000D01*
X130556000Y-97739926D01*
X130534942Y-97742000D01*
X127306045Y-97742000D01*
X127292832Y-97722226D01*
X127194774Y-97624168D01*
X127175000Y-97610955D01*
X127175000Y-96331049D01*
X129463000Y-96331049D01*
X129463000Y-96454951D01*
X129487173Y-96576472D01*
X129534588Y-96690943D01*
X129603424Y-96793964D01*
X129691036Y-96881576D01*
X129794057Y-96950412D01*
X129908528Y-96997827D01*
X130030049Y-97022000D01*
X130153951Y-97022000D01*
X130275472Y-96997827D01*
X130389943Y-96950412D01*
X130492964Y-96881576D01*
X130580576Y-96793964D01*
X130649412Y-96690943D01*
X130696827Y-96576472D01*
X130721000Y-96454951D01*
X130721000Y-96331049D01*
X130699002Y-96220462D01*
X130699002Y-96166263D01*
X130807521Y-96222115D01*
X130949098Y-96171134D01*
X131065356Y-96095251D01*
X131164576Y-95998145D01*
X131242945Y-95883548D01*
X131297451Y-95755864D01*
X131326000Y-95620000D01*
X131326000Y-95220000D01*
X131226000Y-95220000D01*
X131226000Y-95066000D01*
X131326000Y-95066000D01*
X131326000Y-94666000D01*
X131297451Y-94530136D01*
X131242945Y-94402452D01*
X131164576Y-94287855D01*
X131065356Y-94190749D01*
X130949098Y-94114866D01*
X130807521Y-94063885D01*
X130699000Y-94119738D01*
X130699000Y-94244852D01*
X130656543Y-94240689D01*
X130641084Y-94240689D01*
X130625726Y-94239020D01*
X130620783Y-94239002D01*
X130619038Y-94239008D01*
X130603640Y-94240571D01*
X130588172Y-94240463D01*
X130583252Y-94240945D01*
X130545000Y-94244965D01*
X130545000Y-94119738D01*
X130436479Y-94063885D01*
X130294902Y-94114866D01*
X130178644Y-94190749D01*
X130079424Y-94287855D01*
X130001055Y-94402452D01*
X129946549Y-94530136D01*
X129918000Y-94666000D01*
X129918000Y-95066000D01*
X130018001Y-95066000D01*
X130018000Y-95220000D01*
X129918000Y-95220000D01*
X129918000Y-95620000D01*
X129946549Y-95755864D01*
X129956286Y-95778673D01*
X129908528Y-95788173D01*
X129794057Y-95835588D01*
X129691036Y-95904424D01*
X129603424Y-95992036D01*
X129534588Y-96095057D01*
X129487173Y-96209528D01*
X129463000Y-96331049D01*
X127175000Y-96331049D01*
X127175000Y-96287057D01*
X127177074Y-96265999D01*
X127175000Y-96244941D01*
X127175000Y-96244932D01*
X127168792Y-96181901D01*
X127144261Y-96101035D01*
X127104426Y-96026508D01*
X127050816Y-95961184D01*
X127034445Y-95947749D01*
X126921000Y-95834303D01*
X126921000Y-94667045D01*
X126940774Y-94653832D01*
X127038832Y-94555774D01*
X127115876Y-94440469D01*
X127168945Y-94312349D01*
X127196000Y-94176338D01*
X127196000Y-94037662D01*
X127168945Y-93901651D01*
X127115876Y-93773531D01*
X127038832Y-93658226D01*
X126940774Y-93560168D01*
X126825469Y-93483124D01*
X126697349Y-93430055D01*
X126561338Y-93403000D01*
X126422662Y-93403000D01*
X126286651Y-93430055D01*
X126169813Y-93478451D01*
X126152945Y-93393651D01*
X126099876Y-93265531D01*
X126022832Y-93150226D01*
X125924774Y-93052168D01*
X125809469Y-92975124D01*
X125681349Y-92922055D01*
X125545338Y-92895000D01*
X125406662Y-92895000D01*
X125270651Y-92922055D01*
X125142531Y-92975124D01*
X125027226Y-93052168D01*
X124929168Y-93150226D01*
X124852124Y-93265531D01*
X124799055Y-93393651D01*
X124772000Y-93529662D01*
X124772000Y-93668338D01*
X124799055Y-93804349D01*
X124852124Y-93932469D01*
X124928912Y-94047391D01*
X124425551Y-94550752D01*
X124409184Y-94564184D01*
X124394943Y-94581537D01*
X124355574Y-94629508D01*
X124342573Y-94653832D01*
X124315739Y-94704036D01*
X124291208Y-94784902D01*
X124285000Y-94847933D01*
X124285000Y-94847942D01*
X124282926Y-94869000D01*
X124285000Y-94890058D01*
X124285001Y-98880955D01*
X124265226Y-98894168D01*
X124167168Y-98992226D01*
X124090124Y-99107531D01*
X124037055Y-99235651D01*
X124010000Y-99371662D01*
X115899000Y-99371662D01*
X115899000Y-94666000D01*
X121658000Y-94666000D01*
X121658000Y-95066000D01*
X121758001Y-95066000D01*
X121758000Y-95220000D01*
X121658000Y-95220000D01*
X121658000Y-95620000D01*
X121686549Y-95755864D01*
X121741055Y-95883548D01*
X121819424Y-95998145D01*
X121918644Y-96095251D01*
X122034902Y-96171134D01*
X122094773Y-96192693D01*
X122083159Y-96232155D01*
X122077146Y-96263681D01*
X122070697Y-96295096D01*
X122070214Y-96300016D01*
X122064465Y-96363184D01*
X122064689Y-96395301D01*
X122064465Y-96427352D01*
X122064947Y-96432272D01*
X122071577Y-96495352D01*
X122078036Y-96526816D01*
X122084040Y-96558295D01*
X122085468Y-96563027D01*
X122104224Y-96623620D01*
X122116664Y-96653213D01*
X122128680Y-96682953D01*
X122131000Y-96687317D01*
X122161169Y-96743112D01*
X122179115Y-96769717D01*
X122196679Y-96796557D01*
X122199803Y-96800388D01*
X122240234Y-96849260D01*
X122263024Y-96871892D01*
X122285447Y-96894789D01*
X122289250Y-96897935D01*
X122289257Y-96897942D01*
X122289265Y-96897947D01*
X122338410Y-96938029D01*
X122365116Y-96955772D01*
X122391606Y-96973911D01*
X122395954Y-96976262D01*
X122451959Y-97006040D01*
X122481632Y-97018271D01*
X122511113Y-97030906D01*
X122515835Y-97032368D01*
X122576557Y-97050701D01*
X122608041Y-97056935D01*
X122639411Y-97063603D01*
X122644327Y-97064120D01*
X122707453Y-97070310D01*
X122707459Y-97070310D01*
X122724618Y-97072000D01*
X123059382Y-97072000D01*
X123076866Y-97070278D01*
X123081080Y-97070278D01*
X123085996Y-97069762D01*
X123149029Y-97062692D01*
X123180431Y-97056017D01*
X123211888Y-97049789D01*
X123216610Y-97048328D01*
X123277070Y-97029149D01*
X123306625Y-97016482D01*
X123336223Y-97004282D01*
X123340572Y-97001932D01*
X123396155Y-96971374D01*
X123422640Y-96953240D01*
X123449349Y-96935495D01*
X123453158Y-96932344D01*
X123453161Y-96932342D01*
X123453164Y-96932339D01*
X123501748Y-96891573D01*
X123524227Y-96868619D01*
X123546968Y-96846035D01*
X123550093Y-96842205D01*
X123589837Y-96792772D01*
X123607413Y-96765912D01*
X123625342Y-96739332D01*
X123627663Y-96734967D01*
X123657050Y-96678757D01*
X123669077Y-96648990D01*
X123681504Y-96619425D01*
X123682933Y-96614693D01*
X123700841Y-96553845D01*
X123706854Y-96522319D01*
X123713303Y-96490904D01*
X123713786Y-96485984D01*
X123719535Y-96422816D01*
X123719311Y-96390698D01*
X123719535Y-96358647D01*
X123719053Y-96353728D01*
X123712423Y-96290647D01*
X123705964Y-96259182D01*
X123699960Y-96227705D01*
X123698531Y-96222972D01*
X123698531Y-96222970D01*
X123698529Y-96222964D01*
X123679776Y-96162380D01*
X123667331Y-96132775D01*
X123655320Y-96103047D01*
X123653000Y-96098683D01*
X123622831Y-96042888D01*
X123604885Y-96016283D01*
X123587321Y-95989443D01*
X123584197Y-95985612D01*
X123543766Y-95936740D01*
X123520992Y-95914125D01*
X123498553Y-95891211D01*
X123494744Y-95888060D01*
X123445590Y-95847971D01*
X123418874Y-95830221D01*
X123392394Y-95812090D01*
X123388046Y-95809738D01*
X123332042Y-95779960D01*
X123302343Y-95767719D01*
X123272887Y-95755094D01*
X123268169Y-95753633D01*
X123268163Y-95753631D01*
X123207443Y-95735299D01*
X123175959Y-95729065D01*
X123144589Y-95722397D01*
X123139673Y-95721880D01*
X123076547Y-95715690D01*
X123076541Y-95715690D01*
X123059382Y-95714000D01*
X123046248Y-95714000D01*
X123066000Y-95620000D01*
X123066000Y-95220000D01*
X122966000Y-95220000D01*
X122966000Y-95066000D01*
X123066000Y-95066000D01*
X123066000Y-94666000D01*
X123037451Y-94530136D01*
X122982945Y-94402452D01*
X122904576Y-94287855D01*
X122805356Y-94190749D01*
X122689098Y-94114866D01*
X122547521Y-94063885D01*
X122439000Y-94119738D01*
X122439000Y-94244852D01*
X122396543Y-94240689D01*
X122381084Y-94240689D01*
X122365726Y-94239020D01*
X122360783Y-94239002D01*
X122359038Y-94239008D01*
X122343640Y-94240571D01*
X122328172Y-94240463D01*
X122323252Y-94240945D01*
X122285000Y-94244965D01*
X122285000Y-94119738D01*
X122176479Y-94063885D01*
X122034902Y-94114866D01*
X121918644Y-94190749D01*
X121819424Y-94287855D01*
X121741055Y-94402452D01*
X121686549Y-94530136D01*
X121658000Y-94666000D01*
X115899000Y-94666000D01*
X115899000Y-88716000D01*
X121298000Y-88716000D01*
X121298000Y-89116000D01*
X121398001Y-89116000D01*
X121398000Y-89270000D01*
X121298000Y-89270000D01*
X121298000Y-89670000D01*
X121326549Y-89805864D01*
X121381055Y-89933548D01*
X121459424Y-90048145D01*
X121558644Y-90145251D01*
X121674902Y-90221134D01*
X121816479Y-90272115D01*
X121925000Y-90216262D01*
X121925000Y-90091148D01*
X121967458Y-90095311D01*
X121982916Y-90095311D01*
X121998274Y-90096980D01*
X122003217Y-90096998D01*
X122004962Y-90096992D01*
X122020360Y-90095429D01*
X122035828Y-90095537D01*
X122040748Y-90095055D01*
X122079000Y-90091035D01*
X122079000Y-90216262D01*
X122187521Y-90272115D01*
X122329098Y-90221134D01*
X122445356Y-90145251D01*
X122544576Y-90048145D01*
X122622945Y-89933548D01*
X122677451Y-89805864D01*
X122706000Y-89670000D01*
X122706000Y-89270000D01*
X122606000Y-89270000D01*
X122606000Y-89116000D01*
X122706000Y-89116000D01*
X122706000Y-88716000D01*
X130278000Y-88716000D01*
X130278000Y-89116000D01*
X130378001Y-89116000D01*
X130378000Y-89270000D01*
X130278000Y-89270000D01*
X130278000Y-89670000D01*
X130306549Y-89805864D01*
X130361055Y-89933548D01*
X130439424Y-90048145D01*
X130538644Y-90145251D01*
X130654902Y-90221134D01*
X130796479Y-90272115D01*
X130905000Y-90216262D01*
X130905000Y-90091148D01*
X130947458Y-90095311D01*
X130962916Y-90095311D01*
X130978274Y-90096980D01*
X130983217Y-90096998D01*
X130984962Y-90096992D01*
X131000360Y-90095429D01*
X131015828Y-90095537D01*
X131020748Y-90095055D01*
X131059000Y-90091035D01*
X131059000Y-90216262D01*
X131167521Y-90272115D01*
X131309098Y-90221134D01*
X131425356Y-90145251D01*
X131524576Y-90048145D01*
X131602945Y-89933548D01*
X131657451Y-89805864D01*
X131686000Y-89670000D01*
X131686000Y-89270000D01*
X131586000Y-89270000D01*
X131586000Y-89116000D01*
X131686000Y-89116000D01*
X131686000Y-88716000D01*
X131657451Y-88580136D01*
X131602945Y-88452452D01*
X131524576Y-88337855D01*
X131425356Y-88240749D01*
X131309098Y-88164866D01*
X131167521Y-88113885D01*
X131059000Y-88169738D01*
X131059000Y-88294852D01*
X131016543Y-88290689D01*
X131001084Y-88290689D01*
X130985726Y-88289020D01*
X130980783Y-88289002D01*
X130979038Y-88289008D01*
X130963640Y-88290571D01*
X130948172Y-88290463D01*
X130943252Y-88290945D01*
X130905000Y-88294965D01*
X130905000Y-88169738D01*
X130796479Y-88113885D01*
X130654902Y-88164866D01*
X130538644Y-88240749D01*
X130439424Y-88337855D01*
X130361055Y-88452452D01*
X130306549Y-88580136D01*
X130278000Y-88716000D01*
X122706000Y-88716000D01*
X122677451Y-88580136D01*
X122622945Y-88452452D01*
X122544576Y-88337855D01*
X122445356Y-88240749D01*
X122329098Y-88164866D01*
X122187521Y-88113885D01*
X122079000Y-88169738D01*
X122079000Y-88294852D01*
X122036543Y-88290689D01*
X122021084Y-88290689D01*
X122005726Y-88289020D01*
X122000783Y-88289002D01*
X121999038Y-88289008D01*
X121983640Y-88290571D01*
X121968172Y-88290463D01*
X121963252Y-88290945D01*
X121925000Y-88294965D01*
X121925000Y-88169738D01*
X121816479Y-88113885D01*
X121674902Y-88164866D01*
X121558644Y-88240749D01*
X121459424Y-88337855D01*
X121381055Y-88452452D01*
X121326549Y-88580136D01*
X121298000Y-88716000D01*
X115899000Y-88716000D01*
X115899000Y-87959000D01*
X167311001Y-87959000D01*
X167311000Y-88916153D01*
%TA.AperFunction,Conductor*%
G36*
X167311000Y-88916153D02*
G01*
X167311001Y-88916163D01*
X167311000Y-127306000D01*
X115899000Y-127306000D01*
X115899000Y-116966341D01*
X125726000Y-116966341D01*
X125726000Y-117193659D01*
X125770347Y-117416609D01*
X125857338Y-117626624D01*
X125983629Y-117815632D01*
X126144368Y-117976371D01*
X126333376Y-118102662D01*
X126543391Y-118189653D01*
X126766341Y-118234000D01*
X126993659Y-118234000D01*
X127216609Y-118189653D01*
X127426624Y-118102662D01*
X127615632Y-117976371D01*
X127776371Y-117815632D01*
X127902662Y-117626624D01*
X127989653Y-117416609D01*
X128034000Y-117193659D01*
X128034000Y-116966341D01*
X128011471Y-116853076D01*
X129656000Y-116853076D01*
X129656000Y-117306924D01*
X129744541Y-117752052D01*
X129918222Y-118171353D01*
X130170366Y-118548714D01*
X130491286Y-118869634D01*
X130868647Y-119121778D01*
X131287948Y-119295459D01*
X131733076Y-119384000D01*
X132186924Y-119384000D01*
X132632052Y-119295459D01*
X133051353Y-119121778D01*
X133428714Y-118869634D01*
X133749634Y-118548714D01*
X134001778Y-118171353D01*
X134175459Y-117752052D01*
X134264000Y-117306924D01*
X134264000Y-116966341D01*
X135886000Y-116966341D01*
X135886000Y-117193659D01*
X135930347Y-117416609D01*
X136017338Y-117626624D01*
X136143629Y-117815632D01*
X136304368Y-117976371D01*
X136493376Y-118102662D01*
X136703391Y-118189653D01*
X136926341Y-118234000D01*
X137153659Y-118234000D01*
X137376609Y-118189653D01*
X137586624Y-118102662D01*
X137775632Y-117976371D01*
X137936371Y-117815632D01*
X138062662Y-117626624D01*
X138149653Y-117416609D01*
X138194000Y-117193659D01*
X138194000Y-116966341D01*
X144726000Y-116966341D01*
X144726000Y-117193659D01*
X144770347Y-117416609D01*
X144857338Y-117626624D01*
X144983629Y-117815632D01*
X145144368Y-117976371D01*
X145333376Y-118102662D01*
X145543391Y-118189653D01*
X145766341Y-118234000D01*
X145993659Y-118234000D01*
X146216609Y-118189653D01*
X146426624Y-118102662D01*
X146615632Y-117976371D01*
X146776371Y-117815632D01*
X146902662Y-117626624D01*
X146989653Y-117416609D01*
X147034000Y-117193659D01*
X147034000Y-116966341D01*
X147011471Y-116853076D01*
X148656000Y-116853076D01*
X148656000Y-117306924D01*
X148744541Y-117752052D01*
X148918222Y-118171353D01*
X149170366Y-118548714D01*
X149491286Y-118869634D01*
X149868647Y-119121778D01*
X150287948Y-119295459D01*
X150733076Y-119384000D01*
X151186924Y-119384000D01*
X151632052Y-119295459D01*
X152051353Y-119121778D01*
X152428714Y-118869634D01*
X152749634Y-118548714D01*
X153001778Y-118171353D01*
X153175459Y-117752052D01*
X153264000Y-117306924D01*
X153264000Y-116966341D01*
X154886000Y-116966341D01*
X154886000Y-117193659D01*
X154930347Y-117416609D01*
X155017338Y-117626624D01*
X155143629Y-117815632D01*
X155304368Y-117976371D01*
X155493376Y-118102662D01*
X155703391Y-118189653D01*
X155926341Y-118234000D01*
X156153659Y-118234000D01*
X156376609Y-118189653D01*
X156586624Y-118102662D01*
X156775632Y-117976371D01*
X156936371Y-117815632D01*
X157062662Y-117626624D01*
X157149653Y-117416609D01*
X157194000Y-117193659D01*
X157194000Y-116966341D01*
X157149653Y-116743391D01*
X157062662Y-116533376D01*
X156936371Y-116344368D01*
X156775632Y-116183629D01*
X156586624Y-116057338D01*
X156376609Y-115970347D01*
X156153659Y-115926000D01*
X155926341Y-115926000D01*
X155703391Y-115970347D01*
X155493376Y-116057338D01*
X155304368Y-116183629D01*
X155143629Y-116344368D01*
X155017338Y-116533376D01*
X154930347Y-116743391D01*
X154886000Y-116966341D01*
X153264000Y-116966341D01*
X153264000Y-116853076D01*
X153175459Y-116407948D01*
X153001778Y-115988647D01*
X152749634Y-115611286D01*
X152428714Y-115290366D01*
X152051353Y-115038222D01*
X151632052Y-114864541D01*
X151186924Y-114776000D01*
X150733076Y-114776000D01*
X150287948Y-114864541D01*
X149868647Y-115038222D01*
X149491286Y-115290366D01*
X149170366Y-115611286D01*
X148918222Y-115988647D01*
X148744541Y-116407948D01*
X148656000Y-116853076D01*
X147011471Y-116853076D01*
X146989653Y-116743391D01*
X146902662Y-116533376D01*
X146776371Y-116344368D01*
X146615632Y-116183629D01*
X146426624Y-116057338D01*
X146216609Y-115970347D01*
X145993659Y-115926000D01*
X145766341Y-115926000D01*
X145543391Y-115970347D01*
X145333376Y-116057338D01*
X145144368Y-116183629D01*
X144983629Y-116344368D01*
X144857338Y-116533376D01*
X144770347Y-116743391D01*
X144726000Y-116966341D01*
X138194000Y-116966341D01*
X138149653Y-116743391D01*
X138062662Y-116533376D01*
X137936371Y-116344368D01*
X137775632Y-116183629D01*
X137586624Y-116057338D01*
X137376609Y-115970347D01*
X137153659Y-115926000D01*
X136926341Y-115926000D01*
X136703391Y-115970347D01*
X136493376Y-116057338D01*
X136304368Y-116183629D01*
X136143629Y-116344368D01*
X136017338Y-116533376D01*
X135930347Y-116743391D01*
X135886000Y-116966341D01*
X134264000Y-116966341D01*
X134264000Y-116853076D01*
X134175459Y-116407948D01*
X134001778Y-115988647D01*
X133749634Y-115611286D01*
X133428714Y-115290366D01*
X133051353Y-115038222D01*
X132632052Y-114864541D01*
X132186924Y-114776000D01*
X131733076Y-114776000D01*
X131287948Y-114864541D01*
X130868647Y-115038222D01*
X130491286Y-115290366D01*
X130170366Y-115611286D01*
X129918222Y-115988647D01*
X129744541Y-116407948D01*
X129656000Y-116853076D01*
X128011471Y-116853076D01*
X127989653Y-116743391D01*
X127902662Y-116533376D01*
X127776371Y-116344368D01*
X127615632Y-116183629D01*
X127426624Y-116057338D01*
X127216609Y-115970347D01*
X126993659Y-115926000D01*
X126766341Y-115926000D01*
X126543391Y-115970347D01*
X126333376Y-116057338D01*
X126144368Y-116183629D01*
X125983629Y-116344368D01*
X125857338Y-116533376D01*
X125770347Y-116743391D01*
X125726000Y-116966341D01*
X115899000Y-116966341D01*
X115899000Y-114401718D01*
X126746000Y-114401718D01*
X126746000Y-114678282D01*
X126799955Y-114949532D01*
X126905792Y-115205043D01*
X127059442Y-115434998D01*
X127255002Y-115630558D01*
X127484957Y-115784208D01*
X127740468Y-115890045D01*
X128011718Y-115944000D01*
X128288282Y-115944000D01*
X128559532Y-115890045D01*
X128815043Y-115784208D01*
X129044998Y-115630558D01*
X129240558Y-115434998D01*
X129394208Y-115205043D01*
X129500045Y-114949532D01*
X129554000Y-114678282D01*
X129554000Y-114401718D01*
X129500045Y-114130468D01*
X129394208Y-113874957D01*
X129240558Y-113645002D01*
X129044998Y-113449442D01*
X128815043Y-113295792D01*
X128579000Y-113198019D01*
X128579000Y-112996717D01*
X133612178Y-112996717D01*
X133734288Y-113184914D01*
X133980166Y-113311529D01*
X134246021Y-113387742D01*
X134521637Y-113410626D01*
X134796421Y-113379301D01*
X135059813Y-113294969D01*
X135265712Y-113184914D01*
X135387822Y-112996717D01*
X134500000Y-112108894D01*
X133612178Y-112996717D01*
X128579000Y-112996717D01*
X128579000Y-112021637D01*
X133089374Y-112021637D01*
X133120699Y-112296421D01*
X133205031Y-112559813D01*
X133315086Y-112765712D01*
X133503283Y-112887822D01*
X134391106Y-112000000D01*
X134608894Y-112000000D01*
X135496717Y-112887822D01*
X135684914Y-112765712D01*
X135811529Y-112519834D01*
X135887742Y-112253979D01*
X135910626Y-111978363D01*
X135879301Y-111703579D01*
X135794969Y-111440187D01*
X135684914Y-111234288D01*
X135496717Y-111112178D01*
X134608894Y-112000000D01*
X134391106Y-112000000D01*
X133503283Y-111112178D01*
X133315086Y-111234288D01*
X133188471Y-111480166D01*
X133112258Y-111746021D01*
X133089374Y-112021637D01*
X128579000Y-112021637D01*
X128579000Y-111003283D01*
X133612178Y-111003283D01*
X134500000Y-111891106D01*
X135387822Y-111003283D01*
X135265712Y-110815086D01*
X135019834Y-110688471D01*
X134753979Y-110612258D01*
X134478363Y-110589374D01*
X134203579Y-110620699D01*
X133940187Y-110705031D01*
X133734288Y-110815086D01*
X133612178Y-111003283D01*
X128579000Y-111003283D01*
X128579000Y-109771697D01*
X129209697Y-109141000D01*
X137646942Y-109141000D01*
X137668000Y-109143074D01*
X137689058Y-109141000D01*
X137689068Y-109141000D01*
X137752099Y-109134792D01*
X137832965Y-109110261D01*
X137907492Y-109070426D01*
X137972816Y-109016816D01*
X137986248Y-109000449D01*
X144560338Y-102426360D01*
X144583662Y-102431000D01*
X144722338Y-102431000D01*
X144858349Y-102403945D01*
X144986469Y-102350876D01*
X145101774Y-102273832D01*
X145199832Y-102175774D01*
X145276876Y-102060469D01*
X145288000Y-102033613D01*
X145299124Y-102060469D01*
X145376168Y-102175774D01*
X145474226Y-102273832D01*
X145494000Y-102287045D01*
X145494001Y-113291932D01*
X145491926Y-113313000D01*
X145500209Y-113397099D01*
X145524740Y-113477965D01*
X145564574Y-113552492D01*
X145604754Y-113601451D01*
X145604757Y-113601454D01*
X145618185Y-113617816D01*
X145634547Y-113631244D01*
X145897728Y-113894425D01*
X145799955Y-114130468D01*
X145746000Y-114401718D01*
X145746000Y-114678282D01*
X145799955Y-114949532D01*
X145905792Y-115205043D01*
X146059442Y-115434998D01*
X146255002Y-115630558D01*
X146484957Y-115784208D01*
X146740468Y-115890045D01*
X147011718Y-115944000D01*
X147288282Y-115944000D01*
X147559532Y-115890045D01*
X147815043Y-115784208D01*
X148044998Y-115630558D01*
X148240558Y-115434998D01*
X148394208Y-115205043D01*
X148500045Y-114949532D01*
X148554000Y-114678282D01*
X148554000Y-114401718D01*
X148500045Y-114130468D01*
X148394208Y-113874957D01*
X148240558Y-113645002D01*
X148044998Y-113449442D01*
X147815043Y-113295792D01*
X147559532Y-113189955D01*
X147288282Y-113136000D01*
X147011718Y-113136000D01*
X146740468Y-113189955D01*
X146504425Y-113287728D01*
X146352000Y-113135303D01*
X146352000Y-112996717D01*
X152612178Y-112996717D01*
X152734288Y-113184914D01*
X152980166Y-113311529D01*
X153246021Y-113387742D01*
X153521637Y-113410626D01*
X153796421Y-113379301D01*
X154059813Y-113294969D01*
X154265712Y-113184914D01*
X154387822Y-112996717D01*
X153500000Y-112108894D01*
X152612178Y-112996717D01*
X146352000Y-112996717D01*
X146352000Y-112021637D01*
X152089374Y-112021637D01*
X152120699Y-112296421D01*
X152205031Y-112559813D01*
X152315086Y-112765712D01*
X152503283Y-112887822D01*
X153391106Y-112000000D01*
X153608894Y-112000000D01*
X154496717Y-112887822D01*
X154684914Y-112765712D01*
X154811529Y-112519834D01*
X154887742Y-112253979D01*
X154910626Y-111978363D01*
X154879301Y-111703579D01*
X154794969Y-111440187D01*
X154684914Y-111234288D01*
X154496717Y-111112178D01*
X153608894Y-112000000D01*
X153391106Y-112000000D01*
X152503283Y-111112178D01*
X152315086Y-111234288D01*
X152188471Y-111480166D01*
X152112258Y-111746021D01*
X152089374Y-112021637D01*
X146352000Y-112021637D01*
X146352000Y-111003283D01*
X152612178Y-111003283D01*
X153500000Y-111891106D01*
X154387822Y-111003283D01*
X154265712Y-110815086D01*
X154019834Y-110688471D01*
X153753979Y-110612258D01*
X153478363Y-110589374D01*
X153203579Y-110620699D01*
X152940187Y-110705031D01*
X152734288Y-110815086D01*
X152612178Y-111003283D01*
X146352000Y-111003283D01*
X146352000Y-102287045D01*
X146371774Y-102273832D01*
X146469832Y-102175774D01*
X146546876Y-102060469D01*
X146599945Y-101932349D01*
X146627000Y-101796338D01*
X146627000Y-101657662D01*
X146599945Y-101521651D01*
X146546876Y-101393531D01*
X146469832Y-101278226D01*
X146371774Y-101180168D01*
X146256469Y-101103124D01*
X146128349Y-101050055D01*
X145992338Y-101023000D01*
X145853662Y-101023000D01*
X145717651Y-101050055D01*
X145589531Y-101103124D01*
X145474226Y-101180168D01*
X145376168Y-101278226D01*
X145299124Y-101393531D01*
X145288000Y-101420387D01*
X145276876Y-101393531D01*
X145199832Y-101278226D01*
X145101774Y-101180168D01*
X144986469Y-101103124D01*
X144858349Y-101050055D01*
X144722338Y-101023000D01*
X144583662Y-101023000D01*
X144447651Y-101050055D01*
X144319531Y-101103124D01*
X144204226Y-101180168D01*
X144106168Y-101278226D01*
X144029124Y-101393531D01*
X143976055Y-101521651D01*
X143949000Y-101657662D01*
X143949000Y-101796338D01*
X143953640Y-101819662D01*
X137490303Y-108283000D01*
X129053057Y-108283000D01*
X129031999Y-108280926D01*
X129010941Y-108283000D01*
X129010932Y-108283000D01*
X128947901Y-108289208D01*
X128867035Y-108313739D01*
X128792508Y-108353574D01*
X128727184Y-108407184D01*
X128713754Y-108423549D01*
X127861551Y-109275752D01*
X127845184Y-109289184D01*
X127831754Y-109305549D01*
X127791574Y-109354508D01*
X127770283Y-109394343D01*
X127751739Y-109429036D01*
X127727208Y-109509902D01*
X127721000Y-109572933D01*
X127721000Y-109572942D01*
X127718926Y-109594000D01*
X127721000Y-109615058D01*
X127721001Y-113198019D01*
X127484957Y-113295792D01*
X127255002Y-113449442D01*
X127059442Y-113645002D01*
X126905792Y-113874957D01*
X126799955Y-114130468D01*
X126746000Y-114401718D01*
X115899000Y-114401718D01*
X115899000Y-99371662D01*
X124010000Y-99371662D01*
X124010000Y-99510338D01*
X124037055Y-99646349D01*
X124090124Y-99774469D01*
X124167168Y-99889774D01*
X124265226Y-99987832D01*
X124380531Y-100064876D01*
X124508651Y-100117945D01*
X124644662Y-100145000D01*
X124783338Y-100145000D01*
X124919349Y-100117945D01*
X125047469Y-100064876D01*
X125162774Y-99987832D01*
X125260832Y-99889774D01*
X125337876Y-99774469D01*
X125390945Y-99646349D01*
X125418000Y-99510338D01*
X125418000Y-99371662D01*
X125390945Y-99235651D01*
X125337876Y-99107531D01*
X125260832Y-98992226D01*
X125162774Y-98894168D01*
X125143000Y-98880955D01*
X125143000Y-95046697D01*
X125764454Y-94425244D01*
X125780816Y-94411816D01*
X125794462Y-94395189D01*
X125830951Y-94350726D01*
X125868124Y-94440469D01*
X125945168Y-94555774D01*
X126043226Y-94653832D01*
X126063000Y-94667045D01*
X126063001Y-95990932D01*
X126060926Y-96012000D01*
X126069209Y-96096099D01*
X126093740Y-96176965D01*
X126133574Y-96251492D01*
X126173754Y-96300451D01*
X126173757Y-96300454D01*
X126187185Y-96316816D01*
X126203547Y-96330244D01*
X126317000Y-96443697D01*
X126317001Y-97610955D01*
X126297226Y-97624168D01*
X126199168Y-97722226D01*
X126122124Y-97837531D01*
X126069055Y-97965651D01*
X126042000Y-98101662D01*
X126042000Y-98240338D01*
X126069055Y-98376349D01*
X126122124Y-98504469D01*
X126199168Y-98619774D01*
X126297226Y-98717832D01*
X126412531Y-98794876D01*
X126439387Y-98806000D01*
X126412531Y-98817124D01*
X126297226Y-98894168D01*
X126199168Y-98992226D01*
X126122124Y-99107531D01*
X126069055Y-99235651D01*
X126042000Y-99371662D01*
X126042000Y-99510338D01*
X126069055Y-99646349D01*
X126122124Y-99774469D01*
X126199168Y-99889774D01*
X126297226Y-99987832D01*
X126412531Y-100064876D01*
X126540651Y-100117945D01*
X126676662Y-100145000D01*
X126815338Y-100145000D01*
X126951349Y-100117945D01*
X127079469Y-100064876D01*
X127194774Y-99987832D01*
X127292832Y-99889774D01*
X127306045Y-99870000D01*
X127963955Y-99870000D01*
X127977168Y-99889774D01*
X128075226Y-99987832D01*
X128190531Y-100064876D01*
X128318651Y-100117945D01*
X128454662Y-100145000D01*
X128593338Y-100145000D01*
X128729349Y-100117945D01*
X128857469Y-100064876D01*
X128972774Y-99987832D01*
X129070832Y-99889774D01*
X129147876Y-99774469D01*
X129200945Y-99646349D01*
X129228000Y-99510338D01*
X129228000Y-99371662D01*
X129200945Y-99235651D01*
X129147876Y-99107531D01*
X129070832Y-98992226D01*
X128972774Y-98894168D01*
X128857469Y-98817124D01*
X128729349Y-98764055D01*
X128593338Y-98737000D01*
X128454662Y-98737000D01*
X128318651Y-98764055D01*
X128190531Y-98817124D01*
X128075226Y-98894168D01*
X127977168Y-98992226D01*
X127963955Y-99012000D01*
X127306045Y-99012000D01*
X127292832Y-98992226D01*
X127194774Y-98894168D01*
X127079469Y-98817124D01*
X127052613Y-98806000D01*
X127079469Y-98794876D01*
X127194774Y-98717832D01*
X127292832Y-98619774D01*
X127306045Y-98600000D01*
X130378303Y-98600000D01*
X131253756Y-99475454D01*
X131267184Y-99491816D01*
X131283546Y-99505244D01*
X131283548Y-99505246D01*
X131332507Y-99545426D01*
X131372342Y-99566717D01*
X131407035Y-99585261D01*
X131487901Y-99609792D01*
X131550932Y-99616000D01*
X131550942Y-99616000D01*
X131572000Y-99618074D01*
X131593058Y-99616000D01*
X132027955Y-99616000D01*
X132041168Y-99635774D01*
X132139226Y-99733832D01*
X132254531Y-99810876D01*
X132382651Y-99863945D01*
X132518662Y-99891000D01*
X132657338Y-99891000D01*
X132793349Y-99863945D01*
X132921469Y-99810876D01*
X133036774Y-99733832D01*
X133134832Y-99635774D01*
X133211876Y-99520469D01*
X133264945Y-99392349D01*
X133292000Y-99256338D01*
X133292000Y-99117662D01*
X133264945Y-98981651D01*
X133211876Y-98853531D01*
X133134832Y-98738226D01*
X133036774Y-98640168D01*
X132921469Y-98563124D01*
X132793349Y-98510055D01*
X132657338Y-98483000D01*
X132518662Y-98483000D01*
X132382651Y-98510055D01*
X132254531Y-98563124D01*
X132139226Y-98640168D01*
X132041168Y-98738226D01*
X132027955Y-98758000D01*
X131749698Y-98758000D01*
X130874248Y-97882551D01*
X130860816Y-97866184D01*
X130795492Y-97812574D01*
X130720965Y-97772739D01*
X130640099Y-97748208D01*
X130577068Y-97742000D01*
X130577058Y-97742000D01*
X130556000Y-97739926D01*
X130534942Y-97742000D01*
X127306045Y-97742000D01*
X127292832Y-97722226D01*
X127194774Y-97624168D01*
X127175000Y-97610955D01*
X127175000Y-96331049D01*
X129463000Y-96331049D01*
X129463000Y-96454951D01*
X129487173Y-96576472D01*
X129534588Y-96690943D01*
X129603424Y-96793964D01*
X129691036Y-96881576D01*
X129794057Y-96950412D01*
X129908528Y-96997827D01*
X130030049Y-97022000D01*
X130153951Y-97022000D01*
X130275472Y-96997827D01*
X130389943Y-96950412D01*
X130492964Y-96881576D01*
X130580576Y-96793964D01*
X130649412Y-96690943D01*
X130696827Y-96576472D01*
X130721000Y-96454951D01*
X130721000Y-96331049D01*
X130699002Y-96220462D01*
X130699002Y-96166263D01*
X130807521Y-96222115D01*
X130949098Y-96171134D01*
X131065356Y-96095251D01*
X131164576Y-95998145D01*
X131242945Y-95883548D01*
X131297451Y-95755864D01*
X131326000Y-95620000D01*
X131326000Y-95220000D01*
X131226000Y-95220000D01*
X131226000Y-95066000D01*
X131326000Y-95066000D01*
X131326000Y-94666000D01*
X131297451Y-94530136D01*
X131242945Y-94402452D01*
X131164576Y-94287855D01*
X131065356Y-94190749D01*
X130949098Y-94114866D01*
X130807521Y-94063885D01*
X130699000Y-94119738D01*
X130699000Y-94244852D01*
X130656543Y-94240689D01*
X130641084Y-94240689D01*
X130625726Y-94239020D01*
X130620783Y-94239002D01*
X130619038Y-94239008D01*
X130603640Y-94240571D01*
X130588172Y-94240463D01*
X130583252Y-94240945D01*
X130545000Y-94244965D01*
X130545000Y-94119738D01*
X130436479Y-94063885D01*
X130294902Y-94114866D01*
X130178644Y-94190749D01*
X130079424Y-94287855D01*
X130001055Y-94402452D01*
X129946549Y-94530136D01*
X129918000Y-94666000D01*
X129918000Y-95066000D01*
X130018001Y-95066000D01*
X130018000Y-95220000D01*
X129918000Y-95220000D01*
X129918000Y-95620000D01*
X129946549Y-95755864D01*
X129956286Y-95778673D01*
X129908528Y-95788173D01*
X129794057Y-95835588D01*
X129691036Y-95904424D01*
X129603424Y-95992036D01*
X129534588Y-96095057D01*
X129487173Y-96209528D01*
X129463000Y-96331049D01*
X127175000Y-96331049D01*
X127175000Y-96287057D01*
X127177074Y-96265999D01*
X127175000Y-96244941D01*
X127175000Y-96244932D01*
X127168792Y-96181901D01*
X127144261Y-96101035D01*
X127104426Y-96026508D01*
X127050816Y-95961184D01*
X127034445Y-95947749D01*
X126921000Y-95834303D01*
X126921000Y-94667045D01*
X126940774Y-94653832D01*
X127038832Y-94555774D01*
X127115876Y-94440469D01*
X127168945Y-94312349D01*
X127196000Y-94176338D01*
X127196000Y-94037662D01*
X127168945Y-93901651D01*
X127115876Y-93773531D01*
X127038832Y-93658226D01*
X126940774Y-93560168D01*
X126825469Y-93483124D01*
X126697349Y-93430055D01*
X126561338Y-93403000D01*
X126422662Y-93403000D01*
X126286651Y-93430055D01*
X126169813Y-93478451D01*
X126152945Y-93393651D01*
X126099876Y-93265531D01*
X126022832Y-93150226D01*
X125924774Y-93052168D01*
X125809469Y-92975124D01*
X125681349Y-92922055D01*
X125545338Y-92895000D01*
X125406662Y-92895000D01*
X125270651Y-92922055D01*
X125142531Y-92975124D01*
X125027226Y-93052168D01*
X124929168Y-93150226D01*
X124852124Y-93265531D01*
X124799055Y-93393651D01*
X124772000Y-93529662D01*
X124772000Y-93668338D01*
X124799055Y-93804349D01*
X124852124Y-93932469D01*
X124928912Y-94047391D01*
X124425551Y-94550752D01*
X124409184Y-94564184D01*
X124394943Y-94581537D01*
X124355574Y-94629508D01*
X124342573Y-94653832D01*
X124315739Y-94704036D01*
X124291208Y-94784902D01*
X124285000Y-94847933D01*
X124285000Y-94847942D01*
X124282926Y-94869000D01*
X124285000Y-94890058D01*
X124285001Y-98880955D01*
X124265226Y-98894168D01*
X124167168Y-98992226D01*
X124090124Y-99107531D01*
X124037055Y-99235651D01*
X124010000Y-99371662D01*
X115899000Y-99371662D01*
X115899000Y-94666000D01*
X121658000Y-94666000D01*
X121658000Y-95066000D01*
X121758001Y-95066000D01*
X121758000Y-95220000D01*
X121658000Y-95220000D01*
X121658000Y-95620000D01*
X121686549Y-95755864D01*
X121741055Y-95883548D01*
X121819424Y-95998145D01*
X121918644Y-96095251D01*
X122034902Y-96171134D01*
X122094773Y-96192693D01*
X122083159Y-96232155D01*
X122077146Y-96263681D01*
X122070697Y-96295096D01*
X122070214Y-96300016D01*
X122064465Y-96363184D01*
X122064689Y-96395301D01*
X122064465Y-96427352D01*
X122064947Y-96432272D01*
X122071577Y-96495352D01*
X122078036Y-96526816D01*
X122084040Y-96558295D01*
X122085468Y-96563027D01*
X122104224Y-96623620D01*
X122116664Y-96653213D01*
X122128680Y-96682953D01*
X122131000Y-96687317D01*
X122161169Y-96743112D01*
X122179115Y-96769717D01*
X122196679Y-96796557D01*
X122199803Y-96800388D01*
X122240234Y-96849260D01*
X122263024Y-96871892D01*
X122285447Y-96894789D01*
X122289250Y-96897935D01*
X122289257Y-96897942D01*
X122289265Y-96897947D01*
X122338410Y-96938029D01*
X122365116Y-96955772D01*
X122391606Y-96973911D01*
X122395954Y-96976262D01*
X122451959Y-97006040D01*
X122481632Y-97018271D01*
X122511113Y-97030906D01*
X122515835Y-97032368D01*
X122576557Y-97050701D01*
X122608041Y-97056935D01*
X122639411Y-97063603D01*
X122644327Y-97064120D01*
X122707453Y-97070310D01*
X122707459Y-97070310D01*
X122724618Y-97072000D01*
X123059382Y-97072000D01*
X123076866Y-97070278D01*
X123081080Y-97070278D01*
X123085996Y-97069762D01*
X123149029Y-97062692D01*
X123180431Y-97056017D01*
X123211888Y-97049789D01*
X123216610Y-97048328D01*
X123277070Y-97029149D01*
X123306625Y-97016482D01*
X123336223Y-97004282D01*
X123340572Y-97001932D01*
X123396155Y-96971374D01*
X123422640Y-96953240D01*
X123449349Y-96935495D01*
X123453158Y-96932344D01*
X123453161Y-96932342D01*
X123453164Y-96932339D01*
X123501748Y-96891573D01*
X123524227Y-96868619D01*
X123546968Y-96846035D01*
X123550093Y-96842205D01*
X123589837Y-96792772D01*
X123607413Y-96765912D01*
X123625342Y-96739332D01*
X123627663Y-96734967D01*
X123657050Y-96678757D01*
X123669077Y-96648990D01*
X123681504Y-96619425D01*
X123682933Y-96614693D01*
X123700841Y-96553845D01*
X123706854Y-96522319D01*
X123713303Y-96490904D01*
X123713786Y-96485984D01*
X123719535Y-96422816D01*
X123719311Y-96390698D01*
X123719535Y-96358647D01*
X123719053Y-96353728D01*
X123712423Y-96290647D01*
X123705964Y-96259182D01*
X123699960Y-96227705D01*
X123698531Y-96222972D01*
X123698531Y-96222970D01*
X123698529Y-96222964D01*
X123679776Y-96162380D01*
X123667331Y-96132775D01*
X123655320Y-96103047D01*
X123653000Y-96098683D01*
X123622831Y-96042888D01*
X123604885Y-96016283D01*
X123587321Y-95989443D01*
X123584197Y-95985612D01*
X123543766Y-95936740D01*
X123520992Y-95914125D01*
X123498553Y-95891211D01*
X123494744Y-95888060D01*
X123445590Y-95847971D01*
X123418874Y-95830221D01*
X123392394Y-95812090D01*
X123388046Y-95809738D01*
X123332042Y-95779960D01*
X123302343Y-95767719D01*
X123272887Y-95755094D01*
X123268169Y-95753633D01*
X123268163Y-95753631D01*
X123207443Y-95735299D01*
X123175959Y-95729065D01*
X123144589Y-95722397D01*
X123139673Y-95721880D01*
X123076547Y-95715690D01*
X123076541Y-95715690D01*
X123059382Y-95714000D01*
X123046248Y-95714000D01*
X123066000Y-95620000D01*
X123066000Y-95220000D01*
X122966000Y-95220000D01*
X122966000Y-95066000D01*
X123066000Y-95066000D01*
X123066000Y-94666000D01*
X123037451Y-94530136D01*
X122982945Y-94402452D01*
X122904576Y-94287855D01*
X122805356Y-94190749D01*
X122689098Y-94114866D01*
X122547521Y-94063885D01*
X122439000Y-94119738D01*
X122439000Y-94244852D01*
X122396543Y-94240689D01*
X122381084Y-94240689D01*
X122365726Y-94239020D01*
X122360783Y-94239002D01*
X122359038Y-94239008D01*
X122343640Y-94240571D01*
X122328172Y-94240463D01*
X122323252Y-94240945D01*
X122285000Y-94244965D01*
X122285000Y-94119738D01*
X122176479Y-94063885D01*
X122034902Y-94114866D01*
X121918644Y-94190749D01*
X121819424Y-94287855D01*
X121741055Y-94402452D01*
X121686549Y-94530136D01*
X121658000Y-94666000D01*
X115899000Y-94666000D01*
X115899000Y-88716000D01*
X121298000Y-88716000D01*
X121298000Y-89116000D01*
X121398001Y-89116000D01*
X121398000Y-89270000D01*
X121298000Y-89270000D01*
X121298000Y-89670000D01*
X121326549Y-89805864D01*
X121381055Y-89933548D01*
X121459424Y-90048145D01*
X121558644Y-90145251D01*
X121674902Y-90221134D01*
X121816479Y-90272115D01*
X121925000Y-90216262D01*
X121925000Y-90091148D01*
X121967458Y-90095311D01*
X121982916Y-90095311D01*
X121998274Y-90096980D01*
X122003217Y-90096998D01*
X122004962Y-90096992D01*
X122020360Y-90095429D01*
X122035828Y-90095537D01*
X122040748Y-90095055D01*
X122079000Y-90091035D01*
X122079000Y-90216262D01*
X122187521Y-90272115D01*
X122329098Y-90221134D01*
X122445356Y-90145251D01*
X122544576Y-90048145D01*
X122622945Y-89933548D01*
X122677451Y-89805864D01*
X122706000Y-89670000D01*
X122706000Y-89270000D01*
X122606000Y-89270000D01*
X122606000Y-89116000D01*
X122706000Y-89116000D01*
X122706000Y-88716000D01*
X130278000Y-88716000D01*
X130278000Y-89116000D01*
X130378001Y-89116000D01*
X130378000Y-89270000D01*
X130278000Y-89270000D01*
X130278000Y-89670000D01*
X130306549Y-89805864D01*
X130361055Y-89933548D01*
X130439424Y-90048145D01*
X130538644Y-90145251D01*
X130654902Y-90221134D01*
X130796479Y-90272115D01*
X130905000Y-90216262D01*
X130905000Y-90091148D01*
X130947458Y-90095311D01*
X130962916Y-90095311D01*
X130978274Y-90096980D01*
X130983217Y-90096998D01*
X130984962Y-90096992D01*
X131000360Y-90095429D01*
X131015828Y-90095537D01*
X131020748Y-90095055D01*
X131059000Y-90091035D01*
X131059000Y-90216262D01*
X131167521Y-90272115D01*
X131309098Y-90221134D01*
X131425356Y-90145251D01*
X131524576Y-90048145D01*
X131602945Y-89933548D01*
X131657451Y-89805864D01*
X131686000Y-89670000D01*
X131686000Y-89270000D01*
X131586000Y-89270000D01*
X131586000Y-89116000D01*
X131686000Y-89116000D01*
X131686000Y-88716000D01*
X131657451Y-88580136D01*
X131602945Y-88452452D01*
X131524576Y-88337855D01*
X131425356Y-88240749D01*
X131309098Y-88164866D01*
X131167521Y-88113885D01*
X131059000Y-88169738D01*
X131059000Y-88294852D01*
X131016543Y-88290689D01*
X131001084Y-88290689D01*
X130985726Y-88289020D01*
X130980783Y-88289002D01*
X130979038Y-88289008D01*
X130963640Y-88290571D01*
X130948172Y-88290463D01*
X130943252Y-88290945D01*
X130905000Y-88294965D01*
X130905000Y-88169738D01*
X130796479Y-88113885D01*
X130654902Y-88164866D01*
X130538644Y-88240749D01*
X130439424Y-88337855D01*
X130361055Y-88452452D01*
X130306549Y-88580136D01*
X130278000Y-88716000D01*
X122706000Y-88716000D01*
X122677451Y-88580136D01*
X122622945Y-88452452D01*
X122544576Y-88337855D01*
X122445356Y-88240749D01*
X122329098Y-88164866D01*
X122187521Y-88113885D01*
X122079000Y-88169738D01*
X122079000Y-88294852D01*
X122036543Y-88290689D01*
X122021084Y-88290689D01*
X122005726Y-88289020D01*
X122000783Y-88289002D01*
X121999038Y-88289008D01*
X121983640Y-88290571D01*
X121968172Y-88290463D01*
X121963252Y-88290945D01*
X121925000Y-88294965D01*
X121925000Y-88169738D01*
X121816479Y-88113885D01*
X121674902Y-88164866D01*
X121558644Y-88240749D01*
X121459424Y-88337855D01*
X121381055Y-88452452D01*
X121326549Y-88580136D01*
X121298000Y-88716000D01*
X115899000Y-88716000D01*
X115899000Y-87959000D01*
X167311001Y-87959000D01*
X167311000Y-88916153D01*
G37*
%TD.AperFunction*%
%TD*%
M02*
