G04 #@! TF.GenerationSoftware,KiCad,Pcbnew,(5.1.10)-1*
G04 #@! TF.CreationDate,2021-07-28T20:54:02-07:00*
G04 #@! TF.ProjectId,twokey,74776f6b-6579-42e6-9b69-6361645f7063,rev?*
G04 #@! TF.SameCoordinates,Original*
G04 #@! TF.FileFunction,Soldermask,Top*
G04 #@! TF.FilePolarity,Negative*
%FSLAX46Y46*%
G04 Gerber Fmt 4.6, Leading zero omitted, Abs format (unit mm)*
G04 Created by KiCad (PCBNEW (5.1.10)-1) date 2021-07-28 20:54:02*
%MOMM*%
%LPD*%
G01*
G04 APERTURE LIST*
%ADD10O,0.800000X1.600000*%
%ADD11C,0.650000*%
%ADD12R,0.300000X0.700000*%
%ADD13R,3.600000X3.600000*%
%ADD14C,3.200000*%
%ADD15R,0.800000X0.900000*%
%ADD16C,0.787000*%
%ADD17C,0.991000*%
%ADD18C,2.200000*%
%ADD19C,4.000000*%
%ADD20C,1.700000*%
G04 APERTURE END LIST*
D10*
X4490000Y18450000D03*
X-4490000Y18450000D03*
X-4130000Y12500000D03*
X4130000Y12500000D03*
D11*
X3600000Y11250000D03*
D12*
X3000000Y12290000D03*
X2500000Y12290000D03*
X2000000Y12290000D03*
X1500000Y12290000D03*
X1000000Y12290000D03*
X500000Y12290000D03*
X0Y12290000D03*
X-500000Y12290000D03*
X-1000000Y12290000D03*
X-1500000Y12290000D03*
X-2000000Y12290000D03*
X-2500000Y12290000D03*
X-2750000Y10590000D03*
X-2250000Y10590000D03*
X-1750000Y10590000D03*
X-1250000Y10590000D03*
X-750000Y10590000D03*
X-250000Y10590000D03*
X250000Y10590000D03*
X750000Y10590000D03*
X1250000Y10590000D03*
X1750000Y10590000D03*
X2250000Y10590000D03*
X2750000Y10590000D03*
G36*
G01*
X-15143600Y11263300D02*
X-15143600Y11388300D01*
G75*
G02*
X-15081100Y11450800I62500J0D01*
G01*
X-14406100Y11450800D01*
G75*
G02*
X-14343600Y11388300I0J-62500D01*
G01*
X-14343600Y11263300D01*
G75*
G02*
X-14406100Y11200800I-62500J0D01*
G01*
X-15081100Y11200800D01*
G75*
G02*
X-15143600Y11263300I0J62500D01*
G01*
G37*
G36*
G01*
X-15143600Y10763300D02*
X-15143600Y10888300D01*
G75*
G02*
X-15081100Y10950800I62500J0D01*
G01*
X-14406100Y10950800D01*
G75*
G02*
X-14343600Y10888300I0J-62500D01*
G01*
X-14343600Y10763300D01*
G75*
G02*
X-14406100Y10700800I-62500J0D01*
G01*
X-15081100Y10700800D01*
G75*
G02*
X-15143600Y10763300I0J62500D01*
G01*
G37*
G36*
G01*
X-15143600Y10263300D02*
X-15143600Y10388300D01*
G75*
G02*
X-15081100Y10450800I62500J0D01*
G01*
X-14406100Y10450800D01*
G75*
G02*
X-14343600Y10388300I0J-62500D01*
G01*
X-14343600Y10263300D01*
G75*
G02*
X-14406100Y10200800I-62500J0D01*
G01*
X-15081100Y10200800D01*
G75*
G02*
X-15143600Y10263300I0J62500D01*
G01*
G37*
G36*
G01*
X-15143600Y9763300D02*
X-15143600Y9888300D01*
G75*
G02*
X-15081100Y9950800I62500J0D01*
G01*
X-14406100Y9950800D01*
G75*
G02*
X-14343600Y9888300I0J-62500D01*
G01*
X-14343600Y9763300D01*
G75*
G02*
X-14406100Y9700800I-62500J0D01*
G01*
X-15081100Y9700800D01*
G75*
G02*
X-15143600Y9763300I0J62500D01*
G01*
G37*
G36*
G01*
X-15143600Y9263300D02*
X-15143600Y9388300D01*
G75*
G02*
X-15081100Y9450800I62500J0D01*
G01*
X-14406100Y9450800D01*
G75*
G02*
X-14343600Y9388300I0J-62500D01*
G01*
X-14343600Y9263300D01*
G75*
G02*
X-14406100Y9200800I-62500J0D01*
G01*
X-15081100Y9200800D01*
G75*
G02*
X-15143600Y9263300I0J62500D01*
G01*
G37*
G36*
G01*
X-15143600Y8763300D02*
X-15143600Y8888300D01*
G75*
G02*
X-15081100Y8950800I62500J0D01*
G01*
X-14406100Y8950800D01*
G75*
G02*
X-14343600Y8888300I0J-62500D01*
G01*
X-14343600Y8763300D01*
G75*
G02*
X-14406100Y8700800I-62500J0D01*
G01*
X-15081100Y8700800D01*
G75*
G02*
X-15143600Y8763300I0J62500D01*
G01*
G37*
G36*
G01*
X-15143600Y8263300D02*
X-15143600Y8388300D01*
G75*
G02*
X-15081100Y8450800I62500J0D01*
G01*
X-14406100Y8450800D01*
G75*
G02*
X-14343600Y8388300I0J-62500D01*
G01*
X-14343600Y8263300D01*
G75*
G02*
X-14406100Y8200800I-62500J0D01*
G01*
X-15081100Y8200800D01*
G75*
G02*
X-15143600Y8263300I0J62500D01*
G01*
G37*
G36*
G01*
X-15143600Y7763300D02*
X-15143600Y7888300D01*
G75*
G02*
X-15081100Y7950800I62500J0D01*
G01*
X-14406100Y7950800D01*
G75*
G02*
X-14343600Y7888300I0J-62500D01*
G01*
X-14343600Y7763300D01*
G75*
G02*
X-14406100Y7700800I-62500J0D01*
G01*
X-15081100Y7700800D01*
G75*
G02*
X-15143600Y7763300I0J62500D01*
G01*
G37*
G36*
G01*
X-14168600Y6788300D02*
X-14168600Y7463300D01*
G75*
G02*
X-14106100Y7525800I62500J0D01*
G01*
X-13981100Y7525800D01*
G75*
G02*
X-13918600Y7463300I0J-62500D01*
G01*
X-13918600Y6788300D01*
G75*
G02*
X-13981100Y6725800I-62500J0D01*
G01*
X-14106100Y6725800D01*
G75*
G02*
X-14168600Y6788300I0J62500D01*
G01*
G37*
G36*
G01*
X-13668600Y6788300D02*
X-13668600Y7463300D01*
G75*
G02*
X-13606100Y7525800I62500J0D01*
G01*
X-13481100Y7525800D01*
G75*
G02*
X-13418600Y7463300I0J-62500D01*
G01*
X-13418600Y6788300D01*
G75*
G02*
X-13481100Y6725800I-62500J0D01*
G01*
X-13606100Y6725800D01*
G75*
G02*
X-13668600Y6788300I0J62500D01*
G01*
G37*
G36*
G01*
X-13168600Y6788300D02*
X-13168600Y7463300D01*
G75*
G02*
X-13106100Y7525800I62500J0D01*
G01*
X-12981100Y7525800D01*
G75*
G02*
X-12918600Y7463300I0J-62500D01*
G01*
X-12918600Y6788300D01*
G75*
G02*
X-12981100Y6725800I-62500J0D01*
G01*
X-13106100Y6725800D01*
G75*
G02*
X-13168600Y6788300I0J62500D01*
G01*
G37*
G36*
G01*
X-12668600Y6788300D02*
X-12668600Y7463300D01*
G75*
G02*
X-12606100Y7525800I62500J0D01*
G01*
X-12481100Y7525800D01*
G75*
G02*
X-12418600Y7463300I0J-62500D01*
G01*
X-12418600Y6788300D01*
G75*
G02*
X-12481100Y6725800I-62500J0D01*
G01*
X-12606100Y6725800D01*
G75*
G02*
X-12668600Y6788300I0J62500D01*
G01*
G37*
G36*
G01*
X-12168600Y6788300D02*
X-12168600Y7463300D01*
G75*
G02*
X-12106100Y7525800I62500J0D01*
G01*
X-11981100Y7525800D01*
G75*
G02*
X-11918600Y7463300I0J-62500D01*
G01*
X-11918600Y6788300D01*
G75*
G02*
X-11981100Y6725800I-62500J0D01*
G01*
X-12106100Y6725800D01*
G75*
G02*
X-12168600Y6788300I0J62500D01*
G01*
G37*
G36*
G01*
X-11668600Y6788300D02*
X-11668600Y7463300D01*
G75*
G02*
X-11606100Y7525800I62500J0D01*
G01*
X-11481100Y7525800D01*
G75*
G02*
X-11418600Y7463300I0J-62500D01*
G01*
X-11418600Y6788300D01*
G75*
G02*
X-11481100Y6725800I-62500J0D01*
G01*
X-11606100Y6725800D01*
G75*
G02*
X-11668600Y6788300I0J62500D01*
G01*
G37*
G36*
G01*
X-11168600Y6788300D02*
X-11168600Y7463300D01*
G75*
G02*
X-11106100Y7525800I62500J0D01*
G01*
X-10981100Y7525800D01*
G75*
G02*
X-10918600Y7463300I0J-62500D01*
G01*
X-10918600Y6788300D01*
G75*
G02*
X-10981100Y6725800I-62500J0D01*
G01*
X-11106100Y6725800D01*
G75*
G02*
X-11168600Y6788300I0J62500D01*
G01*
G37*
G36*
G01*
X-10668600Y6788300D02*
X-10668600Y7463300D01*
G75*
G02*
X-10606100Y7525800I62500J0D01*
G01*
X-10481100Y7525800D01*
G75*
G02*
X-10418600Y7463300I0J-62500D01*
G01*
X-10418600Y6788300D01*
G75*
G02*
X-10481100Y6725800I-62500J0D01*
G01*
X-10606100Y6725800D01*
G75*
G02*
X-10668600Y6788300I0J62500D01*
G01*
G37*
G36*
G01*
X-10243600Y7763300D02*
X-10243600Y7888300D01*
G75*
G02*
X-10181100Y7950800I62500J0D01*
G01*
X-9506100Y7950800D01*
G75*
G02*
X-9443600Y7888300I0J-62500D01*
G01*
X-9443600Y7763300D01*
G75*
G02*
X-9506100Y7700800I-62500J0D01*
G01*
X-10181100Y7700800D01*
G75*
G02*
X-10243600Y7763300I0J62500D01*
G01*
G37*
G36*
G01*
X-10243600Y8263300D02*
X-10243600Y8388300D01*
G75*
G02*
X-10181100Y8450800I62500J0D01*
G01*
X-9506100Y8450800D01*
G75*
G02*
X-9443600Y8388300I0J-62500D01*
G01*
X-9443600Y8263300D01*
G75*
G02*
X-9506100Y8200800I-62500J0D01*
G01*
X-10181100Y8200800D01*
G75*
G02*
X-10243600Y8263300I0J62500D01*
G01*
G37*
G36*
G01*
X-10243600Y8763300D02*
X-10243600Y8888300D01*
G75*
G02*
X-10181100Y8950800I62500J0D01*
G01*
X-9506100Y8950800D01*
G75*
G02*
X-9443600Y8888300I0J-62500D01*
G01*
X-9443600Y8763300D01*
G75*
G02*
X-9506100Y8700800I-62500J0D01*
G01*
X-10181100Y8700800D01*
G75*
G02*
X-10243600Y8763300I0J62500D01*
G01*
G37*
G36*
G01*
X-10243600Y9263300D02*
X-10243600Y9388300D01*
G75*
G02*
X-10181100Y9450800I62500J0D01*
G01*
X-9506100Y9450800D01*
G75*
G02*
X-9443600Y9388300I0J-62500D01*
G01*
X-9443600Y9263300D01*
G75*
G02*
X-9506100Y9200800I-62500J0D01*
G01*
X-10181100Y9200800D01*
G75*
G02*
X-10243600Y9263300I0J62500D01*
G01*
G37*
G36*
G01*
X-10243600Y9763300D02*
X-10243600Y9888300D01*
G75*
G02*
X-10181100Y9950800I62500J0D01*
G01*
X-9506100Y9950800D01*
G75*
G02*
X-9443600Y9888300I0J-62500D01*
G01*
X-9443600Y9763300D01*
G75*
G02*
X-9506100Y9700800I-62500J0D01*
G01*
X-10181100Y9700800D01*
G75*
G02*
X-10243600Y9763300I0J62500D01*
G01*
G37*
G36*
G01*
X-10243600Y10263300D02*
X-10243600Y10388300D01*
G75*
G02*
X-10181100Y10450800I62500J0D01*
G01*
X-9506100Y10450800D01*
G75*
G02*
X-9443600Y10388300I0J-62500D01*
G01*
X-9443600Y10263300D01*
G75*
G02*
X-9506100Y10200800I-62500J0D01*
G01*
X-10181100Y10200800D01*
G75*
G02*
X-10243600Y10263300I0J62500D01*
G01*
G37*
G36*
G01*
X-10243600Y10763300D02*
X-10243600Y10888300D01*
G75*
G02*
X-10181100Y10950800I62500J0D01*
G01*
X-9506100Y10950800D01*
G75*
G02*
X-9443600Y10888300I0J-62500D01*
G01*
X-9443600Y10763300D01*
G75*
G02*
X-9506100Y10700800I-62500J0D01*
G01*
X-10181100Y10700800D01*
G75*
G02*
X-10243600Y10763300I0J62500D01*
G01*
G37*
G36*
G01*
X-10243600Y11263300D02*
X-10243600Y11388300D01*
G75*
G02*
X-10181100Y11450800I62500J0D01*
G01*
X-9506100Y11450800D01*
G75*
G02*
X-9443600Y11388300I0J-62500D01*
G01*
X-9443600Y11263300D01*
G75*
G02*
X-9506100Y11200800I-62500J0D01*
G01*
X-10181100Y11200800D01*
G75*
G02*
X-10243600Y11263300I0J62500D01*
G01*
G37*
G36*
G01*
X-10668600Y11688300D02*
X-10668600Y12363300D01*
G75*
G02*
X-10606100Y12425800I62500J0D01*
G01*
X-10481100Y12425800D01*
G75*
G02*
X-10418600Y12363300I0J-62500D01*
G01*
X-10418600Y11688300D01*
G75*
G02*
X-10481100Y11625800I-62500J0D01*
G01*
X-10606100Y11625800D01*
G75*
G02*
X-10668600Y11688300I0J62500D01*
G01*
G37*
G36*
G01*
X-11168600Y11688300D02*
X-11168600Y12363300D01*
G75*
G02*
X-11106100Y12425800I62500J0D01*
G01*
X-10981100Y12425800D01*
G75*
G02*
X-10918600Y12363300I0J-62500D01*
G01*
X-10918600Y11688300D01*
G75*
G02*
X-10981100Y11625800I-62500J0D01*
G01*
X-11106100Y11625800D01*
G75*
G02*
X-11168600Y11688300I0J62500D01*
G01*
G37*
G36*
G01*
X-11668600Y11688300D02*
X-11668600Y12363300D01*
G75*
G02*
X-11606100Y12425800I62500J0D01*
G01*
X-11481100Y12425800D01*
G75*
G02*
X-11418600Y12363300I0J-62500D01*
G01*
X-11418600Y11688300D01*
G75*
G02*
X-11481100Y11625800I-62500J0D01*
G01*
X-11606100Y11625800D01*
G75*
G02*
X-11668600Y11688300I0J62500D01*
G01*
G37*
G36*
G01*
X-12168600Y11688300D02*
X-12168600Y12363300D01*
G75*
G02*
X-12106100Y12425800I62500J0D01*
G01*
X-11981100Y12425800D01*
G75*
G02*
X-11918600Y12363300I0J-62500D01*
G01*
X-11918600Y11688300D01*
G75*
G02*
X-11981100Y11625800I-62500J0D01*
G01*
X-12106100Y11625800D01*
G75*
G02*
X-12168600Y11688300I0J62500D01*
G01*
G37*
G36*
G01*
X-12668600Y11688300D02*
X-12668600Y12363300D01*
G75*
G02*
X-12606100Y12425800I62500J0D01*
G01*
X-12481100Y12425800D01*
G75*
G02*
X-12418600Y12363300I0J-62500D01*
G01*
X-12418600Y11688300D01*
G75*
G02*
X-12481100Y11625800I-62500J0D01*
G01*
X-12606100Y11625800D01*
G75*
G02*
X-12668600Y11688300I0J62500D01*
G01*
G37*
G36*
G01*
X-13168600Y11688300D02*
X-13168600Y12363300D01*
G75*
G02*
X-13106100Y12425800I62500J0D01*
G01*
X-12981100Y12425800D01*
G75*
G02*
X-12918600Y12363300I0J-62500D01*
G01*
X-12918600Y11688300D01*
G75*
G02*
X-12981100Y11625800I-62500J0D01*
G01*
X-13106100Y11625800D01*
G75*
G02*
X-13168600Y11688300I0J62500D01*
G01*
G37*
G36*
G01*
X-13668600Y11688300D02*
X-13668600Y12363300D01*
G75*
G02*
X-13606100Y12425800I62500J0D01*
G01*
X-13481100Y12425800D01*
G75*
G02*
X-13418600Y12363300I0J-62500D01*
G01*
X-13418600Y11688300D01*
G75*
G02*
X-13481100Y11625800I-62500J0D01*
G01*
X-13606100Y11625800D01*
G75*
G02*
X-13668600Y11688300I0J62500D01*
G01*
G37*
G36*
G01*
X-14168600Y11688300D02*
X-14168600Y12363300D01*
G75*
G02*
X-14106100Y12425800I62500J0D01*
G01*
X-13981100Y12425800D01*
G75*
G02*
X-13918600Y12363300I0J-62500D01*
G01*
X-13918600Y11688300D01*
G75*
G02*
X-13981100Y11625800I-62500J0D01*
G01*
X-14106100Y11625800D01*
G75*
G02*
X-14168600Y11688300I0J62500D01*
G01*
G37*
D13*
X-12293600Y9575800D03*
D14*
X-21300000Y16250000D03*
X-21300000Y-16250000D03*
X21300000Y-16250000D03*
D15*
X4180800Y5283200D03*
X6080800Y5283200D03*
X5130800Y7283200D03*
D16*
X-21031200Y4800600D03*
X-21031200Y6070600D03*
X-21031200Y7340600D03*
X-22301200Y7340600D03*
X-22301200Y6070600D03*
X-22301200Y4800600D03*
D17*
X-21666200Y3530600D03*
X-22681200Y8610600D03*
X-20651200Y8610600D03*
D18*
X7000000Y0D03*
X13350000Y-2540000D03*
D19*
X9540000Y-5080000D03*
D20*
X14620000Y-5080000D03*
X4460000Y-5080000D03*
G36*
G01*
X-12005300Y14234800D02*
X-12480300Y14234800D01*
G75*
G02*
X-12717800Y14472300I0J237500D01*
G01*
X-12717800Y15072300D01*
G75*
G02*
X-12480300Y15309800I237500J0D01*
G01*
X-12005300Y15309800D01*
G75*
G02*
X-11767800Y15072300I0J-237500D01*
G01*
X-11767800Y14472300D01*
G75*
G02*
X-12005300Y14234800I-237500J0D01*
G01*
G37*
G36*
G01*
X-12005300Y15959800D02*
X-12480300Y15959800D01*
G75*
G02*
X-12717800Y16197300I0J237500D01*
G01*
X-12717800Y16797300D01*
G75*
G02*
X-12480300Y17034800I237500J0D01*
G01*
X-12005300Y17034800D01*
G75*
G02*
X-11767800Y16797300I0J-237500D01*
G01*
X-11767800Y16197300D01*
G75*
G02*
X-12005300Y15959800I-237500J0D01*
G01*
G37*
G36*
G01*
X-12891300Y13566200D02*
X-12891300Y13256200D01*
G75*
G02*
X-13046300Y13101200I-155000J0D01*
G01*
X-13471300Y13101200D01*
G75*
G02*
X-13626300Y13256200I0J155000D01*
G01*
X-13626300Y13566200D01*
G75*
G02*
X-13471300Y13721200I155000J0D01*
G01*
X-13046300Y13721200D01*
G75*
G02*
X-12891300Y13566200I0J-155000D01*
G01*
G37*
G36*
G01*
X-14026300Y13566200D02*
X-14026300Y13256200D01*
G75*
G02*
X-14181300Y13101200I-155000J0D01*
G01*
X-14606300Y13101200D01*
G75*
G02*
X-14761300Y13256200I0J155000D01*
G01*
X-14761300Y13566200D01*
G75*
G02*
X-14606300Y13721200I155000J0D01*
G01*
X-14181300Y13721200D01*
G75*
G02*
X-14026300Y13566200I0J-155000D01*
G01*
G37*
G36*
G01*
X-13050100Y5458400D02*
X-13050100Y5768400D01*
G75*
G02*
X-12895100Y5923400I155000J0D01*
G01*
X-12470100Y5923400D01*
G75*
G02*
X-12315100Y5768400I0J-155000D01*
G01*
X-12315100Y5458400D01*
G75*
G02*
X-12470100Y5303400I-155000J0D01*
G01*
X-12895100Y5303400D01*
G75*
G02*
X-13050100Y5458400I0J155000D01*
G01*
G37*
G36*
G01*
X-14185100Y5458400D02*
X-14185100Y5768400D01*
G75*
G02*
X-14030100Y5923400I155000J0D01*
G01*
X-13605100Y5923400D01*
G75*
G02*
X-13450100Y5768400I0J-155000D01*
G01*
X-13450100Y5458400D01*
G75*
G02*
X-13605100Y5303400I-155000J0D01*
G01*
X-14030100Y5303400D01*
G75*
G02*
X-14185100Y5458400I0J155000D01*
G01*
G37*
G36*
G01*
X4542500Y8703300D02*
X4542500Y9178300D01*
G75*
G02*
X4780000Y9415800I237500J0D01*
G01*
X5380000Y9415800D01*
G75*
G02*
X5617500Y9178300I0J-237500D01*
G01*
X5617500Y8703300D01*
G75*
G02*
X5380000Y8465800I-237500J0D01*
G01*
X4780000Y8465800D01*
G75*
G02*
X4542500Y8703300I0J237500D01*
G01*
G37*
G36*
G01*
X6267500Y8703300D02*
X6267500Y9178300D01*
G75*
G02*
X6505000Y9415800I237500J0D01*
G01*
X7105000Y9415800D01*
G75*
G02*
X7342500Y9178300I0J-237500D01*
G01*
X7342500Y8703300D01*
G75*
G02*
X7105000Y8465800I-237500J0D01*
G01*
X6505000Y8465800D01*
G75*
G02*
X6267500Y8703300I0J237500D01*
G01*
G37*
G36*
G01*
X7310000Y3089900D02*
X7310000Y3564900D01*
G75*
G02*
X7547500Y3802400I237500J0D01*
G01*
X8147500Y3802400D01*
G75*
G02*
X8385000Y3564900I0J-237500D01*
G01*
X8385000Y3089900D01*
G75*
G02*
X8147500Y2852400I-237500J0D01*
G01*
X7547500Y2852400D01*
G75*
G02*
X7310000Y3089900I0J237500D01*
G01*
G37*
G36*
G01*
X5585000Y3089900D02*
X5585000Y3564900D01*
G75*
G02*
X5822500Y3802400I237500J0D01*
G01*
X6422500Y3802400D01*
G75*
G02*
X6660000Y3564900I0J-237500D01*
G01*
X6660000Y3089900D01*
G75*
G02*
X6422500Y2852400I-237500J0D01*
G01*
X5822500Y2852400D01*
G75*
G02*
X5585000Y3089900I0J237500D01*
G01*
G37*
G36*
G01*
X1287800Y7849300D02*
X1607800Y7849300D01*
G75*
G02*
X1767800Y7689300I0J-160000D01*
G01*
X1767800Y7294300D01*
G75*
G02*
X1607800Y7134300I-160000J0D01*
G01*
X1287800Y7134300D01*
G75*
G02*
X1127800Y7294300I0J160000D01*
G01*
X1127800Y7689300D01*
G75*
G02*
X1287800Y7849300I160000J0D01*
G01*
G37*
G36*
G01*
X1287800Y9044300D02*
X1607800Y9044300D01*
G75*
G02*
X1767800Y8884300I0J-160000D01*
G01*
X1767800Y8489300D01*
G75*
G02*
X1607800Y8329300I-160000J0D01*
G01*
X1287800Y8329300D01*
G75*
G02*
X1127800Y8489300I0J160000D01*
G01*
X1127800Y8884300D01*
G75*
G02*
X1287800Y9044300I160000J0D01*
G01*
G37*
G36*
G01*
X-6433800Y15014500D02*
X-6113800Y15014500D01*
G75*
G02*
X-5953800Y14854500I0J-160000D01*
G01*
X-5953800Y14459500D01*
G75*
G02*
X-6113800Y14299500I-160000J0D01*
G01*
X-6433800Y14299500D01*
G75*
G02*
X-6593800Y14459500I0J160000D01*
G01*
X-6593800Y14854500D01*
G75*
G02*
X-6433800Y15014500I160000J0D01*
G01*
G37*
G36*
G01*
X-6433800Y13819500D02*
X-6113800Y13819500D01*
G75*
G02*
X-5953800Y13659500I0J-160000D01*
G01*
X-5953800Y13264500D01*
G75*
G02*
X-6113800Y13104500I-160000J0D01*
G01*
X-6433800Y13104500D01*
G75*
G02*
X-6593800Y13264500I0J160000D01*
G01*
X-6593800Y13659500D01*
G75*
G02*
X-6433800Y13819500I160000J0D01*
G01*
G37*
X-14740000Y-5080000D03*
X-4580000Y-5080000D03*
D19*
X-9660000Y-5080000D03*
D18*
X-5850000Y-2540000D03*
X-12200000Y0D03*
M02*
