G04 #@! TF.GenerationSoftware,KiCad,Pcbnew,(5.1.10)-1*
G04 #@! TF.CreationDate,2021-07-28T20:54:02-07:00*
G04 #@! TF.ProjectId,twokey,74776f6b-6579-42e6-9b69-6361645f7063,rev?*
G04 #@! TF.SameCoordinates,Original*
G04 #@! TF.FileFunction,Copper,L1,Top*
G04 #@! TF.FilePolarity,Positive*
%FSLAX46Y46*%
G04 Gerber Fmt 4.6, Leading zero omitted, Abs format (unit mm)*
G04 Created by KiCad (PCBNEW (5.1.10)-1) date 2021-07-28 20:54:02*
%MOMM*%
%LPD*%
G01*
G04 APERTURE LIST*
G04 #@! TA.AperFunction,ComponentPad*
%ADD10O,0.800000X1.600000*%
G04 #@! TD*
G04 #@! TA.AperFunction,SMDPad,CuDef*
%ADD11R,0.300000X0.700000*%
G04 #@! TD*
G04 #@! TA.AperFunction,SMDPad,CuDef*
%ADD12R,3.600000X3.600000*%
G04 #@! TD*
G04 #@! TA.AperFunction,SMDPad,CuDef*
%ADD13R,0.800000X0.900000*%
G04 #@! TD*
G04 #@! TA.AperFunction,SMDPad,CuDef*
%ADD14C,0.787000*%
G04 #@! TD*
G04 #@! TA.AperFunction,ComponentPad*
%ADD15C,2.200000*%
G04 #@! TD*
G04 #@! TA.AperFunction,ViaPad*
%ADD16C,0.800000*%
G04 #@! TD*
G04 #@! TA.AperFunction,Conductor*
%ADD17C,0.250000*%
G04 #@! TD*
G04 #@! TA.AperFunction,Conductor*
%ADD18C,0.100000*%
G04 #@! TD*
G04 #@! TA.AperFunction,Conductor*
%ADD19C,0.150000*%
G04 #@! TD*
G04 APERTURE END LIST*
D10*
X4490000Y18450000D03*
X-4490000Y18450000D03*
X-4130000Y12500000D03*
X4130000Y12500000D03*
D11*
X3000000Y12290000D03*
X2500000Y12290000D03*
X2000000Y12290000D03*
X1500000Y12290000D03*
X1000000Y12290000D03*
X500000Y12290000D03*
X0Y12290000D03*
X-500000Y12290000D03*
X-1000000Y12290000D03*
X-1500000Y12290000D03*
X-2000000Y12290000D03*
X-2500000Y12290000D03*
X-2750000Y10590000D03*
X-2250000Y10590000D03*
X-1750000Y10590000D03*
X-1250000Y10590000D03*
X-750000Y10590000D03*
X-250000Y10590000D03*
X250000Y10590000D03*
X750000Y10590000D03*
X1250000Y10590000D03*
X1750000Y10590000D03*
X2250000Y10590000D03*
X2750000Y10590000D03*
G04 #@! TA.AperFunction,SMDPad,CuDef*
G36*
G01*
X-15143600Y11263300D02*
X-15143600Y11388300D01*
G75*
G02*
X-15081100Y11450800I62500J0D01*
G01*
X-14406100Y11450800D01*
G75*
G02*
X-14343600Y11388300I0J-62500D01*
G01*
X-14343600Y11263300D01*
G75*
G02*
X-14406100Y11200800I-62500J0D01*
G01*
X-15081100Y11200800D01*
G75*
G02*
X-15143600Y11263300I0J62500D01*
G01*
G37*
G04 #@! TD.AperFunction*
G04 #@! TA.AperFunction,SMDPad,CuDef*
G36*
G01*
X-15143600Y10763300D02*
X-15143600Y10888300D01*
G75*
G02*
X-15081100Y10950800I62500J0D01*
G01*
X-14406100Y10950800D01*
G75*
G02*
X-14343600Y10888300I0J-62500D01*
G01*
X-14343600Y10763300D01*
G75*
G02*
X-14406100Y10700800I-62500J0D01*
G01*
X-15081100Y10700800D01*
G75*
G02*
X-15143600Y10763300I0J62500D01*
G01*
G37*
G04 #@! TD.AperFunction*
G04 #@! TA.AperFunction,SMDPad,CuDef*
G36*
G01*
X-15143600Y10263300D02*
X-15143600Y10388300D01*
G75*
G02*
X-15081100Y10450800I62500J0D01*
G01*
X-14406100Y10450800D01*
G75*
G02*
X-14343600Y10388300I0J-62500D01*
G01*
X-14343600Y10263300D01*
G75*
G02*
X-14406100Y10200800I-62500J0D01*
G01*
X-15081100Y10200800D01*
G75*
G02*
X-15143600Y10263300I0J62500D01*
G01*
G37*
G04 #@! TD.AperFunction*
G04 #@! TA.AperFunction,SMDPad,CuDef*
G36*
G01*
X-15143600Y9763300D02*
X-15143600Y9888300D01*
G75*
G02*
X-15081100Y9950800I62500J0D01*
G01*
X-14406100Y9950800D01*
G75*
G02*
X-14343600Y9888300I0J-62500D01*
G01*
X-14343600Y9763300D01*
G75*
G02*
X-14406100Y9700800I-62500J0D01*
G01*
X-15081100Y9700800D01*
G75*
G02*
X-15143600Y9763300I0J62500D01*
G01*
G37*
G04 #@! TD.AperFunction*
G04 #@! TA.AperFunction,SMDPad,CuDef*
G36*
G01*
X-15143600Y9263300D02*
X-15143600Y9388300D01*
G75*
G02*
X-15081100Y9450800I62500J0D01*
G01*
X-14406100Y9450800D01*
G75*
G02*
X-14343600Y9388300I0J-62500D01*
G01*
X-14343600Y9263300D01*
G75*
G02*
X-14406100Y9200800I-62500J0D01*
G01*
X-15081100Y9200800D01*
G75*
G02*
X-15143600Y9263300I0J62500D01*
G01*
G37*
G04 #@! TD.AperFunction*
G04 #@! TA.AperFunction,SMDPad,CuDef*
G36*
G01*
X-15143600Y8763300D02*
X-15143600Y8888300D01*
G75*
G02*
X-15081100Y8950800I62500J0D01*
G01*
X-14406100Y8950800D01*
G75*
G02*
X-14343600Y8888300I0J-62500D01*
G01*
X-14343600Y8763300D01*
G75*
G02*
X-14406100Y8700800I-62500J0D01*
G01*
X-15081100Y8700800D01*
G75*
G02*
X-15143600Y8763300I0J62500D01*
G01*
G37*
G04 #@! TD.AperFunction*
G04 #@! TA.AperFunction,SMDPad,CuDef*
G36*
G01*
X-15143600Y8263300D02*
X-15143600Y8388300D01*
G75*
G02*
X-15081100Y8450800I62500J0D01*
G01*
X-14406100Y8450800D01*
G75*
G02*
X-14343600Y8388300I0J-62500D01*
G01*
X-14343600Y8263300D01*
G75*
G02*
X-14406100Y8200800I-62500J0D01*
G01*
X-15081100Y8200800D01*
G75*
G02*
X-15143600Y8263300I0J62500D01*
G01*
G37*
G04 #@! TD.AperFunction*
G04 #@! TA.AperFunction,SMDPad,CuDef*
G36*
G01*
X-15143600Y7763300D02*
X-15143600Y7888300D01*
G75*
G02*
X-15081100Y7950800I62500J0D01*
G01*
X-14406100Y7950800D01*
G75*
G02*
X-14343600Y7888300I0J-62500D01*
G01*
X-14343600Y7763300D01*
G75*
G02*
X-14406100Y7700800I-62500J0D01*
G01*
X-15081100Y7700800D01*
G75*
G02*
X-15143600Y7763300I0J62500D01*
G01*
G37*
G04 #@! TD.AperFunction*
G04 #@! TA.AperFunction,SMDPad,CuDef*
G36*
G01*
X-14168600Y6788300D02*
X-14168600Y7463300D01*
G75*
G02*
X-14106100Y7525800I62500J0D01*
G01*
X-13981100Y7525800D01*
G75*
G02*
X-13918600Y7463300I0J-62500D01*
G01*
X-13918600Y6788300D01*
G75*
G02*
X-13981100Y6725800I-62500J0D01*
G01*
X-14106100Y6725800D01*
G75*
G02*
X-14168600Y6788300I0J62500D01*
G01*
G37*
G04 #@! TD.AperFunction*
G04 #@! TA.AperFunction,SMDPad,CuDef*
G36*
G01*
X-13668600Y6788300D02*
X-13668600Y7463300D01*
G75*
G02*
X-13606100Y7525800I62500J0D01*
G01*
X-13481100Y7525800D01*
G75*
G02*
X-13418600Y7463300I0J-62500D01*
G01*
X-13418600Y6788300D01*
G75*
G02*
X-13481100Y6725800I-62500J0D01*
G01*
X-13606100Y6725800D01*
G75*
G02*
X-13668600Y6788300I0J62500D01*
G01*
G37*
G04 #@! TD.AperFunction*
G04 #@! TA.AperFunction,SMDPad,CuDef*
G36*
G01*
X-13168600Y6788300D02*
X-13168600Y7463300D01*
G75*
G02*
X-13106100Y7525800I62500J0D01*
G01*
X-12981100Y7525800D01*
G75*
G02*
X-12918600Y7463300I0J-62500D01*
G01*
X-12918600Y6788300D01*
G75*
G02*
X-12981100Y6725800I-62500J0D01*
G01*
X-13106100Y6725800D01*
G75*
G02*
X-13168600Y6788300I0J62500D01*
G01*
G37*
G04 #@! TD.AperFunction*
G04 #@! TA.AperFunction,SMDPad,CuDef*
G36*
G01*
X-12668600Y6788300D02*
X-12668600Y7463300D01*
G75*
G02*
X-12606100Y7525800I62500J0D01*
G01*
X-12481100Y7525800D01*
G75*
G02*
X-12418600Y7463300I0J-62500D01*
G01*
X-12418600Y6788300D01*
G75*
G02*
X-12481100Y6725800I-62500J0D01*
G01*
X-12606100Y6725800D01*
G75*
G02*
X-12668600Y6788300I0J62500D01*
G01*
G37*
G04 #@! TD.AperFunction*
G04 #@! TA.AperFunction,SMDPad,CuDef*
G36*
G01*
X-12168600Y6788300D02*
X-12168600Y7463300D01*
G75*
G02*
X-12106100Y7525800I62500J0D01*
G01*
X-11981100Y7525800D01*
G75*
G02*
X-11918600Y7463300I0J-62500D01*
G01*
X-11918600Y6788300D01*
G75*
G02*
X-11981100Y6725800I-62500J0D01*
G01*
X-12106100Y6725800D01*
G75*
G02*
X-12168600Y6788300I0J62500D01*
G01*
G37*
G04 #@! TD.AperFunction*
G04 #@! TA.AperFunction,SMDPad,CuDef*
G36*
G01*
X-11668600Y6788300D02*
X-11668600Y7463300D01*
G75*
G02*
X-11606100Y7525800I62500J0D01*
G01*
X-11481100Y7525800D01*
G75*
G02*
X-11418600Y7463300I0J-62500D01*
G01*
X-11418600Y6788300D01*
G75*
G02*
X-11481100Y6725800I-62500J0D01*
G01*
X-11606100Y6725800D01*
G75*
G02*
X-11668600Y6788300I0J62500D01*
G01*
G37*
G04 #@! TD.AperFunction*
G04 #@! TA.AperFunction,SMDPad,CuDef*
G36*
G01*
X-11168600Y6788300D02*
X-11168600Y7463300D01*
G75*
G02*
X-11106100Y7525800I62500J0D01*
G01*
X-10981100Y7525800D01*
G75*
G02*
X-10918600Y7463300I0J-62500D01*
G01*
X-10918600Y6788300D01*
G75*
G02*
X-10981100Y6725800I-62500J0D01*
G01*
X-11106100Y6725800D01*
G75*
G02*
X-11168600Y6788300I0J62500D01*
G01*
G37*
G04 #@! TD.AperFunction*
G04 #@! TA.AperFunction,SMDPad,CuDef*
G36*
G01*
X-10668600Y6788300D02*
X-10668600Y7463300D01*
G75*
G02*
X-10606100Y7525800I62500J0D01*
G01*
X-10481100Y7525800D01*
G75*
G02*
X-10418600Y7463300I0J-62500D01*
G01*
X-10418600Y6788300D01*
G75*
G02*
X-10481100Y6725800I-62500J0D01*
G01*
X-10606100Y6725800D01*
G75*
G02*
X-10668600Y6788300I0J62500D01*
G01*
G37*
G04 #@! TD.AperFunction*
G04 #@! TA.AperFunction,SMDPad,CuDef*
G36*
G01*
X-10243600Y7763300D02*
X-10243600Y7888300D01*
G75*
G02*
X-10181100Y7950800I62500J0D01*
G01*
X-9506100Y7950800D01*
G75*
G02*
X-9443600Y7888300I0J-62500D01*
G01*
X-9443600Y7763300D01*
G75*
G02*
X-9506100Y7700800I-62500J0D01*
G01*
X-10181100Y7700800D01*
G75*
G02*
X-10243600Y7763300I0J62500D01*
G01*
G37*
G04 #@! TD.AperFunction*
G04 #@! TA.AperFunction,SMDPad,CuDef*
G36*
G01*
X-10243600Y8263300D02*
X-10243600Y8388300D01*
G75*
G02*
X-10181100Y8450800I62500J0D01*
G01*
X-9506100Y8450800D01*
G75*
G02*
X-9443600Y8388300I0J-62500D01*
G01*
X-9443600Y8263300D01*
G75*
G02*
X-9506100Y8200800I-62500J0D01*
G01*
X-10181100Y8200800D01*
G75*
G02*
X-10243600Y8263300I0J62500D01*
G01*
G37*
G04 #@! TD.AperFunction*
G04 #@! TA.AperFunction,SMDPad,CuDef*
G36*
G01*
X-10243600Y8763300D02*
X-10243600Y8888300D01*
G75*
G02*
X-10181100Y8950800I62500J0D01*
G01*
X-9506100Y8950800D01*
G75*
G02*
X-9443600Y8888300I0J-62500D01*
G01*
X-9443600Y8763300D01*
G75*
G02*
X-9506100Y8700800I-62500J0D01*
G01*
X-10181100Y8700800D01*
G75*
G02*
X-10243600Y8763300I0J62500D01*
G01*
G37*
G04 #@! TD.AperFunction*
G04 #@! TA.AperFunction,SMDPad,CuDef*
G36*
G01*
X-10243600Y9263300D02*
X-10243600Y9388300D01*
G75*
G02*
X-10181100Y9450800I62500J0D01*
G01*
X-9506100Y9450800D01*
G75*
G02*
X-9443600Y9388300I0J-62500D01*
G01*
X-9443600Y9263300D01*
G75*
G02*
X-9506100Y9200800I-62500J0D01*
G01*
X-10181100Y9200800D01*
G75*
G02*
X-10243600Y9263300I0J62500D01*
G01*
G37*
G04 #@! TD.AperFunction*
G04 #@! TA.AperFunction,SMDPad,CuDef*
G36*
G01*
X-10243600Y9763300D02*
X-10243600Y9888300D01*
G75*
G02*
X-10181100Y9950800I62500J0D01*
G01*
X-9506100Y9950800D01*
G75*
G02*
X-9443600Y9888300I0J-62500D01*
G01*
X-9443600Y9763300D01*
G75*
G02*
X-9506100Y9700800I-62500J0D01*
G01*
X-10181100Y9700800D01*
G75*
G02*
X-10243600Y9763300I0J62500D01*
G01*
G37*
G04 #@! TD.AperFunction*
G04 #@! TA.AperFunction,SMDPad,CuDef*
G36*
G01*
X-10243600Y10263300D02*
X-10243600Y10388300D01*
G75*
G02*
X-10181100Y10450800I62500J0D01*
G01*
X-9506100Y10450800D01*
G75*
G02*
X-9443600Y10388300I0J-62500D01*
G01*
X-9443600Y10263300D01*
G75*
G02*
X-9506100Y10200800I-62500J0D01*
G01*
X-10181100Y10200800D01*
G75*
G02*
X-10243600Y10263300I0J62500D01*
G01*
G37*
G04 #@! TD.AperFunction*
G04 #@! TA.AperFunction,SMDPad,CuDef*
G36*
G01*
X-10243600Y10763300D02*
X-10243600Y10888300D01*
G75*
G02*
X-10181100Y10950800I62500J0D01*
G01*
X-9506100Y10950800D01*
G75*
G02*
X-9443600Y10888300I0J-62500D01*
G01*
X-9443600Y10763300D01*
G75*
G02*
X-9506100Y10700800I-62500J0D01*
G01*
X-10181100Y10700800D01*
G75*
G02*
X-10243600Y10763300I0J62500D01*
G01*
G37*
G04 #@! TD.AperFunction*
G04 #@! TA.AperFunction,SMDPad,CuDef*
G36*
G01*
X-10243600Y11263300D02*
X-10243600Y11388300D01*
G75*
G02*
X-10181100Y11450800I62500J0D01*
G01*
X-9506100Y11450800D01*
G75*
G02*
X-9443600Y11388300I0J-62500D01*
G01*
X-9443600Y11263300D01*
G75*
G02*
X-9506100Y11200800I-62500J0D01*
G01*
X-10181100Y11200800D01*
G75*
G02*
X-10243600Y11263300I0J62500D01*
G01*
G37*
G04 #@! TD.AperFunction*
G04 #@! TA.AperFunction,SMDPad,CuDef*
G36*
G01*
X-10668600Y11688300D02*
X-10668600Y12363300D01*
G75*
G02*
X-10606100Y12425800I62500J0D01*
G01*
X-10481100Y12425800D01*
G75*
G02*
X-10418600Y12363300I0J-62500D01*
G01*
X-10418600Y11688300D01*
G75*
G02*
X-10481100Y11625800I-62500J0D01*
G01*
X-10606100Y11625800D01*
G75*
G02*
X-10668600Y11688300I0J62500D01*
G01*
G37*
G04 #@! TD.AperFunction*
G04 #@! TA.AperFunction,SMDPad,CuDef*
G36*
G01*
X-11168600Y11688300D02*
X-11168600Y12363300D01*
G75*
G02*
X-11106100Y12425800I62500J0D01*
G01*
X-10981100Y12425800D01*
G75*
G02*
X-10918600Y12363300I0J-62500D01*
G01*
X-10918600Y11688300D01*
G75*
G02*
X-10981100Y11625800I-62500J0D01*
G01*
X-11106100Y11625800D01*
G75*
G02*
X-11168600Y11688300I0J62500D01*
G01*
G37*
G04 #@! TD.AperFunction*
G04 #@! TA.AperFunction,SMDPad,CuDef*
G36*
G01*
X-11668600Y11688300D02*
X-11668600Y12363300D01*
G75*
G02*
X-11606100Y12425800I62500J0D01*
G01*
X-11481100Y12425800D01*
G75*
G02*
X-11418600Y12363300I0J-62500D01*
G01*
X-11418600Y11688300D01*
G75*
G02*
X-11481100Y11625800I-62500J0D01*
G01*
X-11606100Y11625800D01*
G75*
G02*
X-11668600Y11688300I0J62500D01*
G01*
G37*
G04 #@! TD.AperFunction*
G04 #@! TA.AperFunction,SMDPad,CuDef*
G36*
G01*
X-12168600Y11688300D02*
X-12168600Y12363300D01*
G75*
G02*
X-12106100Y12425800I62500J0D01*
G01*
X-11981100Y12425800D01*
G75*
G02*
X-11918600Y12363300I0J-62500D01*
G01*
X-11918600Y11688300D01*
G75*
G02*
X-11981100Y11625800I-62500J0D01*
G01*
X-12106100Y11625800D01*
G75*
G02*
X-12168600Y11688300I0J62500D01*
G01*
G37*
G04 #@! TD.AperFunction*
G04 #@! TA.AperFunction,SMDPad,CuDef*
G36*
G01*
X-12668600Y11688300D02*
X-12668600Y12363300D01*
G75*
G02*
X-12606100Y12425800I62500J0D01*
G01*
X-12481100Y12425800D01*
G75*
G02*
X-12418600Y12363300I0J-62500D01*
G01*
X-12418600Y11688300D01*
G75*
G02*
X-12481100Y11625800I-62500J0D01*
G01*
X-12606100Y11625800D01*
G75*
G02*
X-12668600Y11688300I0J62500D01*
G01*
G37*
G04 #@! TD.AperFunction*
G04 #@! TA.AperFunction,SMDPad,CuDef*
G36*
G01*
X-13168600Y11688300D02*
X-13168600Y12363300D01*
G75*
G02*
X-13106100Y12425800I62500J0D01*
G01*
X-12981100Y12425800D01*
G75*
G02*
X-12918600Y12363300I0J-62500D01*
G01*
X-12918600Y11688300D01*
G75*
G02*
X-12981100Y11625800I-62500J0D01*
G01*
X-13106100Y11625800D01*
G75*
G02*
X-13168600Y11688300I0J62500D01*
G01*
G37*
G04 #@! TD.AperFunction*
G04 #@! TA.AperFunction,SMDPad,CuDef*
G36*
G01*
X-13668600Y11688300D02*
X-13668600Y12363300D01*
G75*
G02*
X-13606100Y12425800I62500J0D01*
G01*
X-13481100Y12425800D01*
G75*
G02*
X-13418600Y12363300I0J-62500D01*
G01*
X-13418600Y11688300D01*
G75*
G02*
X-13481100Y11625800I-62500J0D01*
G01*
X-13606100Y11625800D01*
G75*
G02*
X-13668600Y11688300I0J62500D01*
G01*
G37*
G04 #@! TD.AperFunction*
G04 #@! TA.AperFunction,SMDPad,CuDef*
G36*
G01*
X-14168600Y11688300D02*
X-14168600Y12363300D01*
G75*
G02*
X-14106100Y12425800I62500J0D01*
G01*
X-13981100Y12425800D01*
G75*
G02*
X-13918600Y12363300I0J-62500D01*
G01*
X-13918600Y11688300D01*
G75*
G02*
X-13981100Y11625800I-62500J0D01*
G01*
X-14106100Y11625800D01*
G75*
G02*
X-14168600Y11688300I0J62500D01*
G01*
G37*
G04 #@! TD.AperFunction*
D12*
X-12293600Y9575800D03*
D13*
X4180800Y5283200D03*
X6080800Y5283200D03*
X5130800Y7283200D03*
D14*
X-21031200Y4800600D03*
X-21031200Y6070600D03*
X-21031200Y7340600D03*
X-22301200Y7340600D03*
X-22301200Y6070600D03*
X-22301200Y4800600D03*
D15*
X7000000Y0D03*
X13350000Y-2540000D03*
G04 #@! TA.AperFunction,SMDPad,CuDef*
G36*
G01*
X-12005300Y14234800D02*
X-12480300Y14234800D01*
G75*
G02*
X-12717800Y14472300I0J237500D01*
G01*
X-12717800Y15072300D01*
G75*
G02*
X-12480300Y15309800I237500J0D01*
G01*
X-12005300Y15309800D01*
G75*
G02*
X-11767800Y15072300I0J-237500D01*
G01*
X-11767800Y14472300D01*
G75*
G02*
X-12005300Y14234800I-237500J0D01*
G01*
G37*
G04 #@! TD.AperFunction*
G04 #@! TA.AperFunction,SMDPad,CuDef*
G36*
G01*
X-12005300Y15959800D02*
X-12480300Y15959800D01*
G75*
G02*
X-12717800Y16197300I0J237500D01*
G01*
X-12717800Y16797300D01*
G75*
G02*
X-12480300Y17034800I237500J0D01*
G01*
X-12005300Y17034800D01*
G75*
G02*
X-11767800Y16797300I0J-237500D01*
G01*
X-11767800Y16197300D01*
G75*
G02*
X-12005300Y15959800I-237500J0D01*
G01*
G37*
G04 #@! TD.AperFunction*
G04 #@! TA.AperFunction,SMDPad,CuDef*
G36*
G01*
X-12891300Y13566200D02*
X-12891300Y13256200D01*
G75*
G02*
X-13046300Y13101200I-155000J0D01*
G01*
X-13471300Y13101200D01*
G75*
G02*
X-13626300Y13256200I0J155000D01*
G01*
X-13626300Y13566200D01*
G75*
G02*
X-13471300Y13721200I155000J0D01*
G01*
X-13046300Y13721200D01*
G75*
G02*
X-12891300Y13566200I0J-155000D01*
G01*
G37*
G04 #@! TD.AperFunction*
G04 #@! TA.AperFunction,SMDPad,CuDef*
G36*
G01*
X-14026300Y13566200D02*
X-14026300Y13256200D01*
G75*
G02*
X-14181300Y13101200I-155000J0D01*
G01*
X-14606300Y13101200D01*
G75*
G02*
X-14761300Y13256200I0J155000D01*
G01*
X-14761300Y13566200D01*
G75*
G02*
X-14606300Y13721200I155000J0D01*
G01*
X-14181300Y13721200D01*
G75*
G02*
X-14026300Y13566200I0J-155000D01*
G01*
G37*
G04 #@! TD.AperFunction*
G04 #@! TA.AperFunction,SMDPad,CuDef*
G36*
G01*
X-13050100Y5458400D02*
X-13050100Y5768400D01*
G75*
G02*
X-12895100Y5923400I155000J0D01*
G01*
X-12470100Y5923400D01*
G75*
G02*
X-12315100Y5768400I0J-155000D01*
G01*
X-12315100Y5458400D01*
G75*
G02*
X-12470100Y5303400I-155000J0D01*
G01*
X-12895100Y5303400D01*
G75*
G02*
X-13050100Y5458400I0J155000D01*
G01*
G37*
G04 #@! TD.AperFunction*
G04 #@! TA.AperFunction,SMDPad,CuDef*
G36*
G01*
X-14185100Y5458400D02*
X-14185100Y5768400D01*
G75*
G02*
X-14030100Y5923400I155000J0D01*
G01*
X-13605100Y5923400D01*
G75*
G02*
X-13450100Y5768400I0J-155000D01*
G01*
X-13450100Y5458400D01*
G75*
G02*
X-13605100Y5303400I-155000J0D01*
G01*
X-14030100Y5303400D01*
G75*
G02*
X-14185100Y5458400I0J155000D01*
G01*
G37*
G04 #@! TD.AperFunction*
G04 #@! TA.AperFunction,SMDPad,CuDef*
G36*
G01*
X4542500Y8703300D02*
X4542500Y9178300D01*
G75*
G02*
X4780000Y9415800I237500J0D01*
G01*
X5380000Y9415800D01*
G75*
G02*
X5617500Y9178300I0J-237500D01*
G01*
X5617500Y8703300D01*
G75*
G02*
X5380000Y8465800I-237500J0D01*
G01*
X4780000Y8465800D01*
G75*
G02*
X4542500Y8703300I0J237500D01*
G01*
G37*
G04 #@! TD.AperFunction*
G04 #@! TA.AperFunction,SMDPad,CuDef*
G36*
G01*
X6267500Y8703300D02*
X6267500Y9178300D01*
G75*
G02*
X6505000Y9415800I237500J0D01*
G01*
X7105000Y9415800D01*
G75*
G02*
X7342500Y9178300I0J-237500D01*
G01*
X7342500Y8703300D01*
G75*
G02*
X7105000Y8465800I-237500J0D01*
G01*
X6505000Y8465800D01*
G75*
G02*
X6267500Y8703300I0J237500D01*
G01*
G37*
G04 #@! TD.AperFunction*
G04 #@! TA.AperFunction,SMDPad,CuDef*
G36*
G01*
X7310000Y3089900D02*
X7310000Y3564900D01*
G75*
G02*
X7547500Y3802400I237500J0D01*
G01*
X8147500Y3802400D01*
G75*
G02*
X8385000Y3564900I0J-237500D01*
G01*
X8385000Y3089900D01*
G75*
G02*
X8147500Y2852400I-237500J0D01*
G01*
X7547500Y2852400D01*
G75*
G02*
X7310000Y3089900I0J237500D01*
G01*
G37*
G04 #@! TD.AperFunction*
G04 #@! TA.AperFunction,SMDPad,CuDef*
G36*
G01*
X5585000Y3089900D02*
X5585000Y3564900D01*
G75*
G02*
X5822500Y3802400I237500J0D01*
G01*
X6422500Y3802400D01*
G75*
G02*
X6660000Y3564900I0J-237500D01*
G01*
X6660000Y3089900D01*
G75*
G02*
X6422500Y2852400I-237500J0D01*
G01*
X5822500Y2852400D01*
G75*
G02*
X5585000Y3089900I0J237500D01*
G01*
G37*
G04 #@! TD.AperFunction*
G04 #@! TA.AperFunction,SMDPad,CuDef*
G36*
G01*
X1287800Y7849300D02*
X1607800Y7849300D01*
G75*
G02*
X1767800Y7689300I0J-160000D01*
G01*
X1767800Y7294300D01*
G75*
G02*
X1607800Y7134300I-160000J0D01*
G01*
X1287800Y7134300D01*
G75*
G02*
X1127800Y7294300I0J160000D01*
G01*
X1127800Y7689300D01*
G75*
G02*
X1287800Y7849300I160000J0D01*
G01*
G37*
G04 #@! TD.AperFunction*
G04 #@! TA.AperFunction,SMDPad,CuDef*
G36*
G01*
X1287800Y9044300D02*
X1607800Y9044300D01*
G75*
G02*
X1767800Y8884300I0J-160000D01*
G01*
X1767800Y8489300D01*
G75*
G02*
X1607800Y8329300I-160000J0D01*
G01*
X1287800Y8329300D01*
G75*
G02*
X1127800Y8489300I0J160000D01*
G01*
X1127800Y8884300D01*
G75*
G02*
X1287800Y9044300I160000J0D01*
G01*
G37*
G04 #@! TD.AperFunction*
G04 #@! TA.AperFunction,SMDPad,CuDef*
G36*
G01*
X-6433800Y15014500D02*
X-6113800Y15014500D01*
G75*
G02*
X-5953800Y14854500I0J-160000D01*
G01*
X-5953800Y14459500D01*
G75*
G02*
X-6113800Y14299500I-160000J0D01*
G01*
X-6433800Y14299500D01*
G75*
G02*
X-6593800Y14459500I0J160000D01*
G01*
X-6593800Y14854500D01*
G75*
G02*
X-6433800Y15014500I160000J0D01*
G01*
G37*
G04 #@! TD.AperFunction*
G04 #@! TA.AperFunction,SMDPad,CuDef*
G36*
G01*
X-6433800Y13819500D02*
X-6113800Y13819500D01*
G75*
G02*
X-5953800Y13659500I0J-160000D01*
G01*
X-5953800Y13264500D01*
G75*
G02*
X-6113800Y13104500I-160000J0D01*
G01*
X-6433800Y13104500D01*
G75*
G02*
X-6593800Y13264500I0J160000D01*
G01*
X-6593800Y13659500D01*
G75*
G02*
X-6433800Y13819500I160000J0D01*
G01*
G37*
G04 #@! TD.AperFunction*
X-5850000Y-2540000D03*
X-12200000Y0D03*
D16*
X-11201400Y16383000D03*
X-13284200Y16357600D03*
X-12242800Y17449800D03*
X-12674600Y4851400D03*
X-11849100Y5588000D03*
X-3048000Y12268200D03*
X6819900Y9842500D03*
X7797800Y8915400D03*
X6858000Y8026400D03*
X2247900Y7493000D03*
X1460500Y6692900D03*
X647700Y7416800D03*
X4191000Y4368800D03*
X3314700Y5245100D03*
X4191000Y6184900D03*
X7861300Y4241800D03*
X8839200Y3314700D03*
X-9664700Y-11912600D03*
X9575800Y-11925300D03*
X-23317200Y6007100D03*
X-11798300Y13220700D03*
X-15989300Y9169400D03*
X-19024600Y9169400D03*
X-19075400Y5715000D03*
X-5295900Y13487400D03*
X-7264400Y13474700D03*
X-6273800Y12433300D03*
X-14236700Y14287500D03*
X-5943600Y-10096500D03*
X-317500Y-10096500D03*
X4914900Y-10121900D03*
X-5943600Y-8458200D03*
X-406400Y-8521700D03*
X4864100Y-8458200D03*
X3009900Y13258800D03*
X-3048000Y13550900D03*
X-14782800Y6350000D03*
X-13398500Y15265398D03*
X1498600Y13284200D03*
X-1600200Y13360400D03*
X9474200Y7289800D03*
X254000Y13385800D03*
X-8585202Y10032998D03*
X-8585200Y11811000D03*
X216649Y9399184D03*
X-9499600Y6527800D03*
X-10642600Y5638800D03*
X-17462500Y6451600D03*
X-15849600Y6908800D03*
X-18161000Y8483600D03*
X-10312400Y14274800D03*
X-15860407Y10221082D03*
X-15163800Y15697200D03*
X-7747000Y16332200D03*
D17*
X-12543600Y14357200D02*
X-12242800Y14658000D01*
X-12543600Y12025800D02*
X-12543600Y14357200D01*
X-13043600Y13196000D02*
X-13258800Y13411200D01*
X-13043600Y12025800D02*
X-13043600Y13196000D01*
X-14043600Y5839400D02*
X-13817600Y5613400D01*
X-14043600Y7125800D02*
X-14043600Y5839400D01*
X-14782800Y6386600D02*
X-14043600Y7125800D01*
X-14782800Y6350000D02*
X-14782800Y6386600D01*
X-16332200Y4800600D02*
X-14782800Y6350000D01*
X-21031200Y4800600D02*
X-16332200Y4800600D01*
X6080800Y3369100D02*
X6122500Y3327400D01*
X6080800Y5283200D02*
X6080800Y3369100D01*
X6122500Y3327400D02*
X-13106400Y3327400D01*
X-13817600Y4038600D02*
X-13817600Y5613400D01*
X-13106400Y3327400D02*
X-13817600Y4038600D01*
X-13258800Y13411200D02*
X-13258800Y15125698D01*
X-13258800Y15125698D02*
X-13398500Y15265398D01*
X5077800Y7336200D02*
X5130800Y7283200D01*
X-1250000Y11175002D02*
X-1250000Y10590000D01*
X-1000000Y11425002D02*
X-1250000Y11175002D01*
X-1000000Y12290000D02*
X-1000000Y11425002D01*
X1250000Y11175002D02*
X1250000Y10590000D01*
X1500000Y11425002D02*
X1250000Y11175002D01*
X1500000Y12290000D02*
X1500000Y11425002D01*
X1498600Y12291400D02*
X1500000Y12290000D01*
X1498600Y13284200D02*
X1498600Y12291400D01*
X-1000000Y12760200D02*
X-1600200Y13360400D01*
X-1000000Y12290000D02*
X-1000000Y12760200D01*
X2314198Y8940800D02*
X5080000Y8940800D01*
X1274999Y9979999D02*
X2314198Y8940800D01*
X1250000Y10590000D02*
X1274999Y10565001D01*
X1274999Y10565001D02*
X1274999Y9979999D01*
X5080000Y7334000D02*
X5130800Y7283200D01*
X5080000Y8940800D02*
X5080000Y7334000D01*
X9467600Y7283200D02*
X9474200Y7289800D01*
X5130800Y7283200D02*
X9467600Y7283200D01*
X750000Y10590000D02*
X750000Y9990000D01*
X1447800Y9170788D02*
X1447800Y8686800D01*
X824988Y9793599D02*
X1447800Y9170788D01*
X824988Y9915012D02*
X824988Y9793599D01*
X750000Y9990000D02*
X824988Y9915012D01*
X0Y12290000D02*
X0Y12890000D01*
X0Y13168160D02*
X0Y12290000D01*
X254000Y13385800D02*
X0Y13168160D01*
X-9070400Y11325800D02*
X-8585200Y11811000D01*
X-9843600Y11325800D02*
X-9070400Y11325800D01*
X-7951388Y9399184D02*
X216649Y9399184D01*
X-8585202Y10032998D02*
X-7951388Y9399184D01*
X250000Y9432535D02*
X216649Y9399184D01*
X250000Y10590000D02*
X250000Y9432535D01*
X500000Y12290000D02*
X500000Y12276200D01*
X-250000Y11053000D02*
X-250000Y10590000D01*
X500000Y11803000D02*
X-250000Y11053000D01*
X500000Y12290000D02*
X500000Y11803000D01*
X-8108000Y10825800D02*
X-9843600Y10825800D01*
X-7197199Y9914999D02*
X-8108000Y10825800D01*
X-325001Y9914999D02*
X-7197199Y9914999D01*
X-250000Y9990000D02*
X-325001Y9914999D01*
X-250000Y10590000D02*
X-250000Y9990000D01*
X-500000Y13377800D02*
X-1778000Y14655800D01*
X-500000Y12290000D02*
X-500000Y13377800D01*
X-6272600Y14655800D02*
X-6273800Y14657000D01*
X-1778000Y14655800D02*
X-6272600Y14655800D01*
X-10543600Y7125800D02*
X-10543600Y6606600D01*
X-10464800Y6527800D02*
X-9499600Y6527800D01*
X-10543600Y6606600D02*
X-10464800Y6527800D01*
X-11043600Y6039800D02*
X-10642600Y5638800D01*
X-11043600Y7125800D02*
X-11043600Y6039800D01*
X-14743600Y8325800D02*
X-15588300Y8325800D01*
X-15588300Y8325800D02*
X-17462500Y6451600D01*
X-14932600Y7825800D02*
X-15849600Y6908800D01*
X-14743600Y7825800D02*
X-14932600Y7825800D01*
X-20269200Y6070600D02*
X-21031200Y6070600D01*
X-19685000Y6654800D02*
X-20269200Y6070600D01*
X-16744802Y8820298D02*
X-18910300Y6654800D01*
X-16713200Y8820298D02*
X-16744802Y8820298D01*
X-16714301Y8821399D02*
X-16713200Y8820298D01*
X-16714301Y9517401D02*
X-16714301Y8821399D01*
X-16713200Y9518502D02*
X-16714301Y9517401D01*
X-18910300Y6654800D02*
X-19685000Y6654800D01*
X-16713200Y11099800D02*
X-16713200Y9518502D01*
X-15787200Y12025800D02*
X-16713200Y11099800D01*
X-14043600Y12025800D02*
X-15787200Y12025800D01*
X-19304000Y7340600D02*
X-18161000Y8483600D01*
X-21031200Y7340600D02*
X-19304000Y7340600D01*
X-11043600Y13543600D02*
X-10312400Y14274800D01*
X-11043600Y12025800D02*
X-11043600Y13543600D01*
X-23164800Y7340600D02*
X-22301200Y7340600D01*
X-23876000Y8051800D02*
X-23164800Y7340600D01*
X-23876000Y9169400D02*
X-23876000Y8051800D01*
X-23012400Y10033000D02*
X-23876000Y9169400D01*
X-19050000Y10033000D02*
X-23012400Y10033000D01*
X-16332190Y12750810D02*
X-19050000Y10033000D01*
X-13820588Y12750810D02*
X-16332190Y12750810D01*
X-13543600Y12473822D02*
X-13820588Y12750810D01*
X-13543600Y12025800D02*
X-13543600Y12473822D01*
X-15860407Y10657015D02*
X-15860407Y10221082D01*
X-15191622Y11325800D02*
X-15860407Y10657015D01*
X-14743600Y11325800D02*
X-15191622Y11325800D01*
X-15163800Y15697200D02*
X-15163800Y18516600D01*
X-15163800Y18516600D02*
X-14681200Y18999200D01*
X-14681200Y18999200D02*
X-8534400Y18999200D01*
X-8534400Y18999200D02*
X-7747000Y18211800D01*
X-7747000Y18211800D02*
X-7747000Y16332200D01*
D18*
X24671000Y-19671000D02*
X-24671000Y-19671000D01*
X-24671000Y-16062472D01*
X-23204000Y-16062472D01*
X-23204000Y-16437528D01*
X-23130831Y-16805376D01*
X-22987303Y-17151882D01*
X-22778934Y-17463729D01*
X-22513729Y-17728934D01*
X-22201882Y-17937303D01*
X-21855376Y-18080831D01*
X-21487528Y-18154000D01*
X-21112472Y-18154000D01*
X-20744624Y-18080831D01*
X-20398118Y-17937303D01*
X-20086271Y-17728934D01*
X-19821066Y-17463729D01*
X-19612697Y-17151882D01*
X-19469169Y-16805376D01*
X-19396000Y-16437528D01*
X-19396000Y-16062472D01*
X19396000Y-16062472D01*
X19396000Y-16437528D01*
X19469169Y-16805376D01*
X19612697Y-17151882D01*
X19821066Y-17463729D01*
X20086271Y-17728934D01*
X20398118Y-17937303D01*
X20744624Y-18080831D01*
X21112472Y-18154000D01*
X21487528Y-18154000D01*
X21855376Y-18080831D01*
X22201882Y-17937303D01*
X22513729Y-17728934D01*
X22778934Y-17463729D01*
X22987303Y-17151882D01*
X23130831Y-16805376D01*
X23204000Y-16437528D01*
X23204000Y-16062472D01*
X23130831Y-15694624D01*
X22987303Y-15348118D01*
X22778934Y-15036271D01*
X22513729Y-14771066D01*
X22201882Y-14562697D01*
X21855376Y-14419169D01*
X21487528Y-14346000D01*
X21112472Y-14346000D01*
X20744624Y-14419169D01*
X20398118Y-14562697D01*
X20086271Y-14771066D01*
X19821066Y-15036271D01*
X19612697Y-15348118D01*
X19469169Y-15694624D01*
X19396000Y-16062472D01*
X-19396000Y-16062472D01*
X-19469169Y-15694624D01*
X-19612697Y-15348118D01*
X-19821066Y-15036271D01*
X-20086271Y-14771066D01*
X-20398118Y-14562697D01*
X-20744624Y-14419169D01*
X-21112472Y-14346000D01*
X-21487528Y-14346000D01*
X-21855376Y-14419169D01*
X-22201882Y-14562697D01*
X-22513729Y-14771066D01*
X-22778934Y-15036271D01*
X-22987303Y-15348118D01*
X-23130831Y-15694624D01*
X-23204000Y-16062472D01*
X-24671000Y-16062472D01*
X-24671000Y-4966341D01*
X-15894000Y-4966341D01*
X-15894000Y-5193659D01*
X-15849653Y-5416609D01*
X-15762662Y-5626624D01*
X-15636371Y-5815632D01*
X-15475632Y-5976371D01*
X-15286624Y-6102662D01*
X-15076609Y-6189653D01*
X-14853659Y-6234000D01*
X-14626341Y-6234000D01*
X-14403391Y-6189653D01*
X-14193376Y-6102662D01*
X-14004368Y-5976371D01*
X-13843629Y-5815632D01*
X-13717338Y-5626624D01*
X-13630347Y-5416609D01*
X-13586000Y-5193659D01*
X-13586000Y-4966341D01*
X-13608529Y-4853076D01*
X-11964000Y-4853076D01*
X-11964000Y-5306924D01*
X-11875459Y-5752052D01*
X-11701778Y-6171353D01*
X-11449634Y-6548714D01*
X-11128714Y-6869634D01*
X-10751353Y-7121778D01*
X-10332052Y-7295459D01*
X-9886924Y-7384000D01*
X-9433076Y-7384000D01*
X-8987948Y-7295459D01*
X-8568647Y-7121778D01*
X-8191286Y-6869634D01*
X-7870366Y-6548714D01*
X-7618222Y-6171353D01*
X-7444541Y-5752052D01*
X-7356000Y-5306924D01*
X-7356000Y-4966341D01*
X-5734000Y-4966341D01*
X-5734000Y-5193659D01*
X-5689653Y-5416609D01*
X-5602662Y-5626624D01*
X-5476371Y-5815632D01*
X-5315632Y-5976371D01*
X-5126624Y-6102662D01*
X-4916609Y-6189653D01*
X-4693659Y-6234000D01*
X-4466341Y-6234000D01*
X-4243391Y-6189653D01*
X-4033376Y-6102662D01*
X-3844368Y-5976371D01*
X-3683629Y-5815632D01*
X-3557338Y-5626624D01*
X-3470347Y-5416609D01*
X-3426000Y-5193659D01*
X-3426000Y-4966341D01*
X3306000Y-4966341D01*
X3306000Y-5193659D01*
X3350347Y-5416609D01*
X3437338Y-5626624D01*
X3563629Y-5815632D01*
X3724368Y-5976371D01*
X3913376Y-6102662D01*
X4123391Y-6189653D01*
X4346341Y-6234000D01*
X4573659Y-6234000D01*
X4796609Y-6189653D01*
X5006624Y-6102662D01*
X5195632Y-5976371D01*
X5356371Y-5815632D01*
X5482662Y-5626624D01*
X5569653Y-5416609D01*
X5614000Y-5193659D01*
X5614000Y-4966341D01*
X5591471Y-4853076D01*
X7236000Y-4853076D01*
X7236000Y-5306924D01*
X7324541Y-5752052D01*
X7498222Y-6171353D01*
X7750366Y-6548714D01*
X8071286Y-6869634D01*
X8448647Y-7121778D01*
X8867948Y-7295459D01*
X9313076Y-7384000D01*
X9766924Y-7384000D01*
X10212052Y-7295459D01*
X10631353Y-7121778D01*
X11008714Y-6869634D01*
X11329634Y-6548714D01*
X11581778Y-6171353D01*
X11755459Y-5752052D01*
X11844000Y-5306924D01*
X11844000Y-4966341D01*
X13466000Y-4966341D01*
X13466000Y-5193659D01*
X13510347Y-5416609D01*
X13597338Y-5626624D01*
X13723629Y-5815632D01*
X13884368Y-5976371D01*
X14073376Y-6102662D01*
X14283391Y-6189653D01*
X14506341Y-6234000D01*
X14733659Y-6234000D01*
X14956609Y-6189653D01*
X15166624Y-6102662D01*
X15355632Y-5976371D01*
X15516371Y-5815632D01*
X15642662Y-5626624D01*
X15729653Y-5416609D01*
X15774000Y-5193659D01*
X15774000Y-4966341D01*
X15729653Y-4743391D01*
X15642662Y-4533376D01*
X15516371Y-4344368D01*
X15355632Y-4183629D01*
X15166624Y-4057338D01*
X14956609Y-3970347D01*
X14733659Y-3926000D01*
X14506341Y-3926000D01*
X14283391Y-3970347D01*
X14073376Y-4057338D01*
X13884368Y-4183629D01*
X13723629Y-4344368D01*
X13597338Y-4533376D01*
X13510347Y-4743391D01*
X13466000Y-4966341D01*
X11844000Y-4966341D01*
X11844000Y-4853076D01*
X11755459Y-4407948D01*
X11581778Y-3988647D01*
X11329634Y-3611286D01*
X11008714Y-3290366D01*
X10631353Y-3038222D01*
X10212052Y-2864541D01*
X9766924Y-2776000D01*
X9313076Y-2776000D01*
X8867948Y-2864541D01*
X8448647Y-3038222D01*
X8071286Y-3290366D01*
X7750366Y-3611286D01*
X7498222Y-3988647D01*
X7324541Y-4407948D01*
X7236000Y-4853076D01*
X5591471Y-4853076D01*
X5569653Y-4743391D01*
X5482662Y-4533376D01*
X5356371Y-4344368D01*
X5195632Y-4183629D01*
X5006624Y-4057338D01*
X4796609Y-3970347D01*
X4573659Y-3926000D01*
X4346341Y-3926000D01*
X4123391Y-3970347D01*
X3913376Y-4057338D01*
X3724368Y-4183629D01*
X3563629Y-4344368D01*
X3437338Y-4533376D01*
X3350347Y-4743391D01*
X3306000Y-4966341D01*
X-3426000Y-4966341D01*
X-3470347Y-4743391D01*
X-3557338Y-4533376D01*
X-3683629Y-4344368D01*
X-3844368Y-4183629D01*
X-4033376Y-4057338D01*
X-4243391Y-3970347D01*
X-4466341Y-3926000D01*
X-4693659Y-3926000D01*
X-4916609Y-3970347D01*
X-5126624Y-4057338D01*
X-5315632Y-4183629D01*
X-5476371Y-4344368D01*
X-5602662Y-4533376D01*
X-5689653Y-4743391D01*
X-5734000Y-4966341D01*
X-7356000Y-4966341D01*
X-7356000Y-4853076D01*
X-7444541Y-4407948D01*
X-7618222Y-3988647D01*
X-7870366Y-3611286D01*
X-8191286Y-3290366D01*
X-8568647Y-3038222D01*
X-8987948Y-2864541D01*
X-9433076Y-2776000D01*
X-9886924Y-2776000D01*
X-10332052Y-2864541D01*
X-10751353Y-3038222D01*
X-11128714Y-3290366D01*
X-11449634Y-3611286D01*
X-11701778Y-3988647D01*
X-11875459Y-4407948D01*
X-11964000Y-4853076D01*
X-13608529Y-4853076D01*
X-13630347Y-4743391D01*
X-13717338Y-4533376D01*
X-13843629Y-4344368D01*
X-14004368Y-4183629D01*
X-14193376Y-4057338D01*
X-14403391Y-3970347D01*
X-14626341Y-3926000D01*
X-14853659Y-3926000D01*
X-15076609Y-3970347D01*
X-15286624Y-4057338D01*
X-15475632Y-4183629D01*
X-15636371Y-4344368D01*
X-15762662Y-4533376D01*
X-15849653Y-4743391D01*
X-15894000Y-4966341D01*
X-24671000Y-4966341D01*
X-24671000Y-2401718D01*
X-7254000Y-2401718D01*
X-7254000Y-2678282D01*
X-7200045Y-2949532D01*
X-7094208Y-3205043D01*
X-6940558Y-3434998D01*
X-6744998Y-3630558D01*
X-6515043Y-3784208D01*
X-6259532Y-3890045D01*
X-5988282Y-3944000D01*
X-5711718Y-3944000D01*
X-5440468Y-3890045D01*
X-5184957Y-3784208D01*
X-4955002Y-3630558D01*
X-4759442Y-3434998D01*
X-4605792Y-3205043D01*
X-4499955Y-2949532D01*
X-4446000Y-2678282D01*
X-4446000Y-2401718D01*
X11946000Y-2401718D01*
X11946000Y-2678282D01*
X11999955Y-2949532D01*
X12105792Y-3205043D01*
X12259442Y-3434998D01*
X12455002Y-3630558D01*
X12684957Y-3784208D01*
X12940468Y-3890045D01*
X13211718Y-3944000D01*
X13488282Y-3944000D01*
X13759532Y-3890045D01*
X14015043Y-3784208D01*
X14244998Y-3630558D01*
X14440558Y-3434998D01*
X14594208Y-3205043D01*
X14700045Y-2949532D01*
X14754000Y-2678282D01*
X14754000Y-2401718D01*
X14700045Y-2130468D01*
X14594208Y-1874957D01*
X14440558Y-1645002D01*
X14244998Y-1449442D01*
X14015043Y-1295792D01*
X13759532Y-1189955D01*
X13488282Y-1136000D01*
X13211718Y-1136000D01*
X12940468Y-1189955D01*
X12684957Y-1295792D01*
X12455002Y-1449442D01*
X12259442Y-1645002D01*
X12105792Y-1874957D01*
X11999955Y-2130468D01*
X11946000Y-2401718D01*
X-4446000Y-2401718D01*
X-4499955Y-2130468D01*
X-4605792Y-1874957D01*
X-4759442Y-1645002D01*
X-4955002Y-1449442D01*
X-5184957Y-1295792D01*
X-5440468Y-1189955D01*
X-5711718Y-1136000D01*
X-5988282Y-1136000D01*
X-6259532Y-1189955D01*
X-6515043Y-1295792D01*
X-6744998Y-1449442D01*
X-6940558Y-1645002D01*
X-7094208Y-1874957D01*
X-7200045Y-2130468D01*
X-7254000Y-2401718D01*
X-24671000Y-2401718D01*
X-24671000Y-996717D01*
X-13087822Y-996717D01*
X-12965712Y-1184914D01*
X-12719834Y-1311529D01*
X-12453979Y-1387742D01*
X-12178363Y-1410626D01*
X-11903579Y-1379301D01*
X-11640187Y-1294969D01*
X-11434288Y-1184914D01*
X-11312178Y-996717D01*
X6112178Y-996717D01*
X6234288Y-1184914D01*
X6480166Y-1311529D01*
X6746021Y-1387742D01*
X7021637Y-1410626D01*
X7296421Y-1379301D01*
X7559813Y-1294969D01*
X7765712Y-1184914D01*
X7887822Y-996717D01*
X7000000Y-108894D01*
X6112178Y-996717D01*
X-11312178Y-996717D01*
X-12200000Y-108894D01*
X-13087822Y-996717D01*
X-24671000Y-996717D01*
X-24671000Y-21637D01*
X-13610626Y-21637D01*
X-13579301Y-296421D01*
X-13494969Y-559813D01*
X-13384914Y-765712D01*
X-13196717Y-887822D01*
X-12308894Y0D01*
X-12091106Y0D01*
X-11203283Y-887822D01*
X-11015086Y-765712D01*
X-10888471Y-519834D01*
X-10812258Y-253979D01*
X-10792967Y-21637D01*
X5589374Y-21637D01*
X5620699Y-296421D01*
X5705031Y-559813D01*
X5815086Y-765712D01*
X6003283Y-887822D01*
X6891106Y0D01*
X7108894Y0D01*
X7996717Y-887822D01*
X8184914Y-765712D01*
X8311529Y-519834D01*
X8387742Y-253979D01*
X8410626Y21637D01*
X8379301Y296421D01*
X8294969Y559813D01*
X8184914Y765712D01*
X7996717Y887822D01*
X7108894Y0D01*
X6891106Y0D01*
X6003283Y887822D01*
X5815086Y765712D01*
X5688471Y519834D01*
X5612258Y253979D01*
X5589374Y-21637D01*
X-10792967Y-21637D01*
X-10789374Y21637D01*
X-10820699Y296421D01*
X-10905031Y559813D01*
X-11015086Y765712D01*
X-11203283Y887822D01*
X-12091106Y0D01*
X-12308894Y0D01*
X-13196717Y887822D01*
X-13384914Y765712D01*
X-13511529Y519834D01*
X-13587742Y253979D01*
X-13610626Y-21637D01*
X-24671000Y-21637D01*
X-24671000Y996717D01*
X-13087822Y996717D01*
X-12200000Y108894D01*
X-11312178Y996717D01*
X6112178Y996717D01*
X7000000Y108894D01*
X7887822Y996717D01*
X7765712Y1184914D01*
X7519834Y1311529D01*
X7253979Y1387742D01*
X6978363Y1410626D01*
X6703579Y1379301D01*
X6440187Y1294969D01*
X6234288Y1184914D01*
X6112178Y996717D01*
X-11312178Y996717D01*
X-11434288Y1184914D01*
X-11680166Y1311529D01*
X-11946021Y1387742D01*
X-12221637Y1410626D01*
X-12496421Y1379301D01*
X-12759813Y1294969D01*
X-12965712Y1184914D01*
X-13087822Y996717D01*
X-24671000Y996717D01*
X-24671000Y6021008D01*
X-23000319Y6021008D01*
X-22977210Y5885571D01*
X-22928124Y5757243D01*
X-22910047Y5723424D01*
X-22794133Y5686561D01*
X-22410094Y6070600D01*
X-22794133Y6454639D01*
X-22910047Y6417776D01*
X-22966078Y6292325D01*
X-22996560Y6158353D01*
X-23000319Y6021008D01*
X-24671000Y6021008D01*
X-24671000Y9169400D01*
X-24307074Y9169400D01*
X-24305000Y9148342D01*
X-24304999Y8072868D01*
X-24307074Y8051800D01*
X-24298791Y7967701D01*
X-24274260Y7886835D01*
X-24234426Y7812308D01*
X-24194246Y7763349D01*
X-24194243Y7763346D01*
X-24180815Y7746984D01*
X-24164454Y7733557D01*
X-23483044Y7052146D01*
X-23469616Y7035784D01*
X-23453254Y7022356D01*
X-23453252Y7022354D01*
X-23404292Y6982174D01*
X-23329765Y6942339D01*
X-23248899Y6917808D01*
X-23164800Y6909525D01*
X-23143732Y6911600D01*
X-22853428Y6911600D01*
X-22842984Y6895970D01*
X-22745830Y6798816D01*
X-22631590Y6722483D01*
X-22592085Y6706120D01*
X-22614557Y6697524D01*
X-22648376Y6679447D01*
X-22685239Y6563533D01*
X-22301200Y6179494D01*
X-21917161Y6563533D01*
X-21954024Y6679447D01*
X-22012093Y6705383D01*
X-21970810Y6722483D01*
X-21856570Y6798816D01*
X-21759416Y6895970D01*
X-21683083Y7010210D01*
X-21666200Y7050969D01*
X-21649317Y7010210D01*
X-21572984Y6895970D01*
X-21475830Y6798816D01*
X-21361590Y6722483D01*
X-21320831Y6705600D01*
X-21361590Y6688717D01*
X-21475830Y6612384D01*
X-21572984Y6515230D01*
X-21649317Y6400990D01*
X-21665680Y6361485D01*
X-21674276Y6383957D01*
X-21692353Y6417776D01*
X-21808267Y6454639D01*
X-22192306Y6070600D01*
X-21808267Y5686561D01*
X-21692353Y5723424D01*
X-21666417Y5781493D01*
X-21649317Y5740210D01*
X-21572984Y5625970D01*
X-21475830Y5528816D01*
X-21361590Y5452483D01*
X-21320831Y5435600D01*
X-21361590Y5418717D01*
X-21475830Y5342384D01*
X-21572984Y5245230D01*
X-21649317Y5130990D01*
X-21666200Y5090231D01*
X-21683083Y5130990D01*
X-21759416Y5245230D01*
X-21856570Y5342384D01*
X-21970810Y5418717D01*
X-22010315Y5435080D01*
X-21987843Y5443676D01*
X-21954024Y5461753D01*
X-21917161Y5577667D01*
X-22301200Y5961706D01*
X-22685239Y5577667D01*
X-22648376Y5461753D01*
X-22590307Y5435817D01*
X-22631590Y5418717D01*
X-22745830Y5342384D01*
X-22842984Y5245230D01*
X-22919317Y5130990D01*
X-22971896Y5004053D01*
X-22998700Y4869298D01*
X-22998700Y4731902D01*
X-22971896Y4597147D01*
X-22919317Y4470210D01*
X-22842984Y4355970D01*
X-22745830Y4258816D01*
X-22631590Y4182483D01*
X-22504653Y4129904D01*
X-22369898Y4103100D01*
X-22232502Y4103100D01*
X-22222342Y4105121D01*
X-22287212Y4040251D01*
X-22374707Y3909305D01*
X-22434975Y3763805D01*
X-22465700Y3609344D01*
X-22465700Y3451856D01*
X-22434975Y3297395D01*
X-22374707Y3151895D01*
X-22287212Y3020949D01*
X-22175851Y2909588D01*
X-22044905Y2822093D01*
X-21899405Y2761825D01*
X-21744944Y2731100D01*
X-21587456Y2731100D01*
X-21432995Y2761825D01*
X-21287495Y2822093D01*
X-21156549Y2909588D01*
X-21045188Y3020949D01*
X-20957693Y3151895D01*
X-20897425Y3297395D01*
X-20866700Y3451856D01*
X-20866700Y3609344D01*
X-20897425Y3763805D01*
X-20957693Y3909305D01*
X-21045188Y4040251D01*
X-21110058Y4105121D01*
X-21099898Y4103100D01*
X-20962502Y4103100D01*
X-20827747Y4129904D01*
X-20700810Y4182483D01*
X-20586570Y4258816D01*
X-20489416Y4355970D01*
X-20478972Y4371600D01*
X-16353258Y4371600D01*
X-16332200Y4369526D01*
X-16311142Y4371600D01*
X-16311132Y4371600D01*
X-16248101Y4377808D01*
X-16167235Y4402339D01*
X-16092708Y4442174D01*
X-16027384Y4495784D01*
X-16013952Y4512151D01*
X-14875463Y5650640D01*
X-14852138Y5646000D01*
X-14713462Y5646000D01*
X-14577451Y5673055D01*
X-14490570Y5709042D01*
X-14490570Y5458400D01*
X-14481722Y5368567D01*
X-14455519Y5282186D01*
X-14412967Y5202577D01*
X-14355701Y5132799D01*
X-14285923Y5075533D01*
X-14246599Y5054514D01*
X-14246600Y4059658D01*
X-14248674Y4038600D01*
X-14246600Y4017542D01*
X-14246600Y4017533D01*
X-14240392Y3954502D01*
X-14215861Y3873636D01*
X-14209638Y3861994D01*
X-14176026Y3799108D01*
X-14154342Y3772686D01*
X-14122416Y3733784D01*
X-14106049Y3720352D01*
X-13424644Y3038946D01*
X-13411216Y3022584D01*
X-13394854Y3009156D01*
X-13394852Y3009154D01*
X-13345892Y2968974D01*
X-13271365Y2929139D01*
X-13190499Y2904608D01*
X-13106400Y2896325D01*
X-13085332Y2898400D01*
X5315921Y2898400D01*
X5320861Y2882114D01*
X5371037Y2788242D01*
X5438562Y2705962D01*
X5520842Y2638437D01*
X5614714Y2588261D01*
X5716572Y2557363D01*
X5822500Y2546930D01*
X6422500Y2546930D01*
X6528428Y2557363D01*
X6630286Y2588261D01*
X6724158Y2638437D01*
X6806438Y2705962D01*
X6873963Y2788242D01*
X6908256Y2852400D01*
X7004529Y2852400D01*
X7010399Y2792806D01*
X7027782Y2735501D01*
X7056010Y2682689D01*
X7093999Y2636399D01*
X7140289Y2598410D01*
X7193101Y2570182D01*
X7250406Y2552799D01*
X7310000Y2546929D01*
X7694500Y2548400D01*
X7770500Y2624400D01*
X7770500Y3250400D01*
X7924500Y3250400D01*
X7924500Y2624400D01*
X8000500Y2548400D01*
X8385000Y2546929D01*
X8444594Y2552799D01*
X8501899Y2570182D01*
X8554711Y2598410D01*
X8601001Y2636399D01*
X8638990Y2682689D01*
X8667218Y2735501D01*
X8684601Y2792806D01*
X8690471Y2852400D01*
X8689000Y3174400D01*
X8613000Y3250400D01*
X7924500Y3250400D01*
X7770500Y3250400D01*
X7082000Y3250400D01*
X7006000Y3174400D01*
X7004529Y2852400D01*
X6908256Y2852400D01*
X6924139Y2882114D01*
X6955037Y2983972D01*
X6965470Y3089900D01*
X6965470Y3564900D01*
X6955037Y3670828D01*
X6924139Y3772686D01*
X6908257Y3802400D01*
X7004529Y3802400D01*
X7006000Y3480400D01*
X7082000Y3404400D01*
X7770500Y3404400D01*
X7770500Y4030400D01*
X7924500Y4030400D01*
X7924500Y3404400D01*
X8613000Y3404400D01*
X8689000Y3480400D01*
X8690471Y3802400D01*
X8684601Y3861994D01*
X8667218Y3919299D01*
X8638990Y3972111D01*
X8601001Y4018401D01*
X8554711Y4056390D01*
X8501899Y4084618D01*
X8444594Y4102001D01*
X8385000Y4107871D01*
X8000500Y4106400D01*
X7924500Y4030400D01*
X7770500Y4030400D01*
X7694500Y4106400D01*
X7310000Y4107871D01*
X7250406Y4102001D01*
X7193101Y4084618D01*
X7140289Y4056390D01*
X7093999Y4018401D01*
X7056010Y3972111D01*
X7027782Y3919299D01*
X7010399Y3861994D01*
X7004529Y3802400D01*
X6908257Y3802400D01*
X6873963Y3866558D01*
X6806438Y3948838D01*
X6724158Y4016363D01*
X6630286Y4066539D01*
X6528428Y4097437D01*
X6509800Y4099272D01*
X6509800Y4530586D01*
X6540394Y4533600D01*
X6597698Y4550983D01*
X6650510Y4579211D01*
X6696800Y4617200D01*
X6734789Y4663490D01*
X6763017Y4716302D01*
X6780400Y4773606D01*
X6786270Y4833200D01*
X6786270Y5733200D01*
X6780400Y5792794D01*
X6763017Y5850098D01*
X6734789Y5902910D01*
X6696800Y5949200D01*
X6650510Y5987189D01*
X6597698Y6015417D01*
X6540394Y6032800D01*
X6480800Y6038670D01*
X5680800Y6038670D01*
X5621206Y6032800D01*
X5563902Y6015417D01*
X5511090Y5987189D01*
X5464800Y5949200D01*
X5426811Y5902910D01*
X5398583Y5850098D01*
X5381200Y5792794D01*
X5375330Y5733200D01*
X5375330Y4833200D01*
X5381200Y4773606D01*
X5398583Y4716302D01*
X5426811Y4663490D01*
X5464800Y4617200D01*
X5511090Y4579211D01*
X5563902Y4550983D01*
X5621206Y4533600D01*
X5651800Y4530586D01*
X5651801Y4077789D01*
X5614714Y4066539D01*
X5520842Y4016363D01*
X5438562Y3948838D01*
X5371037Y3866558D01*
X5320861Y3772686D01*
X5315921Y3756400D01*
X-12928702Y3756400D01*
X-13388600Y4216297D01*
X-13388600Y4833200D01*
X3475329Y4833200D01*
X3481199Y4773606D01*
X3498582Y4716301D01*
X3526810Y4663489D01*
X3564799Y4617199D01*
X3611089Y4579210D01*
X3663901Y4550982D01*
X3721206Y4533599D01*
X3780800Y4527729D01*
X4027800Y4529200D01*
X4103800Y4605200D01*
X4103800Y5206200D01*
X4257800Y5206200D01*
X4257800Y4605200D01*
X4333800Y4529200D01*
X4580800Y4527729D01*
X4640394Y4533599D01*
X4697699Y4550982D01*
X4750511Y4579210D01*
X4796801Y4617199D01*
X4834790Y4663489D01*
X4863018Y4716301D01*
X4880401Y4773606D01*
X4886271Y4833200D01*
X4884800Y5130200D01*
X4808800Y5206200D01*
X4257800Y5206200D01*
X4103800Y5206200D01*
X3552800Y5206200D01*
X3476800Y5130200D01*
X3475329Y4833200D01*
X-13388600Y4833200D01*
X-13388600Y5054514D01*
X-13349277Y5075533D01*
X-13293757Y5121098D01*
X-13266101Y5087399D01*
X-13219811Y5049410D01*
X-13166999Y5021182D01*
X-13109694Y5003799D01*
X-13050100Y4997929D01*
X-12835600Y4999400D01*
X-12759600Y5075400D01*
X-12759600Y5536400D01*
X-12605600Y5536400D01*
X-12605600Y5075400D01*
X-12529600Y4999400D01*
X-12315100Y4997929D01*
X-12255506Y5003799D01*
X-12198201Y5021182D01*
X-12145389Y5049410D01*
X-12099099Y5087399D01*
X-12061110Y5133689D01*
X-12032882Y5186501D01*
X-12015499Y5243806D01*
X-12009629Y5303400D01*
X-12011100Y5460400D01*
X-12087100Y5536400D01*
X-12605600Y5536400D01*
X-12759600Y5536400D01*
X-12779600Y5536400D01*
X-12779600Y5690400D01*
X-12759600Y5690400D01*
X-12759600Y6151400D01*
X-12605600Y6151400D01*
X-12605600Y5690400D01*
X-12087100Y5690400D01*
X-12011100Y5766400D01*
X-12009629Y5923400D01*
X-12015499Y5982994D01*
X-12032882Y6040299D01*
X-12061110Y6093111D01*
X-12099099Y6139401D01*
X-12145389Y6177390D01*
X-12198201Y6205618D01*
X-12255506Y6223001D01*
X-12315100Y6228871D01*
X-12529600Y6227400D01*
X-12605600Y6151400D01*
X-12759600Y6151400D01*
X-12835600Y6227400D01*
X-13050100Y6228871D01*
X-13109694Y6223001D01*
X-13166999Y6205618D01*
X-13219811Y6177390D01*
X-13266101Y6139401D01*
X-13293757Y6105702D01*
X-13349277Y6151267D01*
X-13428886Y6193819D01*
X-13515267Y6220022D01*
X-13605100Y6228870D01*
X-13614600Y6228870D01*
X-13614600Y6773374D01*
X-13613130Y6788300D01*
X-13613130Y7119657D01*
X-13612525Y7125800D01*
X-13613130Y7131943D01*
X-13613130Y7222800D01*
X-13474070Y7222800D01*
X-13474070Y6788300D01*
X-13468600Y6732759D01*
X-13468600Y6497800D01*
X-13392600Y6421800D01*
X-13351968Y6427685D01*
X-13295089Y6446412D01*
X-13269921Y6460636D01*
X-13246916Y6448340D01*
X-13177887Y6427400D01*
X-13106100Y6420330D01*
X-12981100Y6420330D01*
X-12909313Y6427400D01*
X-12840284Y6448340D01*
X-12793600Y6473293D01*
X-12746916Y6448340D01*
X-12677887Y6427400D01*
X-12606100Y6420330D01*
X-12481100Y6420330D01*
X-12409313Y6427400D01*
X-12340284Y6448340D01*
X-12293600Y6473293D01*
X-12246916Y6448340D01*
X-12177887Y6427400D01*
X-12106100Y6420330D01*
X-11981100Y6420330D01*
X-11909313Y6427400D01*
X-11840284Y6448340D01*
X-11793600Y6473293D01*
X-11746916Y6448340D01*
X-11677887Y6427400D01*
X-11606100Y6420330D01*
X-11481100Y6420330D01*
X-11472599Y6421167D01*
X-11472599Y6060868D01*
X-11474674Y6039800D01*
X-11472599Y6018732D01*
X-11471903Y6011661D01*
X-11466391Y5955701D01*
X-11441860Y5874835D01*
X-11402026Y5800308D01*
X-11361846Y5751349D01*
X-11361843Y5751346D01*
X-11348415Y5734984D01*
X-11342264Y5729936D01*
X-11346600Y5708138D01*
X-11346600Y5569462D01*
X-11319545Y5433451D01*
X-11266476Y5305331D01*
X-11189432Y5190026D01*
X-11091374Y5091968D01*
X-10976069Y5014924D01*
X-10847949Y4961855D01*
X-10711938Y4934800D01*
X-10573262Y4934800D01*
X-10437251Y4961855D01*
X-10309131Y5014924D01*
X-10193826Y5091968D01*
X-10095768Y5190026D01*
X-10018724Y5305331D01*
X-9965655Y5433451D01*
X-9938600Y5569462D01*
X-9938600Y5708138D01*
X-9943585Y5733200D01*
X3475329Y5733200D01*
X3476800Y5436200D01*
X3552800Y5360200D01*
X4103800Y5360200D01*
X4103800Y5961200D01*
X4257800Y5961200D01*
X4257800Y5360200D01*
X4808800Y5360200D01*
X4884800Y5436200D01*
X4886271Y5733200D01*
X4880401Y5792794D01*
X4863018Y5850099D01*
X4834790Y5902911D01*
X4796801Y5949201D01*
X4750511Y5987190D01*
X4697699Y6015418D01*
X4640394Y6032801D01*
X4580800Y6038671D01*
X4333800Y6037200D01*
X4257800Y5961200D01*
X4103800Y5961200D01*
X4027800Y6037200D01*
X3780800Y6038671D01*
X3721206Y6032801D01*
X3663901Y6015418D01*
X3611089Y5987190D01*
X3564799Y5949201D01*
X3526810Y5902911D01*
X3498582Y5850099D01*
X3481199Y5792794D01*
X3475329Y5733200D01*
X-9943585Y5733200D01*
X-9965655Y5844149D01*
X-10018724Y5972269D01*
X-10095768Y6087574D01*
X-10106994Y6098800D01*
X-10059645Y6098800D01*
X-10046432Y6079026D01*
X-9948374Y5980968D01*
X-9833069Y5903924D01*
X-9704949Y5850855D01*
X-9568938Y5823800D01*
X-9430262Y5823800D01*
X-9294251Y5850855D01*
X-9166131Y5903924D01*
X-9050826Y5980968D01*
X-8952768Y6079026D01*
X-8875724Y6194331D01*
X-8822655Y6322451D01*
X-8795600Y6458462D01*
X-8795600Y6597138D01*
X-8822655Y6733149D01*
X-8875724Y6861269D01*
X-8952768Y6976574D01*
X-9050826Y7074632D01*
X-9140125Y7134300D01*
X822329Y7134300D01*
X828199Y7074706D01*
X845582Y7017401D01*
X873810Y6964589D01*
X911799Y6918299D01*
X958089Y6880310D01*
X1010901Y6852082D01*
X1068206Y6834699D01*
X1127800Y6828829D01*
X1294800Y6830300D01*
X1370800Y6906300D01*
X1370800Y7414800D01*
X1524800Y7414800D01*
X1524800Y6906300D01*
X1600800Y6830300D01*
X1767800Y6828829D01*
X1827394Y6834699D01*
X1884699Y6852082D01*
X1937511Y6880310D01*
X1983801Y6918299D01*
X2021790Y6964589D01*
X2050018Y7017401D01*
X2067401Y7074706D01*
X2073271Y7134300D01*
X2071800Y7338800D01*
X1995800Y7414800D01*
X1524800Y7414800D01*
X1370800Y7414800D01*
X899800Y7414800D01*
X823800Y7338800D01*
X822329Y7134300D01*
X-9140125Y7134300D01*
X-9166131Y7151676D01*
X-9294251Y7204745D01*
X-9430262Y7231800D01*
X-9568938Y7231800D01*
X-9704949Y7204745D01*
X-9833069Y7151676D01*
X-9948374Y7074632D01*
X-10046432Y6976574D01*
X-10059645Y6956800D01*
X-10113130Y6956800D01*
X-10113130Y7395330D01*
X-9506100Y7395330D01*
X-9434313Y7402400D01*
X-9365284Y7423340D01*
X-9301667Y7457344D01*
X-9245906Y7503106D01*
X-9200144Y7558867D01*
X-9166140Y7622484D01*
X-9145200Y7691513D01*
X-9138130Y7763300D01*
X-9138130Y7888300D01*
X-9145200Y7960087D01*
X-9166140Y8029116D01*
X-9191093Y8075800D01*
X-9166140Y8122484D01*
X-9145200Y8191513D01*
X-9138130Y8263300D01*
X-9138130Y8388300D01*
X-9145200Y8460087D01*
X-9166140Y8529116D01*
X-9191093Y8575800D01*
X-9166140Y8622484D01*
X-9145200Y8691513D01*
X-9138130Y8763300D01*
X-9138130Y8888300D01*
X-9145200Y8960087D01*
X-9166140Y9029116D01*
X-9191093Y9075800D01*
X-9166140Y9122484D01*
X-9145200Y9191513D01*
X-9138130Y9263300D01*
X-9138130Y9388300D01*
X-9145200Y9460087D01*
X-9166140Y9529116D01*
X-9191093Y9575800D01*
X-9166140Y9622484D01*
X-9163473Y9631276D01*
X-9132034Y9584224D01*
X-9033976Y9486166D01*
X-8918671Y9409122D01*
X-8790551Y9356053D01*
X-8654540Y9328998D01*
X-8515864Y9328998D01*
X-8492539Y9333638D01*
X-8269636Y9110735D01*
X-8256204Y9094368D01*
X-8190880Y9040758D01*
X-8116353Y9000923D01*
X-8035487Y8976392D01*
X-7972456Y8970184D01*
X-7972447Y8970184D01*
X-7951389Y8968110D01*
X-7930331Y8970184D01*
X-343396Y8970184D01*
X-330183Y8950410D01*
X-232125Y8852352D01*
X-116820Y8775308D01*
X11300Y8722239D01*
X147311Y8695184D01*
X285987Y8695184D01*
X421998Y8722239D01*
X550118Y8775308D01*
X665423Y8852352D01*
X763481Y8950410D01*
X840525Y9065715D01*
X871469Y9140421D01*
X889704Y9122187D01*
X857762Y9062428D01*
X831274Y8975109D01*
X822330Y8884300D01*
X822330Y8489300D01*
X831274Y8398491D01*
X857762Y8311172D01*
X900776Y8230699D01*
X958663Y8160163D01*
X1000404Y8125907D01*
X958089Y8103290D01*
X911799Y8065301D01*
X873810Y8019011D01*
X845582Y7966199D01*
X828199Y7908894D01*
X822329Y7849300D01*
X823800Y7644800D01*
X899800Y7568800D01*
X1370800Y7568800D01*
X1370800Y7588800D01*
X1524800Y7588800D01*
X1524800Y7568800D01*
X1995800Y7568800D01*
X2071800Y7644800D01*
X2073271Y7849300D01*
X2067401Y7908894D01*
X2050018Y7966199D01*
X2021790Y8019011D01*
X1983801Y8065301D01*
X1937511Y8103290D01*
X1895196Y8125907D01*
X1936937Y8160163D01*
X1994824Y8230699D01*
X2037838Y8311172D01*
X2064326Y8398491D01*
X2073270Y8489300D01*
X2073270Y8583552D01*
X2074706Y8582374D01*
X2149233Y8542539D01*
X2230099Y8518008D01*
X2293130Y8511800D01*
X2293139Y8511800D01*
X2314197Y8509726D01*
X2335255Y8511800D01*
X4273421Y8511800D01*
X4278361Y8495514D01*
X4328537Y8401642D01*
X4396062Y8319362D01*
X4478342Y8251837D01*
X4572214Y8201661D01*
X4651000Y8177762D01*
X4651001Y8026671D01*
X4613902Y8015417D01*
X4561090Y7987189D01*
X4514800Y7949200D01*
X4476811Y7902910D01*
X4448583Y7850098D01*
X4431200Y7792794D01*
X4425330Y7733200D01*
X4425330Y6833200D01*
X4431200Y6773606D01*
X4448583Y6716302D01*
X4476811Y6663490D01*
X4514800Y6617200D01*
X4561090Y6579211D01*
X4613902Y6550983D01*
X4671206Y6533600D01*
X4730800Y6527730D01*
X5530800Y6527730D01*
X5590394Y6533600D01*
X5647698Y6550983D01*
X5700510Y6579211D01*
X5746800Y6617200D01*
X5784789Y6663490D01*
X5813017Y6716302D01*
X5830400Y6773606D01*
X5836270Y6833200D01*
X5836270Y6854200D01*
X8918565Y6854200D01*
X8927368Y6841026D01*
X9025426Y6742968D01*
X9140731Y6665924D01*
X9268851Y6612855D01*
X9404862Y6585800D01*
X9543538Y6585800D01*
X9679549Y6612855D01*
X9807669Y6665924D01*
X9922974Y6742968D01*
X10021032Y6841026D01*
X10098076Y6956331D01*
X10151145Y7084451D01*
X10178200Y7220462D01*
X10178200Y7359138D01*
X10151145Y7495149D01*
X10098076Y7623269D01*
X10021032Y7738574D01*
X9922974Y7836632D01*
X9807669Y7913676D01*
X9679549Y7966745D01*
X9543538Y7993800D01*
X9404862Y7993800D01*
X9268851Y7966745D01*
X9140731Y7913676D01*
X9025426Y7836632D01*
X8927368Y7738574D01*
X8909746Y7712200D01*
X5836270Y7712200D01*
X5836270Y7733200D01*
X5830400Y7792794D01*
X5813017Y7850098D01*
X5784789Y7902910D01*
X5746800Y7949200D01*
X5700510Y7987189D01*
X5647698Y8015417D01*
X5590394Y8032800D01*
X5530800Y8038670D01*
X5509000Y8038670D01*
X5509000Y8177762D01*
X5587786Y8201661D01*
X5681658Y8251837D01*
X5763938Y8319362D01*
X5831463Y8401642D01*
X5865756Y8465800D01*
X5962029Y8465800D01*
X5967899Y8406206D01*
X5985282Y8348901D01*
X6013510Y8296089D01*
X6051499Y8249799D01*
X6097789Y8211810D01*
X6150601Y8183582D01*
X6207906Y8166199D01*
X6267500Y8160329D01*
X6652000Y8161800D01*
X6728000Y8237800D01*
X6728000Y8863800D01*
X6882000Y8863800D01*
X6882000Y8237800D01*
X6958000Y8161800D01*
X7342500Y8160329D01*
X7402094Y8166199D01*
X7459399Y8183582D01*
X7512211Y8211810D01*
X7558501Y8249799D01*
X7596490Y8296089D01*
X7624718Y8348901D01*
X7642101Y8406206D01*
X7647971Y8465800D01*
X7646500Y8787800D01*
X7570500Y8863800D01*
X6882000Y8863800D01*
X6728000Y8863800D01*
X6039500Y8863800D01*
X5963500Y8787800D01*
X5962029Y8465800D01*
X5865756Y8465800D01*
X5881639Y8495514D01*
X5912537Y8597372D01*
X5922970Y8703300D01*
X5922970Y9178300D01*
X5912537Y9284228D01*
X5881639Y9386086D01*
X5865757Y9415800D01*
X5962029Y9415800D01*
X5963500Y9093800D01*
X6039500Y9017800D01*
X6728000Y9017800D01*
X6728000Y9643800D01*
X6882000Y9643800D01*
X6882000Y9017800D01*
X7570500Y9017800D01*
X7646500Y9093800D01*
X7647971Y9415800D01*
X7642101Y9475394D01*
X7624718Y9532699D01*
X7596490Y9585511D01*
X7558501Y9631801D01*
X7512211Y9669790D01*
X7459399Y9698018D01*
X7402094Y9715401D01*
X7342500Y9721271D01*
X6958000Y9719800D01*
X6882000Y9643800D01*
X6728000Y9643800D01*
X6652000Y9719800D01*
X6267500Y9721271D01*
X6207906Y9715401D01*
X6150601Y9698018D01*
X6097789Y9669790D01*
X6051499Y9631801D01*
X6013510Y9585511D01*
X5985282Y9532699D01*
X5967899Y9475394D01*
X5962029Y9415800D01*
X5865757Y9415800D01*
X5831463Y9479958D01*
X5763938Y9562238D01*
X5681658Y9629763D01*
X5587786Y9679939D01*
X5485928Y9710837D01*
X5380000Y9721270D01*
X4780000Y9721270D01*
X4674072Y9710837D01*
X4572214Y9679939D01*
X4478342Y9629763D01*
X4396062Y9562238D01*
X4328537Y9479958D01*
X4278361Y9386086D01*
X4273421Y9369800D01*
X2491895Y9369800D01*
X1924729Y9936966D01*
X1959594Y9940400D01*
X2000000Y9952657D01*
X2040406Y9940400D01*
X2100000Y9934530D01*
X2400000Y9934530D01*
X2459594Y9940400D01*
X2500058Y9952675D01*
X2539511Y9940578D01*
X2597000Y9936000D01*
X2673000Y10012000D01*
X2673000Y10105858D01*
X2682217Y10123102D01*
X2699600Y10180406D01*
X2705470Y10240000D01*
X2705470Y10513000D01*
X2827000Y10513000D01*
X2827000Y10012000D01*
X2903000Y9936000D01*
X2960489Y9940578D01*
X3017741Y9958132D01*
X3070469Y9986518D01*
X3116645Y10024646D01*
X3154496Y10071049D01*
X3182566Y10123945D01*
X3199778Y10181301D01*
X3205470Y10240913D01*
X3204000Y10437000D01*
X3128000Y10513000D01*
X2827000Y10513000D01*
X2705470Y10513000D01*
X2705470Y10940000D01*
X2699600Y10999594D01*
X2682217Y11056898D01*
X2673000Y11074142D01*
X2673000Y11168000D01*
X2827000Y11168000D01*
X2827000Y10667000D01*
X3128000Y10667000D01*
X3204000Y10743000D01*
X3204113Y10758032D01*
X3302057Y10692588D01*
X3416528Y10645173D01*
X3538049Y10621000D01*
X3661951Y10621000D01*
X3783472Y10645173D01*
X3897943Y10692588D01*
X4000964Y10761424D01*
X4088576Y10849036D01*
X4157412Y10952057D01*
X4204827Y11066528D01*
X4229000Y11188049D01*
X4229000Y11311951D01*
X4204827Y11433472D01*
X4157412Y11547943D01*
X4088576Y11650964D01*
X4000964Y11738576D01*
X3897943Y11807412D01*
X3783472Y11854827D01*
X3661951Y11879000D01*
X3538049Y11879000D01*
X3443440Y11860180D01*
X3449778Y11881301D01*
X3455470Y11940913D01*
X3454000Y12137000D01*
X3378000Y12213000D01*
X3077000Y12213000D01*
X3077000Y11712000D01*
X3124730Y11664270D01*
X3111424Y11650964D01*
X3042588Y11547943D01*
X2995173Y11433472D01*
X2971000Y11311951D01*
X2971000Y11236199D01*
X2960489Y11239422D01*
X2903000Y11244000D01*
X2827000Y11168000D01*
X2673000Y11168000D01*
X2597000Y11244000D01*
X2539511Y11239422D01*
X2500058Y11227325D01*
X2459594Y11239600D01*
X2400000Y11245470D01*
X2100000Y11245470D01*
X2040406Y11239600D01*
X2000000Y11227343D01*
X1959594Y11239600D01*
X1900000Y11245470D01*
X1890475Y11245470D01*
X1898261Y11260037D01*
X1922792Y11340903D01*
X1929000Y11403934D01*
X1929000Y11403943D01*
X1931074Y11425001D01*
X1929000Y11446059D01*
X1929000Y11634530D01*
X2150000Y11634530D01*
X2209594Y11640400D01*
X2250000Y11652657D01*
X2290406Y11640400D01*
X2350000Y11634530D01*
X2650000Y11634530D01*
X2709594Y11640400D01*
X2750058Y11652675D01*
X2789511Y11640578D01*
X2847000Y11636000D01*
X2923000Y11712000D01*
X2923000Y11805858D01*
X2932217Y11823102D01*
X2949600Y11880406D01*
X2955470Y11940000D01*
X2955470Y12640000D01*
X2949600Y12699594D01*
X2932217Y12756898D01*
X2923000Y12774142D01*
X2923000Y12868000D01*
X3077000Y12868000D01*
X3077000Y12367000D01*
X3378000Y12367000D01*
X3454000Y12443000D01*
X3455470Y12639087D01*
X3449778Y12698699D01*
X3432566Y12756055D01*
X3404496Y12808951D01*
X3366645Y12855354D01*
X3320469Y12893482D01*
X3267741Y12921868D01*
X3210489Y12939422D01*
X3153000Y12944000D01*
X3077000Y12868000D01*
X2923000Y12868000D01*
X2847000Y12944000D01*
X2789511Y12939422D01*
X2750058Y12927325D01*
X2709594Y12939600D01*
X2650000Y12945470D01*
X2350000Y12945470D01*
X2290406Y12939600D01*
X2250000Y12927343D01*
X2209594Y12939600D01*
X2150000Y12945470D01*
X2118961Y12945470D01*
X2122476Y12950731D01*
X2175545Y13078851D01*
X2202600Y13214862D01*
X2202600Y13353538D01*
X2175545Y13489549D01*
X2122476Y13617669D01*
X2045432Y13732974D01*
X1947374Y13831032D01*
X1832069Y13908076D01*
X1703949Y13961145D01*
X1567938Y13988200D01*
X1429262Y13988200D01*
X1293251Y13961145D01*
X1165131Y13908076D01*
X1049826Y13831032D01*
X951768Y13732974D01*
X902649Y13659462D01*
X877876Y13719269D01*
X800832Y13834574D01*
X702774Y13932632D01*
X587469Y14009676D01*
X459349Y14062745D01*
X323338Y14089800D01*
X184662Y14089800D01*
X48651Y14062745D01*
X-79469Y14009676D01*
X-194774Y13932632D01*
X-292832Y13834574D01*
X-315761Y13800259D01*
X-1459754Y14944251D01*
X-1473184Y14960616D01*
X-1538508Y15014226D01*
X-1613035Y15054061D01*
X-1693901Y15078592D01*
X-1756932Y15084800D01*
X-1756942Y15084800D01*
X-1778000Y15086874D01*
X-1799058Y15084800D01*
X-5711649Y15084800D01*
X-5726776Y15113101D01*
X-5784663Y15183637D01*
X-5855199Y15241524D01*
X-5935672Y15284538D01*
X-6022991Y15311026D01*
X-6113800Y15319970D01*
X-6433800Y15319970D01*
X-6524609Y15311026D01*
X-6611928Y15284538D01*
X-6692401Y15241524D01*
X-6762937Y15183637D01*
X-6820824Y15113101D01*
X-6863838Y15032628D01*
X-6890326Y14945309D01*
X-6899270Y14854500D01*
X-6899270Y14459500D01*
X-6890326Y14368691D01*
X-6863838Y14281372D01*
X-6820824Y14200899D01*
X-6762937Y14130363D01*
X-6721196Y14096107D01*
X-6763511Y14073490D01*
X-6809801Y14035501D01*
X-6847790Y13989211D01*
X-6876018Y13936399D01*
X-6893401Y13879094D01*
X-6899271Y13819500D01*
X-6897800Y13615000D01*
X-6821800Y13539000D01*
X-6350800Y13539000D01*
X-6350800Y13559000D01*
X-6196800Y13559000D01*
X-6196800Y13539000D01*
X-5725800Y13539000D01*
X-5649800Y13615000D01*
X-5648329Y13819500D01*
X-5654199Y13879094D01*
X-5671582Y13936399D01*
X-5699810Y13989211D01*
X-5737799Y14035501D01*
X-5784089Y14073490D01*
X-5826404Y14096107D01*
X-5784663Y14130363D01*
X-5726776Y14200899D01*
X-5712932Y14226800D01*
X-1955697Y14226800D01*
X-1772764Y14043867D01*
X-1805549Y14037345D01*
X-1933669Y13984276D01*
X-2048974Y13907232D01*
X-2147032Y13809174D01*
X-2224076Y13693869D01*
X-2277145Y13565749D01*
X-2304200Y13429738D01*
X-2304200Y13291062D01*
X-2277145Y13155051D01*
X-2224076Y13026931D01*
X-2168433Y12943654D01*
X-2209594Y12939600D01*
X-2250058Y12927325D01*
X-2289511Y12939422D01*
X-2347000Y12944000D01*
X-2423000Y12868000D01*
X-2423000Y12774142D01*
X-2432217Y12756898D01*
X-2449600Y12699594D01*
X-2455470Y12640000D01*
X-2455470Y11940000D01*
X-2449600Y11880406D01*
X-2432217Y11823102D01*
X-2423000Y11805858D01*
X-2423000Y11712000D01*
X-2347000Y11636000D01*
X-2289511Y11640578D01*
X-2250058Y11652675D01*
X-2209594Y11640400D01*
X-2150000Y11634530D01*
X-1850000Y11634530D01*
X-1790406Y11640400D01*
X-1750000Y11652657D01*
X-1709594Y11640400D01*
X-1650000Y11634530D01*
X-1428999Y11634530D01*
X-1428999Y11602699D01*
X-1538448Y11493251D01*
X-1554816Y11479818D01*
X-1571915Y11458982D01*
X-1608426Y11414494D01*
X-1627333Y11379120D01*
X-1648261Y11339966D01*
X-1672792Y11259100D01*
X-1674134Y11245470D01*
X-1900000Y11245470D01*
X-1959594Y11239600D01*
X-2000000Y11227343D01*
X-2040406Y11239600D01*
X-2100000Y11245470D01*
X-2400000Y11245470D01*
X-2459594Y11239600D01*
X-2500058Y11227325D01*
X-2539511Y11239422D01*
X-2597000Y11244000D01*
X-2673000Y11168000D01*
X-2673000Y11074142D01*
X-2682217Y11056898D01*
X-2699600Y10999594D01*
X-2705470Y10940000D01*
X-2705470Y10493000D01*
X-2827000Y10493000D01*
X-2827000Y10513000D01*
X-3128000Y10513000D01*
X-3204000Y10437000D01*
X-3204697Y10343999D01*
X-7019501Y10343999D01*
X-7789752Y11114249D01*
X-7803184Y11130616D01*
X-7868508Y11184226D01*
X-7943035Y11224061D01*
X-8023901Y11248592D01*
X-8086932Y11254800D01*
X-8086942Y11254800D01*
X-8108000Y11256874D01*
X-8129058Y11254800D01*
X-8150446Y11254800D01*
X-8136426Y11264168D01*
X-8120778Y11279816D01*
X-4427535Y11279816D01*
X-4427311Y11247699D01*
X-4427535Y11215648D01*
X-4427053Y11210728D01*
X-4420423Y11147648D01*
X-4413964Y11116184D01*
X-4407960Y11084705D01*
X-4406532Y11079973D01*
X-4387776Y11019380D01*
X-4375336Y10989787D01*
X-4363320Y10960047D01*
X-4361000Y10955683D01*
X-4330831Y10899888D01*
X-4312885Y10873283D01*
X-4295321Y10846443D01*
X-4292197Y10842612D01*
X-4251766Y10793740D01*
X-4228976Y10771108D01*
X-4206553Y10748211D01*
X-4202750Y10745065D01*
X-4202743Y10745058D01*
X-4202735Y10745053D01*
X-4153590Y10704971D01*
X-4126884Y10687228D01*
X-4100394Y10669089D01*
X-4096046Y10666738D01*
X-4040041Y10636960D01*
X-4010368Y10624729D01*
X-3980887Y10612094D01*
X-3976165Y10610632D01*
X-3915443Y10592299D01*
X-3883959Y10586065D01*
X-3852589Y10579397D01*
X-3847673Y10578880D01*
X-3784547Y10572690D01*
X-3784541Y10572690D01*
X-3767382Y10571000D01*
X-3432618Y10571000D01*
X-3415134Y10572722D01*
X-3410920Y10572722D01*
X-3406004Y10573238D01*
X-3342971Y10580308D01*
X-3311569Y10586983D01*
X-3280112Y10593211D01*
X-3275390Y10594672D01*
X-3214930Y10613851D01*
X-3185375Y10626518D01*
X-3155777Y10638718D01*
X-3151428Y10641068D01*
X-3104259Y10667000D01*
X-2827000Y10667000D01*
X-2827000Y10983920D01*
X-2822923Y10994010D01*
X-2810496Y11023575D01*
X-2809067Y11028307D01*
X-2791159Y11089155D01*
X-2785146Y11120681D01*
X-2778697Y11152096D01*
X-2778214Y11157016D01*
X-2772465Y11220184D01*
X-2772689Y11252302D01*
X-2772465Y11284353D01*
X-2772947Y11289272D01*
X-2779577Y11352353D01*
X-2786036Y11383818D01*
X-2792040Y11415295D01*
X-2793469Y11420028D01*
X-2793469Y11420030D01*
X-2793471Y11420036D01*
X-2812224Y11480620D01*
X-2824669Y11510225D01*
X-2836680Y11539953D01*
X-2839000Y11544317D01*
X-2869169Y11600112D01*
X-2887115Y11626717D01*
X-2904679Y11653557D01*
X-2907803Y11657388D01*
X-2948234Y11706260D01*
X-2971008Y11728875D01*
X-2993447Y11751789D01*
X-2997256Y11754940D01*
X-3046410Y11795029D01*
X-3073126Y11812779D01*
X-3099606Y11830910D01*
X-3103954Y11833262D01*
X-3159958Y11863040D01*
X-3189657Y11875281D01*
X-3219113Y11887906D01*
X-3223831Y11889367D01*
X-3223837Y11889369D01*
X-3284557Y11907701D01*
X-3316041Y11913935D01*
X-3347411Y11920603D01*
X-3352327Y11921120D01*
X-3415453Y11927310D01*
X-3415459Y11927310D01*
X-3432618Y11929000D01*
X-3767382Y11929000D01*
X-3784866Y11927278D01*
X-3789081Y11927278D01*
X-3793997Y11926762D01*
X-3857029Y11919692D01*
X-3888431Y11913017D01*
X-3919888Y11906789D01*
X-3924610Y11905328D01*
X-3985070Y11886149D01*
X-4014625Y11873482D01*
X-4044223Y11861282D01*
X-4048567Y11858934D01*
X-4048572Y11858932D01*
X-4048576Y11858929D01*
X-4104155Y11828375D01*
X-4130677Y11810215D01*
X-4157349Y11792494D01*
X-4161158Y11789344D01*
X-4161161Y11789342D01*
X-4161164Y11789339D01*
X-4209748Y11748573D01*
X-4232210Y11725635D01*
X-4254968Y11703035D01*
X-4258093Y11699205D01*
X-4297837Y11649772D01*
X-4315410Y11622917D01*
X-4333342Y11596331D01*
X-4335663Y11591967D01*
X-4365050Y11535756D01*
X-4377066Y11506017D01*
X-4389504Y11476426D01*
X-4390933Y11471694D01*
X-4408841Y11410845D01*
X-4414854Y11379319D01*
X-4421303Y11347904D01*
X-4421786Y11342984D01*
X-4427535Y11279816D01*
X-8120778Y11279816D01*
X-8038368Y11362226D01*
X-7961324Y11477531D01*
X-7908255Y11605651D01*
X-7881200Y11741662D01*
X-7881200Y11880338D01*
X-7893249Y11940913D01*
X-2955470Y11940913D01*
X-2949778Y11881301D01*
X-2932566Y11823945D01*
X-2904496Y11771049D01*
X-2866645Y11724646D01*
X-2820469Y11686518D01*
X-2767741Y11658132D01*
X-2710489Y11640578D01*
X-2653000Y11636000D01*
X-2577000Y11712000D01*
X-2577000Y12213000D01*
X-2878000Y12213000D01*
X-2954000Y12137000D01*
X-2955470Y11940913D01*
X-7893249Y11940913D01*
X-7908255Y12016349D01*
X-7961324Y12144469D01*
X-8038368Y12259774D01*
X-8136426Y12357832D01*
X-8251731Y12434876D01*
X-8379851Y12487945D01*
X-8515862Y12515000D01*
X-8654538Y12515000D01*
X-8790549Y12487945D01*
X-8918669Y12434876D01*
X-9033974Y12357832D01*
X-9132032Y12259774D01*
X-9209076Y12144469D01*
X-9262145Y12016349D01*
X-9289200Y11880338D01*
X-9289200Y11754800D01*
X-9491174Y11754800D01*
X-9506100Y11756270D01*
X-10113130Y11756270D01*
X-10113130Y12363300D01*
X-10120200Y12435087D01*
X-10141140Y12504116D01*
X-10175144Y12567733D01*
X-10220906Y12623494D01*
X-10239906Y12639087D01*
X-2955470Y12639087D01*
X-2954000Y12443000D01*
X-2878000Y12367000D01*
X-2577000Y12367000D01*
X-2577000Y12868000D01*
X-2653000Y12944000D01*
X-2710489Y12939422D01*
X-2767741Y12921868D01*
X-2820469Y12893482D01*
X-2866645Y12855354D01*
X-2904496Y12808951D01*
X-2932566Y12756055D01*
X-2949778Y12698699D01*
X-2955470Y12639087D01*
X-10239906Y12639087D01*
X-10276667Y12669256D01*
X-10340284Y12703260D01*
X-10409313Y12724200D01*
X-10481100Y12731270D01*
X-10606100Y12731270D01*
X-10614600Y12730433D01*
X-10614600Y13104500D01*
X-6899271Y13104500D01*
X-6893401Y13044906D01*
X-6876018Y12987601D01*
X-6847790Y12934789D01*
X-6809801Y12888499D01*
X-6763511Y12850510D01*
X-6710699Y12822282D01*
X-6653394Y12804899D01*
X-6593800Y12799029D01*
X-6426800Y12800500D01*
X-6350800Y12876500D01*
X-6350800Y13385000D01*
X-6196800Y13385000D01*
X-6196800Y12876500D01*
X-6120800Y12800500D01*
X-5953800Y12799029D01*
X-5894206Y12804899D01*
X-5836901Y12822282D01*
X-5784089Y12850510D01*
X-5737799Y12888499D01*
X-5699810Y12934789D01*
X-5671582Y12987601D01*
X-5654199Y13044906D01*
X-5648329Y13104500D01*
X-5649800Y13309000D01*
X-5725800Y13385000D01*
X-6196800Y13385000D01*
X-6350800Y13385000D01*
X-6821800Y13385000D01*
X-6897800Y13309000D01*
X-6899271Y13104500D01*
X-10614600Y13104500D01*
X-10614600Y13365903D01*
X-10405063Y13575440D01*
X-10381738Y13570800D01*
X-10243062Y13570800D01*
X-10107051Y13597855D01*
X-9978931Y13650924D01*
X-9863626Y13727968D01*
X-9765568Y13826026D01*
X-9688524Y13941331D01*
X-9635455Y14069451D01*
X-9608400Y14205462D01*
X-9608400Y14344138D01*
X-9635455Y14480149D01*
X-9688524Y14608269D01*
X-9765568Y14723574D01*
X-9863626Y14821632D01*
X-9978931Y14898676D01*
X-10107051Y14951745D01*
X-10243062Y14978800D01*
X-10381738Y14978800D01*
X-10517749Y14951745D01*
X-10645869Y14898676D01*
X-10761174Y14821632D01*
X-10859232Y14723574D01*
X-10936276Y14608269D01*
X-10989345Y14480149D01*
X-11016400Y14344138D01*
X-11016400Y14205462D01*
X-11011760Y14182137D01*
X-11332054Y13861843D01*
X-11348415Y13848416D01*
X-11361843Y13832054D01*
X-11361846Y13832051D01*
X-11402026Y13783092D01*
X-11441860Y13708565D01*
X-11466391Y13627699D01*
X-11474674Y13543600D01*
X-11472599Y13522532D01*
X-11472600Y12730433D01*
X-11481100Y12731270D01*
X-11606100Y12731270D01*
X-11677887Y12724200D01*
X-11746916Y12703260D01*
X-11769921Y12690964D01*
X-11795089Y12705188D01*
X-11851968Y12723915D01*
X-11892600Y12729800D01*
X-11968600Y12653800D01*
X-11968600Y12418841D01*
X-11974070Y12363300D01*
X-11974070Y11928800D01*
X-12113130Y11928800D01*
X-12113130Y12363300D01*
X-12114600Y12378226D01*
X-12114600Y13929330D01*
X-12005300Y13929330D01*
X-11899372Y13939763D01*
X-11797514Y13970661D01*
X-11703642Y14020837D01*
X-11621362Y14088362D01*
X-11553837Y14170642D01*
X-11503661Y14264514D01*
X-11472763Y14366372D01*
X-11462330Y14472300D01*
X-11462330Y15072300D01*
X-11472763Y15178228D01*
X-11503661Y15280086D01*
X-11553837Y15373958D01*
X-11621362Y15456238D01*
X-11703642Y15523763D01*
X-11797514Y15573939D01*
X-11899372Y15604837D01*
X-12005300Y15615270D01*
X-12480300Y15615270D01*
X-12586228Y15604837D01*
X-12688086Y15573939D01*
X-12750483Y15540587D01*
X-12774624Y15598867D01*
X-12825318Y15674736D01*
X-12777394Y15660199D01*
X-12717800Y15654329D01*
X-12395800Y15655800D01*
X-12319800Y15731800D01*
X-12319800Y16420300D01*
X-12165800Y16420300D01*
X-12165800Y15731800D01*
X-12089800Y15655800D01*
X-11767800Y15654329D01*
X-11708206Y15660199D01*
X-11650901Y15677582D01*
X-11598089Y15705810D01*
X-11551799Y15743799D01*
X-11513810Y15790089D01*
X-11485582Y15842901D01*
X-11468199Y15900206D01*
X-11462329Y15959800D01*
X-11463800Y16344300D01*
X-11539800Y16420300D01*
X-12165800Y16420300D01*
X-12319800Y16420300D01*
X-12945800Y16420300D01*
X-13021800Y16344300D01*
X-13023271Y15959800D01*
X-13017401Y15900206D01*
X-13001134Y15846579D01*
X-13065031Y15889274D01*
X-13193151Y15942343D01*
X-13329162Y15969398D01*
X-13467838Y15969398D01*
X-13603849Y15942343D01*
X-13731969Y15889274D01*
X-13847274Y15812230D01*
X-13945332Y15714172D01*
X-14022376Y15598867D01*
X-14075445Y15470747D01*
X-14102500Y15334736D01*
X-14102500Y15196060D01*
X-14075445Y15060049D01*
X-14022376Y14931929D01*
X-13945332Y14816624D01*
X-13847274Y14718566D01*
X-13731969Y14641522D01*
X-13687799Y14623226D01*
X-13687800Y13970086D01*
X-13727123Y13949067D01*
X-13782643Y13903502D01*
X-13810299Y13937201D01*
X-13856589Y13975190D01*
X-13909401Y14003418D01*
X-13966706Y14020801D01*
X-14026300Y14026671D01*
X-14240800Y14025200D01*
X-14316800Y13949200D01*
X-14316800Y13488200D01*
X-14296800Y13488200D01*
X-14296800Y13334200D01*
X-14316800Y13334200D01*
X-14316800Y13314200D01*
X-14470800Y13314200D01*
X-14470800Y13334200D01*
X-14989300Y13334200D01*
X-15065300Y13258200D01*
X-15066034Y13179810D01*
X-16311122Y13179810D01*
X-16332190Y13181885D01*
X-16416289Y13173602D01*
X-16497156Y13149071D01*
X-16571682Y13109236D01*
X-16620642Y13069056D01*
X-16620644Y13069054D01*
X-16637006Y13055626D01*
X-16650434Y13039264D01*
X-19227697Y10462000D01*
X-22991335Y10462000D01*
X-23012400Y10464075D01*
X-23033465Y10462000D01*
X-23033468Y10462000D01*
X-23096499Y10455792D01*
X-23158446Y10437000D01*
X-23177366Y10431261D01*
X-23251892Y10391426D01*
X-23300852Y10351246D01*
X-23300854Y10351244D01*
X-23317216Y10337816D01*
X-23330644Y10321454D01*
X-24164449Y9487648D01*
X-24180816Y9474216D01*
X-24194246Y9457851D01*
X-24234426Y9408892D01*
X-24254211Y9371875D01*
X-24274261Y9334364D01*
X-24298792Y9253498D01*
X-24305000Y9190467D01*
X-24305000Y9190458D01*
X-24307074Y9169400D01*
X-24671000Y9169400D01*
X-24671000Y13721200D01*
X-15066771Y13721200D01*
X-15065300Y13564200D01*
X-14989300Y13488200D01*
X-14470800Y13488200D01*
X-14470800Y13949200D01*
X-14546800Y14025200D01*
X-14761300Y14026671D01*
X-14820894Y14020801D01*
X-14878199Y14003418D01*
X-14931011Y13975190D01*
X-14977301Y13937201D01*
X-15015290Y13890911D01*
X-15043518Y13838099D01*
X-15060901Y13780794D01*
X-15066771Y13721200D01*
X-24671000Y13721200D01*
X-24671000Y16437528D01*
X-23204000Y16437528D01*
X-23204000Y16062472D01*
X-23130831Y15694624D01*
X-22987303Y15348118D01*
X-22778934Y15036271D01*
X-22513729Y14771066D01*
X-22201882Y14562697D01*
X-21855376Y14419169D01*
X-21487528Y14346000D01*
X-21112472Y14346000D01*
X-20744624Y14419169D01*
X-20398118Y14562697D01*
X-20086271Y14771066D01*
X-19821066Y15036271D01*
X-19612697Y15348118D01*
X-19469169Y15694624D01*
X-19454865Y15766538D01*
X-15867800Y15766538D01*
X-15867800Y15627862D01*
X-15840745Y15491851D01*
X-15787676Y15363731D01*
X-15710632Y15248426D01*
X-15612574Y15150368D01*
X-15497269Y15073324D01*
X-15369149Y15020255D01*
X-15233138Y14993200D01*
X-15094462Y14993200D01*
X-14958451Y15020255D01*
X-14830331Y15073324D01*
X-14715026Y15150368D01*
X-14616968Y15248426D01*
X-14539924Y15363731D01*
X-14486855Y15491851D01*
X-14459800Y15627862D01*
X-14459800Y15766538D01*
X-14486855Y15902549D01*
X-14539924Y16030669D01*
X-14616968Y16145974D01*
X-14715026Y16244032D01*
X-14734800Y16257245D01*
X-14734800Y17034800D01*
X-13023271Y17034800D01*
X-13021800Y16650300D01*
X-12945800Y16574300D01*
X-12319800Y16574300D01*
X-12319800Y17262800D01*
X-12165800Y17262800D01*
X-12165800Y16574300D01*
X-11539800Y16574300D01*
X-11463800Y16650300D01*
X-11462329Y17034800D01*
X-11468199Y17094394D01*
X-11485582Y17151699D01*
X-11513810Y17204511D01*
X-11551799Y17250801D01*
X-11598089Y17288790D01*
X-11650901Y17317018D01*
X-11708206Y17334401D01*
X-11767800Y17340271D01*
X-12089800Y17338800D01*
X-12165800Y17262800D01*
X-12319800Y17262800D01*
X-12395800Y17338800D01*
X-12717800Y17340271D01*
X-12777394Y17334401D01*
X-12834699Y17317018D01*
X-12887511Y17288790D01*
X-12933801Y17250801D01*
X-12971790Y17204511D01*
X-13000018Y17151699D01*
X-13017401Y17094394D01*
X-13023271Y17034800D01*
X-14734800Y17034800D01*
X-14734800Y18338903D01*
X-14503503Y18570200D01*
X-8712097Y18570200D01*
X-8176000Y18034102D01*
X-8175999Y16892245D01*
X-8195774Y16879032D01*
X-8293832Y16780974D01*
X-8370876Y16665669D01*
X-8423945Y16537549D01*
X-8451000Y16401538D01*
X-8451000Y16262862D01*
X-8423945Y16126851D01*
X-8370876Y15998731D01*
X-8293832Y15883426D01*
X-8195774Y15785368D01*
X-8080469Y15708324D01*
X-7952349Y15655255D01*
X-7816338Y15628200D01*
X-7677662Y15628200D01*
X-7541651Y15655255D01*
X-7413531Y15708324D01*
X-7298226Y15785368D01*
X-7200168Y15883426D01*
X-7123124Y15998731D01*
X-7070055Y16126851D01*
X-7043000Y16262862D01*
X-7043000Y16401538D01*
X-7070055Y16537549D01*
X-7123124Y16665669D01*
X-7200168Y16780974D01*
X-7298226Y16879032D01*
X-7318000Y16892245D01*
X-7318000Y18190732D01*
X-7315925Y18211800D01*
X-7324208Y18295899D01*
X-7348739Y18376766D01*
X-7388574Y18451292D01*
X-7428754Y18500252D01*
X-7428756Y18500254D01*
X-7442184Y18516616D01*
X-7458545Y18530043D01*
X-8216152Y19287649D01*
X-8229584Y19304016D01*
X-8294908Y19357626D01*
X-8369435Y19397461D01*
X-8450301Y19421992D01*
X-8513332Y19428200D01*
X-8513342Y19428200D01*
X-8534400Y19430274D01*
X-8555458Y19428200D01*
X-14660143Y19428200D01*
X-14681201Y19430274D01*
X-14702259Y19428200D01*
X-14702268Y19428200D01*
X-14765299Y19421992D01*
X-14846165Y19397461D01*
X-14920692Y19357626D01*
X-14986016Y19304016D01*
X-14999448Y19287649D01*
X-15452253Y18834844D01*
X-15468615Y18821416D01*
X-15482043Y18805054D01*
X-15482046Y18805051D01*
X-15522226Y18756092D01*
X-15562060Y18681565D01*
X-15586591Y18600699D01*
X-15594874Y18516600D01*
X-15592799Y18495532D01*
X-15592800Y16257245D01*
X-15612574Y16244032D01*
X-15710632Y16145974D01*
X-15787676Y16030669D01*
X-15840745Y15902549D01*
X-15867800Y15766538D01*
X-19454865Y15766538D01*
X-19396000Y16062472D01*
X-19396000Y16437528D01*
X-19469169Y16805376D01*
X-19612697Y17151882D01*
X-19821066Y17463729D01*
X-20086271Y17728934D01*
X-20398118Y17937303D01*
X-20744624Y18080831D01*
X-21112472Y18154000D01*
X-21487528Y18154000D01*
X-21855376Y18080831D01*
X-22201882Y17937303D01*
X-22513729Y17728934D01*
X-22778934Y17463729D01*
X-22987303Y17151882D01*
X-23130831Y16805376D01*
X-23204000Y16437528D01*
X-24671000Y16437528D01*
X-24671000Y19671000D01*
X24671001Y19671000D01*
X24671000Y-19671000D01*
G04 #@! TA.AperFunction,Conductor*
D19*
G36*
X24671000Y-19671000D02*
G01*
X-24671000Y-19671000D01*
X-24671000Y-16062472D01*
X-23204000Y-16062472D01*
X-23204000Y-16437528D01*
X-23130831Y-16805376D01*
X-22987303Y-17151882D01*
X-22778934Y-17463729D01*
X-22513729Y-17728934D01*
X-22201882Y-17937303D01*
X-21855376Y-18080831D01*
X-21487528Y-18154000D01*
X-21112472Y-18154000D01*
X-20744624Y-18080831D01*
X-20398118Y-17937303D01*
X-20086271Y-17728934D01*
X-19821066Y-17463729D01*
X-19612697Y-17151882D01*
X-19469169Y-16805376D01*
X-19396000Y-16437528D01*
X-19396000Y-16062472D01*
X19396000Y-16062472D01*
X19396000Y-16437528D01*
X19469169Y-16805376D01*
X19612697Y-17151882D01*
X19821066Y-17463729D01*
X20086271Y-17728934D01*
X20398118Y-17937303D01*
X20744624Y-18080831D01*
X21112472Y-18154000D01*
X21487528Y-18154000D01*
X21855376Y-18080831D01*
X22201882Y-17937303D01*
X22513729Y-17728934D01*
X22778934Y-17463729D01*
X22987303Y-17151882D01*
X23130831Y-16805376D01*
X23204000Y-16437528D01*
X23204000Y-16062472D01*
X23130831Y-15694624D01*
X22987303Y-15348118D01*
X22778934Y-15036271D01*
X22513729Y-14771066D01*
X22201882Y-14562697D01*
X21855376Y-14419169D01*
X21487528Y-14346000D01*
X21112472Y-14346000D01*
X20744624Y-14419169D01*
X20398118Y-14562697D01*
X20086271Y-14771066D01*
X19821066Y-15036271D01*
X19612697Y-15348118D01*
X19469169Y-15694624D01*
X19396000Y-16062472D01*
X-19396000Y-16062472D01*
X-19469169Y-15694624D01*
X-19612697Y-15348118D01*
X-19821066Y-15036271D01*
X-20086271Y-14771066D01*
X-20398118Y-14562697D01*
X-20744624Y-14419169D01*
X-21112472Y-14346000D01*
X-21487528Y-14346000D01*
X-21855376Y-14419169D01*
X-22201882Y-14562697D01*
X-22513729Y-14771066D01*
X-22778934Y-15036271D01*
X-22987303Y-15348118D01*
X-23130831Y-15694624D01*
X-23204000Y-16062472D01*
X-24671000Y-16062472D01*
X-24671000Y-4966341D01*
X-15894000Y-4966341D01*
X-15894000Y-5193659D01*
X-15849653Y-5416609D01*
X-15762662Y-5626624D01*
X-15636371Y-5815632D01*
X-15475632Y-5976371D01*
X-15286624Y-6102662D01*
X-15076609Y-6189653D01*
X-14853659Y-6234000D01*
X-14626341Y-6234000D01*
X-14403391Y-6189653D01*
X-14193376Y-6102662D01*
X-14004368Y-5976371D01*
X-13843629Y-5815632D01*
X-13717338Y-5626624D01*
X-13630347Y-5416609D01*
X-13586000Y-5193659D01*
X-13586000Y-4966341D01*
X-13608529Y-4853076D01*
X-11964000Y-4853076D01*
X-11964000Y-5306924D01*
X-11875459Y-5752052D01*
X-11701778Y-6171353D01*
X-11449634Y-6548714D01*
X-11128714Y-6869634D01*
X-10751353Y-7121778D01*
X-10332052Y-7295459D01*
X-9886924Y-7384000D01*
X-9433076Y-7384000D01*
X-8987948Y-7295459D01*
X-8568647Y-7121778D01*
X-8191286Y-6869634D01*
X-7870366Y-6548714D01*
X-7618222Y-6171353D01*
X-7444541Y-5752052D01*
X-7356000Y-5306924D01*
X-7356000Y-4966341D01*
X-5734000Y-4966341D01*
X-5734000Y-5193659D01*
X-5689653Y-5416609D01*
X-5602662Y-5626624D01*
X-5476371Y-5815632D01*
X-5315632Y-5976371D01*
X-5126624Y-6102662D01*
X-4916609Y-6189653D01*
X-4693659Y-6234000D01*
X-4466341Y-6234000D01*
X-4243391Y-6189653D01*
X-4033376Y-6102662D01*
X-3844368Y-5976371D01*
X-3683629Y-5815632D01*
X-3557338Y-5626624D01*
X-3470347Y-5416609D01*
X-3426000Y-5193659D01*
X-3426000Y-4966341D01*
X3306000Y-4966341D01*
X3306000Y-5193659D01*
X3350347Y-5416609D01*
X3437338Y-5626624D01*
X3563629Y-5815632D01*
X3724368Y-5976371D01*
X3913376Y-6102662D01*
X4123391Y-6189653D01*
X4346341Y-6234000D01*
X4573659Y-6234000D01*
X4796609Y-6189653D01*
X5006624Y-6102662D01*
X5195632Y-5976371D01*
X5356371Y-5815632D01*
X5482662Y-5626624D01*
X5569653Y-5416609D01*
X5614000Y-5193659D01*
X5614000Y-4966341D01*
X5591471Y-4853076D01*
X7236000Y-4853076D01*
X7236000Y-5306924D01*
X7324541Y-5752052D01*
X7498222Y-6171353D01*
X7750366Y-6548714D01*
X8071286Y-6869634D01*
X8448647Y-7121778D01*
X8867948Y-7295459D01*
X9313076Y-7384000D01*
X9766924Y-7384000D01*
X10212052Y-7295459D01*
X10631353Y-7121778D01*
X11008714Y-6869634D01*
X11329634Y-6548714D01*
X11581778Y-6171353D01*
X11755459Y-5752052D01*
X11844000Y-5306924D01*
X11844000Y-4966341D01*
X13466000Y-4966341D01*
X13466000Y-5193659D01*
X13510347Y-5416609D01*
X13597338Y-5626624D01*
X13723629Y-5815632D01*
X13884368Y-5976371D01*
X14073376Y-6102662D01*
X14283391Y-6189653D01*
X14506341Y-6234000D01*
X14733659Y-6234000D01*
X14956609Y-6189653D01*
X15166624Y-6102662D01*
X15355632Y-5976371D01*
X15516371Y-5815632D01*
X15642662Y-5626624D01*
X15729653Y-5416609D01*
X15774000Y-5193659D01*
X15774000Y-4966341D01*
X15729653Y-4743391D01*
X15642662Y-4533376D01*
X15516371Y-4344368D01*
X15355632Y-4183629D01*
X15166624Y-4057338D01*
X14956609Y-3970347D01*
X14733659Y-3926000D01*
X14506341Y-3926000D01*
X14283391Y-3970347D01*
X14073376Y-4057338D01*
X13884368Y-4183629D01*
X13723629Y-4344368D01*
X13597338Y-4533376D01*
X13510347Y-4743391D01*
X13466000Y-4966341D01*
X11844000Y-4966341D01*
X11844000Y-4853076D01*
X11755459Y-4407948D01*
X11581778Y-3988647D01*
X11329634Y-3611286D01*
X11008714Y-3290366D01*
X10631353Y-3038222D01*
X10212052Y-2864541D01*
X9766924Y-2776000D01*
X9313076Y-2776000D01*
X8867948Y-2864541D01*
X8448647Y-3038222D01*
X8071286Y-3290366D01*
X7750366Y-3611286D01*
X7498222Y-3988647D01*
X7324541Y-4407948D01*
X7236000Y-4853076D01*
X5591471Y-4853076D01*
X5569653Y-4743391D01*
X5482662Y-4533376D01*
X5356371Y-4344368D01*
X5195632Y-4183629D01*
X5006624Y-4057338D01*
X4796609Y-3970347D01*
X4573659Y-3926000D01*
X4346341Y-3926000D01*
X4123391Y-3970347D01*
X3913376Y-4057338D01*
X3724368Y-4183629D01*
X3563629Y-4344368D01*
X3437338Y-4533376D01*
X3350347Y-4743391D01*
X3306000Y-4966341D01*
X-3426000Y-4966341D01*
X-3470347Y-4743391D01*
X-3557338Y-4533376D01*
X-3683629Y-4344368D01*
X-3844368Y-4183629D01*
X-4033376Y-4057338D01*
X-4243391Y-3970347D01*
X-4466341Y-3926000D01*
X-4693659Y-3926000D01*
X-4916609Y-3970347D01*
X-5126624Y-4057338D01*
X-5315632Y-4183629D01*
X-5476371Y-4344368D01*
X-5602662Y-4533376D01*
X-5689653Y-4743391D01*
X-5734000Y-4966341D01*
X-7356000Y-4966341D01*
X-7356000Y-4853076D01*
X-7444541Y-4407948D01*
X-7618222Y-3988647D01*
X-7870366Y-3611286D01*
X-8191286Y-3290366D01*
X-8568647Y-3038222D01*
X-8987948Y-2864541D01*
X-9433076Y-2776000D01*
X-9886924Y-2776000D01*
X-10332052Y-2864541D01*
X-10751353Y-3038222D01*
X-11128714Y-3290366D01*
X-11449634Y-3611286D01*
X-11701778Y-3988647D01*
X-11875459Y-4407948D01*
X-11964000Y-4853076D01*
X-13608529Y-4853076D01*
X-13630347Y-4743391D01*
X-13717338Y-4533376D01*
X-13843629Y-4344368D01*
X-14004368Y-4183629D01*
X-14193376Y-4057338D01*
X-14403391Y-3970347D01*
X-14626341Y-3926000D01*
X-14853659Y-3926000D01*
X-15076609Y-3970347D01*
X-15286624Y-4057338D01*
X-15475632Y-4183629D01*
X-15636371Y-4344368D01*
X-15762662Y-4533376D01*
X-15849653Y-4743391D01*
X-15894000Y-4966341D01*
X-24671000Y-4966341D01*
X-24671000Y-2401718D01*
X-7254000Y-2401718D01*
X-7254000Y-2678282D01*
X-7200045Y-2949532D01*
X-7094208Y-3205043D01*
X-6940558Y-3434998D01*
X-6744998Y-3630558D01*
X-6515043Y-3784208D01*
X-6259532Y-3890045D01*
X-5988282Y-3944000D01*
X-5711718Y-3944000D01*
X-5440468Y-3890045D01*
X-5184957Y-3784208D01*
X-4955002Y-3630558D01*
X-4759442Y-3434998D01*
X-4605792Y-3205043D01*
X-4499955Y-2949532D01*
X-4446000Y-2678282D01*
X-4446000Y-2401718D01*
X11946000Y-2401718D01*
X11946000Y-2678282D01*
X11999955Y-2949532D01*
X12105792Y-3205043D01*
X12259442Y-3434998D01*
X12455002Y-3630558D01*
X12684957Y-3784208D01*
X12940468Y-3890045D01*
X13211718Y-3944000D01*
X13488282Y-3944000D01*
X13759532Y-3890045D01*
X14015043Y-3784208D01*
X14244998Y-3630558D01*
X14440558Y-3434998D01*
X14594208Y-3205043D01*
X14700045Y-2949532D01*
X14754000Y-2678282D01*
X14754000Y-2401718D01*
X14700045Y-2130468D01*
X14594208Y-1874957D01*
X14440558Y-1645002D01*
X14244998Y-1449442D01*
X14015043Y-1295792D01*
X13759532Y-1189955D01*
X13488282Y-1136000D01*
X13211718Y-1136000D01*
X12940468Y-1189955D01*
X12684957Y-1295792D01*
X12455002Y-1449442D01*
X12259442Y-1645002D01*
X12105792Y-1874957D01*
X11999955Y-2130468D01*
X11946000Y-2401718D01*
X-4446000Y-2401718D01*
X-4499955Y-2130468D01*
X-4605792Y-1874957D01*
X-4759442Y-1645002D01*
X-4955002Y-1449442D01*
X-5184957Y-1295792D01*
X-5440468Y-1189955D01*
X-5711718Y-1136000D01*
X-5988282Y-1136000D01*
X-6259532Y-1189955D01*
X-6515043Y-1295792D01*
X-6744998Y-1449442D01*
X-6940558Y-1645002D01*
X-7094208Y-1874957D01*
X-7200045Y-2130468D01*
X-7254000Y-2401718D01*
X-24671000Y-2401718D01*
X-24671000Y-996717D01*
X-13087822Y-996717D01*
X-12965712Y-1184914D01*
X-12719834Y-1311529D01*
X-12453979Y-1387742D01*
X-12178363Y-1410626D01*
X-11903579Y-1379301D01*
X-11640187Y-1294969D01*
X-11434288Y-1184914D01*
X-11312178Y-996717D01*
X6112178Y-996717D01*
X6234288Y-1184914D01*
X6480166Y-1311529D01*
X6746021Y-1387742D01*
X7021637Y-1410626D01*
X7296421Y-1379301D01*
X7559813Y-1294969D01*
X7765712Y-1184914D01*
X7887822Y-996717D01*
X7000000Y-108894D01*
X6112178Y-996717D01*
X-11312178Y-996717D01*
X-12200000Y-108894D01*
X-13087822Y-996717D01*
X-24671000Y-996717D01*
X-24671000Y-21637D01*
X-13610626Y-21637D01*
X-13579301Y-296421D01*
X-13494969Y-559813D01*
X-13384914Y-765712D01*
X-13196717Y-887822D01*
X-12308894Y0D01*
X-12091106Y0D01*
X-11203283Y-887822D01*
X-11015086Y-765712D01*
X-10888471Y-519834D01*
X-10812258Y-253979D01*
X-10792967Y-21637D01*
X5589374Y-21637D01*
X5620699Y-296421D01*
X5705031Y-559813D01*
X5815086Y-765712D01*
X6003283Y-887822D01*
X6891106Y0D01*
X7108894Y0D01*
X7996717Y-887822D01*
X8184914Y-765712D01*
X8311529Y-519834D01*
X8387742Y-253979D01*
X8410626Y21637D01*
X8379301Y296421D01*
X8294969Y559813D01*
X8184914Y765712D01*
X7996717Y887822D01*
X7108894Y0D01*
X6891106Y0D01*
X6003283Y887822D01*
X5815086Y765712D01*
X5688471Y519834D01*
X5612258Y253979D01*
X5589374Y-21637D01*
X-10792967Y-21637D01*
X-10789374Y21637D01*
X-10820699Y296421D01*
X-10905031Y559813D01*
X-11015086Y765712D01*
X-11203283Y887822D01*
X-12091106Y0D01*
X-12308894Y0D01*
X-13196717Y887822D01*
X-13384914Y765712D01*
X-13511529Y519834D01*
X-13587742Y253979D01*
X-13610626Y-21637D01*
X-24671000Y-21637D01*
X-24671000Y996717D01*
X-13087822Y996717D01*
X-12200000Y108894D01*
X-11312178Y996717D01*
X6112178Y996717D01*
X7000000Y108894D01*
X7887822Y996717D01*
X7765712Y1184914D01*
X7519834Y1311529D01*
X7253979Y1387742D01*
X6978363Y1410626D01*
X6703579Y1379301D01*
X6440187Y1294969D01*
X6234288Y1184914D01*
X6112178Y996717D01*
X-11312178Y996717D01*
X-11434288Y1184914D01*
X-11680166Y1311529D01*
X-11946021Y1387742D01*
X-12221637Y1410626D01*
X-12496421Y1379301D01*
X-12759813Y1294969D01*
X-12965712Y1184914D01*
X-13087822Y996717D01*
X-24671000Y996717D01*
X-24671000Y6021008D01*
X-23000319Y6021008D01*
X-22977210Y5885571D01*
X-22928124Y5757243D01*
X-22910047Y5723424D01*
X-22794133Y5686561D01*
X-22410094Y6070600D01*
X-22794133Y6454639D01*
X-22910047Y6417776D01*
X-22966078Y6292325D01*
X-22996560Y6158353D01*
X-23000319Y6021008D01*
X-24671000Y6021008D01*
X-24671000Y9169400D01*
X-24307074Y9169400D01*
X-24305000Y9148342D01*
X-24304999Y8072868D01*
X-24307074Y8051800D01*
X-24298791Y7967701D01*
X-24274260Y7886835D01*
X-24234426Y7812308D01*
X-24194246Y7763349D01*
X-24194243Y7763346D01*
X-24180815Y7746984D01*
X-24164454Y7733557D01*
X-23483044Y7052146D01*
X-23469616Y7035784D01*
X-23453254Y7022356D01*
X-23453252Y7022354D01*
X-23404292Y6982174D01*
X-23329765Y6942339D01*
X-23248899Y6917808D01*
X-23164800Y6909525D01*
X-23143732Y6911600D01*
X-22853428Y6911600D01*
X-22842984Y6895970D01*
X-22745830Y6798816D01*
X-22631590Y6722483D01*
X-22592085Y6706120D01*
X-22614557Y6697524D01*
X-22648376Y6679447D01*
X-22685239Y6563533D01*
X-22301200Y6179494D01*
X-21917161Y6563533D01*
X-21954024Y6679447D01*
X-22012093Y6705383D01*
X-21970810Y6722483D01*
X-21856570Y6798816D01*
X-21759416Y6895970D01*
X-21683083Y7010210D01*
X-21666200Y7050969D01*
X-21649317Y7010210D01*
X-21572984Y6895970D01*
X-21475830Y6798816D01*
X-21361590Y6722483D01*
X-21320831Y6705600D01*
X-21361590Y6688717D01*
X-21475830Y6612384D01*
X-21572984Y6515230D01*
X-21649317Y6400990D01*
X-21665680Y6361485D01*
X-21674276Y6383957D01*
X-21692353Y6417776D01*
X-21808267Y6454639D01*
X-22192306Y6070600D01*
X-21808267Y5686561D01*
X-21692353Y5723424D01*
X-21666417Y5781493D01*
X-21649317Y5740210D01*
X-21572984Y5625970D01*
X-21475830Y5528816D01*
X-21361590Y5452483D01*
X-21320831Y5435600D01*
X-21361590Y5418717D01*
X-21475830Y5342384D01*
X-21572984Y5245230D01*
X-21649317Y5130990D01*
X-21666200Y5090231D01*
X-21683083Y5130990D01*
X-21759416Y5245230D01*
X-21856570Y5342384D01*
X-21970810Y5418717D01*
X-22010315Y5435080D01*
X-21987843Y5443676D01*
X-21954024Y5461753D01*
X-21917161Y5577667D01*
X-22301200Y5961706D01*
X-22685239Y5577667D01*
X-22648376Y5461753D01*
X-22590307Y5435817D01*
X-22631590Y5418717D01*
X-22745830Y5342384D01*
X-22842984Y5245230D01*
X-22919317Y5130990D01*
X-22971896Y5004053D01*
X-22998700Y4869298D01*
X-22998700Y4731902D01*
X-22971896Y4597147D01*
X-22919317Y4470210D01*
X-22842984Y4355970D01*
X-22745830Y4258816D01*
X-22631590Y4182483D01*
X-22504653Y4129904D01*
X-22369898Y4103100D01*
X-22232502Y4103100D01*
X-22222342Y4105121D01*
X-22287212Y4040251D01*
X-22374707Y3909305D01*
X-22434975Y3763805D01*
X-22465700Y3609344D01*
X-22465700Y3451856D01*
X-22434975Y3297395D01*
X-22374707Y3151895D01*
X-22287212Y3020949D01*
X-22175851Y2909588D01*
X-22044905Y2822093D01*
X-21899405Y2761825D01*
X-21744944Y2731100D01*
X-21587456Y2731100D01*
X-21432995Y2761825D01*
X-21287495Y2822093D01*
X-21156549Y2909588D01*
X-21045188Y3020949D01*
X-20957693Y3151895D01*
X-20897425Y3297395D01*
X-20866700Y3451856D01*
X-20866700Y3609344D01*
X-20897425Y3763805D01*
X-20957693Y3909305D01*
X-21045188Y4040251D01*
X-21110058Y4105121D01*
X-21099898Y4103100D01*
X-20962502Y4103100D01*
X-20827747Y4129904D01*
X-20700810Y4182483D01*
X-20586570Y4258816D01*
X-20489416Y4355970D01*
X-20478972Y4371600D01*
X-16353258Y4371600D01*
X-16332200Y4369526D01*
X-16311142Y4371600D01*
X-16311132Y4371600D01*
X-16248101Y4377808D01*
X-16167235Y4402339D01*
X-16092708Y4442174D01*
X-16027384Y4495784D01*
X-16013952Y4512151D01*
X-14875463Y5650640D01*
X-14852138Y5646000D01*
X-14713462Y5646000D01*
X-14577451Y5673055D01*
X-14490570Y5709042D01*
X-14490570Y5458400D01*
X-14481722Y5368567D01*
X-14455519Y5282186D01*
X-14412967Y5202577D01*
X-14355701Y5132799D01*
X-14285923Y5075533D01*
X-14246599Y5054514D01*
X-14246600Y4059658D01*
X-14248674Y4038600D01*
X-14246600Y4017542D01*
X-14246600Y4017533D01*
X-14240392Y3954502D01*
X-14215861Y3873636D01*
X-14209638Y3861994D01*
X-14176026Y3799108D01*
X-14154342Y3772686D01*
X-14122416Y3733784D01*
X-14106049Y3720352D01*
X-13424644Y3038946D01*
X-13411216Y3022584D01*
X-13394854Y3009156D01*
X-13394852Y3009154D01*
X-13345892Y2968974D01*
X-13271365Y2929139D01*
X-13190499Y2904608D01*
X-13106400Y2896325D01*
X-13085332Y2898400D01*
X5315921Y2898400D01*
X5320861Y2882114D01*
X5371037Y2788242D01*
X5438562Y2705962D01*
X5520842Y2638437D01*
X5614714Y2588261D01*
X5716572Y2557363D01*
X5822500Y2546930D01*
X6422500Y2546930D01*
X6528428Y2557363D01*
X6630286Y2588261D01*
X6724158Y2638437D01*
X6806438Y2705962D01*
X6873963Y2788242D01*
X6908256Y2852400D01*
X7004529Y2852400D01*
X7010399Y2792806D01*
X7027782Y2735501D01*
X7056010Y2682689D01*
X7093999Y2636399D01*
X7140289Y2598410D01*
X7193101Y2570182D01*
X7250406Y2552799D01*
X7310000Y2546929D01*
X7694500Y2548400D01*
X7770500Y2624400D01*
X7770500Y3250400D01*
X7924500Y3250400D01*
X7924500Y2624400D01*
X8000500Y2548400D01*
X8385000Y2546929D01*
X8444594Y2552799D01*
X8501899Y2570182D01*
X8554711Y2598410D01*
X8601001Y2636399D01*
X8638990Y2682689D01*
X8667218Y2735501D01*
X8684601Y2792806D01*
X8690471Y2852400D01*
X8689000Y3174400D01*
X8613000Y3250400D01*
X7924500Y3250400D01*
X7770500Y3250400D01*
X7082000Y3250400D01*
X7006000Y3174400D01*
X7004529Y2852400D01*
X6908256Y2852400D01*
X6924139Y2882114D01*
X6955037Y2983972D01*
X6965470Y3089900D01*
X6965470Y3564900D01*
X6955037Y3670828D01*
X6924139Y3772686D01*
X6908257Y3802400D01*
X7004529Y3802400D01*
X7006000Y3480400D01*
X7082000Y3404400D01*
X7770500Y3404400D01*
X7770500Y4030400D01*
X7924500Y4030400D01*
X7924500Y3404400D01*
X8613000Y3404400D01*
X8689000Y3480400D01*
X8690471Y3802400D01*
X8684601Y3861994D01*
X8667218Y3919299D01*
X8638990Y3972111D01*
X8601001Y4018401D01*
X8554711Y4056390D01*
X8501899Y4084618D01*
X8444594Y4102001D01*
X8385000Y4107871D01*
X8000500Y4106400D01*
X7924500Y4030400D01*
X7770500Y4030400D01*
X7694500Y4106400D01*
X7310000Y4107871D01*
X7250406Y4102001D01*
X7193101Y4084618D01*
X7140289Y4056390D01*
X7093999Y4018401D01*
X7056010Y3972111D01*
X7027782Y3919299D01*
X7010399Y3861994D01*
X7004529Y3802400D01*
X6908257Y3802400D01*
X6873963Y3866558D01*
X6806438Y3948838D01*
X6724158Y4016363D01*
X6630286Y4066539D01*
X6528428Y4097437D01*
X6509800Y4099272D01*
X6509800Y4530586D01*
X6540394Y4533600D01*
X6597698Y4550983D01*
X6650510Y4579211D01*
X6696800Y4617200D01*
X6734789Y4663490D01*
X6763017Y4716302D01*
X6780400Y4773606D01*
X6786270Y4833200D01*
X6786270Y5733200D01*
X6780400Y5792794D01*
X6763017Y5850098D01*
X6734789Y5902910D01*
X6696800Y5949200D01*
X6650510Y5987189D01*
X6597698Y6015417D01*
X6540394Y6032800D01*
X6480800Y6038670D01*
X5680800Y6038670D01*
X5621206Y6032800D01*
X5563902Y6015417D01*
X5511090Y5987189D01*
X5464800Y5949200D01*
X5426811Y5902910D01*
X5398583Y5850098D01*
X5381200Y5792794D01*
X5375330Y5733200D01*
X5375330Y4833200D01*
X5381200Y4773606D01*
X5398583Y4716302D01*
X5426811Y4663490D01*
X5464800Y4617200D01*
X5511090Y4579211D01*
X5563902Y4550983D01*
X5621206Y4533600D01*
X5651800Y4530586D01*
X5651801Y4077789D01*
X5614714Y4066539D01*
X5520842Y4016363D01*
X5438562Y3948838D01*
X5371037Y3866558D01*
X5320861Y3772686D01*
X5315921Y3756400D01*
X-12928702Y3756400D01*
X-13388600Y4216297D01*
X-13388600Y4833200D01*
X3475329Y4833200D01*
X3481199Y4773606D01*
X3498582Y4716301D01*
X3526810Y4663489D01*
X3564799Y4617199D01*
X3611089Y4579210D01*
X3663901Y4550982D01*
X3721206Y4533599D01*
X3780800Y4527729D01*
X4027800Y4529200D01*
X4103800Y4605200D01*
X4103800Y5206200D01*
X4257800Y5206200D01*
X4257800Y4605200D01*
X4333800Y4529200D01*
X4580800Y4527729D01*
X4640394Y4533599D01*
X4697699Y4550982D01*
X4750511Y4579210D01*
X4796801Y4617199D01*
X4834790Y4663489D01*
X4863018Y4716301D01*
X4880401Y4773606D01*
X4886271Y4833200D01*
X4884800Y5130200D01*
X4808800Y5206200D01*
X4257800Y5206200D01*
X4103800Y5206200D01*
X3552800Y5206200D01*
X3476800Y5130200D01*
X3475329Y4833200D01*
X-13388600Y4833200D01*
X-13388600Y5054514D01*
X-13349277Y5075533D01*
X-13293757Y5121098D01*
X-13266101Y5087399D01*
X-13219811Y5049410D01*
X-13166999Y5021182D01*
X-13109694Y5003799D01*
X-13050100Y4997929D01*
X-12835600Y4999400D01*
X-12759600Y5075400D01*
X-12759600Y5536400D01*
X-12605600Y5536400D01*
X-12605600Y5075400D01*
X-12529600Y4999400D01*
X-12315100Y4997929D01*
X-12255506Y5003799D01*
X-12198201Y5021182D01*
X-12145389Y5049410D01*
X-12099099Y5087399D01*
X-12061110Y5133689D01*
X-12032882Y5186501D01*
X-12015499Y5243806D01*
X-12009629Y5303400D01*
X-12011100Y5460400D01*
X-12087100Y5536400D01*
X-12605600Y5536400D01*
X-12759600Y5536400D01*
X-12779600Y5536400D01*
X-12779600Y5690400D01*
X-12759600Y5690400D01*
X-12759600Y6151400D01*
X-12605600Y6151400D01*
X-12605600Y5690400D01*
X-12087100Y5690400D01*
X-12011100Y5766400D01*
X-12009629Y5923400D01*
X-12015499Y5982994D01*
X-12032882Y6040299D01*
X-12061110Y6093111D01*
X-12099099Y6139401D01*
X-12145389Y6177390D01*
X-12198201Y6205618D01*
X-12255506Y6223001D01*
X-12315100Y6228871D01*
X-12529600Y6227400D01*
X-12605600Y6151400D01*
X-12759600Y6151400D01*
X-12835600Y6227400D01*
X-13050100Y6228871D01*
X-13109694Y6223001D01*
X-13166999Y6205618D01*
X-13219811Y6177390D01*
X-13266101Y6139401D01*
X-13293757Y6105702D01*
X-13349277Y6151267D01*
X-13428886Y6193819D01*
X-13515267Y6220022D01*
X-13605100Y6228870D01*
X-13614600Y6228870D01*
X-13614600Y6773374D01*
X-13613130Y6788300D01*
X-13613130Y7119657D01*
X-13612525Y7125800D01*
X-13613130Y7131943D01*
X-13613130Y7222800D01*
X-13474070Y7222800D01*
X-13474070Y6788300D01*
X-13468600Y6732759D01*
X-13468600Y6497800D01*
X-13392600Y6421800D01*
X-13351968Y6427685D01*
X-13295089Y6446412D01*
X-13269921Y6460636D01*
X-13246916Y6448340D01*
X-13177887Y6427400D01*
X-13106100Y6420330D01*
X-12981100Y6420330D01*
X-12909313Y6427400D01*
X-12840284Y6448340D01*
X-12793600Y6473293D01*
X-12746916Y6448340D01*
X-12677887Y6427400D01*
X-12606100Y6420330D01*
X-12481100Y6420330D01*
X-12409313Y6427400D01*
X-12340284Y6448340D01*
X-12293600Y6473293D01*
X-12246916Y6448340D01*
X-12177887Y6427400D01*
X-12106100Y6420330D01*
X-11981100Y6420330D01*
X-11909313Y6427400D01*
X-11840284Y6448340D01*
X-11793600Y6473293D01*
X-11746916Y6448340D01*
X-11677887Y6427400D01*
X-11606100Y6420330D01*
X-11481100Y6420330D01*
X-11472599Y6421167D01*
X-11472599Y6060868D01*
X-11474674Y6039800D01*
X-11472599Y6018732D01*
X-11471903Y6011661D01*
X-11466391Y5955701D01*
X-11441860Y5874835D01*
X-11402026Y5800308D01*
X-11361846Y5751349D01*
X-11361843Y5751346D01*
X-11348415Y5734984D01*
X-11342264Y5729936D01*
X-11346600Y5708138D01*
X-11346600Y5569462D01*
X-11319545Y5433451D01*
X-11266476Y5305331D01*
X-11189432Y5190026D01*
X-11091374Y5091968D01*
X-10976069Y5014924D01*
X-10847949Y4961855D01*
X-10711938Y4934800D01*
X-10573262Y4934800D01*
X-10437251Y4961855D01*
X-10309131Y5014924D01*
X-10193826Y5091968D01*
X-10095768Y5190026D01*
X-10018724Y5305331D01*
X-9965655Y5433451D01*
X-9938600Y5569462D01*
X-9938600Y5708138D01*
X-9943585Y5733200D01*
X3475329Y5733200D01*
X3476800Y5436200D01*
X3552800Y5360200D01*
X4103800Y5360200D01*
X4103800Y5961200D01*
X4257800Y5961200D01*
X4257800Y5360200D01*
X4808800Y5360200D01*
X4884800Y5436200D01*
X4886271Y5733200D01*
X4880401Y5792794D01*
X4863018Y5850099D01*
X4834790Y5902911D01*
X4796801Y5949201D01*
X4750511Y5987190D01*
X4697699Y6015418D01*
X4640394Y6032801D01*
X4580800Y6038671D01*
X4333800Y6037200D01*
X4257800Y5961200D01*
X4103800Y5961200D01*
X4027800Y6037200D01*
X3780800Y6038671D01*
X3721206Y6032801D01*
X3663901Y6015418D01*
X3611089Y5987190D01*
X3564799Y5949201D01*
X3526810Y5902911D01*
X3498582Y5850099D01*
X3481199Y5792794D01*
X3475329Y5733200D01*
X-9943585Y5733200D01*
X-9965655Y5844149D01*
X-10018724Y5972269D01*
X-10095768Y6087574D01*
X-10106994Y6098800D01*
X-10059645Y6098800D01*
X-10046432Y6079026D01*
X-9948374Y5980968D01*
X-9833069Y5903924D01*
X-9704949Y5850855D01*
X-9568938Y5823800D01*
X-9430262Y5823800D01*
X-9294251Y5850855D01*
X-9166131Y5903924D01*
X-9050826Y5980968D01*
X-8952768Y6079026D01*
X-8875724Y6194331D01*
X-8822655Y6322451D01*
X-8795600Y6458462D01*
X-8795600Y6597138D01*
X-8822655Y6733149D01*
X-8875724Y6861269D01*
X-8952768Y6976574D01*
X-9050826Y7074632D01*
X-9140125Y7134300D01*
X822329Y7134300D01*
X828199Y7074706D01*
X845582Y7017401D01*
X873810Y6964589D01*
X911799Y6918299D01*
X958089Y6880310D01*
X1010901Y6852082D01*
X1068206Y6834699D01*
X1127800Y6828829D01*
X1294800Y6830300D01*
X1370800Y6906300D01*
X1370800Y7414800D01*
X1524800Y7414800D01*
X1524800Y6906300D01*
X1600800Y6830300D01*
X1767800Y6828829D01*
X1827394Y6834699D01*
X1884699Y6852082D01*
X1937511Y6880310D01*
X1983801Y6918299D01*
X2021790Y6964589D01*
X2050018Y7017401D01*
X2067401Y7074706D01*
X2073271Y7134300D01*
X2071800Y7338800D01*
X1995800Y7414800D01*
X1524800Y7414800D01*
X1370800Y7414800D01*
X899800Y7414800D01*
X823800Y7338800D01*
X822329Y7134300D01*
X-9140125Y7134300D01*
X-9166131Y7151676D01*
X-9294251Y7204745D01*
X-9430262Y7231800D01*
X-9568938Y7231800D01*
X-9704949Y7204745D01*
X-9833069Y7151676D01*
X-9948374Y7074632D01*
X-10046432Y6976574D01*
X-10059645Y6956800D01*
X-10113130Y6956800D01*
X-10113130Y7395330D01*
X-9506100Y7395330D01*
X-9434313Y7402400D01*
X-9365284Y7423340D01*
X-9301667Y7457344D01*
X-9245906Y7503106D01*
X-9200144Y7558867D01*
X-9166140Y7622484D01*
X-9145200Y7691513D01*
X-9138130Y7763300D01*
X-9138130Y7888300D01*
X-9145200Y7960087D01*
X-9166140Y8029116D01*
X-9191093Y8075800D01*
X-9166140Y8122484D01*
X-9145200Y8191513D01*
X-9138130Y8263300D01*
X-9138130Y8388300D01*
X-9145200Y8460087D01*
X-9166140Y8529116D01*
X-9191093Y8575800D01*
X-9166140Y8622484D01*
X-9145200Y8691513D01*
X-9138130Y8763300D01*
X-9138130Y8888300D01*
X-9145200Y8960087D01*
X-9166140Y9029116D01*
X-9191093Y9075800D01*
X-9166140Y9122484D01*
X-9145200Y9191513D01*
X-9138130Y9263300D01*
X-9138130Y9388300D01*
X-9145200Y9460087D01*
X-9166140Y9529116D01*
X-9191093Y9575800D01*
X-9166140Y9622484D01*
X-9163473Y9631276D01*
X-9132034Y9584224D01*
X-9033976Y9486166D01*
X-8918671Y9409122D01*
X-8790551Y9356053D01*
X-8654540Y9328998D01*
X-8515864Y9328998D01*
X-8492539Y9333638D01*
X-8269636Y9110735D01*
X-8256204Y9094368D01*
X-8190880Y9040758D01*
X-8116353Y9000923D01*
X-8035487Y8976392D01*
X-7972456Y8970184D01*
X-7972447Y8970184D01*
X-7951389Y8968110D01*
X-7930331Y8970184D01*
X-343396Y8970184D01*
X-330183Y8950410D01*
X-232125Y8852352D01*
X-116820Y8775308D01*
X11300Y8722239D01*
X147311Y8695184D01*
X285987Y8695184D01*
X421998Y8722239D01*
X550118Y8775308D01*
X665423Y8852352D01*
X763481Y8950410D01*
X840525Y9065715D01*
X871469Y9140421D01*
X889704Y9122187D01*
X857762Y9062428D01*
X831274Y8975109D01*
X822330Y8884300D01*
X822330Y8489300D01*
X831274Y8398491D01*
X857762Y8311172D01*
X900776Y8230699D01*
X958663Y8160163D01*
X1000404Y8125907D01*
X958089Y8103290D01*
X911799Y8065301D01*
X873810Y8019011D01*
X845582Y7966199D01*
X828199Y7908894D01*
X822329Y7849300D01*
X823800Y7644800D01*
X899800Y7568800D01*
X1370800Y7568800D01*
X1370800Y7588800D01*
X1524800Y7588800D01*
X1524800Y7568800D01*
X1995800Y7568800D01*
X2071800Y7644800D01*
X2073271Y7849300D01*
X2067401Y7908894D01*
X2050018Y7966199D01*
X2021790Y8019011D01*
X1983801Y8065301D01*
X1937511Y8103290D01*
X1895196Y8125907D01*
X1936937Y8160163D01*
X1994824Y8230699D01*
X2037838Y8311172D01*
X2064326Y8398491D01*
X2073270Y8489300D01*
X2073270Y8583552D01*
X2074706Y8582374D01*
X2149233Y8542539D01*
X2230099Y8518008D01*
X2293130Y8511800D01*
X2293139Y8511800D01*
X2314197Y8509726D01*
X2335255Y8511800D01*
X4273421Y8511800D01*
X4278361Y8495514D01*
X4328537Y8401642D01*
X4396062Y8319362D01*
X4478342Y8251837D01*
X4572214Y8201661D01*
X4651000Y8177762D01*
X4651001Y8026671D01*
X4613902Y8015417D01*
X4561090Y7987189D01*
X4514800Y7949200D01*
X4476811Y7902910D01*
X4448583Y7850098D01*
X4431200Y7792794D01*
X4425330Y7733200D01*
X4425330Y6833200D01*
X4431200Y6773606D01*
X4448583Y6716302D01*
X4476811Y6663490D01*
X4514800Y6617200D01*
X4561090Y6579211D01*
X4613902Y6550983D01*
X4671206Y6533600D01*
X4730800Y6527730D01*
X5530800Y6527730D01*
X5590394Y6533600D01*
X5647698Y6550983D01*
X5700510Y6579211D01*
X5746800Y6617200D01*
X5784789Y6663490D01*
X5813017Y6716302D01*
X5830400Y6773606D01*
X5836270Y6833200D01*
X5836270Y6854200D01*
X8918565Y6854200D01*
X8927368Y6841026D01*
X9025426Y6742968D01*
X9140731Y6665924D01*
X9268851Y6612855D01*
X9404862Y6585800D01*
X9543538Y6585800D01*
X9679549Y6612855D01*
X9807669Y6665924D01*
X9922974Y6742968D01*
X10021032Y6841026D01*
X10098076Y6956331D01*
X10151145Y7084451D01*
X10178200Y7220462D01*
X10178200Y7359138D01*
X10151145Y7495149D01*
X10098076Y7623269D01*
X10021032Y7738574D01*
X9922974Y7836632D01*
X9807669Y7913676D01*
X9679549Y7966745D01*
X9543538Y7993800D01*
X9404862Y7993800D01*
X9268851Y7966745D01*
X9140731Y7913676D01*
X9025426Y7836632D01*
X8927368Y7738574D01*
X8909746Y7712200D01*
X5836270Y7712200D01*
X5836270Y7733200D01*
X5830400Y7792794D01*
X5813017Y7850098D01*
X5784789Y7902910D01*
X5746800Y7949200D01*
X5700510Y7987189D01*
X5647698Y8015417D01*
X5590394Y8032800D01*
X5530800Y8038670D01*
X5509000Y8038670D01*
X5509000Y8177762D01*
X5587786Y8201661D01*
X5681658Y8251837D01*
X5763938Y8319362D01*
X5831463Y8401642D01*
X5865756Y8465800D01*
X5962029Y8465800D01*
X5967899Y8406206D01*
X5985282Y8348901D01*
X6013510Y8296089D01*
X6051499Y8249799D01*
X6097789Y8211810D01*
X6150601Y8183582D01*
X6207906Y8166199D01*
X6267500Y8160329D01*
X6652000Y8161800D01*
X6728000Y8237800D01*
X6728000Y8863800D01*
X6882000Y8863800D01*
X6882000Y8237800D01*
X6958000Y8161800D01*
X7342500Y8160329D01*
X7402094Y8166199D01*
X7459399Y8183582D01*
X7512211Y8211810D01*
X7558501Y8249799D01*
X7596490Y8296089D01*
X7624718Y8348901D01*
X7642101Y8406206D01*
X7647971Y8465800D01*
X7646500Y8787800D01*
X7570500Y8863800D01*
X6882000Y8863800D01*
X6728000Y8863800D01*
X6039500Y8863800D01*
X5963500Y8787800D01*
X5962029Y8465800D01*
X5865756Y8465800D01*
X5881639Y8495514D01*
X5912537Y8597372D01*
X5922970Y8703300D01*
X5922970Y9178300D01*
X5912537Y9284228D01*
X5881639Y9386086D01*
X5865757Y9415800D01*
X5962029Y9415800D01*
X5963500Y9093800D01*
X6039500Y9017800D01*
X6728000Y9017800D01*
X6728000Y9643800D01*
X6882000Y9643800D01*
X6882000Y9017800D01*
X7570500Y9017800D01*
X7646500Y9093800D01*
X7647971Y9415800D01*
X7642101Y9475394D01*
X7624718Y9532699D01*
X7596490Y9585511D01*
X7558501Y9631801D01*
X7512211Y9669790D01*
X7459399Y9698018D01*
X7402094Y9715401D01*
X7342500Y9721271D01*
X6958000Y9719800D01*
X6882000Y9643800D01*
X6728000Y9643800D01*
X6652000Y9719800D01*
X6267500Y9721271D01*
X6207906Y9715401D01*
X6150601Y9698018D01*
X6097789Y9669790D01*
X6051499Y9631801D01*
X6013510Y9585511D01*
X5985282Y9532699D01*
X5967899Y9475394D01*
X5962029Y9415800D01*
X5865757Y9415800D01*
X5831463Y9479958D01*
X5763938Y9562238D01*
X5681658Y9629763D01*
X5587786Y9679939D01*
X5485928Y9710837D01*
X5380000Y9721270D01*
X4780000Y9721270D01*
X4674072Y9710837D01*
X4572214Y9679939D01*
X4478342Y9629763D01*
X4396062Y9562238D01*
X4328537Y9479958D01*
X4278361Y9386086D01*
X4273421Y9369800D01*
X2491895Y9369800D01*
X1924729Y9936966D01*
X1959594Y9940400D01*
X2000000Y9952657D01*
X2040406Y9940400D01*
X2100000Y9934530D01*
X2400000Y9934530D01*
X2459594Y9940400D01*
X2500058Y9952675D01*
X2539511Y9940578D01*
X2597000Y9936000D01*
X2673000Y10012000D01*
X2673000Y10105858D01*
X2682217Y10123102D01*
X2699600Y10180406D01*
X2705470Y10240000D01*
X2705470Y10513000D01*
X2827000Y10513000D01*
X2827000Y10012000D01*
X2903000Y9936000D01*
X2960489Y9940578D01*
X3017741Y9958132D01*
X3070469Y9986518D01*
X3116645Y10024646D01*
X3154496Y10071049D01*
X3182566Y10123945D01*
X3199778Y10181301D01*
X3205470Y10240913D01*
X3204000Y10437000D01*
X3128000Y10513000D01*
X2827000Y10513000D01*
X2705470Y10513000D01*
X2705470Y10940000D01*
X2699600Y10999594D01*
X2682217Y11056898D01*
X2673000Y11074142D01*
X2673000Y11168000D01*
X2827000Y11168000D01*
X2827000Y10667000D01*
X3128000Y10667000D01*
X3204000Y10743000D01*
X3204113Y10758032D01*
X3302057Y10692588D01*
X3416528Y10645173D01*
X3538049Y10621000D01*
X3661951Y10621000D01*
X3783472Y10645173D01*
X3897943Y10692588D01*
X4000964Y10761424D01*
X4088576Y10849036D01*
X4157412Y10952057D01*
X4204827Y11066528D01*
X4229000Y11188049D01*
X4229000Y11311951D01*
X4204827Y11433472D01*
X4157412Y11547943D01*
X4088576Y11650964D01*
X4000964Y11738576D01*
X3897943Y11807412D01*
X3783472Y11854827D01*
X3661951Y11879000D01*
X3538049Y11879000D01*
X3443440Y11860180D01*
X3449778Y11881301D01*
X3455470Y11940913D01*
X3454000Y12137000D01*
X3378000Y12213000D01*
X3077000Y12213000D01*
X3077000Y11712000D01*
X3124730Y11664270D01*
X3111424Y11650964D01*
X3042588Y11547943D01*
X2995173Y11433472D01*
X2971000Y11311951D01*
X2971000Y11236199D01*
X2960489Y11239422D01*
X2903000Y11244000D01*
X2827000Y11168000D01*
X2673000Y11168000D01*
X2597000Y11244000D01*
X2539511Y11239422D01*
X2500058Y11227325D01*
X2459594Y11239600D01*
X2400000Y11245470D01*
X2100000Y11245470D01*
X2040406Y11239600D01*
X2000000Y11227343D01*
X1959594Y11239600D01*
X1900000Y11245470D01*
X1890475Y11245470D01*
X1898261Y11260037D01*
X1922792Y11340903D01*
X1929000Y11403934D01*
X1929000Y11403943D01*
X1931074Y11425001D01*
X1929000Y11446059D01*
X1929000Y11634530D01*
X2150000Y11634530D01*
X2209594Y11640400D01*
X2250000Y11652657D01*
X2290406Y11640400D01*
X2350000Y11634530D01*
X2650000Y11634530D01*
X2709594Y11640400D01*
X2750058Y11652675D01*
X2789511Y11640578D01*
X2847000Y11636000D01*
X2923000Y11712000D01*
X2923000Y11805858D01*
X2932217Y11823102D01*
X2949600Y11880406D01*
X2955470Y11940000D01*
X2955470Y12640000D01*
X2949600Y12699594D01*
X2932217Y12756898D01*
X2923000Y12774142D01*
X2923000Y12868000D01*
X3077000Y12868000D01*
X3077000Y12367000D01*
X3378000Y12367000D01*
X3454000Y12443000D01*
X3455470Y12639087D01*
X3449778Y12698699D01*
X3432566Y12756055D01*
X3404496Y12808951D01*
X3366645Y12855354D01*
X3320469Y12893482D01*
X3267741Y12921868D01*
X3210489Y12939422D01*
X3153000Y12944000D01*
X3077000Y12868000D01*
X2923000Y12868000D01*
X2847000Y12944000D01*
X2789511Y12939422D01*
X2750058Y12927325D01*
X2709594Y12939600D01*
X2650000Y12945470D01*
X2350000Y12945470D01*
X2290406Y12939600D01*
X2250000Y12927343D01*
X2209594Y12939600D01*
X2150000Y12945470D01*
X2118961Y12945470D01*
X2122476Y12950731D01*
X2175545Y13078851D01*
X2202600Y13214862D01*
X2202600Y13353538D01*
X2175545Y13489549D01*
X2122476Y13617669D01*
X2045432Y13732974D01*
X1947374Y13831032D01*
X1832069Y13908076D01*
X1703949Y13961145D01*
X1567938Y13988200D01*
X1429262Y13988200D01*
X1293251Y13961145D01*
X1165131Y13908076D01*
X1049826Y13831032D01*
X951768Y13732974D01*
X902649Y13659462D01*
X877876Y13719269D01*
X800832Y13834574D01*
X702774Y13932632D01*
X587469Y14009676D01*
X459349Y14062745D01*
X323338Y14089800D01*
X184662Y14089800D01*
X48651Y14062745D01*
X-79469Y14009676D01*
X-194774Y13932632D01*
X-292832Y13834574D01*
X-315761Y13800259D01*
X-1459754Y14944251D01*
X-1473184Y14960616D01*
X-1538508Y15014226D01*
X-1613035Y15054061D01*
X-1693901Y15078592D01*
X-1756932Y15084800D01*
X-1756942Y15084800D01*
X-1778000Y15086874D01*
X-1799058Y15084800D01*
X-5711649Y15084800D01*
X-5726776Y15113101D01*
X-5784663Y15183637D01*
X-5855199Y15241524D01*
X-5935672Y15284538D01*
X-6022991Y15311026D01*
X-6113800Y15319970D01*
X-6433800Y15319970D01*
X-6524609Y15311026D01*
X-6611928Y15284538D01*
X-6692401Y15241524D01*
X-6762937Y15183637D01*
X-6820824Y15113101D01*
X-6863838Y15032628D01*
X-6890326Y14945309D01*
X-6899270Y14854500D01*
X-6899270Y14459500D01*
X-6890326Y14368691D01*
X-6863838Y14281372D01*
X-6820824Y14200899D01*
X-6762937Y14130363D01*
X-6721196Y14096107D01*
X-6763511Y14073490D01*
X-6809801Y14035501D01*
X-6847790Y13989211D01*
X-6876018Y13936399D01*
X-6893401Y13879094D01*
X-6899271Y13819500D01*
X-6897800Y13615000D01*
X-6821800Y13539000D01*
X-6350800Y13539000D01*
X-6350800Y13559000D01*
X-6196800Y13559000D01*
X-6196800Y13539000D01*
X-5725800Y13539000D01*
X-5649800Y13615000D01*
X-5648329Y13819500D01*
X-5654199Y13879094D01*
X-5671582Y13936399D01*
X-5699810Y13989211D01*
X-5737799Y14035501D01*
X-5784089Y14073490D01*
X-5826404Y14096107D01*
X-5784663Y14130363D01*
X-5726776Y14200899D01*
X-5712932Y14226800D01*
X-1955697Y14226800D01*
X-1772764Y14043867D01*
X-1805549Y14037345D01*
X-1933669Y13984276D01*
X-2048974Y13907232D01*
X-2147032Y13809174D01*
X-2224076Y13693869D01*
X-2277145Y13565749D01*
X-2304200Y13429738D01*
X-2304200Y13291062D01*
X-2277145Y13155051D01*
X-2224076Y13026931D01*
X-2168433Y12943654D01*
X-2209594Y12939600D01*
X-2250058Y12927325D01*
X-2289511Y12939422D01*
X-2347000Y12944000D01*
X-2423000Y12868000D01*
X-2423000Y12774142D01*
X-2432217Y12756898D01*
X-2449600Y12699594D01*
X-2455470Y12640000D01*
X-2455470Y11940000D01*
X-2449600Y11880406D01*
X-2432217Y11823102D01*
X-2423000Y11805858D01*
X-2423000Y11712000D01*
X-2347000Y11636000D01*
X-2289511Y11640578D01*
X-2250058Y11652675D01*
X-2209594Y11640400D01*
X-2150000Y11634530D01*
X-1850000Y11634530D01*
X-1790406Y11640400D01*
X-1750000Y11652657D01*
X-1709594Y11640400D01*
X-1650000Y11634530D01*
X-1428999Y11634530D01*
X-1428999Y11602699D01*
X-1538448Y11493251D01*
X-1554816Y11479818D01*
X-1571915Y11458982D01*
X-1608426Y11414494D01*
X-1627333Y11379120D01*
X-1648261Y11339966D01*
X-1672792Y11259100D01*
X-1674134Y11245470D01*
X-1900000Y11245470D01*
X-1959594Y11239600D01*
X-2000000Y11227343D01*
X-2040406Y11239600D01*
X-2100000Y11245470D01*
X-2400000Y11245470D01*
X-2459594Y11239600D01*
X-2500058Y11227325D01*
X-2539511Y11239422D01*
X-2597000Y11244000D01*
X-2673000Y11168000D01*
X-2673000Y11074142D01*
X-2682217Y11056898D01*
X-2699600Y10999594D01*
X-2705470Y10940000D01*
X-2705470Y10493000D01*
X-2827000Y10493000D01*
X-2827000Y10513000D01*
X-3128000Y10513000D01*
X-3204000Y10437000D01*
X-3204697Y10343999D01*
X-7019501Y10343999D01*
X-7789752Y11114249D01*
X-7803184Y11130616D01*
X-7868508Y11184226D01*
X-7943035Y11224061D01*
X-8023901Y11248592D01*
X-8086932Y11254800D01*
X-8086942Y11254800D01*
X-8108000Y11256874D01*
X-8129058Y11254800D01*
X-8150446Y11254800D01*
X-8136426Y11264168D01*
X-8120778Y11279816D01*
X-4427535Y11279816D01*
X-4427311Y11247699D01*
X-4427535Y11215648D01*
X-4427053Y11210728D01*
X-4420423Y11147648D01*
X-4413964Y11116184D01*
X-4407960Y11084705D01*
X-4406532Y11079973D01*
X-4387776Y11019380D01*
X-4375336Y10989787D01*
X-4363320Y10960047D01*
X-4361000Y10955683D01*
X-4330831Y10899888D01*
X-4312885Y10873283D01*
X-4295321Y10846443D01*
X-4292197Y10842612D01*
X-4251766Y10793740D01*
X-4228976Y10771108D01*
X-4206553Y10748211D01*
X-4202750Y10745065D01*
X-4202743Y10745058D01*
X-4202735Y10745053D01*
X-4153590Y10704971D01*
X-4126884Y10687228D01*
X-4100394Y10669089D01*
X-4096046Y10666738D01*
X-4040041Y10636960D01*
X-4010368Y10624729D01*
X-3980887Y10612094D01*
X-3976165Y10610632D01*
X-3915443Y10592299D01*
X-3883959Y10586065D01*
X-3852589Y10579397D01*
X-3847673Y10578880D01*
X-3784547Y10572690D01*
X-3784541Y10572690D01*
X-3767382Y10571000D01*
X-3432618Y10571000D01*
X-3415134Y10572722D01*
X-3410920Y10572722D01*
X-3406004Y10573238D01*
X-3342971Y10580308D01*
X-3311569Y10586983D01*
X-3280112Y10593211D01*
X-3275390Y10594672D01*
X-3214930Y10613851D01*
X-3185375Y10626518D01*
X-3155777Y10638718D01*
X-3151428Y10641068D01*
X-3104259Y10667000D01*
X-2827000Y10667000D01*
X-2827000Y10983920D01*
X-2822923Y10994010D01*
X-2810496Y11023575D01*
X-2809067Y11028307D01*
X-2791159Y11089155D01*
X-2785146Y11120681D01*
X-2778697Y11152096D01*
X-2778214Y11157016D01*
X-2772465Y11220184D01*
X-2772689Y11252302D01*
X-2772465Y11284353D01*
X-2772947Y11289272D01*
X-2779577Y11352353D01*
X-2786036Y11383818D01*
X-2792040Y11415295D01*
X-2793469Y11420028D01*
X-2793469Y11420030D01*
X-2793471Y11420036D01*
X-2812224Y11480620D01*
X-2824669Y11510225D01*
X-2836680Y11539953D01*
X-2839000Y11544317D01*
X-2869169Y11600112D01*
X-2887115Y11626717D01*
X-2904679Y11653557D01*
X-2907803Y11657388D01*
X-2948234Y11706260D01*
X-2971008Y11728875D01*
X-2993447Y11751789D01*
X-2997256Y11754940D01*
X-3046410Y11795029D01*
X-3073126Y11812779D01*
X-3099606Y11830910D01*
X-3103954Y11833262D01*
X-3159958Y11863040D01*
X-3189657Y11875281D01*
X-3219113Y11887906D01*
X-3223831Y11889367D01*
X-3223837Y11889369D01*
X-3284557Y11907701D01*
X-3316041Y11913935D01*
X-3347411Y11920603D01*
X-3352327Y11921120D01*
X-3415453Y11927310D01*
X-3415459Y11927310D01*
X-3432618Y11929000D01*
X-3767382Y11929000D01*
X-3784866Y11927278D01*
X-3789081Y11927278D01*
X-3793997Y11926762D01*
X-3857029Y11919692D01*
X-3888431Y11913017D01*
X-3919888Y11906789D01*
X-3924610Y11905328D01*
X-3985070Y11886149D01*
X-4014625Y11873482D01*
X-4044223Y11861282D01*
X-4048567Y11858934D01*
X-4048572Y11858932D01*
X-4048576Y11858929D01*
X-4104155Y11828375D01*
X-4130677Y11810215D01*
X-4157349Y11792494D01*
X-4161158Y11789344D01*
X-4161161Y11789342D01*
X-4161164Y11789339D01*
X-4209748Y11748573D01*
X-4232210Y11725635D01*
X-4254968Y11703035D01*
X-4258093Y11699205D01*
X-4297837Y11649772D01*
X-4315410Y11622917D01*
X-4333342Y11596331D01*
X-4335663Y11591967D01*
X-4365050Y11535756D01*
X-4377066Y11506017D01*
X-4389504Y11476426D01*
X-4390933Y11471694D01*
X-4408841Y11410845D01*
X-4414854Y11379319D01*
X-4421303Y11347904D01*
X-4421786Y11342984D01*
X-4427535Y11279816D01*
X-8120778Y11279816D01*
X-8038368Y11362226D01*
X-7961324Y11477531D01*
X-7908255Y11605651D01*
X-7881200Y11741662D01*
X-7881200Y11880338D01*
X-7893249Y11940913D01*
X-2955470Y11940913D01*
X-2949778Y11881301D01*
X-2932566Y11823945D01*
X-2904496Y11771049D01*
X-2866645Y11724646D01*
X-2820469Y11686518D01*
X-2767741Y11658132D01*
X-2710489Y11640578D01*
X-2653000Y11636000D01*
X-2577000Y11712000D01*
X-2577000Y12213000D01*
X-2878000Y12213000D01*
X-2954000Y12137000D01*
X-2955470Y11940913D01*
X-7893249Y11940913D01*
X-7908255Y12016349D01*
X-7961324Y12144469D01*
X-8038368Y12259774D01*
X-8136426Y12357832D01*
X-8251731Y12434876D01*
X-8379851Y12487945D01*
X-8515862Y12515000D01*
X-8654538Y12515000D01*
X-8790549Y12487945D01*
X-8918669Y12434876D01*
X-9033974Y12357832D01*
X-9132032Y12259774D01*
X-9209076Y12144469D01*
X-9262145Y12016349D01*
X-9289200Y11880338D01*
X-9289200Y11754800D01*
X-9491174Y11754800D01*
X-9506100Y11756270D01*
X-10113130Y11756270D01*
X-10113130Y12363300D01*
X-10120200Y12435087D01*
X-10141140Y12504116D01*
X-10175144Y12567733D01*
X-10220906Y12623494D01*
X-10239906Y12639087D01*
X-2955470Y12639087D01*
X-2954000Y12443000D01*
X-2878000Y12367000D01*
X-2577000Y12367000D01*
X-2577000Y12868000D01*
X-2653000Y12944000D01*
X-2710489Y12939422D01*
X-2767741Y12921868D01*
X-2820469Y12893482D01*
X-2866645Y12855354D01*
X-2904496Y12808951D01*
X-2932566Y12756055D01*
X-2949778Y12698699D01*
X-2955470Y12639087D01*
X-10239906Y12639087D01*
X-10276667Y12669256D01*
X-10340284Y12703260D01*
X-10409313Y12724200D01*
X-10481100Y12731270D01*
X-10606100Y12731270D01*
X-10614600Y12730433D01*
X-10614600Y13104500D01*
X-6899271Y13104500D01*
X-6893401Y13044906D01*
X-6876018Y12987601D01*
X-6847790Y12934789D01*
X-6809801Y12888499D01*
X-6763511Y12850510D01*
X-6710699Y12822282D01*
X-6653394Y12804899D01*
X-6593800Y12799029D01*
X-6426800Y12800500D01*
X-6350800Y12876500D01*
X-6350800Y13385000D01*
X-6196800Y13385000D01*
X-6196800Y12876500D01*
X-6120800Y12800500D01*
X-5953800Y12799029D01*
X-5894206Y12804899D01*
X-5836901Y12822282D01*
X-5784089Y12850510D01*
X-5737799Y12888499D01*
X-5699810Y12934789D01*
X-5671582Y12987601D01*
X-5654199Y13044906D01*
X-5648329Y13104500D01*
X-5649800Y13309000D01*
X-5725800Y13385000D01*
X-6196800Y13385000D01*
X-6350800Y13385000D01*
X-6821800Y13385000D01*
X-6897800Y13309000D01*
X-6899271Y13104500D01*
X-10614600Y13104500D01*
X-10614600Y13365903D01*
X-10405063Y13575440D01*
X-10381738Y13570800D01*
X-10243062Y13570800D01*
X-10107051Y13597855D01*
X-9978931Y13650924D01*
X-9863626Y13727968D01*
X-9765568Y13826026D01*
X-9688524Y13941331D01*
X-9635455Y14069451D01*
X-9608400Y14205462D01*
X-9608400Y14344138D01*
X-9635455Y14480149D01*
X-9688524Y14608269D01*
X-9765568Y14723574D01*
X-9863626Y14821632D01*
X-9978931Y14898676D01*
X-10107051Y14951745D01*
X-10243062Y14978800D01*
X-10381738Y14978800D01*
X-10517749Y14951745D01*
X-10645869Y14898676D01*
X-10761174Y14821632D01*
X-10859232Y14723574D01*
X-10936276Y14608269D01*
X-10989345Y14480149D01*
X-11016400Y14344138D01*
X-11016400Y14205462D01*
X-11011760Y14182137D01*
X-11332054Y13861843D01*
X-11348415Y13848416D01*
X-11361843Y13832054D01*
X-11361846Y13832051D01*
X-11402026Y13783092D01*
X-11441860Y13708565D01*
X-11466391Y13627699D01*
X-11474674Y13543600D01*
X-11472599Y13522532D01*
X-11472600Y12730433D01*
X-11481100Y12731270D01*
X-11606100Y12731270D01*
X-11677887Y12724200D01*
X-11746916Y12703260D01*
X-11769921Y12690964D01*
X-11795089Y12705188D01*
X-11851968Y12723915D01*
X-11892600Y12729800D01*
X-11968600Y12653800D01*
X-11968600Y12418841D01*
X-11974070Y12363300D01*
X-11974070Y11928800D01*
X-12113130Y11928800D01*
X-12113130Y12363300D01*
X-12114600Y12378226D01*
X-12114600Y13929330D01*
X-12005300Y13929330D01*
X-11899372Y13939763D01*
X-11797514Y13970661D01*
X-11703642Y14020837D01*
X-11621362Y14088362D01*
X-11553837Y14170642D01*
X-11503661Y14264514D01*
X-11472763Y14366372D01*
X-11462330Y14472300D01*
X-11462330Y15072300D01*
X-11472763Y15178228D01*
X-11503661Y15280086D01*
X-11553837Y15373958D01*
X-11621362Y15456238D01*
X-11703642Y15523763D01*
X-11797514Y15573939D01*
X-11899372Y15604837D01*
X-12005300Y15615270D01*
X-12480300Y15615270D01*
X-12586228Y15604837D01*
X-12688086Y15573939D01*
X-12750483Y15540587D01*
X-12774624Y15598867D01*
X-12825318Y15674736D01*
X-12777394Y15660199D01*
X-12717800Y15654329D01*
X-12395800Y15655800D01*
X-12319800Y15731800D01*
X-12319800Y16420300D01*
X-12165800Y16420300D01*
X-12165800Y15731800D01*
X-12089800Y15655800D01*
X-11767800Y15654329D01*
X-11708206Y15660199D01*
X-11650901Y15677582D01*
X-11598089Y15705810D01*
X-11551799Y15743799D01*
X-11513810Y15790089D01*
X-11485582Y15842901D01*
X-11468199Y15900206D01*
X-11462329Y15959800D01*
X-11463800Y16344300D01*
X-11539800Y16420300D01*
X-12165800Y16420300D01*
X-12319800Y16420300D01*
X-12945800Y16420300D01*
X-13021800Y16344300D01*
X-13023271Y15959800D01*
X-13017401Y15900206D01*
X-13001134Y15846579D01*
X-13065031Y15889274D01*
X-13193151Y15942343D01*
X-13329162Y15969398D01*
X-13467838Y15969398D01*
X-13603849Y15942343D01*
X-13731969Y15889274D01*
X-13847274Y15812230D01*
X-13945332Y15714172D01*
X-14022376Y15598867D01*
X-14075445Y15470747D01*
X-14102500Y15334736D01*
X-14102500Y15196060D01*
X-14075445Y15060049D01*
X-14022376Y14931929D01*
X-13945332Y14816624D01*
X-13847274Y14718566D01*
X-13731969Y14641522D01*
X-13687799Y14623226D01*
X-13687800Y13970086D01*
X-13727123Y13949067D01*
X-13782643Y13903502D01*
X-13810299Y13937201D01*
X-13856589Y13975190D01*
X-13909401Y14003418D01*
X-13966706Y14020801D01*
X-14026300Y14026671D01*
X-14240800Y14025200D01*
X-14316800Y13949200D01*
X-14316800Y13488200D01*
X-14296800Y13488200D01*
X-14296800Y13334200D01*
X-14316800Y13334200D01*
X-14316800Y13314200D01*
X-14470800Y13314200D01*
X-14470800Y13334200D01*
X-14989300Y13334200D01*
X-15065300Y13258200D01*
X-15066034Y13179810D01*
X-16311122Y13179810D01*
X-16332190Y13181885D01*
X-16416289Y13173602D01*
X-16497156Y13149071D01*
X-16571682Y13109236D01*
X-16620642Y13069056D01*
X-16620644Y13069054D01*
X-16637006Y13055626D01*
X-16650434Y13039264D01*
X-19227697Y10462000D01*
X-22991335Y10462000D01*
X-23012400Y10464075D01*
X-23033465Y10462000D01*
X-23033468Y10462000D01*
X-23096499Y10455792D01*
X-23158446Y10437000D01*
X-23177366Y10431261D01*
X-23251892Y10391426D01*
X-23300852Y10351246D01*
X-23300854Y10351244D01*
X-23317216Y10337816D01*
X-23330644Y10321454D01*
X-24164449Y9487648D01*
X-24180816Y9474216D01*
X-24194246Y9457851D01*
X-24234426Y9408892D01*
X-24254211Y9371875D01*
X-24274261Y9334364D01*
X-24298792Y9253498D01*
X-24305000Y9190467D01*
X-24305000Y9190458D01*
X-24307074Y9169400D01*
X-24671000Y9169400D01*
X-24671000Y13721200D01*
X-15066771Y13721200D01*
X-15065300Y13564200D01*
X-14989300Y13488200D01*
X-14470800Y13488200D01*
X-14470800Y13949200D01*
X-14546800Y14025200D01*
X-14761300Y14026671D01*
X-14820894Y14020801D01*
X-14878199Y14003418D01*
X-14931011Y13975190D01*
X-14977301Y13937201D01*
X-15015290Y13890911D01*
X-15043518Y13838099D01*
X-15060901Y13780794D01*
X-15066771Y13721200D01*
X-24671000Y13721200D01*
X-24671000Y16437528D01*
X-23204000Y16437528D01*
X-23204000Y16062472D01*
X-23130831Y15694624D01*
X-22987303Y15348118D01*
X-22778934Y15036271D01*
X-22513729Y14771066D01*
X-22201882Y14562697D01*
X-21855376Y14419169D01*
X-21487528Y14346000D01*
X-21112472Y14346000D01*
X-20744624Y14419169D01*
X-20398118Y14562697D01*
X-20086271Y14771066D01*
X-19821066Y15036271D01*
X-19612697Y15348118D01*
X-19469169Y15694624D01*
X-19454865Y15766538D01*
X-15867800Y15766538D01*
X-15867800Y15627862D01*
X-15840745Y15491851D01*
X-15787676Y15363731D01*
X-15710632Y15248426D01*
X-15612574Y15150368D01*
X-15497269Y15073324D01*
X-15369149Y15020255D01*
X-15233138Y14993200D01*
X-15094462Y14993200D01*
X-14958451Y15020255D01*
X-14830331Y15073324D01*
X-14715026Y15150368D01*
X-14616968Y15248426D01*
X-14539924Y15363731D01*
X-14486855Y15491851D01*
X-14459800Y15627862D01*
X-14459800Y15766538D01*
X-14486855Y15902549D01*
X-14539924Y16030669D01*
X-14616968Y16145974D01*
X-14715026Y16244032D01*
X-14734800Y16257245D01*
X-14734800Y17034800D01*
X-13023271Y17034800D01*
X-13021800Y16650300D01*
X-12945800Y16574300D01*
X-12319800Y16574300D01*
X-12319800Y17262800D01*
X-12165800Y17262800D01*
X-12165800Y16574300D01*
X-11539800Y16574300D01*
X-11463800Y16650300D01*
X-11462329Y17034800D01*
X-11468199Y17094394D01*
X-11485582Y17151699D01*
X-11513810Y17204511D01*
X-11551799Y17250801D01*
X-11598089Y17288790D01*
X-11650901Y17317018D01*
X-11708206Y17334401D01*
X-11767800Y17340271D01*
X-12089800Y17338800D01*
X-12165800Y17262800D01*
X-12319800Y17262800D01*
X-12395800Y17338800D01*
X-12717800Y17340271D01*
X-12777394Y17334401D01*
X-12834699Y17317018D01*
X-12887511Y17288790D01*
X-12933801Y17250801D01*
X-12971790Y17204511D01*
X-13000018Y17151699D01*
X-13017401Y17094394D01*
X-13023271Y17034800D01*
X-14734800Y17034800D01*
X-14734800Y18338903D01*
X-14503503Y18570200D01*
X-8712097Y18570200D01*
X-8176000Y18034102D01*
X-8175999Y16892245D01*
X-8195774Y16879032D01*
X-8293832Y16780974D01*
X-8370876Y16665669D01*
X-8423945Y16537549D01*
X-8451000Y16401538D01*
X-8451000Y16262862D01*
X-8423945Y16126851D01*
X-8370876Y15998731D01*
X-8293832Y15883426D01*
X-8195774Y15785368D01*
X-8080469Y15708324D01*
X-7952349Y15655255D01*
X-7816338Y15628200D01*
X-7677662Y15628200D01*
X-7541651Y15655255D01*
X-7413531Y15708324D01*
X-7298226Y15785368D01*
X-7200168Y15883426D01*
X-7123124Y15998731D01*
X-7070055Y16126851D01*
X-7043000Y16262862D01*
X-7043000Y16401538D01*
X-7070055Y16537549D01*
X-7123124Y16665669D01*
X-7200168Y16780974D01*
X-7298226Y16879032D01*
X-7318000Y16892245D01*
X-7318000Y18190732D01*
X-7315925Y18211800D01*
X-7324208Y18295899D01*
X-7348739Y18376766D01*
X-7388574Y18451292D01*
X-7428754Y18500252D01*
X-7428756Y18500254D01*
X-7442184Y18516616D01*
X-7458545Y18530043D01*
X-8216152Y19287649D01*
X-8229584Y19304016D01*
X-8294908Y19357626D01*
X-8369435Y19397461D01*
X-8450301Y19421992D01*
X-8513332Y19428200D01*
X-8513342Y19428200D01*
X-8534400Y19430274D01*
X-8555458Y19428200D01*
X-14660143Y19428200D01*
X-14681201Y19430274D01*
X-14702259Y19428200D01*
X-14702268Y19428200D01*
X-14765299Y19421992D01*
X-14846165Y19397461D01*
X-14920692Y19357626D01*
X-14986016Y19304016D01*
X-14999448Y19287649D01*
X-15452253Y18834844D01*
X-15468615Y18821416D01*
X-15482043Y18805054D01*
X-15482046Y18805051D01*
X-15522226Y18756092D01*
X-15562060Y18681565D01*
X-15586591Y18600699D01*
X-15594874Y18516600D01*
X-15592799Y18495532D01*
X-15592800Y16257245D01*
X-15612574Y16244032D01*
X-15710632Y16145974D01*
X-15787676Y16030669D01*
X-15840745Y15902549D01*
X-15867800Y15766538D01*
X-19454865Y15766538D01*
X-19396000Y16062472D01*
X-19396000Y16437528D01*
X-19469169Y16805376D01*
X-19612697Y17151882D01*
X-19821066Y17463729D01*
X-20086271Y17728934D01*
X-20398118Y17937303D01*
X-20744624Y18080831D01*
X-21112472Y18154000D01*
X-21487528Y18154000D01*
X-21855376Y18080831D01*
X-22201882Y17937303D01*
X-22513729Y17728934D01*
X-22778934Y17463729D01*
X-22987303Y17151882D01*
X-23130831Y16805376D01*
X-23204000Y16437528D01*
X-24671000Y16437528D01*
X-24671000Y19671000D01*
X24671001Y19671000D01*
X24671000Y-19671000D01*
G37*
G04 #@! TD.AperFunction*
D18*
X-15421060Y9622484D02*
X-15396107Y9575800D01*
X-15421060Y9529116D01*
X-15442000Y9460087D01*
X-15449070Y9388300D01*
X-15449070Y9263300D01*
X-15442000Y9191513D01*
X-15421060Y9122484D01*
X-15396107Y9075800D01*
X-15421060Y9029116D01*
X-15442000Y8960087D01*
X-15449070Y8888300D01*
X-15449070Y8763300D01*
X-15448233Y8754800D01*
X-15567243Y8754800D01*
X-15588301Y8756874D01*
X-15609359Y8754800D01*
X-15609368Y8754800D01*
X-15672399Y8748592D01*
X-15753265Y8724061D01*
X-15787958Y8705517D01*
X-15827793Y8684226D01*
X-15876752Y8644046D01*
X-15876754Y8644044D01*
X-15893116Y8630616D01*
X-15906544Y8614254D01*
X-17369837Y7150960D01*
X-17393162Y7155600D01*
X-17531838Y7155600D01*
X-17667849Y7128545D01*
X-17795969Y7075476D01*
X-17911274Y6998432D01*
X-18009332Y6900374D01*
X-18086376Y6785069D01*
X-18139445Y6656949D01*
X-18166500Y6520938D01*
X-18166500Y6382262D01*
X-18139445Y6246251D01*
X-18086376Y6118131D01*
X-18009332Y6002826D01*
X-17911274Y5904768D01*
X-17795969Y5827724D01*
X-17667849Y5774655D01*
X-17531838Y5747600D01*
X-17393162Y5747600D01*
X-17257151Y5774655D01*
X-17129031Y5827724D01*
X-17013726Y5904768D01*
X-16915668Y6002826D01*
X-16838624Y6118131D01*
X-16785555Y6246251D01*
X-16758500Y6382262D01*
X-16758500Y6520938D01*
X-16763140Y6544263D01*
X-16539388Y6768015D01*
X-16526545Y6703451D01*
X-16473476Y6575331D01*
X-16396432Y6460026D01*
X-16298374Y6361968D01*
X-16183069Y6284924D01*
X-16054949Y6231855D01*
X-15918938Y6204800D01*
X-15780262Y6204800D01*
X-15644251Y6231855D01*
X-15516131Y6284924D01*
X-15486800Y6304522D01*
X-15486800Y6280662D01*
X-15482160Y6257337D01*
X-16509897Y5229600D01*
X-20478972Y5229600D01*
X-20489416Y5245230D01*
X-20586570Y5342384D01*
X-20700810Y5418717D01*
X-20741569Y5435600D01*
X-20700810Y5452483D01*
X-20586570Y5528816D01*
X-20489416Y5625970D01*
X-20478972Y5641600D01*
X-20290258Y5641600D01*
X-20269200Y5639526D01*
X-20248142Y5641600D01*
X-20248132Y5641600D01*
X-20185101Y5647808D01*
X-20104235Y5672339D01*
X-20029708Y5712174D01*
X-19964384Y5765784D01*
X-19950952Y5782151D01*
X-19507302Y6225800D01*
X-18931358Y6225800D01*
X-18910300Y6223726D01*
X-18889242Y6225800D01*
X-18889232Y6225800D01*
X-18826201Y6232008D01*
X-18745335Y6256539D01*
X-18670808Y6296374D01*
X-18605484Y6349984D01*
X-18592052Y6366351D01*
X-16522735Y8435667D01*
X-16473708Y8461872D01*
X-16408384Y8515482D01*
X-16354774Y8580806D01*
X-16314939Y8655333D01*
X-16290408Y8736199D01*
X-16282125Y8820298D01*
X-16285301Y8852545D01*
X-16285301Y9486255D01*
X-16284200Y9497434D01*
X-16284200Y9497444D01*
X-16282126Y9518501D01*
X-16284200Y9539559D01*
X-16284200Y9657558D01*
X-16193876Y9597206D01*
X-16065756Y9544137D01*
X-15929745Y9517082D01*
X-15791069Y9517082D01*
X-15655058Y9544137D01*
X-15526938Y9597206D01*
X-15432528Y9660288D01*
X-15421060Y9622484D01*
G04 #@! TA.AperFunction,Conductor*
D19*
G36*
X-15421060Y9622484D02*
G01*
X-15396107Y9575800D01*
X-15421060Y9529116D01*
X-15442000Y9460087D01*
X-15449070Y9388300D01*
X-15449070Y9263300D01*
X-15442000Y9191513D01*
X-15421060Y9122484D01*
X-15396107Y9075800D01*
X-15421060Y9029116D01*
X-15442000Y8960087D01*
X-15449070Y8888300D01*
X-15449070Y8763300D01*
X-15448233Y8754800D01*
X-15567243Y8754800D01*
X-15588301Y8756874D01*
X-15609359Y8754800D01*
X-15609368Y8754800D01*
X-15672399Y8748592D01*
X-15753265Y8724061D01*
X-15787958Y8705517D01*
X-15827793Y8684226D01*
X-15876752Y8644046D01*
X-15876754Y8644044D01*
X-15893116Y8630616D01*
X-15906544Y8614254D01*
X-17369837Y7150960D01*
X-17393162Y7155600D01*
X-17531838Y7155600D01*
X-17667849Y7128545D01*
X-17795969Y7075476D01*
X-17911274Y6998432D01*
X-18009332Y6900374D01*
X-18086376Y6785069D01*
X-18139445Y6656949D01*
X-18166500Y6520938D01*
X-18166500Y6382262D01*
X-18139445Y6246251D01*
X-18086376Y6118131D01*
X-18009332Y6002826D01*
X-17911274Y5904768D01*
X-17795969Y5827724D01*
X-17667849Y5774655D01*
X-17531838Y5747600D01*
X-17393162Y5747600D01*
X-17257151Y5774655D01*
X-17129031Y5827724D01*
X-17013726Y5904768D01*
X-16915668Y6002826D01*
X-16838624Y6118131D01*
X-16785555Y6246251D01*
X-16758500Y6382262D01*
X-16758500Y6520938D01*
X-16763140Y6544263D01*
X-16539388Y6768015D01*
X-16526545Y6703451D01*
X-16473476Y6575331D01*
X-16396432Y6460026D01*
X-16298374Y6361968D01*
X-16183069Y6284924D01*
X-16054949Y6231855D01*
X-15918938Y6204800D01*
X-15780262Y6204800D01*
X-15644251Y6231855D01*
X-15516131Y6284924D01*
X-15486800Y6304522D01*
X-15486800Y6280662D01*
X-15482160Y6257337D01*
X-16509897Y5229600D01*
X-20478972Y5229600D01*
X-20489416Y5245230D01*
X-20586570Y5342384D01*
X-20700810Y5418717D01*
X-20741569Y5435600D01*
X-20700810Y5452483D01*
X-20586570Y5528816D01*
X-20489416Y5625970D01*
X-20478972Y5641600D01*
X-20290258Y5641600D01*
X-20269200Y5639526D01*
X-20248142Y5641600D01*
X-20248132Y5641600D01*
X-20185101Y5647808D01*
X-20104235Y5672339D01*
X-20029708Y5712174D01*
X-19964384Y5765784D01*
X-19950952Y5782151D01*
X-19507302Y6225800D01*
X-18931358Y6225800D01*
X-18910300Y6223726D01*
X-18889242Y6225800D01*
X-18889232Y6225800D01*
X-18826201Y6232008D01*
X-18745335Y6256539D01*
X-18670808Y6296374D01*
X-18605484Y6349984D01*
X-18592052Y6366351D01*
X-16522735Y8435667D01*
X-16473708Y8461872D01*
X-16408384Y8515482D01*
X-16354774Y8580806D01*
X-16314939Y8655333D01*
X-16290408Y8736199D01*
X-16282125Y8820298D01*
X-16285301Y8852545D01*
X-16285301Y9486255D01*
X-16284200Y9497434D01*
X-16284200Y9497444D01*
X-16282126Y9518501D01*
X-16284200Y9539559D01*
X-16284200Y9657558D01*
X-16193876Y9597206D01*
X-16065756Y9544137D01*
X-15929745Y9517082D01*
X-15791069Y9517082D01*
X-15655058Y9544137D01*
X-15526938Y9597206D01*
X-15432528Y9660288D01*
X-15421060Y9622484D01*
G37*
G04 #@! TD.AperFunction*
D18*
X-16105444Y12314254D02*
X-17001649Y11418048D01*
X-17018016Y11404616D01*
X-17037932Y11380348D01*
X-17071626Y11339292D01*
X-17090584Y11303822D01*
X-17111461Y11264764D01*
X-17135992Y11183898D01*
X-17142200Y11120867D01*
X-17142200Y11120858D01*
X-17144274Y11099800D01*
X-17142200Y11078742D01*
X-17142199Y9549656D01*
X-17143301Y9538468D01*
X-17143301Y9538459D01*
X-17145375Y9517401D01*
X-17143301Y9496343D01*
X-17143300Y9028498D01*
X-17483855Y8687943D01*
X-17484055Y8688949D01*
X-17537124Y8817069D01*
X-17614168Y8932374D01*
X-17712226Y9030432D01*
X-17827531Y9107476D01*
X-17955651Y9160545D01*
X-18091662Y9187600D01*
X-18230338Y9187600D01*
X-18366349Y9160545D01*
X-18494469Y9107476D01*
X-18609774Y9030432D01*
X-18707832Y8932374D01*
X-18784876Y8817069D01*
X-18837945Y8688949D01*
X-18865000Y8552938D01*
X-18865000Y8414262D01*
X-18860360Y8390937D01*
X-19481697Y7769600D01*
X-20478972Y7769600D01*
X-20489416Y7785230D01*
X-20524771Y7820585D01*
X-20417995Y7841825D01*
X-20272495Y7902093D01*
X-20141549Y7989588D01*
X-20030188Y8100949D01*
X-19942693Y8231895D01*
X-19882425Y8377395D01*
X-19851700Y8531856D01*
X-19851700Y8689344D01*
X-19882425Y8843805D01*
X-19942693Y8989305D01*
X-20030188Y9120251D01*
X-20141549Y9231612D01*
X-20272495Y9319107D01*
X-20417995Y9379375D01*
X-20572456Y9410100D01*
X-20729944Y9410100D01*
X-20884405Y9379375D01*
X-21029905Y9319107D01*
X-21160851Y9231612D01*
X-21272212Y9120251D01*
X-21359707Y8989305D01*
X-21419975Y8843805D01*
X-21450700Y8689344D01*
X-21450700Y8531856D01*
X-21419975Y8377395D01*
X-21359707Y8231895D01*
X-21272212Y8100949D01*
X-21191202Y8019939D01*
X-21234653Y8011296D01*
X-21361590Y7958717D01*
X-21475830Y7882384D01*
X-21572984Y7785230D01*
X-21649317Y7670990D01*
X-21666200Y7630231D01*
X-21683083Y7670990D01*
X-21759416Y7785230D01*
X-21856570Y7882384D01*
X-21970810Y7958717D01*
X-22097747Y8011296D01*
X-22141198Y8019939D01*
X-22060188Y8100949D01*
X-21972693Y8231895D01*
X-21912425Y8377395D01*
X-21881700Y8531856D01*
X-21881700Y8689344D01*
X-21912425Y8843805D01*
X-21972693Y8989305D01*
X-22060188Y9120251D01*
X-22171549Y9231612D01*
X-22302495Y9319107D01*
X-22447995Y9379375D01*
X-22602456Y9410100D01*
X-22759944Y9410100D01*
X-22914405Y9379375D01*
X-23059905Y9319107D01*
X-23190851Y9231612D01*
X-23302212Y9120251D01*
X-23389707Y8989305D01*
X-23447000Y8850987D01*
X-23447000Y8991703D01*
X-22834702Y9604000D01*
X-19071058Y9604000D01*
X-19050000Y9601926D01*
X-19028942Y9604000D01*
X-19028932Y9604000D01*
X-18965901Y9610208D01*
X-18885035Y9634739D01*
X-18810508Y9674574D01*
X-18745184Y9728184D01*
X-18731752Y9744551D01*
X-16154492Y12321810D01*
X-16099243Y12321810D01*
X-16105444Y12314254D01*
G04 #@! TA.AperFunction,Conductor*
D19*
G36*
X-16105444Y12314254D02*
G01*
X-17001649Y11418048D01*
X-17018016Y11404616D01*
X-17037932Y11380348D01*
X-17071626Y11339292D01*
X-17090584Y11303822D01*
X-17111461Y11264764D01*
X-17135992Y11183898D01*
X-17142200Y11120867D01*
X-17142200Y11120858D01*
X-17144274Y11099800D01*
X-17142200Y11078742D01*
X-17142199Y9549656D01*
X-17143301Y9538468D01*
X-17143301Y9538459D01*
X-17145375Y9517401D01*
X-17143301Y9496343D01*
X-17143300Y9028498D01*
X-17483855Y8687943D01*
X-17484055Y8688949D01*
X-17537124Y8817069D01*
X-17614168Y8932374D01*
X-17712226Y9030432D01*
X-17827531Y9107476D01*
X-17955651Y9160545D01*
X-18091662Y9187600D01*
X-18230338Y9187600D01*
X-18366349Y9160545D01*
X-18494469Y9107476D01*
X-18609774Y9030432D01*
X-18707832Y8932374D01*
X-18784876Y8817069D01*
X-18837945Y8688949D01*
X-18865000Y8552938D01*
X-18865000Y8414262D01*
X-18860360Y8390937D01*
X-19481697Y7769600D01*
X-20478972Y7769600D01*
X-20489416Y7785230D01*
X-20524771Y7820585D01*
X-20417995Y7841825D01*
X-20272495Y7902093D01*
X-20141549Y7989588D01*
X-20030188Y8100949D01*
X-19942693Y8231895D01*
X-19882425Y8377395D01*
X-19851700Y8531856D01*
X-19851700Y8689344D01*
X-19882425Y8843805D01*
X-19942693Y8989305D01*
X-20030188Y9120251D01*
X-20141549Y9231612D01*
X-20272495Y9319107D01*
X-20417995Y9379375D01*
X-20572456Y9410100D01*
X-20729944Y9410100D01*
X-20884405Y9379375D01*
X-21029905Y9319107D01*
X-21160851Y9231612D01*
X-21272212Y9120251D01*
X-21359707Y8989305D01*
X-21419975Y8843805D01*
X-21450700Y8689344D01*
X-21450700Y8531856D01*
X-21419975Y8377395D01*
X-21359707Y8231895D01*
X-21272212Y8100949D01*
X-21191202Y8019939D01*
X-21234653Y8011296D01*
X-21361590Y7958717D01*
X-21475830Y7882384D01*
X-21572984Y7785230D01*
X-21649317Y7670990D01*
X-21666200Y7630231D01*
X-21683083Y7670990D01*
X-21759416Y7785230D01*
X-21856570Y7882384D01*
X-21970810Y7958717D01*
X-22097747Y8011296D01*
X-22141198Y8019939D01*
X-22060188Y8100949D01*
X-21972693Y8231895D01*
X-21912425Y8377395D01*
X-21881700Y8531856D01*
X-21881700Y8689344D01*
X-21912425Y8843805D01*
X-21972693Y8989305D01*
X-22060188Y9120251D01*
X-22171549Y9231612D01*
X-22302495Y9319107D01*
X-22447995Y9379375D01*
X-22602456Y9410100D01*
X-22759944Y9410100D01*
X-22914405Y9379375D01*
X-23059905Y9319107D01*
X-23190851Y9231612D01*
X-23302212Y9120251D01*
X-23389707Y8989305D01*
X-23447000Y8850987D01*
X-23447000Y8991703D01*
X-22834702Y9604000D01*
X-19071058Y9604000D01*
X-19050000Y9601926D01*
X-19028942Y9604000D01*
X-19028932Y9604000D01*
X-18965901Y9610208D01*
X-18885035Y9634739D01*
X-18810508Y9674574D01*
X-18745184Y9728184D01*
X-18731752Y9744551D01*
X-16154492Y12321810D01*
X-16099243Y12321810D01*
X-16105444Y12314254D01*
G37*
G04 #@! TD.AperFunction*
M02*
