G04 #@! TF.GenerationSoftware,KiCad,Pcbnew,(5.1.10)-1*
G04 #@! TF.CreationDate,2021-08-08T15:57:29-07:00*
G04 #@! TF.ProjectId,twokey,74776f6b-6579-42e6-9b69-6361645f7063,rev?*
G04 #@! TF.SameCoordinates,Original*
G04 #@! TF.FileFunction,Copper,L2,Bot*
G04 #@! TF.FilePolarity,Positive*
%FSLAX46Y46*%
G04 Gerber Fmt 4.6, Leading zero omitted, Abs format (unit mm)*
G04 Created by KiCad (PCBNEW (5.1.10)-1) date 2021-08-08 15:57:29*
%MOMM*%
%LPD*%
G01*
G04 APERTURE LIST*
G04 #@! TA.AperFunction,ComponentPad*
%ADD10O,1.000000X1.600000*%
G04 #@! TD*
G04 #@! TA.AperFunction,ComponentPad*
%ADD11O,0.900000X2.100000*%
G04 #@! TD*
G04 #@! TA.AperFunction,SMDPad,CuDef*
%ADD12R,2.550000X2.500000*%
G04 #@! TD*
G04 #@! TA.AperFunction,ViaPad*
%ADD13C,0.800000*%
G04 #@! TD*
G04 #@! TA.AperFunction,Conductor*
%ADD14C,0.250000*%
G04 #@! TD*
G04 #@! TA.AperFunction,Conductor*
%ADD15C,0.100000*%
G04 #@! TD*
G04 #@! TA.AperFunction,Conductor*
%ADD16C,0.150000*%
G04 #@! TD*
G04 APERTURE END LIST*
D10*
X4320000Y17970000D03*
X-4320000Y17970000D03*
D11*
X4320000Y13790000D03*
X-4320000Y13790000D03*
D12*
X15990000Y-220000D03*
X2140000Y-2760000D03*
X-17260000Y-2760000D03*
X-3410000Y-220000D03*
D13*
X-11201400Y16383000D03*
X-13284200Y16357600D03*
X-12242800Y17449800D03*
X-12674600Y4851400D03*
X-11849100Y5588000D03*
X6819900Y9842500D03*
X7797800Y8915400D03*
X6858000Y8026400D03*
X4191000Y4368800D03*
X3314700Y5245100D03*
X4191000Y6184900D03*
X7861300Y4241800D03*
X8839200Y3314700D03*
X-11798300Y13220700D03*
X-15989300Y9169400D03*
X-14236700Y14287500D03*
X-5943600Y-10096500D03*
X-317500Y-10096500D03*
X4914900Y-10121900D03*
X-19700000Y4400000D03*
X-21300000Y11300000D03*
X-19700000Y7900000D03*
X-6000000Y-11700000D03*
X-300000Y-11700000D03*
X4900000Y-11700000D03*
X7900000Y2300000D03*
X-3400000Y-2100000D03*
X-1500000Y-300000D03*
X-3400000Y1600000D03*
X16000000Y-2100000D03*
X16000000Y1600000D03*
X17800000Y-200000D03*
X-9700000Y-8200000D03*
X9600000Y-8200000D03*
X-2900000Y10500000D03*
X-3200000Y11600024D03*
X1300000Y5900000D03*
X3200000Y11600000D03*
X2200000Y6900000D03*
X400000Y6800000D03*
X-8700000Y8000000D03*
X-17100000Y11900000D03*
X23200000Y12300000D03*
X-14782800Y6350000D03*
X-13398500Y15265398D03*
X-18700000Y5800000D03*
X3000000Y3400000D03*
X-200000Y-1400000D03*
X-14800000Y500000D03*
X-14800000Y-8300000D03*
X-12800000Y-10900000D03*
X-10312400Y14274800D03*
X-18800000Y7100000D03*
X-15860407Y10221082D03*
X-15163800Y15697200D03*
D14*
X-13258800Y15125698D02*
X-13398500Y15265398D01*
X-13258800Y13411200D02*
X-13258800Y15125698D01*
X-13043600Y13196000D02*
X-13258800Y13411200D01*
X-13043600Y8597200D02*
X-13043600Y13196000D01*
X-14046200Y7123200D02*
X-14046200Y7594600D01*
X-14782800Y6386600D02*
X-14046200Y7123200D01*
X-14046200Y7594600D02*
X-13043600Y8597200D01*
X-14782800Y6350000D02*
X-14782800Y6386600D01*
X-15332800Y5800000D02*
X-14782800Y6350000D01*
X-18700000Y5800000D02*
X-15332800Y5800000D01*
X-14782800Y6350000D02*
X-14782800Y3882800D01*
X-14300000Y3400000D02*
X3000000Y3400000D01*
X-14782800Y3882800D02*
X-14300000Y3400000D01*
X780000Y-1400000D02*
X2140000Y-2760000D01*
X-200000Y-1400000D02*
X780000Y-1400000D01*
X-14800000Y-300000D02*
X-17260000Y-2760000D01*
X-14800000Y500000D02*
X-14800000Y-300000D01*
X-14800000Y-8300000D02*
X-14800000Y-10300000D01*
X-14200000Y-10900000D02*
X-12800000Y-10900000D01*
X-14800000Y-10300000D02*
X-14200000Y-10900000D01*
X-11023600Y18186400D02*
X-10312400Y17475200D01*
X-18186400Y16433800D02*
X-16433800Y18186400D01*
X-16433800Y18186400D02*
X-11023600Y18186400D01*
X-18186400Y11887200D02*
X-18186400Y16433800D01*
X-10312400Y17475200D02*
X-10312400Y14274800D01*
X-18800000Y11300000D02*
X-18800000Y7100000D01*
X-18212800Y11887200D02*
X-18800000Y11300000D01*
X-15860407Y10221082D02*
X-15860407Y10657193D01*
X-15860407Y10657193D02*
X-15189200Y11328400D01*
X-15189200Y15671800D02*
X-15163800Y15697200D01*
X-15189200Y11328400D02*
X-15189200Y15671800D01*
D15*
X24671000Y-19671000D02*
X-24671000Y-19671000D01*
X-24671000Y-16062472D01*
X-23204000Y-16062472D01*
X-23204000Y-16437528D01*
X-23130831Y-16805376D01*
X-22987303Y-17151882D01*
X-22778934Y-17463729D01*
X-22513729Y-17728934D01*
X-22201882Y-17937303D01*
X-21855376Y-18080831D01*
X-21487528Y-18154000D01*
X-21112472Y-18154000D01*
X-20744624Y-18080831D01*
X-20398118Y-17937303D01*
X-20086271Y-17728934D01*
X-19821066Y-17463729D01*
X-19612697Y-17151882D01*
X-19469169Y-16805376D01*
X-19396000Y-16437528D01*
X-19396000Y-16062472D01*
X19396000Y-16062472D01*
X19396000Y-16437528D01*
X19469169Y-16805376D01*
X19612697Y-17151882D01*
X19821066Y-17463729D01*
X20086271Y-17728934D01*
X20398118Y-17937303D01*
X20744624Y-18080831D01*
X21112472Y-18154000D01*
X21487528Y-18154000D01*
X21855376Y-18080831D01*
X22201882Y-17937303D01*
X22513729Y-17728934D01*
X22778934Y-17463729D01*
X22987303Y-17151882D01*
X23130831Y-16805376D01*
X23204000Y-16437528D01*
X23204000Y-16062472D01*
X23130831Y-15694624D01*
X22987303Y-15348118D01*
X22778934Y-15036271D01*
X22513729Y-14771066D01*
X22201882Y-14562697D01*
X21855376Y-14419169D01*
X21487528Y-14346000D01*
X21112472Y-14346000D01*
X20744624Y-14419169D01*
X20398118Y-14562697D01*
X20086271Y-14771066D01*
X19821066Y-15036271D01*
X19612697Y-15348118D01*
X19469169Y-15694624D01*
X19396000Y-16062472D01*
X-19396000Y-16062472D01*
X-19469169Y-15694624D01*
X-19612697Y-15348118D01*
X-19821066Y-15036271D01*
X-20086271Y-14771066D01*
X-20398118Y-14562697D01*
X-20744624Y-14419169D01*
X-21112472Y-14346000D01*
X-21487528Y-14346000D01*
X-21855376Y-14419169D01*
X-22201882Y-14562697D01*
X-22513729Y-14771066D01*
X-22778934Y-15036271D01*
X-22987303Y-15348118D01*
X-23130831Y-15694624D01*
X-23204000Y-16062472D01*
X-24671000Y-16062472D01*
X-24671000Y-8230662D01*
X-15504000Y-8230662D01*
X-15504000Y-8369338D01*
X-15476945Y-8505349D01*
X-15423876Y-8633469D01*
X-15346832Y-8748774D01*
X-15248774Y-8846832D01*
X-15229000Y-8860045D01*
X-15228999Y-10278932D01*
X-15231074Y-10300000D01*
X-15222791Y-10384099D01*
X-15198260Y-10464965D01*
X-15158426Y-10539492D01*
X-15118246Y-10588451D01*
X-15118243Y-10588454D01*
X-15104815Y-10604816D01*
X-15088454Y-10618243D01*
X-14518244Y-11188454D01*
X-14504816Y-11204816D01*
X-14488454Y-11218244D01*
X-14488452Y-11218246D01*
X-14469902Y-11233469D01*
X-14439492Y-11258426D01*
X-14364965Y-11298261D01*
X-14284099Y-11322792D01*
X-14221068Y-11329000D01*
X-14221059Y-11329000D01*
X-14200001Y-11331074D01*
X-14178943Y-11329000D01*
X-13360045Y-11329000D01*
X-13346832Y-11348774D01*
X-13248774Y-11446832D01*
X-13133469Y-11523876D01*
X-13005349Y-11576945D01*
X-12869338Y-11604000D01*
X-12730662Y-11604000D01*
X-12594651Y-11576945D01*
X-12466531Y-11523876D01*
X-12351226Y-11446832D01*
X-12253168Y-11348774D01*
X-12176124Y-11233469D01*
X-12123055Y-11105349D01*
X-12096000Y-10969338D01*
X-12096000Y-10830662D01*
X-12123055Y-10694651D01*
X-12176124Y-10566531D01*
X-12253168Y-10451226D01*
X-12351226Y-10353168D01*
X-12466531Y-10276124D01*
X-12594651Y-10223055D01*
X-12730662Y-10196000D01*
X-12869338Y-10196000D01*
X-13005349Y-10223055D01*
X-13133469Y-10276124D01*
X-13248774Y-10353168D01*
X-13346832Y-10451226D01*
X-13360045Y-10471000D01*
X-14022302Y-10471000D01*
X-14371000Y-10122303D01*
X-14371000Y-8860045D01*
X-14351226Y-8846832D01*
X-14253168Y-8748774D01*
X-14176124Y-8633469D01*
X-14123055Y-8505349D01*
X-14096000Y-8369338D01*
X-14096000Y-8230662D01*
X-14123055Y-8094651D01*
X-14176124Y-7966531D01*
X-14253168Y-7851226D01*
X-14351226Y-7753168D01*
X-14466531Y-7676124D01*
X-14594651Y-7623055D01*
X-14730662Y-7596000D01*
X-14869338Y-7596000D01*
X-15005349Y-7623055D01*
X-15133469Y-7676124D01*
X-15248774Y-7753168D01*
X-15346832Y-7851226D01*
X-15423876Y-7966531D01*
X-15476945Y-8094651D01*
X-15504000Y-8230662D01*
X-24671000Y-8230662D01*
X-24671000Y-5186252D01*
X-15934900Y-5186252D01*
X-15934900Y-5413748D01*
X-15890518Y-5636872D01*
X-15803459Y-5847050D01*
X-15677069Y-6036206D01*
X-15516206Y-6197069D01*
X-15327050Y-6323459D01*
X-15116872Y-6410518D01*
X-14893748Y-6454900D01*
X-14666252Y-6454900D01*
X-14443128Y-6410518D01*
X-14232950Y-6323459D01*
X-14043794Y-6197069D01*
X-13882931Y-6036206D01*
X-13756541Y-5847050D01*
X-13669482Y-5636872D01*
X-13625100Y-5413748D01*
X-13625100Y-5186252D01*
X-13647492Y-5073677D01*
X-11997900Y-5073677D01*
X-11997900Y-5526323D01*
X-11909593Y-5970273D01*
X-11736373Y-6388464D01*
X-11484896Y-6764826D01*
X-11164826Y-7084896D01*
X-10788464Y-7336373D01*
X-10370273Y-7509593D01*
X-9926323Y-7597900D01*
X-9473677Y-7597900D01*
X-9029727Y-7509593D01*
X-8611536Y-7336373D01*
X-8235174Y-7084896D01*
X-7915104Y-6764826D01*
X-7663627Y-6388464D01*
X-7490407Y-5970273D01*
X-7402100Y-5526323D01*
X-7402100Y-5186252D01*
X-5774900Y-5186252D01*
X-5774900Y-5413748D01*
X-5730518Y-5636872D01*
X-5643459Y-5847050D01*
X-5517069Y-6036206D01*
X-5356206Y-6197069D01*
X-5167050Y-6323459D01*
X-4956872Y-6410518D01*
X-4733748Y-6454900D01*
X-4506252Y-6454900D01*
X-4283128Y-6410518D01*
X-4072950Y-6323459D01*
X-3883794Y-6197069D01*
X-3722931Y-6036206D01*
X-3596541Y-5847050D01*
X-3509482Y-5636872D01*
X-3465100Y-5413748D01*
X-3465100Y-5186252D01*
X3465100Y-5186252D01*
X3465100Y-5413748D01*
X3509482Y-5636872D01*
X3596541Y-5847050D01*
X3722931Y-6036206D01*
X3883794Y-6197069D01*
X4072950Y-6323459D01*
X4283128Y-6410518D01*
X4506252Y-6454900D01*
X4733748Y-6454900D01*
X4956872Y-6410518D01*
X5167050Y-6323459D01*
X5356206Y-6197069D01*
X5517069Y-6036206D01*
X5643459Y-5847050D01*
X5730518Y-5636872D01*
X5774900Y-5413748D01*
X5774900Y-5186252D01*
X5752508Y-5073677D01*
X7402100Y-5073677D01*
X7402100Y-5526323D01*
X7490407Y-5970273D01*
X7663627Y-6388464D01*
X7915104Y-6764826D01*
X8235174Y-7084896D01*
X8611536Y-7336373D01*
X9029727Y-7509593D01*
X9473677Y-7597900D01*
X9926323Y-7597900D01*
X10370273Y-7509593D01*
X10788464Y-7336373D01*
X11164826Y-7084896D01*
X11484896Y-6764826D01*
X11736373Y-6388464D01*
X11909593Y-5970273D01*
X11997900Y-5526323D01*
X11997900Y-5186252D01*
X13625100Y-5186252D01*
X13625100Y-5413748D01*
X13669482Y-5636872D01*
X13756541Y-5847050D01*
X13882931Y-6036206D01*
X14043794Y-6197069D01*
X14232950Y-6323459D01*
X14443128Y-6410518D01*
X14666252Y-6454900D01*
X14893748Y-6454900D01*
X15116872Y-6410518D01*
X15327050Y-6323459D01*
X15516206Y-6197069D01*
X15677069Y-6036206D01*
X15803459Y-5847050D01*
X15890518Y-5636872D01*
X15934900Y-5413748D01*
X15934900Y-5186252D01*
X15890518Y-4963128D01*
X15803459Y-4752950D01*
X15677069Y-4563794D01*
X15516206Y-4402931D01*
X15327050Y-4276541D01*
X15116872Y-4189482D01*
X14893748Y-4145100D01*
X14666252Y-4145100D01*
X14443128Y-4189482D01*
X14232950Y-4276541D01*
X14043794Y-4402931D01*
X13882931Y-4563794D01*
X13756541Y-4752950D01*
X13669482Y-4963128D01*
X13625100Y-5186252D01*
X11997900Y-5186252D01*
X11997900Y-5073677D01*
X11909593Y-4629727D01*
X11736373Y-4211536D01*
X11484896Y-3835174D01*
X11164826Y-3515104D01*
X10788464Y-3263627D01*
X10370273Y-3090407D01*
X9926323Y-3002100D01*
X9473677Y-3002100D01*
X9029727Y-3090407D01*
X8611536Y-3263627D01*
X8235174Y-3515104D01*
X7915104Y-3835174D01*
X7663627Y-4211536D01*
X7490407Y-4629727D01*
X7402100Y-5073677D01*
X5752508Y-5073677D01*
X5730518Y-4963128D01*
X5643459Y-4752950D01*
X5517069Y-4563794D01*
X5468844Y-4515569D01*
X5712321Y-4564000D01*
X6067679Y-4564000D01*
X6416207Y-4494673D01*
X6744515Y-4358684D01*
X7039983Y-4161258D01*
X7291258Y-3909983D01*
X7488684Y-3614515D01*
X7624673Y-3286207D01*
X7694000Y-2937679D01*
X7694000Y-2582321D01*
X7624673Y-2233793D01*
X7488684Y-1905485D01*
X7291258Y-1610017D01*
X7039983Y-1358742D01*
X6744515Y-1161316D01*
X6416207Y-1025327D01*
X6067679Y-956000D01*
X5712321Y-956000D01*
X5363793Y-1025327D01*
X5035485Y-1161316D01*
X4740017Y-1358742D01*
X4488742Y-1610017D01*
X4291316Y-1905485D01*
X4155327Y-2233793D01*
X4086000Y-2582321D01*
X4086000Y-2937679D01*
X4155327Y-3286207D01*
X4291316Y-3614515D01*
X4488742Y-3909983D01*
X4723859Y-4145100D01*
X4506252Y-4145100D01*
X4283128Y-4189482D01*
X4072950Y-4276541D01*
X3883794Y-4402931D01*
X3722931Y-4563794D01*
X3596541Y-4752950D01*
X3509482Y-4963128D01*
X3465100Y-5186252D01*
X-3465100Y-5186252D01*
X-3509482Y-4963128D01*
X-3596541Y-4752950D01*
X-3722931Y-4563794D01*
X-3883794Y-4402931D01*
X-4072950Y-4276541D01*
X-4283128Y-4189482D01*
X-4506252Y-4145100D01*
X-4733748Y-4145100D01*
X-4956872Y-4189482D01*
X-5167050Y-4276541D01*
X-5356206Y-4402931D01*
X-5517069Y-4563794D01*
X-5643459Y-4752950D01*
X-5730518Y-4963128D01*
X-5774900Y-5186252D01*
X-7402100Y-5186252D01*
X-7402100Y-5073677D01*
X-7490407Y-4629727D01*
X-7663627Y-4211536D01*
X-7915104Y-3835174D01*
X-8235174Y-3515104D01*
X-8611536Y-3263627D01*
X-9029727Y-3090407D01*
X-9473677Y-3002100D01*
X-9926323Y-3002100D01*
X-10370273Y-3090407D01*
X-10788464Y-3263627D01*
X-11164826Y-3515104D01*
X-11484896Y-3835174D01*
X-11736373Y-4211536D01*
X-11909593Y-4629727D01*
X-11997900Y-5073677D01*
X-13647492Y-5073677D01*
X-13669482Y-4963128D01*
X-13756541Y-4752950D01*
X-13882931Y-4563794D01*
X-13931156Y-4515569D01*
X-13687679Y-4564000D01*
X-13332321Y-4564000D01*
X-12983793Y-4494673D01*
X-12655485Y-4358684D01*
X-12360017Y-4161258D01*
X-12108742Y-3909983D01*
X-11911316Y-3614515D01*
X-11775327Y-3286207D01*
X-11706000Y-2937679D01*
X-11706000Y-2582321D01*
X-11775327Y-2233793D01*
X-11911316Y-1905485D01*
X-12108742Y-1610017D01*
X-12360017Y-1358742D01*
X-12655485Y-1161316D01*
X-12983793Y-1025327D01*
X-13332321Y-956000D01*
X-13687679Y-956000D01*
X-14036207Y-1025327D01*
X-14364515Y-1161316D01*
X-14659983Y-1358742D01*
X-14911258Y-1610017D01*
X-15108684Y-1905485D01*
X-15244673Y-2233793D01*
X-15314000Y-2582321D01*
X-15314000Y-2937679D01*
X-15244673Y-3286207D01*
X-15108684Y-3614515D01*
X-14911258Y-3909983D01*
X-14676141Y-4145100D01*
X-14893748Y-4145100D01*
X-15116872Y-4189482D01*
X-15327050Y-4276541D01*
X-15516206Y-4402931D01*
X-15677069Y-4563794D01*
X-15803459Y-4752950D01*
X-15890518Y-4963128D01*
X-15934900Y-5186252D01*
X-24671000Y-5186252D01*
X-24671000Y-1510000D01*
X-18840470Y-1510000D01*
X-18840470Y-4010000D01*
X-18834600Y-4069594D01*
X-18817217Y-4126898D01*
X-18788989Y-4179710D01*
X-18751000Y-4226000D01*
X-18704710Y-4263989D01*
X-18651898Y-4292217D01*
X-18594594Y-4309600D01*
X-18535000Y-4315470D01*
X-15985000Y-4315470D01*
X-15925406Y-4309600D01*
X-15868102Y-4292217D01*
X-15815290Y-4263989D01*
X-15769000Y-4226000D01*
X-15731011Y-4179710D01*
X-15702783Y-4126898D01*
X-15685400Y-4069594D01*
X-15679530Y-4010000D01*
X-15679530Y-1786227D01*
X-14511551Y-618248D01*
X-14495184Y-604816D01*
X-14441574Y-539492D01*
X-14401739Y-464965D01*
X-14377208Y-384099D01*
X-14371000Y-321068D01*
X-14371000Y-321059D01*
X-14368926Y-300001D01*
X-14371000Y-278943D01*
X-14371000Y-60045D01*
X-14351226Y-46832D01*
X-14346715Y-42321D01*
X-8964000Y-42321D01*
X-8964000Y-397679D01*
X-8894673Y-746207D01*
X-8758684Y-1074515D01*
X-8561258Y-1369983D01*
X-8309983Y-1621258D01*
X-8014515Y-1818684D01*
X-7686207Y-1954673D01*
X-7337679Y-2024000D01*
X-6982321Y-2024000D01*
X-6633793Y-1954673D01*
X-6305485Y-1818684D01*
X-6010017Y-1621258D01*
X-5858759Y-1470000D01*
X-4990471Y-1470000D01*
X-4984601Y-1529594D01*
X-4967218Y-1586899D01*
X-4938990Y-1639711D01*
X-4901001Y-1686001D01*
X-4854711Y-1723990D01*
X-4801899Y-1752218D01*
X-4744594Y-1769601D01*
X-4685000Y-1775471D01*
X-3563000Y-1774000D01*
X-3487000Y-1698000D01*
X-3487000Y-297000D01*
X-3333000Y-297000D01*
X-3333000Y-1698000D01*
X-3257000Y-1774000D01*
X-2135000Y-1775471D01*
X-2075406Y-1769601D01*
X-2018101Y-1752218D01*
X-1965289Y-1723990D01*
X-1918999Y-1686001D01*
X-1881010Y-1639711D01*
X-1852782Y-1586899D01*
X-1835399Y-1529594D01*
X-1829529Y-1470000D01*
X-1829715Y-1330662D01*
X-904000Y-1330662D01*
X-904000Y-1469338D01*
X-876945Y-1605349D01*
X-823876Y-1733469D01*
X-746832Y-1848774D01*
X-648774Y-1946832D01*
X-533469Y-2023876D01*
X-405349Y-2076945D01*
X-269338Y-2104000D01*
X-130662Y-2104000D01*
X5349Y-2076945D01*
X133469Y-2023876D01*
X248774Y-1946832D01*
X346832Y-1848774D01*
X360045Y-1829000D01*
X559530Y-1829000D01*
X559530Y-4010000D01*
X565400Y-4069594D01*
X582783Y-4126898D01*
X611011Y-4179710D01*
X649000Y-4226000D01*
X695290Y-4263989D01*
X748102Y-4292217D01*
X805406Y-4309600D01*
X865000Y-4315470D01*
X3415000Y-4315470D01*
X3474594Y-4309600D01*
X3531898Y-4292217D01*
X3584710Y-4263989D01*
X3631000Y-4226000D01*
X3668989Y-4179710D01*
X3697217Y-4126898D01*
X3714600Y-4069594D01*
X3720470Y-4010000D01*
X3720470Y-1510000D01*
X3714600Y-1450406D01*
X3697217Y-1393102D01*
X3668989Y-1340290D01*
X3631000Y-1294000D01*
X3584710Y-1256011D01*
X3531898Y-1227783D01*
X3474594Y-1210400D01*
X3415000Y-1204530D01*
X1191227Y-1204530D01*
X1098248Y-1111551D01*
X1084816Y-1095184D01*
X1019492Y-1041574D01*
X944965Y-1001739D01*
X864099Y-977208D01*
X801068Y-971000D01*
X801058Y-971000D01*
X780000Y-968926D01*
X758942Y-971000D01*
X360045Y-971000D01*
X346832Y-951226D01*
X248774Y-853168D01*
X133469Y-776124D01*
X5349Y-723055D01*
X-130662Y-696000D01*
X-269338Y-696000D01*
X-405349Y-723055D01*
X-533469Y-776124D01*
X-648774Y-853168D01*
X-746832Y-951226D01*
X-823876Y-1066531D01*
X-876945Y-1194651D01*
X-904000Y-1330662D01*
X-1829715Y-1330662D01*
X-1831000Y-373000D01*
X-1907000Y-297000D01*
X-3333000Y-297000D01*
X-3487000Y-297000D01*
X-4913000Y-297000D01*
X-4989000Y-373000D01*
X-4990471Y-1470000D01*
X-5858759Y-1470000D01*
X-5758742Y-1369983D01*
X-5561316Y-1074515D01*
X-5425327Y-746207D01*
X-5356000Y-397679D01*
X-5356000Y-42321D01*
X-5425327Y306207D01*
X-5561316Y634515D01*
X-5758742Y929983D01*
X-5858759Y1030000D01*
X-4990471Y1030000D01*
X-4989000Y-67000D01*
X-4913000Y-143000D01*
X-3487000Y-143000D01*
X-3487000Y1258000D01*
X-3333000Y1258000D01*
X-3333000Y-143000D01*
X-1907000Y-143000D01*
X-1831000Y-67000D01*
X-1830967Y-42321D01*
X10436000Y-42321D01*
X10436000Y-397679D01*
X10505327Y-746207D01*
X10641316Y-1074515D01*
X10838742Y-1369983D01*
X11090017Y-1621258D01*
X11385485Y-1818684D01*
X11713793Y-1954673D01*
X12062321Y-2024000D01*
X12417679Y-2024000D01*
X12766207Y-1954673D01*
X13094515Y-1818684D01*
X13389983Y-1621258D01*
X13541241Y-1470000D01*
X14409529Y-1470000D01*
X14415399Y-1529594D01*
X14432782Y-1586899D01*
X14461010Y-1639711D01*
X14498999Y-1686001D01*
X14545289Y-1723990D01*
X14598101Y-1752218D01*
X14655406Y-1769601D01*
X14715000Y-1775471D01*
X15837000Y-1774000D01*
X15913000Y-1698000D01*
X15913000Y-297000D01*
X16067000Y-297000D01*
X16067000Y-1698000D01*
X16143000Y-1774000D01*
X17265000Y-1775471D01*
X17324594Y-1769601D01*
X17381899Y-1752218D01*
X17434711Y-1723990D01*
X17481001Y-1686001D01*
X17518990Y-1639711D01*
X17547218Y-1586899D01*
X17564601Y-1529594D01*
X17570471Y-1470000D01*
X17569000Y-373000D01*
X17493000Y-297000D01*
X16067000Y-297000D01*
X15913000Y-297000D01*
X14487000Y-297000D01*
X14411000Y-373000D01*
X14409529Y-1470000D01*
X13541241Y-1470000D01*
X13641258Y-1369983D01*
X13838684Y-1074515D01*
X13974673Y-746207D01*
X14044000Y-397679D01*
X14044000Y-42321D01*
X13974673Y306207D01*
X13838684Y634515D01*
X13641258Y929983D01*
X13541241Y1030000D01*
X14409529Y1030000D01*
X14411000Y-67000D01*
X14487000Y-143000D01*
X15913000Y-143000D01*
X15913000Y1258000D01*
X16067000Y1258000D01*
X16067000Y-143000D01*
X17493000Y-143000D01*
X17569000Y-67000D01*
X17570471Y1030000D01*
X17564601Y1089594D01*
X17547218Y1146899D01*
X17518990Y1199711D01*
X17481001Y1246001D01*
X17434711Y1283990D01*
X17381899Y1312218D01*
X17324594Y1329601D01*
X17265000Y1335471D01*
X16143000Y1334000D01*
X16067000Y1258000D01*
X15913000Y1258000D01*
X15837000Y1334000D01*
X14715000Y1335471D01*
X14655406Y1329601D01*
X14598101Y1312218D01*
X14545289Y1283990D01*
X14498999Y1246001D01*
X14461010Y1199711D01*
X14432782Y1146899D01*
X14415399Y1089594D01*
X14409529Y1030000D01*
X13541241Y1030000D01*
X13389983Y1181258D01*
X13094515Y1378684D01*
X12766207Y1514673D01*
X12417679Y1584000D01*
X12062321Y1584000D01*
X11713793Y1514673D01*
X11385485Y1378684D01*
X11090017Y1181258D01*
X10838742Y929983D01*
X10641316Y634515D01*
X10505327Y306207D01*
X10436000Y-42321D01*
X-1830967Y-42321D01*
X-1829529Y1030000D01*
X-1835399Y1089594D01*
X-1852782Y1146899D01*
X-1881010Y1199711D01*
X-1918999Y1246001D01*
X-1965289Y1283990D01*
X-2018101Y1312218D01*
X-2075406Y1329601D01*
X-2135000Y1335471D01*
X-3257000Y1334000D01*
X-3333000Y1258000D01*
X-3487000Y1258000D01*
X-3563000Y1334000D01*
X-4685000Y1335471D01*
X-4744594Y1329601D01*
X-4801899Y1312218D01*
X-4854711Y1283990D01*
X-4901001Y1246001D01*
X-4938990Y1199711D01*
X-4967218Y1146899D01*
X-4984601Y1089594D01*
X-4990471Y1030000D01*
X-5858759Y1030000D01*
X-6010017Y1181258D01*
X-6305485Y1378684D01*
X-6633793Y1514673D01*
X-6982321Y1584000D01*
X-7337679Y1584000D01*
X-7686207Y1514673D01*
X-8014515Y1378684D01*
X-8309983Y1181258D01*
X-8561258Y929983D01*
X-8758684Y634515D01*
X-8894673Y306207D01*
X-8964000Y-42321D01*
X-14346715Y-42321D01*
X-14253168Y51226D01*
X-14176124Y166531D01*
X-14123055Y294651D01*
X-14096000Y430662D01*
X-14096000Y569338D01*
X-14123055Y705349D01*
X-14176124Y833469D01*
X-14253168Y948774D01*
X-14351226Y1046832D01*
X-14466531Y1123876D01*
X-14594651Y1176945D01*
X-14730662Y1204000D01*
X-14869338Y1204000D01*
X-15005349Y1176945D01*
X-15133469Y1123876D01*
X-15248774Y1046832D01*
X-15346832Y948774D01*
X-15423876Y833469D01*
X-15476945Y705349D01*
X-15504000Y569338D01*
X-15504000Y430662D01*
X-15476945Y294651D01*
X-15423876Y166531D01*
X-15346832Y51226D01*
X-15248774Y-46832D01*
X-15228999Y-60045D01*
X-15228999Y-122302D01*
X-16311227Y-1204530D01*
X-18535000Y-1204530D01*
X-18594594Y-1210400D01*
X-18651898Y-1227783D01*
X-18704710Y-1256011D01*
X-18751000Y-1294000D01*
X-18788989Y-1340290D01*
X-18817217Y-1393102D01*
X-18834600Y-1450406D01*
X-18840470Y-1510000D01*
X-24671000Y-1510000D01*
X-24671000Y4608744D01*
X-22134500Y4608744D01*
X-22134500Y4451256D01*
X-22103775Y4296795D01*
X-22043507Y4151295D01*
X-21956012Y4020349D01*
X-21844651Y3908988D01*
X-21713705Y3821493D01*
X-21568205Y3761225D01*
X-21413744Y3730500D01*
X-21256256Y3730500D01*
X-21101795Y3761225D01*
X-20956295Y3821493D01*
X-20825349Y3908988D01*
X-20713988Y4020349D01*
X-20626493Y4151295D01*
X-20566225Y4296795D01*
X-20535500Y4451256D01*
X-20535500Y4608744D01*
X-20566225Y4763205D01*
X-20626493Y4908705D01*
X-20713988Y5039651D01*
X-20825349Y5151012D01*
X-20956295Y5238507D01*
X-21101795Y5298775D01*
X-21256256Y5329500D01*
X-21413744Y5329500D01*
X-21568205Y5298775D01*
X-21713705Y5238507D01*
X-21844651Y5151012D01*
X-21956012Y5039651D01*
X-22043507Y4908705D01*
X-22103775Y4763205D01*
X-22134500Y4608744D01*
X-24671000Y4608744D01*
X-24671000Y7169338D01*
X-19504000Y7169338D01*
X-19504000Y7030662D01*
X-19476945Y6894651D01*
X-19423876Y6766531D01*
X-19346832Y6651226D01*
X-19248774Y6553168D01*
X-19133469Y6476124D01*
X-19020400Y6429289D01*
X-19033469Y6423876D01*
X-19148774Y6346832D01*
X-19246832Y6248774D01*
X-19323876Y6133469D01*
X-19376945Y6005349D01*
X-19404000Y5869338D01*
X-19404000Y5730662D01*
X-19376945Y5594651D01*
X-19323876Y5466531D01*
X-19246832Y5351226D01*
X-19148774Y5253168D01*
X-19033469Y5176124D01*
X-18905349Y5123055D01*
X-18769338Y5096000D01*
X-18630662Y5096000D01*
X-18494651Y5123055D01*
X-18366531Y5176124D01*
X-18251226Y5253168D01*
X-18153168Y5351226D01*
X-18139955Y5371000D01*
X-15353858Y5371000D01*
X-15332800Y5368926D01*
X-15311742Y5371000D01*
X-15311732Y5371000D01*
X-15248701Y5377208D01*
X-15211800Y5388402D01*
X-15211799Y3903868D01*
X-15213874Y3882800D01*
X-15205591Y3798701D01*
X-15181060Y3717835D01*
X-15141226Y3643308D01*
X-15101046Y3594349D01*
X-15101043Y3594346D01*
X-15087615Y3577984D01*
X-15071253Y3564556D01*
X-14618248Y3111551D01*
X-14604816Y3095184D01*
X-14539492Y3041574D01*
X-14464965Y3001739D01*
X-14384099Y2977208D01*
X-14321068Y2971000D01*
X-14321059Y2971000D01*
X-14300001Y2968926D01*
X-14278943Y2971000D01*
X2439955Y2971000D01*
X2453168Y2951226D01*
X2551226Y2853168D01*
X2666531Y2776124D01*
X2794651Y2723055D01*
X2930662Y2696000D01*
X3069338Y2696000D01*
X3205349Y2723055D01*
X3333469Y2776124D01*
X3448774Y2853168D01*
X3546832Y2951226D01*
X3623876Y3066531D01*
X3676945Y3194651D01*
X3704000Y3330662D01*
X3704000Y3469338D01*
X3676945Y3605349D01*
X3623876Y3733469D01*
X3546832Y3848774D01*
X3448774Y3946832D01*
X3333469Y4023876D01*
X3205349Y4076945D01*
X3069338Y4104000D01*
X2930662Y4104000D01*
X2794651Y4076945D01*
X2666531Y4023876D01*
X2551226Y3946832D01*
X2453168Y3848774D01*
X2439955Y3829000D01*
X-14122303Y3829000D01*
X-14353800Y4060497D01*
X-14353800Y5789955D01*
X-14334026Y5803168D01*
X-14235968Y5901226D01*
X-14158924Y6016531D01*
X-14105855Y6144651D01*
X-14078800Y6280662D01*
X-14078800Y6419338D01*
X-14089512Y6473190D01*
X-13757745Y6804957D01*
X-13741384Y6818384D01*
X-13687774Y6883708D01*
X-13647939Y6958235D01*
X-13623408Y7039101D01*
X-13617200Y7102132D01*
X-13617200Y7102133D01*
X-13615125Y7123200D01*
X-13617200Y7144268D01*
X-13617200Y7416903D01*
X-12755145Y8278957D01*
X-12738784Y8292384D01*
X-12685174Y8357708D01*
X-12645339Y8432235D01*
X-12620808Y8513101D01*
X-12614600Y8576132D01*
X-12614600Y8576133D01*
X-12612525Y8597200D01*
X-12614600Y8618268D01*
X-12614600Y13174932D01*
X-12612525Y13196000D01*
X-12620808Y13280099D01*
X-12645339Y13360966D01*
X-12672190Y13411200D01*
X-12685174Y13435492D01*
X-12738784Y13500816D01*
X-12755151Y13514248D01*
X-12829800Y13588897D01*
X-12829800Y14849352D01*
X-12774624Y14931929D01*
X-12721555Y15060049D01*
X-12694500Y15196060D01*
X-12694500Y15334736D01*
X-12721555Y15470747D01*
X-12774624Y15598867D01*
X-12851668Y15714172D01*
X-12949726Y15812230D01*
X-13065031Y15889274D01*
X-13193151Y15942343D01*
X-13329162Y15969398D01*
X-13467838Y15969398D01*
X-13603849Y15942343D01*
X-13731969Y15889274D01*
X-13847274Y15812230D01*
X-13945332Y15714172D01*
X-14022376Y15598867D01*
X-14075445Y15470747D01*
X-14102500Y15334736D01*
X-14102500Y15196060D01*
X-14075445Y15060049D01*
X-14022376Y14931929D01*
X-13945332Y14816624D01*
X-13847274Y14718566D01*
X-13731969Y14641522D01*
X-13687799Y14623226D01*
X-13687800Y13432258D01*
X-13689874Y13411200D01*
X-13687800Y13390142D01*
X-13687800Y13390133D01*
X-13681592Y13327102D01*
X-13657061Y13246236D01*
X-13657060Y13246235D01*
X-13617226Y13171708D01*
X-13584839Y13132245D01*
X-13563616Y13106384D01*
X-13547249Y13092952D01*
X-13472599Y13018302D01*
X-13472600Y8774898D01*
X-14334653Y7912844D01*
X-14351015Y7899416D01*
X-14364443Y7883054D01*
X-14364446Y7883051D01*
X-14404626Y7834092D01*
X-14444460Y7759565D01*
X-14468991Y7678699D01*
X-14477274Y7594600D01*
X-14475199Y7573533D01*
X-14475200Y7300898D01*
X-14722097Y7054000D01*
X-14852138Y7054000D01*
X-14988149Y7026945D01*
X-15116269Y6973876D01*
X-15231574Y6896832D01*
X-15329632Y6798774D01*
X-15406676Y6683469D01*
X-15459745Y6555349D01*
X-15486800Y6419338D01*
X-15486800Y6280662D01*
X-15482160Y6257337D01*
X-15510497Y6229000D01*
X-18139955Y6229000D01*
X-18153168Y6248774D01*
X-18251226Y6346832D01*
X-18366531Y6423876D01*
X-18479600Y6470711D01*
X-18466531Y6476124D01*
X-18351226Y6553168D01*
X-18253168Y6651226D01*
X-18176124Y6766531D01*
X-18123055Y6894651D01*
X-18096000Y7030662D01*
X-18096000Y7169338D01*
X-18123055Y7305349D01*
X-18176124Y7433469D01*
X-18253168Y7548774D01*
X-18351226Y7646832D01*
X-18371000Y7660045D01*
X-18371000Y10290420D01*
X-16564407Y10290420D01*
X-16564407Y10151744D01*
X-16537352Y10015733D01*
X-16484283Y9887613D01*
X-16407239Y9772308D01*
X-16309181Y9674250D01*
X-16193876Y9597206D01*
X-16065756Y9544137D01*
X-15929745Y9517082D01*
X-15791069Y9517082D01*
X-15655058Y9544137D01*
X-15526938Y9597206D01*
X-15411633Y9674250D01*
X-15313575Y9772308D01*
X-15236531Y9887613D01*
X-15183462Y10015733D01*
X-15156407Y10151744D01*
X-15156407Y10290420D01*
X-15183462Y10426431D01*
X-15236531Y10554551D01*
X-15284524Y10626378D01*
X-14900745Y11010157D01*
X-14884384Y11023584D01*
X-14870954Y11039948D01*
X-14830774Y11088907D01*
X-14790940Y11163434D01*
X-14790939Y11163435D01*
X-14766408Y11244301D01*
X-14760200Y11307332D01*
X-14760200Y11307341D01*
X-14758126Y11328399D01*
X-14760200Y11349457D01*
X-14760200Y15120184D01*
X-14715026Y15150368D01*
X-14616968Y15248426D01*
X-14539924Y15363731D01*
X-14486855Y15491851D01*
X-14459800Y15627862D01*
X-14459800Y15766538D01*
X-14486855Y15902549D01*
X-14539924Y16030669D01*
X-14616968Y16145974D01*
X-14715026Y16244032D01*
X-14830331Y16321076D01*
X-14958451Y16374145D01*
X-15094462Y16401200D01*
X-15233138Y16401200D01*
X-15369149Y16374145D01*
X-15497269Y16321076D01*
X-15612574Y16244032D01*
X-15710632Y16145974D01*
X-15787676Y16030669D01*
X-15840745Y15902549D01*
X-15867800Y15766538D01*
X-15867800Y15627862D01*
X-15840745Y15491851D01*
X-15787676Y15363731D01*
X-15710632Y15248426D01*
X-15618199Y15155993D01*
X-15618200Y11506098D01*
X-16148861Y10975436D01*
X-16165222Y10962009D01*
X-16178650Y10945647D01*
X-16178653Y10945644D01*
X-16218833Y10896685D01*
X-16258667Y10822158D01*
X-16266464Y10796457D01*
X-16309181Y10767914D01*
X-16407239Y10669856D01*
X-16484283Y10554551D01*
X-16537352Y10426431D01*
X-16564407Y10290420D01*
X-18371000Y10290420D01*
X-18371000Y11122303D01*
X-17984761Y11508542D01*
X-17946909Y11528774D01*
X-17881584Y11582384D01*
X-17827974Y11647708D01*
X-17788139Y11722235D01*
X-17763608Y11803101D01*
X-17757400Y11866132D01*
X-17757400Y16256103D01*
X-16256102Y17757400D01*
X-11201297Y17757400D01*
X-10741400Y17297502D01*
X-10741399Y14834845D01*
X-10761174Y14821632D01*
X-10859232Y14723574D01*
X-10936276Y14608269D01*
X-10989345Y14480149D01*
X-11016400Y14344138D01*
X-11016400Y14205462D01*
X-10989345Y14069451D01*
X-10936276Y13941331D01*
X-10859232Y13826026D01*
X-10761174Y13727968D01*
X-10645869Y13650924D01*
X-10517749Y13597855D01*
X-10381738Y13570800D01*
X-10243062Y13570800D01*
X-10107051Y13597855D01*
X-9978931Y13650924D01*
X-9886028Y13713000D01*
X-5074000Y13713000D01*
X-5074000Y13113000D01*
X-5044490Y12967381D01*
X-4987138Y12830318D01*
X-4904149Y12707077D01*
X-4798711Y12602394D01*
X-4674876Y12520293D01*
X-4537404Y12463928D01*
X-4513387Y12461222D01*
X-4397000Y12516387D01*
X-4397000Y13713000D01*
X-4243000Y13713000D01*
X-4243000Y12516387D01*
X-4126613Y12461222D01*
X-4102596Y12463928D01*
X-3965124Y12520293D01*
X-3841289Y12602394D01*
X-3735851Y12707077D01*
X-3652862Y12830318D01*
X-3595510Y12967381D01*
X-3566000Y13113000D01*
X-3566000Y13713000D01*
X-4243000Y13713000D01*
X-4397000Y13713000D01*
X-5074000Y13713000D01*
X-9886028Y13713000D01*
X-9863626Y13727968D01*
X-9765568Y13826026D01*
X-9688524Y13941331D01*
X-9635455Y14069451D01*
X-9608400Y14205462D01*
X-9608400Y14344138D01*
X-9632839Y14467000D01*
X-5074000Y14467000D01*
X-5074000Y13867000D01*
X-4397000Y13867000D01*
X-4397000Y15063613D01*
X-4243000Y15063613D01*
X-4243000Y13867000D01*
X-3566000Y13867000D01*
X-3566000Y14351951D01*
X-3519000Y14351951D01*
X-3519000Y14228049D01*
X-3494827Y14106528D01*
X-3447412Y13992057D01*
X-3378576Y13889036D01*
X-3290964Y13801424D01*
X-3187943Y13732588D01*
X-3073472Y13685173D01*
X-2951951Y13661000D01*
X-2828049Y13661000D01*
X-2706528Y13685173D01*
X-2592057Y13732588D01*
X-2489036Y13801424D01*
X-2401424Y13889036D01*
X-2332588Y13992057D01*
X-2285173Y14106528D01*
X-2261000Y14228049D01*
X-2261000Y14351951D01*
X2261000Y14351951D01*
X2261000Y14228049D01*
X2285173Y14106528D01*
X2332588Y13992057D01*
X2401424Y13889036D01*
X2489036Y13801424D01*
X2592057Y13732588D01*
X2706528Y13685173D01*
X2828049Y13661000D01*
X2951951Y13661000D01*
X3073472Y13685173D01*
X3140652Y13713000D01*
X3566000Y13713000D01*
X3566000Y13113000D01*
X3595510Y12967381D01*
X3652862Y12830318D01*
X3735851Y12707077D01*
X3841289Y12602394D01*
X3965124Y12520293D01*
X4102596Y12463928D01*
X4126613Y12461222D01*
X4243000Y12516387D01*
X4243000Y13713000D01*
X4397000Y13713000D01*
X4397000Y12516387D01*
X4513387Y12461222D01*
X4537404Y12463928D01*
X4674876Y12520293D01*
X4798711Y12602394D01*
X4904149Y12707077D01*
X4987138Y12830318D01*
X5044490Y12967381D01*
X5074000Y13113000D01*
X5074000Y13713000D01*
X4397000Y13713000D01*
X4243000Y13713000D01*
X3566000Y13713000D01*
X3140652Y13713000D01*
X3187943Y13732588D01*
X3290964Y13801424D01*
X3378576Y13889036D01*
X3447412Y13992057D01*
X3494827Y14106528D01*
X3519000Y14228049D01*
X3519000Y14351951D01*
X3496115Y14467000D01*
X3566000Y14467000D01*
X3566000Y13867000D01*
X4243000Y13867000D01*
X4243000Y15063613D01*
X4397000Y15063613D01*
X4397000Y13867000D01*
X5074000Y13867000D01*
X5074000Y14467000D01*
X5044490Y14612619D01*
X4987138Y14749682D01*
X4904149Y14872923D01*
X4798711Y14977606D01*
X4674876Y15059707D01*
X4537404Y15116072D01*
X4513387Y15118778D01*
X4397000Y15063613D01*
X4243000Y15063613D01*
X4126613Y15118778D01*
X4102596Y15116072D01*
X3965124Y15059707D01*
X3841289Y14977606D01*
X3735851Y14872923D01*
X3652862Y14749682D01*
X3595510Y14612619D01*
X3566000Y14467000D01*
X3496115Y14467000D01*
X3494827Y14473472D01*
X3447412Y14587943D01*
X3378576Y14690964D01*
X3290964Y14778576D01*
X3187943Y14847412D01*
X3073472Y14894827D01*
X2951951Y14919000D01*
X2828049Y14919000D01*
X2706528Y14894827D01*
X2592057Y14847412D01*
X2489036Y14778576D01*
X2401424Y14690964D01*
X2332588Y14587943D01*
X2285173Y14473472D01*
X2261000Y14351951D01*
X-2261000Y14351951D01*
X-2285173Y14473472D01*
X-2332588Y14587943D01*
X-2401424Y14690964D01*
X-2489036Y14778576D01*
X-2592057Y14847412D01*
X-2706528Y14894827D01*
X-2828049Y14919000D01*
X-2951951Y14919000D01*
X-3073472Y14894827D01*
X-3187943Y14847412D01*
X-3290964Y14778576D01*
X-3378576Y14690964D01*
X-3447412Y14587943D01*
X-3494827Y14473472D01*
X-3519000Y14351951D01*
X-3566000Y14351951D01*
X-3566000Y14467000D01*
X-3595510Y14612619D01*
X-3652862Y14749682D01*
X-3735851Y14872923D01*
X-3841289Y14977606D01*
X-3965124Y15059707D01*
X-4102596Y15116072D01*
X-4126613Y15118778D01*
X-4243000Y15063613D01*
X-4397000Y15063613D01*
X-4513387Y15118778D01*
X-4537404Y15116072D01*
X-4674876Y15059707D01*
X-4798711Y14977606D01*
X-4904149Y14872923D01*
X-4987138Y14749682D01*
X-5044490Y14612619D01*
X-5074000Y14467000D01*
X-9632839Y14467000D01*
X-9635455Y14480149D01*
X-9688524Y14608269D01*
X-9765568Y14723574D01*
X-9863626Y14821632D01*
X-9883400Y14834845D01*
X-9883400Y17454132D01*
X-9881325Y17475200D01*
X-9889608Y17559299D01*
X-9914139Y17640165D01*
X-9953974Y17714692D01*
X-9994154Y17763652D01*
X-9994156Y17763654D01*
X-10007584Y17780016D01*
X-10023945Y17793443D01*
X-10123502Y17893000D01*
X-5124000Y17893000D01*
X-5124000Y17593000D01*
X-5093529Y17437627D01*
X-5033332Y17291184D01*
X-4945722Y17159299D01*
X-4834066Y17047040D01*
X-4702655Y16958721D01*
X-4556539Y16897736D01*
X-4521247Y16891595D01*
X-4397000Y16946084D01*
X-4397000Y17893000D01*
X-4243000Y17893000D01*
X-4243000Y16946084D01*
X-4118753Y16891595D01*
X-4083461Y16897736D01*
X-3937345Y16958721D01*
X-3805934Y17047040D01*
X-3694278Y17159299D01*
X-3606668Y17291184D01*
X-3546471Y17437627D01*
X-3516000Y17593000D01*
X-3516000Y17893000D01*
X3516000Y17893000D01*
X3516000Y17593000D01*
X3546471Y17437627D01*
X3606668Y17291184D01*
X3694278Y17159299D01*
X3805934Y17047040D01*
X3937345Y16958721D01*
X4083461Y16897736D01*
X4118753Y16891595D01*
X4243000Y16946084D01*
X4243000Y17893000D01*
X4397000Y17893000D01*
X4397000Y16946084D01*
X4521247Y16891595D01*
X4556539Y16897736D01*
X4702655Y16958721D01*
X4834066Y17047040D01*
X4945722Y17159299D01*
X5033332Y17291184D01*
X5093529Y17437627D01*
X5124000Y17593000D01*
X5124000Y17893000D01*
X4397000Y17893000D01*
X4243000Y17893000D01*
X3516000Y17893000D01*
X-3516000Y17893000D01*
X-4243000Y17893000D01*
X-4397000Y17893000D01*
X-5124000Y17893000D01*
X-10123502Y17893000D01*
X-10577502Y18347000D01*
X-5124000Y18347000D01*
X-5124000Y18047000D01*
X-4397000Y18047000D01*
X-4397000Y18993916D01*
X-4243000Y18993916D01*
X-4243000Y18047000D01*
X-3516000Y18047000D01*
X-3516000Y18347000D01*
X3516000Y18347000D01*
X3516000Y18047000D01*
X4243000Y18047000D01*
X4243000Y18993916D01*
X4397000Y18993916D01*
X4397000Y18047000D01*
X5124000Y18047000D01*
X5124000Y18347000D01*
X5093529Y18502373D01*
X5033332Y18648816D01*
X4945722Y18780701D01*
X4834066Y18892960D01*
X4702655Y18981279D01*
X4556539Y19042264D01*
X4521247Y19048405D01*
X4397000Y18993916D01*
X4243000Y18993916D01*
X4118753Y19048405D01*
X4083461Y19042264D01*
X3937345Y18981279D01*
X3805934Y18892960D01*
X3694278Y18780701D01*
X3606668Y18648816D01*
X3546471Y18502373D01*
X3516000Y18347000D01*
X-3516000Y18347000D01*
X-3546471Y18502373D01*
X-3606668Y18648816D01*
X-3694278Y18780701D01*
X-3805934Y18892960D01*
X-3937345Y18981279D01*
X-4083461Y19042264D01*
X-4118753Y19048405D01*
X-4243000Y18993916D01*
X-4397000Y18993916D01*
X-4521247Y19048405D01*
X-4556539Y19042264D01*
X-4702655Y18981279D01*
X-4834066Y18892960D01*
X-4945722Y18780701D01*
X-5033332Y18648816D01*
X-5093529Y18502373D01*
X-5124000Y18347000D01*
X-10577502Y18347000D01*
X-10705352Y18474849D01*
X-10718784Y18491216D01*
X-10784108Y18544826D01*
X-10858635Y18584661D01*
X-10939501Y18609192D01*
X-11002532Y18615400D01*
X-11002542Y18615400D01*
X-11023600Y18617474D01*
X-11044658Y18615400D01*
X-16412732Y18615400D01*
X-16433800Y18617475D01*
X-16517899Y18609192D01*
X-16598765Y18584661D01*
X-16673292Y18544826D01*
X-16722252Y18504646D01*
X-16722254Y18504644D01*
X-16738616Y18491216D01*
X-16752044Y18474854D01*
X-18474853Y16752044D01*
X-18491215Y16738616D01*
X-18504643Y16722254D01*
X-18504646Y16722251D01*
X-18544826Y16673292D01*
X-18584660Y16598765D01*
X-18609191Y16517899D01*
X-18617474Y16433800D01*
X-18615399Y16412732D01*
X-18615400Y12091297D01*
X-19088449Y11618248D01*
X-19104816Y11604816D01*
X-19118246Y11588451D01*
X-19158426Y11539492D01*
X-19179717Y11499657D01*
X-19198261Y11464964D01*
X-19222792Y11384098D01*
X-19229000Y11321067D01*
X-19229000Y11321058D01*
X-19231074Y11300000D01*
X-19229000Y11278942D01*
X-19228999Y7660045D01*
X-19248774Y7646832D01*
X-19346832Y7548774D01*
X-19423876Y7433469D01*
X-19476945Y7305349D01*
X-19504000Y7169338D01*
X-24671000Y7169338D01*
X-24671000Y9688744D01*
X-23149500Y9688744D01*
X-23149500Y9531256D01*
X-23118775Y9376795D01*
X-23058507Y9231295D01*
X-22971012Y9100349D01*
X-22859651Y8988988D01*
X-22728705Y8901493D01*
X-22583205Y8841225D01*
X-22428744Y8810500D01*
X-22271256Y8810500D01*
X-22116795Y8841225D01*
X-21971295Y8901493D01*
X-21840349Y8988988D01*
X-21728988Y9100349D01*
X-21641493Y9231295D01*
X-21581225Y9376795D01*
X-21550500Y9531256D01*
X-21550500Y9688744D01*
X-21119500Y9688744D01*
X-21119500Y9531256D01*
X-21088775Y9376795D01*
X-21028507Y9231295D01*
X-20941012Y9100349D01*
X-20829651Y8988988D01*
X-20698705Y8901493D01*
X-20553205Y8841225D01*
X-20398744Y8810500D01*
X-20241256Y8810500D01*
X-20086795Y8841225D01*
X-19941295Y8901493D01*
X-19810349Y8988988D01*
X-19698988Y9100349D01*
X-19611493Y9231295D01*
X-19551225Y9376795D01*
X-19520500Y9531256D01*
X-19520500Y9688744D01*
X-19551225Y9843205D01*
X-19611493Y9988705D01*
X-19698988Y10119651D01*
X-19810349Y10231012D01*
X-19941295Y10318507D01*
X-20086795Y10378775D01*
X-20241256Y10409500D01*
X-20398744Y10409500D01*
X-20553205Y10378775D01*
X-20698705Y10318507D01*
X-20829651Y10231012D01*
X-20941012Y10119651D01*
X-21028507Y9988705D01*
X-21088775Y9843205D01*
X-21119500Y9688744D01*
X-21550500Y9688744D01*
X-21581225Y9843205D01*
X-21641493Y9988705D01*
X-21728988Y10119651D01*
X-21840349Y10231012D01*
X-21971295Y10318507D01*
X-22116795Y10378775D01*
X-22271256Y10409500D01*
X-22428744Y10409500D01*
X-22583205Y10378775D01*
X-22728705Y10318507D01*
X-22859651Y10231012D01*
X-22971012Y10119651D01*
X-23058507Y9988705D01*
X-23118775Y9843205D01*
X-23149500Y9688744D01*
X-24671000Y9688744D01*
X-24671000Y16437528D01*
X-23204000Y16437528D01*
X-23204000Y16062472D01*
X-23130831Y15694624D01*
X-22987303Y15348118D01*
X-22778934Y15036271D01*
X-22513729Y14771066D01*
X-22201882Y14562697D01*
X-21855376Y14419169D01*
X-21487528Y14346000D01*
X-21112472Y14346000D01*
X-20744624Y14419169D01*
X-20398118Y14562697D01*
X-20086271Y14771066D01*
X-19821066Y15036271D01*
X-19612697Y15348118D01*
X-19469169Y15694624D01*
X-19396000Y16062472D01*
X-19396000Y16437528D01*
X-19469169Y16805376D01*
X-19612697Y17151882D01*
X-19821066Y17463729D01*
X-20086271Y17728934D01*
X-20398118Y17937303D01*
X-20744624Y18080831D01*
X-21112472Y18154000D01*
X-21487528Y18154000D01*
X-21855376Y18080831D01*
X-22201882Y17937303D01*
X-22513729Y17728934D01*
X-22778934Y17463729D01*
X-22987303Y17151882D01*
X-23130831Y16805376D01*
X-23204000Y16437528D01*
X-24671000Y16437528D01*
X-24671000Y19671000D01*
X24671001Y19671000D01*
X24671000Y-19671000D01*
G04 #@! TA.AperFunction,Conductor*
D16*
G36*
X24671000Y-19671000D02*
G01*
X-24671000Y-19671000D01*
X-24671000Y-16062472D01*
X-23204000Y-16062472D01*
X-23204000Y-16437528D01*
X-23130831Y-16805376D01*
X-22987303Y-17151882D01*
X-22778934Y-17463729D01*
X-22513729Y-17728934D01*
X-22201882Y-17937303D01*
X-21855376Y-18080831D01*
X-21487528Y-18154000D01*
X-21112472Y-18154000D01*
X-20744624Y-18080831D01*
X-20398118Y-17937303D01*
X-20086271Y-17728934D01*
X-19821066Y-17463729D01*
X-19612697Y-17151882D01*
X-19469169Y-16805376D01*
X-19396000Y-16437528D01*
X-19396000Y-16062472D01*
X19396000Y-16062472D01*
X19396000Y-16437528D01*
X19469169Y-16805376D01*
X19612697Y-17151882D01*
X19821066Y-17463729D01*
X20086271Y-17728934D01*
X20398118Y-17937303D01*
X20744624Y-18080831D01*
X21112472Y-18154000D01*
X21487528Y-18154000D01*
X21855376Y-18080831D01*
X22201882Y-17937303D01*
X22513729Y-17728934D01*
X22778934Y-17463729D01*
X22987303Y-17151882D01*
X23130831Y-16805376D01*
X23204000Y-16437528D01*
X23204000Y-16062472D01*
X23130831Y-15694624D01*
X22987303Y-15348118D01*
X22778934Y-15036271D01*
X22513729Y-14771066D01*
X22201882Y-14562697D01*
X21855376Y-14419169D01*
X21487528Y-14346000D01*
X21112472Y-14346000D01*
X20744624Y-14419169D01*
X20398118Y-14562697D01*
X20086271Y-14771066D01*
X19821066Y-15036271D01*
X19612697Y-15348118D01*
X19469169Y-15694624D01*
X19396000Y-16062472D01*
X-19396000Y-16062472D01*
X-19469169Y-15694624D01*
X-19612697Y-15348118D01*
X-19821066Y-15036271D01*
X-20086271Y-14771066D01*
X-20398118Y-14562697D01*
X-20744624Y-14419169D01*
X-21112472Y-14346000D01*
X-21487528Y-14346000D01*
X-21855376Y-14419169D01*
X-22201882Y-14562697D01*
X-22513729Y-14771066D01*
X-22778934Y-15036271D01*
X-22987303Y-15348118D01*
X-23130831Y-15694624D01*
X-23204000Y-16062472D01*
X-24671000Y-16062472D01*
X-24671000Y-8230662D01*
X-15504000Y-8230662D01*
X-15504000Y-8369338D01*
X-15476945Y-8505349D01*
X-15423876Y-8633469D01*
X-15346832Y-8748774D01*
X-15248774Y-8846832D01*
X-15229000Y-8860045D01*
X-15228999Y-10278932D01*
X-15231074Y-10300000D01*
X-15222791Y-10384099D01*
X-15198260Y-10464965D01*
X-15158426Y-10539492D01*
X-15118246Y-10588451D01*
X-15118243Y-10588454D01*
X-15104815Y-10604816D01*
X-15088454Y-10618243D01*
X-14518244Y-11188454D01*
X-14504816Y-11204816D01*
X-14488454Y-11218244D01*
X-14488452Y-11218246D01*
X-14469902Y-11233469D01*
X-14439492Y-11258426D01*
X-14364965Y-11298261D01*
X-14284099Y-11322792D01*
X-14221068Y-11329000D01*
X-14221059Y-11329000D01*
X-14200001Y-11331074D01*
X-14178943Y-11329000D01*
X-13360045Y-11329000D01*
X-13346832Y-11348774D01*
X-13248774Y-11446832D01*
X-13133469Y-11523876D01*
X-13005349Y-11576945D01*
X-12869338Y-11604000D01*
X-12730662Y-11604000D01*
X-12594651Y-11576945D01*
X-12466531Y-11523876D01*
X-12351226Y-11446832D01*
X-12253168Y-11348774D01*
X-12176124Y-11233469D01*
X-12123055Y-11105349D01*
X-12096000Y-10969338D01*
X-12096000Y-10830662D01*
X-12123055Y-10694651D01*
X-12176124Y-10566531D01*
X-12253168Y-10451226D01*
X-12351226Y-10353168D01*
X-12466531Y-10276124D01*
X-12594651Y-10223055D01*
X-12730662Y-10196000D01*
X-12869338Y-10196000D01*
X-13005349Y-10223055D01*
X-13133469Y-10276124D01*
X-13248774Y-10353168D01*
X-13346832Y-10451226D01*
X-13360045Y-10471000D01*
X-14022302Y-10471000D01*
X-14371000Y-10122303D01*
X-14371000Y-8860045D01*
X-14351226Y-8846832D01*
X-14253168Y-8748774D01*
X-14176124Y-8633469D01*
X-14123055Y-8505349D01*
X-14096000Y-8369338D01*
X-14096000Y-8230662D01*
X-14123055Y-8094651D01*
X-14176124Y-7966531D01*
X-14253168Y-7851226D01*
X-14351226Y-7753168D01*
X-14466531Y-7676124D01*
X-14594651Y-7623055D01*
X-14730662Y-7596000D01*
X-14869338Y-7596000D01*
X-15005349Y-7623055D01*
X-15133469Y-7676124D01*
X-15248774Y-7753168D01*
X-15346832Y-7851226D01*
X-15423876Y-7966531D01*
X-15476945Y-8094651D01*
X-15504000Y-8230662D01*
X-24671000Y-8230662D01*
X-24671000Y-5186252D01*
X-15934900Y-5186252D01*
X-15934900Y-5413748D01*
X-15890518Y-5636872D01*
X-15803459Y-5847050D01*
X-15677069Y-6036206D01*
X-15516206Y-6197069D01*
X-15327050Y-6323459D01*
X-15116872Y-6410518D01*
X-14893748Y-6454900D01*
X-14666252Y-6454900D01*
X-14443128Y-6410518D01*
X-14232950Y-6323459D01*
X-14043794Y-6197069D01*
X-13882931Y-6036206D01*
X-13756541Y-5847050D01*
X-13669482Y-5636872D01*
X-13625100Y-5413748D01*
X-13625100Y-5186252D01*
X-13647492Y-5073677D01*
X-11997900Y-5073677D01*
X-11997900Y-5526323D01*
X-11909593Y-5970273D01*
X-11736373Y-6388464D01*
X-11484896Y-6764826D01*
X-11164826Y-7084896D01*
X-10788464Y-7336373D01*
X-10370273Y-7509593D01*
X-9926323Y-7597900D01*
X-9473677Y-7597900D01*
X-9029727Y-7509593D01*
X-8611536Y-7336373D01*
X-8235174Y-7084896D01*
X-7915104Y-6764826D01*
X-7663627Y-6388464D01*
X-7490407Y-5970273D01*
X-7402100Y-5526323D01*
X-7402100Y-5186252D01*
X-5774900Y-5186252D01*
X-5774900Y-5413748D01*
X-5730518Y-5636872D01*
X-5643459Y-5847050D01*
X-5517069Y-6036206D01*
X-5356206Y-6197069D01*
X-5167050Y-6323459D01*
X-4956872Y-6410518D01*
X-4733748Y-6454900D01*
X-4506252Y-6454900D01*
X-4283128Y-6410518D01*
X-4072950Y-6323459D01*
X-3883794Y-6197069D01*
X-3722931Y-6036206D01*
X-3596541Y-5847050D01*
X-3509482Y-5636872D01*
X-3465100Y-5413748D01*
X-3465100Y-5186252D01*
X3465100Y-5186252D01*
X3465100Y-5413748D01*
X3509482Y-5636872D01*
X3596541Y-5847050D01*
X3722931Y-6036206D01*
X3883794Y-6197069D01*
X4072950Y-6323459D01*
X4283128Y-6410518D01*
X4506252Y-6454900D01*
X4733748Y-6454900D01*
X4956872Y-6410518D01*
X5167050Y-6323459D01*
X5356206Y-6197069D01*
X5517069Y-6036206D01*
X5643459Y-5847050D01*
X5730518Y-5636872D01*
X5774900Y-5413748D01*
X5774900Y-5186252D01*
X5752508Y-5073677D01*
X7402100Y-5073677D01*
X7402100Y-5526323D01*
X7490407Y-5970273D01*
X7663627Y-6388464D01*
X7915104Y-6764826D01*
X8235174Y-7084896D01*
X8611536Y-7336373D01*
X9029727Y-7509593D01*
X9473677Y-7597900D01*
X9926323Y-7597900D01*
X10370273Y-7509593D01*
X10788464Y-7336373D01*
X11164826Y-7084896D01*
X11484896Y-6764826D01*
X11736373Y-6388464D01*
X11909593Y-5970273D01*
X11997900Y-5526323D01*
X11997900Y-5186252D01*
X13625100Y-5186252D01*
X13625100Y-5413748D01*
X13669482Y-5636872D01*
X13756541Y-5847050D01*
X13882931Y-6036206D01*
X14043794Y-6197069D01*
X14232950Y-6323459D01*
X14443128Y-6410518D01*
X14666252Y-6454900D01*
X14893748Y-6454900D01*
X15116872Y-6410518D01*
X15327050Y-6323459D01*
X15516206Y-6197069D01*
X15677069Y-6036206D01*
X15803459Y-5847050D01*
X15890518Y-5636872D01*
X15934900Y-5413748D01*
X15934900Y-5186252D01*
X15890518Y-4963128D01*
X15803459Y-4752950D01*
X15677069Y-4563794D01*
X15516206Y-4402931D01*
X15327050Y-4276541D01*
X15116872Y-4189482D01*
X14893748Y-4145100D01*
X14666252Y-4145100D01*
X14443128Y-4189482D01*
X14232950Y-4276541D01*
X14043794Y-4402931D01*
X13882931Y-4563794D01*
X13756541Y-4752950D01*
X13669482Y-4963128D01*
X13625100Y-5186252D01*
X11997900Y-5186252D01*
X11997900Y-5073677D01*
X11909593Y-4629727D01*
X11736373Y-4211536D01*
X11484896Y-3835174D01*
X11164826Y-3515104D01*
X10788464Y-3263627D01*
X10370273Y-3090407D01*
X9926323Y-3002100D01*
X9473677Y-3002100D01*
X9029727Y-3090407D01*
X8611536Y-3263627D01*
X8235174Y-3515104D01*
X7915104Y-3835174D01*
X7663627Y-4211536D01*
X7490407Y-4629727D01*
X7402100Y-5073677D01*
X5752508Y-5073677D01*
X5730518Y-4963128D01*
X5643459Y-4752950D01*
X5517069Y-4563794D01*
X5468844Y-4515569D01*
X5712321Y-4564000D01*
X6067679Y-4564000D01*
X6416207Y-4494673D01*
X6744515Y-4358684D01*
X7039983Y-4161258D01*
X7291258Y-3909983D01*
X7488684Y-3614515D01*
X7624673Y-3286207D01*
X7694000Y-2937679D01*
X7694000Y-2582321D01*
X7624673Y-2233793D01*
X7488684Y-1905485D01*
X7291258Y-1610017D01*
X7039983Y-1358742D01*
X6744515Y-1161316D01*
X6416207Y-1025327D01*
X6067679Y-956000D01*
X5712321Y-956000D01*
X5363793Y-1025327D01*
X5035485Y-1161316D01*
X4740017Y-1358742D01*
X4488742Y-1610017D01*
X4291316Y-1905485D01*
X4155327Y-2233793D01*
X4086000Y-2582321D01*
X4086000Y-2937679D01*
X4155327Y-3286207D01*
X4291316Y-3614515D01*
X4488742Y-3909983D01*
X4723859Y-4145100D01*
X4506252Y-4145100D01*
X4283128Y-4189482D01*
X4072950Y-4276541D01*
X3883794Y-4402931D01*
X3722931Y-4563794D01*
X3596541Y-4752950D01*
X3509482Y-4963128D01*
X3465100Y-5186252D01*
X-3465100Y-5186252D01*
X-3509482Y-4963128D01*
X-3596541Y-4752950D01*
X-3722931Y-4563794D01*
X-3883794Y-4402931D01*
X-4072950Y-4276541D01*
X-4283128Y-4189482D01*
X-4506252Y-4145100D01*
X-4733748Y-4145100D01*
X-4956872Y-4189482D01*
X-5167050Y-4276541D01*
X-5356206Y-4402931D01*
X-5517069Y-4563794D01*
X-5643459Y-4752950D01*
X-5730518Y-4963128D01*
X-5774900Y-5186252D01*
X-7402100Y-5186252D01*
X-7402100Y-5073677D01*
X-7490407Y-4629727D01*
X-7663627Y-4211536D01*
X-7915104Y-3835174D01*
X-8235174Y-3515104D01*
X-8611536Y-3263627D01*
X-9029727Y-3090407D01*
X-9473677Y-3002100D01*
X-9926323Y-3002100D01*
X-10370273Y-3090407D01*
X-10788464Y-3263627D01*
X-11164826Y-3515104D01*
X-11484896Y-3835174D01*
X-11736373Y-4211536D01*
X-11909593Y-4629727D01*
X-11997900Y-5073677D01*
X-13647492Y-5073677D01*
X-13669482Y-4963128D01*
X-13756541Y-4752950D01*
X-13882931Y-4563794D01*
X-13931156Y-4515569D01*
X-13687679Y-4564000D01*
X-13332321Y-4564000D01*
X-12983793Y-4494673D01*
X-12655485Y-4358684D01*
X-12360017Y-4161258D01*
X-12108742Y-3909983D01*
X-11911316Y-3614515D01*
X-11775327Y-3286207D01*
X-11706000Y-2937679D01*
X-11706000Y-2582321D01*
X-11775327Y-2233793D01*
X-11911316Y-1905485D01*
X-12108742Y-1610017D01*
X-12360017Y-1358742D01*
X-12655485Y-1161316D01*
X-12983793Y-1025327D01*
X-13332321Y-956000D01*
X-13687679Y-956000D01*
X-14036207Y-1025327D01*
X-14364515Y-1161316D01*
X-14659983Y-1358742D01*
X-14911258Y-1610017D01*
X-15108684Y-1905485D01*
X-15244673Y-2233793D01*
X-15314000Y-2582321D01*
X-15314000Y-2937679D01*
X-15244673Y-3286207D01*
X-15108684Y-3614515D01*
X-14911258Y-3909983D01*
X-14676141Y-4145100D01*
X-14893748Y-4145100D01*
X-15116872Y-4189482D01*
X-15327050Y-4276541D01*
X-15516206Y-4402931D01*
X-15677069Y-4563794D01*
X-15803459Y-4752950D01*
X-15890518Y-4963128D01*
X-15934900Y-5186252D01*
X-24671000Y-5186252D01*
X-24671000Y-1510000D01*
X-18840470Y-1510000D01*
X-18840470Y-4010000D01*
X-18834600Y-4069594D01*
X-18817217Y-4126898D01*
X-18788989Y-4179710D01*
X-18751000Y-4226000D01*
X-18704710Y-4263989D01*
X-18651898Y-4292217D01*
X-18594594Y-4309600D01*
X-18535000Y-4315470D01*
X-15985000Y-4315470D01*
X-15925406Y-4309600D01*
X-15868102Y-4292217D01*
X-15815290Y-4263989D01*
X-15769000Y-4226000D01*
X-15731011Y-4179710D01*
X-15702783Y-4126898D01*
X-15685400Y-4069594D01*
X-15679530Y-4010000D01*
X-15679530Y-1786227D01*
X-14511551Y-618248D01*
X-14495184Y-604816D01*
X-14441574Y-539492D01*
X-14401739Y-464965D01*
X-14377208Y-384099D01*
X-14371000Y-321068D01*
X-14371000Y-321059D01*
X-14368926Y-300001D01*
X-14371000Y-278943D01*
X-14371000Y-60045D01*
X-14351226Y-46832D01*
X-14346715Y-42321D01*
X-8964000Y-42321D01*
X-8964000Y-397679D01*
X-8894673Y-746207D01*
X-8758684Y-1074515D01*
X-8561258Y-1369983D01*
X-8309983Y-1621258D01*
X-8014515Y-1818684D01*
X-7686207Y-1954673D01*
X-7337679Y-2024000D01*
X-6982321Y-2024000D01*
X-6633793Y-1954673D01*
X-6305485Y-1818684D01*
X-6010017Y-1621258D01*
X-5858759Y-1470000D01*
X-4990471Y-1470000D01*
X-4984601Y-1529594D01*
X-4967218Y-1586899D01*
X-4938990Y-1639711D01*
X-4901001Y-1686001D01*
X-4854711Y-1723990D01*
X-4801899Y-1752218D01*
X-4744594Y-1769601D01*
X-4685000Y-1775471D01*
X-3563000Y-1774000D01*
X-3487000Y-1698000D01*
X-3487000Y-297000D01*
X-3333000Y-297000D01*
X-3333000Y-1698000D01*
X-3257000Y-1774000D01*
X-2135000Y-1775471D01*
X-2075406Y-1769601D01*
X-2018101Y-1752218D01*
X-1965289Y-1723990D01*
X-1918999Y-1686001D01*
X-1881010Y-1639711D01*
X-1852782Y-1586899D01*
X-1835399Y-1529594D01*
X-1829529Y-1470000D01*
X-1829715Y-1330662D01*
X-904000Y-1330662D01*
X-904000Y-1469338D01*
X-876945Y-1605349D01*
X-823876Y-1733469D01*
X-746832Y-1848774D01*
X-648774Y-1946832D01*
X-533469Y-2023876D01*
X-405349Y-2076945D01*
X-269338Y-2104000D01*
X-130662Y-2104000D01*
X5349Y-2076945D01*
X133469Y-2023876D01*
X248774Y-1946832D01*
X346832Y-1848774D01*
X360045Y-1829000D01*
X559530Y-1829000D01*
X559530Y-4010000D01*
X565400Y-4069594D01*
X582783Y-4126898D01*
X611011Y-4179710D01*
X649000Y-4226000D01*
X695290Y-4263989D01*
X748102Y-4292217D01*
X805406Y-4309600D01*
X865000Y-4315470D01*
X3415000Y-4315470D01*
X3474594Y-4309600D01*
X3531898Y-4292217D01*
X3584710Y-4263989D01*
X3631000Y-4226000D01*
X3668989Y-4179710D01*
X3697217Y-4126898D01*
X3714600Y-4069594D01*
X3720470Y-4010000D01*
X3720470Y-1510000D01*
X3714600Y-1450406D01*
X3697217Y-1393102D01*
X3668989Y-1340290D01*
X3631000Y-1294000D01*
X3584710Y-1256011D01*
X3531898Y-1227783D01*
X3474594Y-1210400D01*
X3415000Y-1204530D01*
X1191227Y-1204530D01*
X1098248Y-1111551D01*
X1084816Y-1095184D01*
X1019492Y-1041574D01*
X944965Y-1001739D01*
X864099Y-977208D01*
X801068Y-971000D01*
X801058Y-971000D01*
X780000Y-968926D01*
X758942Y-971000D01*
X360045Y-971000D01*
X346832Y-951226D01*
X248774Y-853168D01*
X133469Y-776124D01*
X5349Y-723055D01*
X-130662Y-696000D01*
X-269338Y-696000D01*
X-405349Y-723055D01*
X-533469Y-776124D01*
X-648774Y-853168D01*
X-746832Y-951226D01*
X-823876Y-1066531D01*
X-876945Y-1194651D01*
X-904000Y-1330662D01*
X-1829715Y-1330662D01*
X-1831000Y-373000D01*
X-1907000Y-297000D01*
X-3333000Y-297000D01*
X-3487000Y-297000D01*
X-4913000Y-297000D01*
X-4989000Y-373000D01*
X-4990471Y-1470000D01*
X-5858759Y-1470000D01*
X-5758742Y-1369983D01*
X-5561316Y-1074515D01*
X-5425327Y-746207D01*
X-5356000Y-397679D01*
X-5356000Y-42321D01*
X-5425327Y306207D01*
X-5561316Y634515D01*
X-5758742Y929983D01*
X-5858759Y1030000D01*
X-4990471Y1030000D01*
X-4989000Y-67000D01*
X-4913000Y-143000D01*
X-3487000Y-143000D01*
X-3487000Y1258000D01*
X-3333000Y1258000D01*
X-3333000Y-143000D01*
X-1907000Y-143000D01*
X-1831000Y-67000D01*
X-1830967Y-42321D01*
X10436000Y-42321D01*
X10436000Y-397679D01*
X10505327Y-746207D01*
X10641316Y-1074515D01*
X10838742Y-1369983D01*
X11090017Y-1621258D01*
X11385485Y-1818684D01*
X11713793Y-1954673D01*
X12062321Y-2024000D01*
X12417679Y-2024000D01*
X12766207Y-1954673D01*
X13094515Y-1818684D01*
X13389983Y-1621258D01*
X13541241Y-1470000D01*
X14409529Y-1470000D01*
X14415399Y-1529594D01*
X14432782Y-1586899D01*
X14461010Y-1639711D01*
X14498999Y-1686001D01*
X14545289Y-1723990D01*
X14598101Y-1752218D01*
X14655406Y-1769601D01*
X14715000Y-1775471D01*
X15837000Y-1774000D01*
X15913000Y-1698000D01*
X15913000Y-297000D01*
X16067000Y-297000D01*
X16067000Y-1698000D01*
X16143000Y-1774000D01*
X17265000Y-1775471D01*
X17324594Y-1769601D01*
X17381899Y-1752218D01*
X17434711Y-1723990D01*
X17481001Y-1686001D01*
X17518990Y-1639711D01*
X17547218Y-1586899D01*
X17564601Y-1529594D01*
X17570471Y-1470000D01*
X17569000Y-373000D01*
X17493000Y-297000D01*
X16067000Y-297000D01*
X15913000Y-297000D01*
X14487000Y-297000D01*
X14411000Y-373000D01*
X14409529Y-1470000D01*
X13541241Y-1470000D01*
X13641258Y-1369983D01*
X13838684Y-1074515D01*
X13974673Y-746207D01*
X14044000Y-397679D01*
X14044000Y-42321D01*
X13974673Y306207D01*
X13838684Y634515D01*
X13641258Y929983D01*
X13541241Y1030000D01*
X14409529Y1030000D01*
X14411000Y-67000D01*
X14487000Y-143000D01*
X15913000Y-143000D01*
X15913000Y1258000D01*
X16067000Y1258000D01*
X16067000Y-143000D01*
X17493000Y-143000D01*
X17569000Y-67000D01*
X17570471Y1030000D01*
X17564601Y1089594D01*
X17547218Y1146899D01*
X17518990Y1199711D01*
X17481001Y1246001D01*
X17434711Y1283990D01*
X17381899Y1312218D01*
X17324594Y1329601D01*
X17265000Y1335471D01*
X16143000Y1334000D01*
X16067000Y1258000D01*
X15913000Y1258000D01*
X15837000Y1334000D01*
X14715000Y1335471D01*
X14655406Y1329601D01*
X14598101Y1312218D01*
X14545289Y1283990D01*
X14498999Y1246001D01*
X14461010Y1199711D01*
X14432782Y1146899D01*
X14415399Y1089594D01*
X14409529Y1030000D01*
X13541241Y1030000D01*
X13389983Y1181258D01*
X13094515Y1378684D01*
X12766207Y1514673D01*
X12417679Y1584000D01*
X12062321Y1584000D01*
X11713793Y1514673D01*
X11385485Y1378684D01*
X11090017Y1181258D01*
X10838742Y929983D01*
X10641316Y634515D01*
X10505327Y306207D01*
X10436000Y-42321D01*
X-1830967Y-42321D01*
X-1829529Y1030000D01*
X-1835399Y1089594D01*
X-1852782Y1146899D01*
X-1881010Y1199711D01*
X-1918999Y1246001D01*
X-1965289Y1283990D01*
X-2018101Y1312218D01*
X-2075406Y1329601D01*
X-2135000Y1335471D01*
X-3257000Y1334000D01*
X-3333000Y1258000D01*
X-3487000Y1258000D01*
X-3563000Y1334000D01*
X-4685000Y1335471D01*
X-4744594Y1329601D01*
X-4801899Y1312218D01*
X-4854711Y1283990D01*
X-4901001Y1246001D01*
X-4938990Y1199711D01*
X-4967218Y1146899D01*
X-4984601Y1089594D01*
X-4990471Y1030000D01*
X-5858759Y1030000D01*
X-6010017Y1181258D01*
X-6305485Y1378684D01*
X-6633793Y1514673D01*
X-6982321Y1584000D01*
X-7337679Y1584000D01*
X-7686207Y1514673D01*
X-8014515Y1378684D01*
X-8309983Y1181258D01*
X-8561258Y929983D01*
X-8758684Y634515D01*
X-8894673Y306207D01*
X-8964000Y-42321D01*
X-14346715Y-42321D01*
X-14253168Y51226D01*
X-14176124Y166531D01*
X-14123055Y294651D01*
X-14096000Y430662D01*
X-14096000Y569338D01*
X-14123055Y705349D01*
X-14176124Y833469D01*
X-14253168Y948774D01*
X-14351226Y1046832D01*
X-14466531Y1123876D01*
X-14594651Y1176945D01*
X-14730662Y1204000D01*
X-14869338Y1204000D01*
X-15005349Y1176945D01*
X-15133469Y1123876D01*
X-15248774Y1046832D01*
X-15346832Y948774D01*
X-15423876Y833469D01*
X-15476945Y705349D01*
X-15504000Y569338D01*
X-15504000Y430662D01*
X-15476945Y294651D01*
X-15423876Y166531D01*
X-15346832Y51226D01*
X-15248774Y-46832D01*
X-15228999Y-60045D01*
X-15228999Y-122302D01*
X-16311227Y-1204530D01*
X-18535000Y-1204530D01*
X-18594594Y-1210400D01*
X-18651898Y-1227783D01*
X-18704710Y-1256011D01*
X-18751000Y-1294000D01*
X-18788989Y-1340290D01*
X-18817217Y-1393102D01*
X-18834600Y-1450406D01*
X-18840470Y-1510000D01*
X-24671000Y-1510000D01*
X-24671000Y4608744D01*
X-22134500Y4608744D01*
X-22134500Y4451256D01*
X-22103775Y4296795D01*
X-22043507Y4151295D01*
X-21956012Y4020349D01*
X-21844651Y3908988D01*
X-21713705Y3821493D01*
X-21568205Y3761225D01*
X-21413744Y3730500D01*
X-21256256Y3730500D01*
X-21101795Y3761225D01*
X-20956295Y3821493D01*
X-20825349Y3908988D01*
X-20713988Y4020349D01*
X-20626493Y4151295D01*
X-20566225Y4296795D01*
X-20535500Y4451256D01*
X-20535500Y4608744D01*
X-20566225Y4763205D01*
X-20626493Y4908705D01*
X-20713988Y5039651D01*
X-20825349Y5151012D01*
X-20956295Y5238507D01*
X-21101795Y5298775D01*
X-21256256Y5329500D01*
X-21413744Y5329500D01*
X-21568205Y5298775D01*
X-21713705Y5238507D01*
X-21844651Y5151012D01*
X-21956012Y5039651D01*
X-22043507Y4908705D01*
X-22103775Y4763205D01*
X-22134500Y4608744D01*
X-24671000Y4608744D01*
X-24671000Y7169338D01*
X-19504000Y7169338D01*
X-19504000Y7030662D01*
X-19476945Y6894651D01*
X-19423876Y6766531D01*
X-19346832Y6651226D01*
X-19248774Y6553168D01*
X-19133469Y6476124D01*
X-19020400Y6429289D01*
X-19033469Y6423876D01*
X-19148774Y6346832D01*
X-19246832Y6248774D01*
X-19323876Y6133469D01*
X-19376945Y6005349D01*
X-19404000Y5869338D01*
X-19404000Y5730662D01*
X-19376945Y5594651D01*
X-19323876Y5466531D01*
X-19246832Y5351226D01*
X-19148774Y5253168D01*
X-19033469Y5176124D01*
X-18905349Y5123055D01*
X-18769338Y5096000D01*
X-18630662Y5096000D01*
X-18494651Y5123055D01*
X-18366531Y5176124D01*
X-18251226Y5253168D01*
X-18153168Y5351226D01*
X-18139955Y5371000D01*
X-15353858Y5371000D01*
X-15332800Y5368926D01*
X-15311742Y5371000D01*
X-15311732Y5371000D01*
X-15248701Y5377208D01*
X-15211800Y5388402D01*
X-15211799Y3903868D01*
X-15213874Y3882800D01*
X-15205591Y3798701D01*
X-15181060Y3717835D01*
X-15141226Y3643308D01*
X-15101046Y3594349D01*
X-15101043Y3594346D01*
X-15087615Y3577984D01*
X-15071253Y3564556D01*
X-14618248Y3111551D01*
X-14604816Y3095184D01*
X-14539492Y3041574D01*
X-14464965Y3001739D01*
X-14384099Y2977208D01*
X-14321068Y2971000D01*
X-14321059Y2971000D01*
X-14300001Y2968926D01*
X-14278943Y2971000D01*
X2439955Y2971000D01*
X2453168Y2951226D01*
X2551226Y2853168D01*
X2666531Y2776124D01*
X2794651Y2723055D01*
X2930662Y2696000D01*
X3069338Y2696000D01*
X3205349Y2723055D01*
X3333469Y2776124D01*
X3448774Y2853168D01*
X3546832Y2951226D01*
X3623876Y3066531D01*
X3676945Y3194651D01*
X3704000Y3330662D01*
X3704000Y3469338D01*
X3676945Y3605349D01*
X3623876Y3733469D01*
X3546832Y3848774D01*
X3448774Y3946832D01*
X3333469Y4023876D01*
X3205349Y4076945D01*
X3069338Y4104000D01*
X2930662Y4104000D01*
X2794651Y4076945D01*
X2666531Y4023876D01*
X2551226Y3946832D01*
X2453168Y3848774D01*
X2439955Y3829000D01*
X-14122303Y3829000D01*
X-14353800Y4060497D01*
X-14353800Y5789955D01*
X-14334026Y5803168D01*
X-14235968Y5901226D01*
X-14158924Y6016531D01*
X-14105855Y6144651D01*
X-14078800Y6280662D01*
X-14078800Y6419338D01*
X-14089512Y6473190D01*
X-13757745Y6804957D01*
X-13741384Y6818384D01*
X-13687774Y6883708D01*
X-13647939Y6958235D01*
X-13623408Y7039101D01*
X-13617200Y7102132D01*
X-13617200Y7102133D01*
X-13615125Y7123200D01*
X-13617200Y7144268D01*
X-13617200Y7416903D01*
X-12755145Y8278957D01*
X-12738784Y8292384D01*
X-12685174Y8357708D01*
X-12645339Y8432235D01*
X-12620808Y8513101D01*
X-12614600Y8576132D01*
X-12614600Y8576133D01*
X-12612525Y8597200D01*
X-12614600Y8618268D01*
X-12614600Y13174932D01*
X-12612525Y13196000D01*
X-12620808Y13280099D01*
X-12645339Y13360966D01*
X-12672190Y13411200D01*
X-12685174Y13435492D01*
X-12738784Y13500816D01*
X-12755151Y13514248D01*
X-12829800Y13588897D01*
X-12829800Y14849352D01*
X-12774624Y14931929D01*
X-12721555Y15060049D01*
X-12694500Y15196060D01*
X-12694500Y15334736D01*
X-12721555Y15470747D01*
X-12774624Y15598867D01*
X-12851668Y15714172D01*
X-12949726Y15812230D01*
X-13065031Y15889274D01*
X-13193151Y15942343D01*
X-13329162Y15969398D01*
X-13467838Y15969398D01*
X-13603849Y15942343D01*
X-13731969Y15889274D01*
X-13847274Y15812230D01*
X-13945332Y15714172D01*
X-14022376Y15598867D01*
X-14075445Y15470747D01*
X-14102500Y15334736D01*
X-14102500Y15196060D01*
X-14075445Y15060049D01*
X-14022376Y14931929D01*
X-13945332Y14816624D01*
X-13847274Y14718566D01*
X-13731969Y14641522D01*
X-13687799Y14623226D01*
X-13687800Y13432258D01*
X-13689874Y13411200D01*
X-13687800Y13390142D01*
X-13687800Y13390133D01*
X-13681592Y13327102D01*
X-13657061Y13246236D01*
X-13657060Y13246235D01*
X-13617226Y13171708D01*
X-13584839Y13132245D01*
X-13563616Y13106384D01*
X-13547249Y13092952D01*
X-13472599Y13018302D01*
X-13472600Y8774898D01*
X-14334653Y7912844D01*
X-14351015Y7899416D01*
X-14364443Y7883054D01*
X-14364446Y7883051D01*
X-14404626Y7834092D01*
X-14444460Y7759565D01*
X-14468991Y7678699D01*
X-14477274Y7594600D01*
X-14475199Y7573533D01*
X-14475200Y7300898D01*
X-14722097Y7054000D01*
X-14852138Y7054000D01*
X-14988149Y7026945D01*
X-15116269Y6973876D01*
X-15231574Y6896832D01*
X-15329632Y6798774D01*
X-15406676Y6683469D01*
X-15459745Y6555349D01*
X-15486800Y6419338D01*
X-15486800Y6280662D01*
X-15482160Y6257337D01*
X-15510497Y6229000D01*
X-18139955Y6229000D01*
X-18153168Y6248774D01*
X-18251226Y6346832D01*
X-18366531Y6423876D01*
X-18479600Y6470711D01*
X-18466531Y6476124D01*
X-18351226Y6553168D01*
X-18253168Y6651226D01*
X-18176124Y6766531D01*
X-18123055Y6894651D01*
X-18096000Y7030662D01*
X-18096000Y7169338D01*
X-18123055Y7305349D01*
X-18176124Y7433469D01*
X-18253168Y7548774D01*
X-18351226Y7646832D01*
X-18371000Y7660045D01*
X-18371000Y10290420D01*
X-16564407Y10290420D01*
X-16564407Y10151744D01*
X-16537352Y10015733D01*
X-16484283Y9887613D01*
X-16407239Y9772308D01*
X-16309181Y9674250D01*
X-16193876Y9597206D01*
X-16065756Y9544137D01*
X-15929745Y9517082D01*
X-15791069Y9517082D01*
X-15655058Y9544137D01*
X-15526938Y9597206D01*
X-15411633Y9674250D01*
X-15313575Y9772308D01*
X-15236531Y9887613D01*
X-15183462Y10015733D01*
X-15156407Y10151744D01*
X-15156407Y10290420D01*
X-15183462Y10426431D01*
X-15236531Y10554551D01*
X-15284524Y10626378D01*
X-14900745Y11010157D01*
X-14884384Y11023584D01*
X-14870954Y11039948D01*
X-14830774Y11088907D01*
X-14790940Y11163434D01*
X-14790939Y11163435D01*
X-14766408Y11244301D01*
X-14760200Y11307332D01*
X-14760200Y11307341D01*
X-14758126Y11328399D01*
X-14760200Y11349457D01*
X-14760200Y15120184D01*
X-14715026Y15150368D01*
X-14616968Y15248426D01*
X-14539924Y15363731D01*
X-14486855Y15491851D01*
X-14459800Y15627862D01*
X-14459800Y15766538D01*
X-14486855Y15902549D01*
X-14539924Y16030669D01*
X-14616968Y16145974D01*
X-14715026Y16244032D01*
X-14830331Y16321076D01*
X-14958451Y16374145D01*
X-15094462Y16401200D01*
X-15233138Y16401200D01*
X-15369149Y16374145D01*
X-15497269Y16321076D01*
X-15612574Y16244032D01*
X-15710632Y16145974D01*
X-15787676Y16030669D01*
X-15840745Y15902549D01*
X-15867800Y15766538D01*
X-15867800Y15627862D01*
X-15840745Y15491851D01*
X-15787676Y15363731D01*
X-15710632Y15248426D01*
X-15618199Y15155993D01*
X-15618200Y11506098D01*
X-16148861Y10975436D01*
X-16165222Y10962009D01*
X-16178650Y10945647D01*
X-16178653Y10945644D01*
X-16218833Y10896685D01*
X-16258667Y10822158D01*
X-16266464Y10796457D01*
X-16309181Y10767914D01*
X-16407239Y10669856D01*
X-16484283Y10554551D01*
X-16537352Y10426431D01*
X-16564407Y10290420D01*
X-18371000Y10290420D01*
X-18371000Y11122303D01*
X-17984761Y11508542D01*
X-17946909Y11528774D01*
X-17881584Y11582384D01*
X-17827974Y11647708D01*
X-17788139Y11722235D01*
X-17763608Y11803101D01*
X-17757400Y11866132D01*
X-17757400Y16256103D01*
X-16256102Y17757400D01*
X-11201297Y17757400D01*
X-10741400Y17297502D01*
X-10741399Y14834845D01*
X-10761174Y14821632D01*
X-10859232Y14723574D01*
X-10936276Y14608269D01*
X-10989345Y14480149D01*
X-11016400Y14344138D01*
X-11016400Y14205462D01*
X-10989345Y14069451D01*
X-10936276Y13941331D01*
X-10859232Y13826026D01*
X-10761174Y13727968D01*
X-10645869Y13650924D01*
X-10517749Y13597855D01*
X-10381738Y13570800D01*
X-10243062Y13570800D01*
X-10107051Y13597855D01*
X-9978931Y13650924D01*
X-9886028Y13713000D01*
X-5074000Y13713000D01*
X-5074000Y13113000D01*
X-5044490Y12967381D01*
X-4987138Y12830318D01*
X-4904149Y12707077D01*
X-4798711Y12602394D01*
X-4674876Y12520293D01*
X-4537404Y12463928D01*
X-4513387Y12461222D01*
X-4397000Y12516387D01*
X-4397000Y13713000D01*
X-4243000Y13713000D01*
X-4243000Y12516387D01*
X-4126613Y12461222D01*
X-4102596Y12463928D01*
X-3965124Y12520293D01*
X-3841289Y12602394D01*
X-3735851Y12707077D01*
X-3652862Y12830318D01*
X-3595510Y12967381D01*
X-3566000Y13113000D01*
X-3566000Y13713000D01*
X-4243000Y13713000D01*
X-4397000Y13713000D01*
X-5074000Y13713000D01*
X-9886028Y13713000D01*
X-9863626Y13727968D01*
X-9765568Y13826026D01*
X-9688524Y13941331D01*
X-9635455Y14069451D01*
X-9608400Y14205462D01*
X-9608400Y14344138D01*
X-9632839Y14467000D01*
X-5074000Y14467000D01*
X-5074000Y13867000D01*
X-4397000Y13867000D01*
X-4397000Y15063613D01*
X-4243000Y15063613D01*
X-4243000Y13867000D01*
X-3566000Y13867000D01*
X-3566000Y14351951D01*
X-3519000Y14351951D01*
X-3519000Y14228049D01*
X-3494827Y14106528D01*
X-3447412Y13992057D01*
X-3378576Y13889036D01*
X-3290964Y13801424D01*
X-3187943Y13732588D01*
X-3073472Y13685173D01*
X-2951951Y13661000D01*
X-2828049Y13661000D01*
X-2706528Y13685173D01*
X-2592057Y13732588D01*
X-2489036Y13801424D01*
X-2401424Y13889036D01*
X-2332588Y13992057D01*
X-2285173Y14106528D01*
X-2261000Y14228049D01*
X-2261000Y14351951D01*
X2261000Y14351951D01*
X2261000Y14228049D01*
X2285173Y14106528D01*
X2332588Y13992057D01*
X2401424Y13889036D01*
X2489036Y13801424D01*
X2592057Y13732588D01*
X2706528Y13685173D01*
X2828049Y13661000D01*
X2951951Y13661000D01*
X3073472Y13685173D01*
X3140652Y13713000D01*
X3566000Y13713000D01*
X3566000Y13113000D01*
X3595510Y12967381D01*
X3652862Y12830318D01*
X3735851Y12707077D01*
X3841289Y12602394D01*
X3965124Y12520293D01*
X4102596Y12463928D01*
X4126613Y12461222D01*
X4243000Y12516387D01*
X4243000Y13713000D01*
X4397000Y13713000D01*
X4397000Y12516387D01*
X4513387Y12461222D01*
X4537404Y12463928D01*
X4674876Y12520293D01*
X4798711Y12602394D01*
X4904149Y12707077D01*
X4987138Y12830318D01*
X5044490Y12967381D01*
X5074000Y13113000D01*
X5074000Y13713000D01*
X4397000Y13713000D01*
X4243000Y13713000D01*
X3566000Y13713000D01*
X3140652Y13713000D01*
X3187943Y13732588D01*
X3290964Y13801424D01*
X3378576Y13889036D01*
X3447412Y13992057D01*
X3494827Y14106528D01*
X3519000Y14228049D01*
X3519000Y14351951D01*
X3496115Y14467000D01*
X3566000Y14467000D01*
X3566000Y13867000D01*
X4243000Y13867000D01*
X4243000Y15063613D01*
X4397000Y15063613D01*
X4397000Y13867000D01*
X5074000Y13867000D01*
X5074000Y14467000D01*
X5044490Y14612619D01*
X4987138Y14749682D01*
X4904149Y14872923D01*
X4798711Y14977606D01*
X4674876Y15059707D01*
X4537404Y15116072D01*
X4513387Y15118778D01*
X4397000Y15063613D01*
X4243000Y15063613D01*
X4126613Y15118778D01*
X4102596Y15116072D01*
X3965124Y15059707D01*
X3841289Y14977606D01*
X3735851Y14872923D01*
X3652862Y14749682D01*
X3595510Y14612619D01*
X3566000Y14467000D01*
X3496115Y14467000D01*
X3494827Y14473472D01*
X3447412Y14587943D01*
X3378576Y14690964D01*
X3290964Y14778576D01*
X3187943Y14847412D01*
X3073472Y14894827D01*
X2951951Y14919000D01*
X2828049Y14919000D01*
X2706528Y14894827D01*
X2592057Y14847412D01*
X2489036Y14778576D01*
X2401424Y14690964D01*
X2332588Y14587943D01*
X2285173Y14473472D01*
X2261000Y14351951D01*
X-2261000Y14351951D01*
X-2285173Y14473472D01*
X-2332588Y14587943D01*
X-2401424Y14690964D01*
X-2489036Y14778576D01*
X-2592057Y14847412D01*
X-2706528Y14894827D01*
X-2828049Y14919000D01*
X-2951951Y14919000D01*
X-3073472Y14894827D01*
X-3187943Y14847412D01*
X-3290964Y14778576D01*
X-3378576Y14690964D01*
X-3447412Y14587943D01*
X-3494827Y14473472D01*
X-3519000Y14351951D01*
X-3566000Y14351951D01*
X-3566000Y14467000D01*
X-3595510Y14612619D01*
X-3652862Y14749682D01*
X-3735851Y14872923D01*
X-3841289Y14977606D01*
X-3965124Y15059707D01*
X-4102596Y15116072D01*
X-4126613Y15118778D01*
X-4243000Y15063613D01*
X-4397000Y15063613D01*
X-4513387Y15118778D01*
X-4537404Y15116072D01*
X-4674876Y15059707D01*
X-4798711Y14977606D01*
X-4904149Y14872923D01*
X-4987138Y14749682D01*
X-5044490Y14612619D01*
X-5074000Y14467000D01*
X-9632839Y14467000D01*
X-9635455Y14480149D01*
X-9688524Y14608269D01*
X-9765568Y14723574D01*
X-9863626Y14821632D01*
X-9883400Y14834845D01*
X-9883400Y17454132D01*
X-9881325Y17475200D01*
X-9889608Y17559299D01*
X-9914139Y17640165D01*
X-9953974Y17714692D01*
X-9994154Y17763652D01*
X-9994156Y17763654D01*
X-10007584Y17780016D01*
X-10023945Y17793443D01*
X-10123502Y17893000D01*
X-5124000Y17893000D01*
X-5124000Y17593000D01*
X-5093529Y17437627D01*
X-5033332Y17291184D01*
X-4945722Y17159299D01*
X-4834066Y17047040D01*
X-4702655Y16958721D01*
X-4556539Y16897736D01*
X-4521247Y16891595D01*
X-4397000Y16946084D01*
X-4397000Y17893000D01*
X-4243000Y17893000D01*
X-4243000Y16946084D01*
X-4118753Y16891595D01*
X-4083461Y16897736D01*
X-3937345Y16958721D01*
X-3805934Y17047040D01*
X-3694278Y17159299D01*
X-3606668Y17291184D01*
X-3546471Y17437627D01*
X-3516000Y17593000D01*
X-3516000Y17893000D01*
X3516000Y17893000D01*
X3516000Y17593000D01*
X3546471Y17437627D01*
X3606668Y17291184D01*
X3694278Y17159299D01*
X3805934Y17047040D01*
X3937345Y16958721D01*
X4083461Y16897736D01*
X4118753Y16891595D01*
X4243000Y16946084D01*
X4243000Y17893000D01*
X4397000Y17893000D01*
X4397000Y16946084D01*
X4521247Y16891595D01*
X4556539Y16897736D01*
X4702655Y16958721D01*
X4834066Y17047040D01*
X4945722Y17159299D01*
X5033332Y17291184D01*
X5093529Y17437627D01*
X5124000Y17593000D01*
X5124000Y17893000D01*
X4397000Y17893000D01*
X4243000Y17893000D01*
X3516000Y17893000D01*
X-3516000Y17893000D01*
X-4243000Y17893000D01*
X-4397000Y17893000D01*
X-5124000Y17893000D01*
X-10123502Y17893000D01*
X-10577502Y18347000D01*
X-5124000Y18347000D01*
X-5124000Y18047000D01*
X-4397000Y18047000D01*
X-4397000Y18993916D01*
X-4243000Y18993916D01*
X-4243000Y18047000D01*
X-3516000Y18047000D01*
X-3516000Y18347000D01*
X3516000Y18347000D01*
X3516000Y18047000D01*
X4243000Y18047000D01*
X4243000Y18993916D01*
X4397000Y18993916D01*
X4397000Y18047000D01*
X5124000Y18047000D01*
X5124000Y18347000D01*
X5093529Y18502373D01*
X5033332Y18648816D01*
X4945722Y18780701D01*
X4834066Y18892960D01*
X4702655Y18981279D01*
X4556539Y19042264D01*
X4521247Y19048405D01*
X4397000Y18993916D01*
X4243000Y18993916D01*
X4118753Y19048405D01*
X4083461Y19042264D01*
X3937345Y18981279D01*
X3805934Y18892960D01*
X3694278Y18780701D01*
X3606668Y18648816D01*
X3546471Y18502373D01*
X3516000Y18347000D01*
X-3516000Y18347000D01*
X-3546471Y18502373D01*
X-3606668Y18648816D01*
X-3694278Y18780701D01*
X-3805934Y18892960D01*
X-3937345Y18981279D01*
X-4083461Y19042264D01*
X-4118753Y19048405D01*
X-4243000Y18993916D01*
X-4397000Y18993916D01*
X-4521247Y19048405D01*
X-4556539Y19042264D01*
X-4702655Y18981279D01*
X-4834066Y18892960D01*
X-4945722Y18780701D01*
X-5033332Y18648816D01*
X-5093529Y18502373D01*
X-5124000Y18347000D01*
X-10577502Y18347000D01*
X-10705352Y18474849D01*
X-10718784Y18491216D01*
X-10784108Y18544826D01*
X-10858635Y18584661D01*
X-10939501Y18609192D01*
X-11002532Y18615400D01*
X-11002542Y18615400D01*
X-11023600Y18617474D01*
X-11044658Y18615400D01*
X-16412732Y18615400D01*
X-16433800Y18617475D01*
X-16517899Y18609192D01*
X-16598765Y18584661D01*
X-16673292Y18544826D01*
X-16722252Y18504646D01*
X-16722254Y18504644D01*
X-16738616Y18491216D01*
X-16752044Y18474854D01*
X-18474853Y16752044D01*
X-18491215Y16738616D01*
X-18504643Y16722254D01*
X-18504646Y16722251D01*
X-18544826Y16673292D01*
X-18584660Y16598765D01*
X-18609191Y16517899D01*
X-18617474Y16433800D01*
X-18615399Y16412732D01*
X-18615400Y12091297D01*
X-19088449Y11618248D01*
X-19104816Y11604816D01*
X-19118246Y11588451D01*
X-19158426Y11539492D01*
X-19179717Y11499657D01*
X-19198261Y11464964D01*
X-19222792Y11384098D01*
X-19229000Y11321067D01*
X-19229000Y11321058D01*
X-19231074Y11300000D01*
X-19229000Y11278942D01*
X-19228999Y7660045D01*
X-19248774Y7646832D01*
X-19346832Y7548774D01*
X-19423876Y7433469D01*
X-19476945Y7305349D01*
X-19504000Y7169338D01*
X-24671000Y7169338D01*
X-24671000Y9688744D01*
X-23149500Y9688744D01*
X-23149500Y9531256D01*
X-23118775Y9376795D01*
X-23058507Y9231295D01*
X-22971012Y9100349D01*
X-22859651Y8988988D01*
X-22728705Y8901493D01*
X-22583205Y8841225D01*
X-22428744Y8810500D01*
X-22271256Y8810500D01*
X-22116795Y8841225D01*
X-21971295Y8901493D01*
X-21840349Y8988988D01*
X-21728988Y9100349D01*
X-21641493Y9231295D01*
X-21581225Y9376795D01*
X-21550500Y9531256D01*
X-21550500Y9688744D01*
X-21119500Y9688744D01*
X-21119500Y9531256D01*
X-21088775Y9376795D01*
X-21028507Y9231295D01*
X-20941012Y9100349D01*
X-20829651Y8988988D01*
X-20698705Y8901493D01*
X-20553205Y8841225D01*
X-20398744Y8810500D01*
X-20241256Y8810500D01*
X-20086795Y8841225D01*
X-19941295Y8901493D01*
X-19810349Y8988988D01*
X-19698988Y9100349D01*
X-19611493Y9231295D01*
X-19551225Y9376795D01*
X-19520500Y9531256D01*
X-19520500Y9688744D01*
X-19551225Y9843205D01*
X-19611493Y9988705D01*
X-19698988Y10119651D01*
X-19810349Y10231012D01*
X-19941295Y10318507D01*
X-20086795Y10378775D01*
X-20241256Y10409500D01*
X-20398744Y10409500D01*
X-20553205Y10378775D01*
X-20698705Y10318507D01*
X-20829651Y10231012D01*
X-20941012Y10119651D01*
X-21028507Y9988705D01*
X-21088775Y9843205D01*
X-21119500Y9688744D01*
X-21550500Y9688744D01*
X-21581225Y9843205D01*
X-21641493Y9988705D01*
X-21728988Y10119651D01*
X-21840349Y10231012D01*
X-21971295Y10318507D01*
X-22116795Y10378775D01*
X-22271256Y10409500D01*
X-22428744Y10409500D01*
X-22583205Y10378775D01*
X-22728705Y10318507D01*
X-22859651Y10231012D01*
X-22971012Y10119651D01*
X-23058507Y9988705D01*
X-23118775Y9843205D01*
X-23149500Y9688744D01*
X-24671000Y9688744D01*
X-24671000Y16437528D01*
X-23204000Y16437528D01*
X-23204000Y16062472D01*
X-23130831Y15694624D01*
X-22987303Y15348118D01*
X-22778934Y15036271D01*
X-22513729Y14771066D01*
X-22201882Y14562697D01*
X-21855376Y14419169D01*
X-21487528Y14346000D01*
X-21112472Y14346000D01*
X-20744624Y14419169D01*
X-20398118Y14562697D01*
X-20086271Y14771066D01*
X-19821066Y15036271D01*
X-19612697Y15348118D01*
X-19469169Y15694624D01*
X-19396000Y16062472D01*
X-19396000Y16437528D01*
X-19469169Y16805376D01*
X-19612697Y17151882D01*
X-19821066Y17463729D01*
X-20086271Y17728934D01*
X-20398118Y17937303D01*
X-20744624Y18080831D01*
X-21112472Y18154000D01*
X-21487528Y18154000D01*
X-21855376Y18080831D01*
X-22201882Y17937303D01*
X-22513729Y17728934D01*
X-22778934Y17463729D01*
X-22987303Y17151882D01*
X-23130831Y16805376D01*
X-23204000Y16437528D01*
X-24671000Y16437528D01*
X-24671000Y19671000D01*
X24671001Y19671000D01*
X24671000Y-19671000D01*
G37*
G04 #@! TD.AperFunction*
M02*
