M48
; DRILL file {KiCad (5.1.10)-1} date 07/17/21 22:12:13
; FORMAT={-:-/ absolute / inch / decimal}
; #@! TF.CreationDate,2021-07-17T22:12:13-07:00
; #@! TF.GenerationSoftware,Kicad,Pcbnew,(5.1.10)-1
; #@! TF.FileFunction,Plated,1,2,PTH
FMAT,2
INCH
T1C0.0157
T2C0.0197
T3C0.0591
%
G90
G05
T1
X4.83Y-3.835
X4.87Y-3.86
X4.875Y-4.01
X4.88Y-3.715
X4.91Y-3.915
X4.91Y-4.05
X4.94Y-3.685
X4.95Y-4.01
X4.98Y-3.705
X4.985Y-4.005
X4.99Y-3.865
X4.99Y-3.915
X5.02Y-4.045
X5.06Y-3.915
X5.06Y-4.005
X5.095Y-3.715
X5.12Y-3.835
X5.22Y-3.905
X5.305Y-3.74
X5.35Y-3.785
X5.395Y-3.74
X5.41Y-3.53
X5.455Y-3.485
X5.455Y-3.575
X5.485Y-3.71
X5.53Y-3.75
X5.575Y-3.705
X5.62Y-3.585
X5.695Y-4.005
X5.72Y-3.545
X5.745Y-4.005
X5.77Y-3.73
X5.795Y-4.11
X5.8Y-4.005
X5.805Y-3.89
X5.835Y-4.16
X5.885Y-4.11
X5.895Y-3.555
X5.915Y-3.74
X5.915Y-3.87
X5.95Y-4.07
X5.975Y-3.48
X5.975Y-3.56
X5.99Y-4.03
X6.015Y-3.52
T2
X4.8032Y-3.5115
X4.8174Y-3.7458
X5.1426Y-3.7458
X5.1568Y-3.5115
T3
X5.0453Y-4.5094
X5.2953Y-4.4094
X5.7933Y-4.5094
X6.0433Y-4.4094
T0
M30
