%TF.GenerationSoftware,KiCad,Pcbnew,(5.1.10)-1*%
%TF.CreationDate,2021-07-17T22:11:59-07:00*%
%TF.ProjectId,twokey,74776f6b-6579-42e6-9b69-6361645f7063,rev?*%
%TF.SameCoordinates,Original*%
%TF.FileFunction,Legend,Top*%
%TF.FilePolarity,Positive*%
%FSLAX46Y46*%
G04 Gerber Fmt 4.6, Leading zero omitted, Abs format (unit mm)*
G04 Created by KiCad (PCBNEW (5.1.10)-1) date 2021-07-17 22:11:59*
%MOMM*%
%LPD*%
G01*
G04 APERTURE LIST*
%ADD10C,0.120000*%
%ADD11C,0.150000*%
%ADD12C,0.250000*%
%ADD13C,0.127000*%
%ADD14C,0.050000*%
G04 APERTURE END LIST*
D10*
%TO.C,SW1*%
X124975000Y-124065000D02*
X124975000Y-110095000D01*
X138945000Y-124065000D02*
X124975000Y-124065000D01*
X138945000Y-110095000D02*
X138945000Y-124065000D01*
X124975000Y-110095000D02*
X138945000Y-110095000D01*
D11*
%TO.C,U1*%
X151453000Y-99637000D02*
X151453000Y-99412000D01*
X144203000Y-99637000D02*
X144203000Y-99312000D01*
X144203000Y-92387000D02*
X144203000Y-92712000D01*
X151453000Y-92387000D02*
X151453000Y-92712000D01*
X151453000Y-99637000D02*
X151128000Y-99637000D01*
X151453000Y-92387000D02*
X151128000Y-92387000D01*
X144203000Y-92387000D02*
X144528000Y-92387000D01*
X144203000Y-99637000D02*
X144528000Y-99637000D01*
X151453000Y-99412000D02*
X152878000Y-99412000D01*
D10*
%TO.C,C1*%
X148846000Y-103385233D02*
X148846000Y-103677767D01*
X147826000Y-103385233D02*
X147826000Y-103677767D01*
%TO.C,C2*%
X150446665Y-102002000D02*
X150678335Y-102002000D01*
X150446665Y-102722000D02*
X150678335Y-102722000D01*
%TO.C,C3*%
X151073665Y-89768000D02*
X151305335Y-89768000D01*
X151073665Y-89048000D02*
X151305335Y-89048000D01*
%TO.C,C4*%
X136400000Y-93987233D02*
X136400000Y-94279767D01*
X135380000Y-93987233D02*
X135380000Y-94279767D01*
%TO.C,C5*%
X139592267Y-89152000D02*
X139299733Y-89152000D01*
X139592267Y-90172000D02*
X139299733Y-90172000D01*
D12*
%TO.C,J1*%
X129392000Y-97993000D02*
G75*
G03*
X129392000Y-97993000I-100000J0D01*
G01*
D13*
X121892000Y-97303000D02*
X123192000Y-97303000D01*
X121892000Y-97303000D02*
X121892000Y-96293000D01*
X121892000Y-93993000D02*
X121892000Y-90393000D01*
X121892000Y-87893000D02*
X121892000Y-86803000D01*
X131092000Y-87893000D02*
X131092000Y-86803000D01*
X131092000Y-93993000D02*
X131092000Y-90393000D01*
X131092000Y-97303000D02*
X131092000Y-96293000D01*
X129792000Y-97303000D02*
X131092000Y-97303000D01*
X121892000Y-86803000D02*
X131092000Y-86803000D01*
D10*
%TO.C,R1*%
X127128000Y-101051379D02*
X127128000Y-101386621D01*
X127888000Y-101051379D02*
X127888000Y-101386621D01*
%TO.C,R2*%
X125094000Y-101140879D02*
X125094000Y-101476121D01*
X124334000Y-101140879D02*
X124334000Y-101476121D01*
%TO.C,U2*%
X138702000Y-91638000D02*
X138702000Y-92568000D01*
X138702000Y-94798000D02*
X138702000Y-93868000D01*
X138702000Y-94798000D02*
X140862000Y-94798000D01*
X138702000Y-91638000D02*
X140162000Y-91638000D01*
%TO.C,SW2*%
X143975000Y-110095000D02*
X157945000Y-110095000D01*
X157945000Y-110095000D02*
X157945000Y-124065000D01*
X157945000Y-124065000D02*
X143975000Y-124065000D01*
X143975000Y-124065000D02*
X143975000Y-110095000D01*
%TO.C,SW1*%
D11*
X130626666Y-109610761D02*
X130769523Y-109658380D01*
X131007619Y-109658380D01*
X131102857Y-109610761D01*
X131150476Y-109563142D01*
X131198095Y-109467904D01*
X131198095Y-109372666D01*
X131150476Y-109277428D01*
X131102857Y-109229809D01*
X131007619Y-109182190D01*
X130817142Y-109134571D01*
X130721904Y-109086952D01*
X130674285Y-109039333D01*
X130626666Y-108944095D01*
X130626666Y-108848857D01*
X130674285Y-108753619D01*
X130721904Y-108706000D01*
X130817142Y-108658380D01*
X131055238Y-108658380D01*
X131198095Y-108706000D01*
X131531428Y-108658380D02*
X131769523Y-109658380D01*
X131960000Y-108944095D01*
X132150476Y-109658380D01*
X132388571Y-108658380D01*
X133293333Y-109658380D02*
X132721904Y-109658380D01*
X133007619Y-109658380D02*
X133007619Y-108658380D01*
X132912380Y-108801238D01*
X132817142Y-108896476D01*
X132721904Y-108944095D01*
%TO.C,U1*%
X147066095Y-101514380D02*
X147066095Y-102323904D01*
X147113714Y-102419142D01*
X147161333Y-102466761D01*
X147256571Y-102514380D01*
X147447047Y-102514380D01*
X147542285Y-102466761D01*
X147589904Y-102419142D01*
X147637523Y-102323904D01*
X147637523Y-101514380D01*
X148637523Y-102514380D02*
X148066095Y-102514380D01*
X148351809Y-102514380D02*
X148351809Y-101514380D01*
X148256571Y-101657238D01*
X148161333Y-101752476D01*
X148066095Y-101800095D01*
%TO.C,C1*%
X150123142Y-103698166D02*
X150170761Y-103745785D01*
X150218380Y-103888642D01*
X150218380Y-103983880D01*
X150170761Y-104126738D01*
X150075523Y-104221976D01*
X149980285Y-104269595D01*
X149789809Y-104317214D01*
X149646952Y-104317214D01*
X149456476Y-104269595D01*
X149361238Y-104221976D01*
X149266000Y-104126738D01*
X149218380Y-103983880D01*
X149218380Y-103888642D01*
X149266000Y-103745785D01*
X149313619Y-103698166D01*
X150218380Y-102745785D02*
X150218380Y-103317214D01*
X150218380Y-103031500D02*
X149218380Y-103031500D01*
X149361238Y-103126738D01*
X149456476Y-103221976D01*
X149504095Y-103317214D01*
%TO.C,C2*%
X150395833Y-101559142D02*
X150348214Y-101606761D01*
X150205357Y-101654380D01*
X150110119Y-101654380D01*
X149967261Y-101606761D01*
X149872023Y-101511523D01*
X149824404Y-101416285D01*
X149776785Y-101225809D01*
X149776785Y-101082952D01*
X149824404Y-100892476D01*
X149872023Y-100797238D01*
X149967261Y-100702000D01*
X150110119Y-100654380D01*
X150205357Y-100654380D01*
X150348214Y-100702000D01*
X150395833Y-100749619D01*
X150776785Y-100749619D02*
X150824404Y-100702000D01*
X150919642Y-100654380D01*
X151157738Y-100654380D01*
X151252976Y-100702000D01*
X151300595Y-100749619D01*
X151348214Y-100844857D01*
X151348214Y-100940095D01*
X151300595Y-101082952D01*
X150729166Y-101654380D01*
X151348214Y-101654380D01*
%TO.C,C3*%
X151022833Y-88605142D02*
X150975214Y-88652761D01*
X150832357Y-88700380D01*
X150737119Y-88700380D01*
X150594261Y-88652761D01*
X150499023Y-88557523D01*
X150451404Y-88462285D01*
X150403785Y-88271809D01*
X150403785Y-88128952D01*
X150451404Y-87938476D01*
X150499023Y-87843238D01*
X150594261Y-87748000D01*
X150737119Y-87700380D01*
X150832357Y-87700380D01*
X150975214Y-87748000D01*
X151022833Y-87795619D01*
X151356166Y-87700380D02*
X151975214Y-87700380D01*
X151641880Y-88081333D01*
X151784738Y-88081333D01*
X151879976Y-88128952D01*
X151927595Y-88176571D01*
X151975214Y-88271809D01*
X151975214Y-88509904D01*
X151927595Y-88605142D01*
X151879976Y-88652761D01*
X151784738Y-88700380D01*
X151499023Y-88700380D01*
X151403785Y-88652761D01*
X151356166Y-88605142D01*
%TO.C,C4*%
X137677142Y-94300166D02*
X137724761Y-94347785D01*
X137772380Y-94490642D01*
X137772380Y-94585880D01*
X137724761Y-94728738D01*
X137629523Y-94823976D01*
X137534285Y-94871595D01*
X137343809Y-94919214D01*
X137200952Y-94919214D01*
X137010476Y-94871595D01*
X136915238Y-94823976D01*
X136820000Y-94728738D01*
X136772380Y-94585880D01*
X136772380Y-94490642D01*
X136820000Y-94347785D01*
X136867619Y-94300166D01*
X137105714Y-93443023D02*
X137772380Y-93443023D01*
X136724761Y-93681119D02*
X137439047Y-93919214D01*
X137439047Y-93300166D01*
%TO.C,C5*%
X139279333Y-91449142D02*
X139231714Y-91496761D01*
X139088857Y-91544380D01*
X138993619Y-91544380D01*
X138850761Y-91496761D01*
X138755523Y-91401523D01*
X138707904Y-91306285D01*
X138660285Y-91115809D01*
X138660285Y-90972952D01*
X138707904Y-90782476D01*
X138755523Y-90687238D01*
X138850761Y-90592000D01*
X138993619Y-90544380D01*
X139088857Y-90544380D01*
X139231714Y-90592000D01*
X139279333Y-90639619D01*
X140184095Y-90544380D02*
X139707904Y-90544380D01*
X139660285Y-91020571D01*
X139707904Y-90972952D01*
X139803142Y-90925333D01*
X140041238Y-90925333D01*
X140136476Y-90972952D01*
X140184095Y-91020571D01*
X140231714Y-91115809D01*
X140231714Y-91353904D01*
X140184095Y-91449142D01*
X140136476Y-91496761D01*
X140041238Y-91544380D01*
X139803142Y-91544380D01*
X139707904Y-91496761D01*
X139660285Y-91449142D01*
%TO.C,J1*%
D14*
X127119550Y-98616071D02*
X127119550Y-99616400D01*
X127052861Y-99816465D01*
X126919484Y-99949842D01*
X126719418Y-100016531D01*
X126586041Y-100016531D01*
X128520010Y-100016531D02*
X127719747Y-100016531D01*
X128119878Y-100016531D02*
X128119878Y-98616071D01*
X127986501Y-98816137D01*
X127853124Y-98949514D01*
X127719747Y-99016202D01*
X119502283Y-85898264D02*
X118700980Y-85898264D01*
X119101631Y-85898264D02*
X119101631Y-84495984D01*
X118968081Y-84696310D01*
X118834530Y-84829860D01*
X118700980Y-84896636D01*
X120036485Y-84629535D02*
X120103260Y-84562760D01*
X120236810Y-84495984D01*
X120570686Y-84495984D01*
X120704237Y-84562760D01*
X120771012Y-84629535D01*
X120837787Y-84763085D01*
X120837787Y-84896636D01*
X120771012Y-85096961D01*
X119969709Y-85898264D01*
X120837787Y-85898264D01*
X122039742Y-84963411D02*
X122039742Y-85898264D01*
X121705865Y-84429209D02*
X121371989Y-85430838D01*
X122240067Y-85430838D01*
X123041370Y-84495984D02*
X123174921Y-84495984D01*
X123308471Y-84562760D01*
X123375246Y-84629535D01*
X123442022Y-84763085D01*
X123508797Y-85030186D01*
X123508797Y-85364062D01*
X123442022Y-85631163D01*
X123375246Y-85764714D01*
X123308471Y-85831489D01*
X123174921Y-85898264D01*
X123041370Y-85898264D01*
X122907820Y-85831489D01*
X122841045Y-85764714D01*
X122774269Y-85631163D01*
X122707494Y-85364062D01*
X122707494Y-85030186D01*
X122774269Y-84763085D01*
X122841045Y-84629535D01*
X122907820Y-84562760D01*
X123041370Y-84495984D01*
X124844302Y-85898264D02*
X124042999Y-85898264D01*
X124443650Y-85898264D02*
X124443650Y-84495984D01*
X124310100Y-84696310D01*
X124176549Y-84829860D01*
X124042999Y-84896636D01*
X126046256Y-84495984D02*
X125779155Y-84495984D01*
X125645605Y-84562760D01*
X125578829Y-84629535D01*
X125445279Y-84829860D01*
X125378504Y-85096961D01*
X125378504Y-85631163D01*
X125445279Y-85764714D01*
X125512054Y-85831489D01*
X125645605Y-85898264D01*
X125912705Y-85898264D01*
X126046256Y-85831489D01*
X126113031Y-85764714D01*
X126179806Y-85631163D01*
X126179806Y-85297287D01*
X126113031Y-85163737D01*
X126046256Y-85096961D01*
X125912705Y-85030186D01*
X125645605Y-85030186D01*
X125512054Y-85096961D01*
X125445279Y-85163737D01*
X125378504Y-85297287D01*
X127515311Y-85898264D02*
X126714008Y-85898264D01*
X127114660Y-85898264D02*
X127114660Y-84495984D01*
X126981109Y-84696310D01*
X126847559Y-84829860D01*
X126714008Y-84896636D01*
X128383389Y-84495984D02*
X128516940Y-84495984D01*
X128650490Y-84562760D01*
X128717265Y-84629535D01*
X128784041Y-84763085D01*
X128850816Y-85030186D01*
X128850816Y-85364062D01*
X128784041Y-85631163D01*
X128717265Y-85764714D01*
X128650490Y-85831489D01*
X128516940Y-85898264D01*
X128383389Y-85898264D01*
X128249839Y-85831489D01*
X128183064Y-85764714D01*
X128116288Y-85631163D01*
X128049513Y-85364062D01*
X128049513Y-85030186D01*
X128116288Y-84763085D01*
X128183064Y-84629535D01*
X128249839Y-84562760D01*
X128383389Y-84495984D01*
X129451793Y-85163737D02*
X129919220Y-85163737D01*
X130119545Y-85898264D02*
X129451793Y-85898264D01*
X129451793Y-84495984D01*
X130119545Y-84495984D01*
X131321500Y-84963411D02*
X131321500Y-85898264D01*
X130987624Y-84429209D02*
X130653747Y-85430838D01*
X131521825Y-85430838D01*
X131989252Y-84963411D02*
X132990881Y-84963411D01*
X132389904Y-84362434D02*
X131989252Y-86165365D01*
X132857330Y-85564388D02*
X131855702Y-85564388D01*
X132456679Y-86165365D02*
X132857330Y-84362434D01*
X133391532Y-84629535D02*
X133458307Y-84562760D01*
X133591858Y-84495984D01*
X133925734Y-84495984D01*
X134059285Y-84562760D01*
X134126060Y-84629535D01*
X134192835Y-84763085D01*
X134192835Y-84896636D01*
X134126060Y-85096961D01*
X133324757Y-85898264D01*
X134192835Y-85898264D01*
X134727037Y-85497613D02*
X135394789Y-85497613D01*
X134593486Y-85898264D02*
X135060913Y-84495984D01*
X135528340Y-85898264D01*
%TO.C,R1*%
D11*
X129130380Y-101385666D02*
X128654190Y-101719000D01*
X129130380Y-101957095D02*
X128130380Y-101957095D01*
X128130380Y-101576142D01*
X128178000Y-101480904D01*
X128225619Y-101433285D01*
X128320857Y-101385666D01*
X128463714Y-101385666D01*
X128558952Y-101433285D01*
X128606571Y-101480904D01*
X128654190Y-101576142D01*
X128654190Y-101957095D01*
X129130380Y-100433285D02*
X129130380Y-101004714D01*
X129130380Y-100719000D02*
X128130380Y-100719000D01*
X128273238Y-100814238D01*
X128368476Y-100909476D01*
X128416095Y-101004714D01*
%TO.C,R2*%
X126336380Y-101475166D02*
X125860190Y-101808500D01*
X126336380Y-102046595D02*
X125336380Y-102046595D01*
X125336380Y-101665642D01*
X125384000Y-101570404D01*
X125431619Y-101522785D01*
X125526857Y-101475166D01*
X125669714Y-101475166D01*
X125764952Y-101522785D01*
X125812571Y-101570404D01*
X125860190Y-101665642D01*
X125860190Y-102046595D01*
X125431619Y-101094214D02*
X125384000Y-101046595D01*
X125336380Y-100951357D01*
X125336380Y-100713261D01*
X125384000Y-100618023D01*
X125431619Y-100570404D01*
X125526857Y-100522785D01*
X125622095Y-100522785D01*
X125764952Y-100570404D01*
X126336380Y-101141833D01*
X126336380Y-100522785D01*
%TO.C,U2*%
X138700095Y-95170380D02*
X138700095Y-95979904D01*
X138747714Y-96075142D01*
X138795333Y-96122761D01*
X138890571Y-96170380D01*
X139081047Y-96170380D01*
X139176285Y-96122761D01*
X139223904Y-96075142D01*
X139271523Y-95979904D01*
X139271523Y-95170380D01*
X139700095Y-95265619D02*
X139747714Y-95218000D01*
X139842952Y-95170380D01*
X140081047Y-95170380D01*
X140176285Y-95218000D01*
X140223904Y-95265619D01*
X140271523Y-95360857D01*
X140271523Y-95456095D01*
X140223904Y-95598952D01*
X139652476Y-96170380D01*
X140271523Y-96170380D01*
%TO.C,SW2*%
X149626666Y-109610761D02*
X149769523Y-109658380D01*
X150007619Y-109658380D01*
X150102857Y-109610761D01*
X150150476Y-109563142D01*
X150198095Y-109467904D01*
X150198095Y-109372666D01*
X150150476Y-109277428D01*
X150102857Y-109229809D01*
X150007619Y-109182190D01*
X149817142Y-109134571D01*
X149721904Y-109086952D01*
X149674285Y-109039333D01*
X149626666Y-108944095D01*
X149626666Y-108848857D01*
X149674285Y-108753619D01*
X149721904Y-108706000D01*
X149817142Y-108658380D01*
X150055238Y-108658380D01*
X150198095Y-108706000D01*
X150531428Y-108658380D02*
X150769523Y-109658380D01*
X150960000Y-108944095D01*
X151150476Y-109658380D01*
X151388571Y-108658380D01*
X151721904Y-108753619D02*
X151769523Y-108706000D01*
X151864761Y-108658380D01*
X152102857Y-108658380D01*
X152198095Y-108706000D01*
X152245714Y-108753619D01*
X152293333Y-108848857D01*
X152293333Y-108944095D01*
X152245714Y-109086952D01*
X151674285Y-109658380D01*
X152293333Y-109658380D01*
%TD*%
M02*
