%TF.GenerationSoftware,KiCad,Pcbnew,(5.1.10)-1*%
%TF.CreationDate,2021-07-17T22:11:59-07:00*%
%TF.ProjectId,twokey,74776f6b-6579-42e6-9b69-6361645f7063,rev?*%
%TF.SameCoordinates,Original*%
%TF.FileFunction,Profile,NP*%
%FSLAX46Y46*%
G04 Gerber Fmt 4.6, Leading zero omitted, Abs format (unit mm)*
G04 Created by KiCad (PCBNEW (5.1.10)-1) date 2021-07-17 22:11:59*
%MOMM*%
%LPD*%
G01*
G04 APERTURE LIST*
%TA.AperFunction,Profile*%
%ADD10C,0.050000*%
%TD*%
%TA.AperFunction,Profile*%
%ADD11C,0.100000*%
%TD*%
G04 APERTURE END LIST*
D10*
X167640000Y-87630000D02*
X115570000Y-87630000D01*
X167640000Y-88900000D02*
X167640000Y-87630000D01*
X167640000Y-127635000D02*
X167640000Y-88900000D01*
X115570000Y-127635000D02*
X167640000Y-127635000D01*
X115570000Y-87630000D02*
X115570000Y-127635000D01*
D11*
%TO.C,J1*%
X123042000Y-96718000D02*
X122742000Y-96718000D01*
X122742000Y-96068000D02*
X123042000Y-96068000D01*
X122252000Y-88893000D02*
X122252000Y-89493000D01*
X121752000Y-89493000D02*
X121752000Y-88893000D01*
X131232000Y-88893000D02*
X131232000Y-89493000D01*
X130732000Y-89493000D02*
X130732000Y-88893000D01*
X122612000Y-94843000D02*
X122612000Y-95443000D01*
X122112000Y-95443000D02*
X122112000Y-94843000D01*
X130872000Y-94843000D02*
X130872000Y-95443000D01*
X130372000Y-95443000D02*
X130372000Y-94843000D01*
X130872000Y-95443000D02*
G75*
G02*
X130622000Y-95693000I-250000J0D01*
G01*
X130622000Y-95693000D02*
G75*
G02*
X130372000Y-95443000I0J250000D01*
G01*
X130372000Y-94843000D02*
G75*
G02*
X130622000Y-94593000I250000J0D01*
G01*
X130622000Y-94593000D02*
G75*
G02*
X130872000Y-94843000I0J-250000D01*
G01*
X122612000Y-95443000D02*
G75*
G02*
X122362000Y-95693000I-250000J0D01*
G01*
X122362000Y-95693000D02*
G75*
G02*
X122112000Y-95443000I0J250000D01*
G01*
X122112000Y-94843000D02*
G75*
G02*
X122362000Y-94593000I250000J0D01*
G01*
X122362000Y-94593000D02*
G75*
G02*
X122612000Y-94843000I0J-250000D01*
G01*
X131232000Y-89493000D02*
G75*
G02*
X130982000Y-89743000I-250000J0D01*
G01*
X130982000Y-89743000D02*
G75*
G02*
X130732000Y-89493000I0J250000D01*
G01*
X130732000Y-88893000D02*
G75*
G02*
X130982000Y-88643000I250000J0D01*
G01*
X130982000Y-88643000D02*
G75*
G02*
X131232000Y-88893000I0J-250000D01*
G01*
X122252000Y-89493000D02*
G75*
G02*
X122002000Y-89743000I-250000J0D01*
G01*
X122002000Y-89743000D02*
G75*
G02*
X121752000Y-89493000I0J250000D01*
G01*
X121752000Y-88893000D02*
G75*
G02*
X122002000Y-88643000I250000J0D01*
G01*
X122002000Y-88643000D02*
G75*
G02*
X122252000Y-88893000I0J-250000D01*
G01*
X122742000Y-96718000D02*
G75*
G02*
X122742000Y-96068000I0J325000D01*
G01*
X123042000Y-96068000D02*
G75*
G02*
X123042000Y-96718000I0J-325000D01*
G01*
%TD*%
M02*
